<?xml version="1.0" encoding="utf-8"?>
<!-- Generator: Adobe Illustrator 19.2.1, SVG Export Plug-In . SVG Version: 6.00 Build 0)  -->
<svg version="1.1" id="Layer_1" xmlns="http://www.w3.org/2000/svg" xmlns:xlink="http://www.w3.org/1999/xlink" x="0px" y="0px"
	 viewBox="0 0 36.4 35.1" style="enable-background:new 0 0 36.4 35.1;" xml:space="preserve">
<style type="text/css">
	.st0{fill-rule:evenodd;clip-rule:evenodd;fill:#FFFFFF;}
</style>
<path class="st0" d="M18.2,0c0.2,0,0.2,0.1,0.2,0.2c0.1,0.3,0.3,0.5,0.4,0.8c0.2,0,0.2,0.1,0.2,0.2c0,0.1,0,0.1,0,0.2
	c0.2,0,0.2,0.1,0.2,0.2c-0.1,0.2,0.2,0.1,0.2,0.2c0,0.1,0,0.3,0,0.4c0.2,0,0.2,0.2,0.4,0.2c0,0.1,0,0.3,0,0.4
	C20,2.7,19.9,2.9,20,2.9C20,3,20,3.2,20.2,3.1c-0.1,0.5,0.4,0.4,0.4,0.8c0.1,0.3,0.3,0.5,0.4,0.8c0.1,0.3,0.3,0.5,0.4,0.8
	c0.2,0,0.2,0.1,0.2,0.2c0,0.1,0,0.1,0,0.2c0.1,0,0.3-0.1,0.4,0c0,0,0,0.2,0,0.2c0.2,0,0.2-0.1,0.2-0.2c0.1,0,0.3,0,0.4,0
	c0-0.2,0.1-0.2,0.2-0.2c0.1,0,0.1,0,0.2,0c0-0.2,0.1-0.2,0.2-0.2c0.2,0,0.2-0.2,0.4-0.2c0.2,0.1,0.1-0.2,0.2-0.2c0.1,0,0.3,0,0.4,0
	c0-0.2,0.1-0.2,0.2-0.2c0.2-0.1,0.4-0.2,0.4-0.4c0.1,0,0.3,0.1,0.4,0c0,0,0-0.2,0-0.2c0.2,0,0.2,0.1,0.2,0.2c0,0.1,0,0.3,0,0.4
	c0,0.2-0.1,0.2-0.2,0.2c0,0.1,0,0.3,0,0.4c0,0.2,0,0.5,0,0.8c0,0-0.2,0-0.2,0c-0.1,0.1,0.1,0.5,0,0.6c0,0.3,0.1,0.5,0,0.8
	c0,0-0.2,0-0.2,0c-0.1,0.1,0.1,0.5,0,0.6c0,0.3,0,0.5-0.2,0.6c0,0.3,0,0.5,0,0.8c0,0.3,0,0.6-0.2,0.6c0,0.3,0,0.5,0,0.8
	c-0.1,0.5-0.3,0.7-0.2,1.4c-0.1,0.5-0.3,0.7-0.2,1.4c-0.2,0-0.2,0.1-0.2,0.2c0,0.1,0,0.3,0,0.4c0,0.2,0.2,0.2,0.2,0.4
	c0.2-0.1,0.6,0.1,0.8,0c0,0,0-0.2,0-0.2c0.1-0.1,0.3,0,0.2-0.2c0.3-0.1,0.5-0.3,0.6-0.6c0.3-0.1,0.5-0.3,0.6-0.6
	c0.3-0.1,0.5-0.3,0.6-0.6c0.3-0.6,0.9-0.8,1.2-1.4c0.3-0.1,0.5-0.3,0.6-0.6c0.3-0.1,0.5-0.3,0.6-0.6c0.2,0,0.2,0.1,0.2,0.2
	c0,0.2,0.2,0.2,0.2,0.4c0,0.1,0.2,0.2,0.2,0.4c-0.1,0.2,0.2,0.2,0.2,0.2c0,0.1,0,0.3,0,0.4c0.2,0,0.2,0.1,0.2,0.2
	c-0.1,0.2,0.2,0.1,0.2,0.2c0,0.1,0,0.3,0,0.4c0.2,0,0.2,0.1,0.2,0.2c0,0.1,0,0.1,0,0.2c0.2,0,0.2,0.1,0.2,0.2c0.3,0,0.5,0,0.8,0
	c0-0.2,0.1-0.2,0.2-0.2c0.1,0,0.3,0,0.4,0c0.2,0,0.2-0.1,0.2-0.2c0.1,0,0.3,0,0.4,0c0.1,0,0.3,0,0.4,0c0-0.2,0.1-0.2,0.2-0.2
	c0.2,0,0.4,0,0.6,0c0,0,0-0.2,0-0.2c0.1-0.1,0.5,0.1,0.6,0c0.2,0,0.2-0.1,0.2-0.2c0.1,0,0.3,0,0.4,0c0.1,0,0.3,0.1,0.4,0
	c0,0,0-0.2,0-0.2c0.2,0,0.2,0.1,0.2,0.2c0,0.1,0.1,0.3,0,0.4c0,0-0.2,0-0.2,0c0,0.3,0,0.5,0,0.8c-0.2,0-0.2,0.1-0.2,0.2
	c0,0.1,0,0.1,0,0.2c0,0.2-0.1,0.2-0.2,0.2c0,0.3,0,0.6-0.2,0.6c0,0.3,0.1,0.7-0.2,0.8c0,0.3,0,0.6-0.2,0.6c0,0.2,0,0.5,0,0.8
	c0,0-0.2,0-0.2,0c-0.1,0.1,0.1,0.5,0,0.6c0,0.7,0.6,0.7,1,1c0,0.2,0.1,0.2,0.2,0.2c0.1,0,0.1,0,0.2,0c0,0.2,0.1,0.2,0.2,0.2
	c0.3,0.1,0.3,0.3,0.6,0.4c-0.1,0.3-0.3,0.5-0.6,0.6c-0.3,0.1-0.3,0.3-0.6,0.4c-0.1,0.3-0.3,0.5-0.6,0.6c-0.3,0.1-0.3,0.3-0.6,0.4
	c-0.1,0.3-0.3,0.5-0.6,0.6c-0.3,0.1-0.3,0.3-0.6,0.4c-0.1,0.3-0.4,0.3-0.4,0.6c-0.3,0-0.5,0.2-0.6,0.4c-0.4,0-0.3,0.5-0.8,0.4
	c-0.1,0.3-0.3,0.3-0.4,0.6c-0.3,0.1-0.3,0.3-0.6,0.4c-0.3,0.1-0.3,0.3-0.6,0.4c-0.1,0.3-0.3,0.5-0.6,0.6c-0.3,0.1-0.3,0.4-0.6,0.4
	c-0.1,0.3-0.3,0.3-0.4,0.6c-0.3,0-0.5,0.1-0.6,0.4c0,0.2,0,0.4,0,0.6c0,0.2,0.2,0.2,0.2,0.4c0,0.4,0.2,0.4,0.2,0.8
	c0,0.2,0.2,0.2,0.2,0.4c0,0.1,0,0.3,0,0.4c0.2,0,0.2,0.1,0.2,0.2c0,0.1,0,0.1,0,0.2c0,0.2,0.1,0.2,0.2,0.2c-0.2,0.6-0.6-0.1-1,0
	c-0.4,0-0.8,0-1.2,0c0-0.2-0.1-0.2-0.2-0.2c-0.1,0-0.3,0-0.4,0c-0.2,0-0.4,0-0.6,0c-0.2,0-0.2-0.2-0.4-0.2c-0.2,0-0.4,0-0.6,0
	c-0.6,0.1-0.6-0.3-1.2-0.2c-0.2,0-0.4,0-0.6,0c-0.2,0-0.2-0.2-0.4-0.2c-0.3,0-0.5,0-0.8,0c-0.2,0-0.2-0.2-0.4-0.2
	c-0.4,0-0.8,0-1.2,0c0,0.2-0.2,0.2-0.2,0.4c0,0.1,0,0.3,0,0.4c0,0.3,0,0.5,0,0.8c0,0.5,0,1,0,1.6c0,1.1,0,2.2,0,3.3
	c-0.7,0-1.5,0-2.2,0c0-0.5,0-1,0-1.6c-0.1-0.6,0.1-0.9,0.2-1.4c0-1.1,0-2.2,0-3.3c-0.2,0-0.2-0.1-0.2-0.2c-0.1,0-0.3,0-0.4,0
	c-0.2,0-0.4,0-0.6,0c-0.6-0.1-0.6,0.3-1.2,0.2c-0.6-0.1-0.6,0.3-1.2,0.2c-0.2,0-0.4,0-0.6,0c-0.2,0-0.2,0.2-0.4,0.2
	c-0.3,0-0.5,0-0.8,0c-0.2,0-0.2,0.2-0.4,0.2c-0.4,0-0.8,0-1.2,0c0,0.2-0.1,0.2-0.2,0.2c-0.1,0-0.3,0-0.4,0c-0.2,0-0.4,0-0.6,0
	c-0.5-0.1-0.4,0.4-1,0.2c0-0.4,0.2-0.4,0.2-0.8c0-0.2,0.2-0.2,0.2-0.4c0-0.1,0-0.3,0-0.4c0.2,0,0.2-0.1,0.2-0.2c0-0.1,0-0.1,0-0.2
	c0-0.2,0.1-0.2,0.2-0.2c0-0.2,0-0.4,0-0.6c0.2,0,0.2-0.1,0.2-0.2C9,26.5,8.8,26.3,8.7,26c-0.3-0.1-0.3-0.3-0.6-0.4
	c0-0.2-0.1-0.2-0.2-0.2c-0.1,0-0.1,0-0.2,0c0-0.2-0.2-0.2-0.2-0.4c-0.3-0.1-0.3-0.3-0.6-0.4c0-0.2-0.1-0.2-0.2-0.2
	c-0.1,0-0.1,0-0.2,0c0-0.2-0.2-0.2-0.2-0.4C6.1,24,6,23.7,5.7,23.7c0-0.2-0.1-0.2-0.2-0.2c-0.2-0.1-0.4-0.2-0.4-0.4
	c-0.3-0.1-0.3-0.3-0.6-0.4c-0.5-0.2-0.7-0.8-1.2-1c0-0.2-0.1-0.2-0.2-0.2c-0.2-0.1-0.3-0.2-0.4-0.4c-0.3-0.1-0.3-0.3-0.6-0.4
	c-0.5-0.2-0.7-0.8-1.2-1c-0.3-0.1-0.5-0.3-0.6-0.6C0.2,19.1,0,18.9,0,18.6c0.4,0,0.4-0.2,0.8-0.2C0.9,18.2,1,18.1,1.2,18
	c0.4-0.2,0.8-0.3,1-0.8c0-0.2,0-0.4,0-0.6C2,16.7,2,16.6,2,16.5c0-0.3,0-0.6-0.2-0.6c0-0.2,0-0.4,0-0.6c-0.2,0-0.2-0.1-0.2-0.2
	c0-0.1,0-0.3,0-0.4c-0.2,0-0.2-0.1-0.2-0.2c0-0.4-0.2-0.4-0.2-0.8c0-0.1,0-0.3,0-0.4C1,13.4,1,13.2,1,13.1c0-0.1,0-0.3,0-0.4
	c-0.2,0-0.2-0.1-0.2-0.2c0-0.3,0-0.6-0.2-0.6c0-0.2,0.1-0.2,0.2-0.2C1,11.7,1,11.8,1,11.9c0.3,0,0.5,0,0.8,0c0,0.2,0.1,0.2,0.2,0.2
	c0.1,0,0.3,0,0.4,0c0.2,0,0.2,0.1,0.2,0.2c0.1,0,0.3,0,0.4,0c0.1,0,0.3,0,0.4,0c0,0.2,0.1,0.2,0.2,0.2c0.3,0,0.6,0,0.6,0.2
	c0.3,0,0.6,0,0.6,0.2c0.3,0,0.5,0,0.8,0c0.2,0,0.2-0.1,0.2-0.2c0-0.2,0.2-0.2,0.2-0.4c-0.1-0.2,0.2-0.1,0.2-0.2c0-0.1,0-0.3,0-0.4
	c0.2,0,0.2-0.1,0.2-0.2c-0.1-0.2,0.2-0.1,0.2-0.2c0-0.1,0-0.3,0-0.4c0.2,0,0.2-0.2,0.4-0.2c0-0.2,0-0.4,0-0.6c0.2,0,0.2-0.1,0.2-0.2
	c0.6,0.3,0.8,0.9,1.4,1.2c0,0.8,0.8,0.8,1,1.4c0.2-0.1,0.1,0.2,0.2,0.2c0,0,0.2,0,0.2,0c0,0,0,0.2,0,0.2c0,0,0.2,0,0.2,0
	c0,0,0,0.2,0,0.2c0,0,0.2,0,0.2,0c0,0,0,0.2,0,0.2c0,0,0.2,0,0.2,0c0,0,0,0.2,0,0.2c0.1,0.1,0.3,0,0.2,0.2c0.6,0.2,0.6,1,1.4,1
	c0.2-0.1,0.3-0.2,0.4-0.4c0.1-0.2-0.1-0.5,0-0.8c0-0.2-0.1-0.2-0.2-0.2c0-0.1,0-0.3,0-0.4c0-0.3,0-0.5,0-0.8c0-0.2-0.1-0.2-0.2-0.2
	c0-0.1,0-0.3,0-0.4c0-0.3,0-0.5,0-0.8c0-0.2-0.1-0.2-0.2-0.2c0-0.1,0-0.3,0-0.4c0-0.2,0-0.4,0-0.6c0-0.2-0.1-0.2-0.2-0.2
	c0-0.1,0-0.3,0-0.4c0-0.3,0-0.5,0-0.8c0-0.2-0.1-0.2-0.2-0.2c0-0.1,0-0.3,0-0.4c0-0.2,0-0.4,0-0.6c0-0.1,0-0.3,0-0.4
	c-0.2,0-0.2-0.1-0.2-0.2c0-0.3,0-0.5,0-0.8c0-0.2-0.1-0.2-0.2-0.2c0-0.1,0-0.3,0-0.4c0-0.2,0-0.4,0-0.6c0.1,0,0.3,0,0.4,0
	c0,0.2,0.1,0.2,0.2,0.2c0.1,0,0.1,0,0.2,0c0,0.2,0.1,0.2,0.2,0.2c0.1,0,0.1,0,0.2,0c0,0.2,0.1,0.2,0.2,0.2c0.1,0,0.1,0,0.2,0
	c-0.1,0.2,0.1,0.1,0.2,0.2c0.1,0.1,0.2,0,0.2,0.2c0.1,0,0.3,0,0.4,0c0.1,0.2,0.2,0.3,0.4,0.4c0.1,0,0.3-0.1,0.4,0c0,0,0,0.2,0,0.2
	c0.3-0.2,0.6-0.3,0.6-0.8c0.2,0,0.2-0.2,0.4-0.2c0-0.1,0-0.3,0-0.4c0.2,0,0.1-0.3,0.2-0.4c0,0,0.2,0,0.2,0c0,0,0-0.2,0-0.2
	c0.1-0.1,0.3,0,0.2-0.2c0.1-0.3,0.3-0.5,0.4-0.8c0.1-0.2,0.2-0.3,0.4-0.4c0-0.1,0-0.3,0-0.4c0.2,0,0.2-0.1,0.2-0.2
	c0-0.1,0-0.1,0-0.2C17,2,17,1.9,17,1.8c0-0.1,0-0.1,0-0.2c0.4-0.1,0.4-0.5,0.6-0.8c-0.1-0.2,0.2-0.1,0.2-0.2c0,0,0-0.2,0-0.2
	c0.1-0.1,0.2,0,0.2-0.2C18,0,18,0,18.2,0z"/>
</svg>
