<?xml version="1.0" encoding="utf-8"?>
<!-- Generator: Adobe Illustrator 19.2.1, SVG Export Plug-In . SVG Version: 6.00 Build 0)  -->
<svg version="1.1" id="Layer_1" xmlns="http://www.w3.org/2000/svg" xmlns:xlink="http://www.w3.org/1999/xlink" x="0px" y="0px"
	 viewBox="0 0 38.9 29.2" style="enable-background:new 0 0 38.9 29.2;" xml:space="preserve">
<style type="text/css">
	.st0{fill:#AF1F24;}
</style>
<g>
	<path class="st0" d="M34.1,0H4.9C2.2,0,0,2.2,0,4.9v19.5c0,2.7,2.2,4.9,4.9,4.9h29.2c2.7,0,4.9-2.2,4.9-4.9V4.9
		C38.9,2.2,36.8,0,34.1,0L34.1,0z M26.1,13l10.3-8.8c0.1,0.2,0.1,0.5,0.1,0.7v19.5c0,0.2-0.1,0.3-0.1,0.5L26.1,13z M34.1,2.4
		c0.2,0,0.3,0.1,0.5,0.1L19.5,15.4L4.4,2.5c0.2,0,0.3-0.1,0.5-0.1H34.1z M2.5,24.8c0-0.2-0.1-0.3-0.1-0.5V4.9c0-0.3,0.1-0.5,0.1-0.7
		L12.9,13L2.5,24.8z M4.9,26.8c-0.2,0-0.5-0.1-0.7-0.1l10.6-12.1l4,3.4c0.2,0.2,0.5,0.3,0.8,0.3c0.3,0,0.6-0.1,0.8-0.3l3.9-3.4
		l10.6,12.1c-0.2,0.1-0.4,0.1-0.7,0.1H4.9z M4.9,26.8"/>
</g>
</svg>
