<?xml version="1.0" encoding="utf-8"?>
<!-- Generator: Adobe Illustrator 19.2.1, SVG Export Plug-In . SVG Version: 6.00 Build 0)  -->
<svg version="1.1" id="Layer_1" xmlns="http://www.w3.org/2000/svg" xmlns:xlink="http://www.w3.org/1999/xlink" x="0px" y="0px"
	 viewBox="0 0 85.1 106.2" style="enable-background:new 0 0 85.1 106.2;" xml:space="preserve">
<style type="text/css">
	.st0{fill:#0D73BB;}
	.st1{fill:#FFFFFF;}
	.st2{fill:none;stroke:#FEDC00;stroke-width:1.8925;stroke-miterlimit:10;}
</style>
<g>
	<circle class="st0" cx="42.5" cy="42.5" r="42.5"/>
	<polygon class="st0" points="66.2,55.6 66.2,106.2 43.9,97.1 19.2,106.2 19.2,59.2 	"/>
	<g>
		<path class="st1" d="M33.1,34.3l-5.9,1.2l-1.9-6.8l10.3-2.6h7.1v31.8h-9.6V34.3z"/>
		<path class="st1" d="M47.8,34l1.2-1.6c1.1,0.7,2.2,1,3.1,1c0.8,0,1.2-0.3,1.2-0.7v0c0-0.5-0.9-0.7-2-1c-1.4-0.4-2.9-0.9-2.9-2.6v0
			c0-1.8,1.6-2.8,3.6-2.8c1.2,0,2.6,0.4,3.6,1L54.5,29c-1-0.5-1.9-0.8-2.6-0.8c-0.7,0-1,0.3-1,0.6v0c0,0.5,0.9,0.7,2,1
			c1.4,0.4,2.9,1,2.9,2.6v0c0,1.9-1.6,2.8-3.7,2.8C50.6,35.4,49.1,34.9,47.8,34z"/>
		<path class="st1" d="M58.4,32.7v-4.2h-1.2v-2.1h1.2v-2.2h2.8v2.2h2.3v2.1h-2.3v3.7c0,0.6,0.3,0.9,0.9,0.9c0.5,0,1-0.1,1.4-0.3v2
			c-0.6,0.3-1.3,0.5-2.2,0.5C59.6,35.3,58.4,34.7,58.4,32.7z"/>
	</g>
	<circle class="st2" cx="42.5" cy="42.5" r="35.2"/>
</g>
</svg>
