<?xml version="1.0" encoding="utf-8"?>
<!-- Generator: Adobe Illustrator 19.2.1, SVG Export Plug-In . SVG Version: 6.00 Build 0)  -->
<svg version="1.1" id="Layer_1" xmlns="http://www.w3.org/2000/svg" xmlns:xlink="http://www.w3.org/1999/xlink" x="0px" y="0px"
	 viewBox="0 0 102.5 1437.1" style="enable-background:new 0 0 102.5 1437.1;" xml:space="preserve">
<style type="text/css">
	.st0{opacity:0.2;}
	.st1{fill:#231F20;}
</style>
<g class="st0">
	<g>
		<g>
			<path class="st1" d="M42.4,774.9v-14.8l-13-7.5l-13.1,7.5v15.4l13.1,7.1L42.4,774.9z M16.8,775.3v-14.9l12.6-7.2l12.5,7.3v14.2
				l-12.5,7.4L16.8,775.3z"/>
			<path class="st1" d="M71.4,774.9v-14.8l-13-7.5l-13.1,7.5v15.4l13.1,7.1L71.4,774.9z M45.8,775.3v-14.9l12.6-7.2l12.5,7.3v14.2
				l-12.5,7.4L45.8,775.3z"/>
			<path class="st1" d="M100.5,774.9v-14.8l-13-7.5l-13.1,7.5v15.4l13.1,7.1L100.5,774.9z M74.8,775.3v-14.9l12.6-7.2l12.5,7.3v14.2
				l-12.5,7.4L74.8,775.3z"/>
			<path class="st1" d="M42.4,811l-13-7.5L16.3,811v15.4l13.1,7.1l13-7.7V811z M41.9,825.5L29.4,833l-12.6-6.8v-14.9l12.6-7.2
				l12.5,7.3V825.5z"/>
			<path class="st1" d="M71.4,825.8V811l-13-7.5L45.3,811v15.4l13.1,7.1L71.4,825.8z M45.8,826.2v-14.9l12.6-7.2l12.5,7.3v14.2
				L58.4,833L45.8,826.2z"/>
			<path class="st1" d="M100.5,825.8V811l-13-7.5L74.4,811v15.4l13.1,7.1L100.5,825.8z M74.8,826.2v-14.9l12.6-7.2l12.5,7.3v14.2
				L87.5,833L74.8,826.2z"/>
			<path class="st1" d="M42.4,862l-12.9-7.5l-0.1-0.1l-13.1,7.5v15.4l13,7l0.1,0.1l13-7.7V862z M41.9,876.5l-12.5,7.4l-12.6-6.8
				v-14.9l12.6-7.2l12.5,7.2V876.5z"/>
			<path class="st1" d="M71.4,862l-12.9-7.5l-0.1-0.1l-13.1,7.5v15.4l13,7l0.1,0.1l13-7.7V862z M71,876.5l-12.5,7.4l-12.6-6.8v-14.9
				l12.6-7.2l12.5,7.2V876.5z"/>
			<path class="st1" d="M100.5,862l-12.9-7.5l-0.1-0.1l-13.1,7.5v15.4l13,7l0.1,0.1l13-7.7V862z M100,876.5l-12.5,7.4l-12.6-6.8
				v-14.9l12.6-7.2l12.5,7.2V876.5z"/>
			<path class="st1" d="M30.5,800.8l13.1,7.1l13-7.7v-14.8l-13-7.5l-13.1,7.5V800.8z M31,785.6l12.6-7.2l12.5,7.3v14.2l-12.5,7.4
				L31,800.5V785.6z"/>
			<path class="st1" d="M26.1,800.1v-14.8l-13-7.5L0,785.3v15.4l13.1,7.1L26.1,800.1z M0.5,800.5v-14.9l12.6-7.2l12.5,7.3v14.2
				l-12.5,7.4L0.5,800.5z"/>
			<path class="st1" d="M59.5,800.8l13.1,7.1l13-7.7v-14.8l-13-7.5l-13.1,7.5V800.8z M60,785.6l12.6-7.2l12.5,7.3v14.2l-12.5,7.4
				L60,800.5V785.6z"/>
			<polygon class="st1" points="102.5,806.8 101.7,807.3 89,800.5 89,785.6 101.7,778.4 102.5,778.9 102.5,778.3 101.7,777.9 
				88.6,785.3 88.6,800.8 101.7,807.8 102.5,807.3 			"/>
			<path class="st1" d="M43.6,858.7l13-7.7v-14.8l-13-7.5l-13.1,7.5v15.4l13,7L43.6,858.7z M31,836.5l12.6-7.2l12.5,7.2v14.2
				l-12.5,7.4L31,851.4V836.5z"/>
			<path class="st1" d="M13.1,858.7l13-7.7v-14.8l-13-7.5L0,836.2v15.4l13,7L13.1,858.7z M0.5,836.5l12.6-7.2l12.5,7.2v14.2
				l-12.5,7.4l-12.6-6.8V836.5z"/>
			<path class="st1" d="M72.6,858.7l13-7.7v-14.8l-13-7.5l-13.1,7.5v15.4l13,7L72.6,858.7z M60,836.5l12.6-7.2l12.5,7.2v14.2
				l-12.5,7.4L60,851.4V836.5z"/>
			<polygon class="st1" points="102.5,857.7 101.7,858.2 89,851.4 89,836.5 101.7,829.3 102.5,829.8 102.5,829.2 101.7,828.7 
				88.6,836.2 88.6,851.7 101.6,858.6 101.7,858.7 102.5,858.2 			"/>
			<path class="st1" d="M43.6,879.7l-13.1,7.5v15.4l13,7l0.1,0.1l13-7.7v-14.8l-12.9-7.5L43.6,879.7z M56.1,901.7l-12.5,7.4
				L31,902.3v-14.9l12.6-7.2l12.5,7.3V901.7z"/>
			<path class="st1" d="M13.1,879.7L0,887.1v15.4l13,7l0.1,0.1l13-7.7v-14.8l-12.9-7.5L13.1,879.7z M25.6,901.7l-12.5,7.4l-12.6-6.8
				v-14.9l12.6-7.2l12.5,7.3V901.7z"/>
			<path class="st1" d="M72.6,879.7l-13.1,7.5v15.4l13,7l0.1,0.1l13-7.7v-14.8l-12.9-7.5L72.6,879.7z M85.2,901.7l-12.5,7.4
				L60,902.3v-14.9l12.6-7.2l12.5,7.3V901.7z"/>
			<polygon class="st1" points="102.5,908.6 101.7,909.1 89,902.3 89,887.4 101.7,880.2 102.5,880.7 102.5,880.1 101.8,879.7 
				101.7,879.7 88.6,887.1 88.6,902.6 101.6,909.6 101.7,909.6 102.5,909.1 			"/>
		</g>
		<g>
			<path class="st1" d="M42.4,927.6v-14.8l-13-7.5l-13.1,7.5v15.4l13.1,7.1L42.4,927.6z M16.8,927.9V913l12.6-7.2l12.5,7.3v14.2
				l-12.5,7.4L16.8,927.9z"/>
			<path class="st1" d="M71.4,927.6v-14.8l-13-7.5l-13.1,7.5v15.4l13.1,7.1L71.4,927.6z M45.8,927.9V913l12.6-7.2l12.5,7.3v14.2
				l-12.5,7.4L45.8,927.9z"/>
			<path class="st1" d="M100.5,927.6v-14.8l-13-7.5l-13.1,7.5v15.4l13.1,7.1L100.5,927.6z M74.8,927.9V913l12.6-7.2l12.5,7.3v14.2
				l-12.5,7.4L74.8,927.9z"/>
			<path class="st1" d="M42.4,963.7l-13-7.5l-13.1,7.5v15.4l13.1,7.1l13-7.7V963.7z M41.9,978.2l-12.5,7.4l-12.6-6.8v-14.9l12.6-7.2
				l12.5,7.2V978.2z"/>
			<path class="st1" d="M71.4,978.5v-14.8l-13-7.5l-13.1,7.5v15.4l13.1,7.1L71.4,978.5z M45.8,978.8v-14.9l12.6-7.2L71,964v14.2
				l-12.5,7.4L45.8,978.8z"/>
			<path class="st1" d="M100.5,978.5v-14.8l-13-7.5l-13.1,7.5v15.4l13.1,7.1L100.5,978.5z M74.8,978.8v-14.9l12.6-7.2L100,964v14.2
				l-12.5,7.4L74.8,978.8z"/>
			<path class="st1" d="M42.4,1014.6l-12.9-7.5l-0.1-0.1l-13.1,7.5v15.4l13,7l0.1,0.1l13-7.7V1014.6z M41.9,1029.1l-12.5,7.4
				l-12.6-6.8v-14.9l12.6-7.2l12.5,7.2V1029.1z"/>
			<path class="st1" d="M71.4,1014.6l-12.9-7.5l-0.1-0.1l-13.1,7.5v15.4l13,7l0.1,0.1l13-7.7V1014.6z M71,1029.1l-12.5,7.4
				l-12.6-6.8v-14.9l12.6-7.2l12.5,7.2V1029.1z"/>
			<path class="st1" d="M100.5,1014.6l-12.9-7.5l-0.1-0.1l-13.1,7.5v15.4l13,7l0.1,0.1l13-7.7V1014.6z M100,1029.1l-12.5,7.4
				l-12.6-6.8v-14.9l12.6-7.2l12.5,7.2V1029.1z"/>
			<path class="st1" d="M30.5,953.4l13.1,7.1l13-7.7V938l-13-7.5L30.5,938V953.4z M31,938.3l12.6-7.2l12.5,7.3v14.2L43.6,960
				L31,953.2V938.3z"/>
			<path class="st1" d="M26.1,952.8V938l-13-7.5L0,938v15.4l13.1,7.1L26.1,952.8z M0.5,953.2v-14.9l12.6-7.2l12.5,7.3v14.2L13.1,960
				L0.5,953.2z"/>
			<path class="st1" d="M59.5,953.4l13.1,7.1l13-7.7V938l-13-7.5L59.5,938V953.4z M60,938.3l12.6-7.2l12.5,7.3v14.2L72.6,960
				L60,953.2V938.3z"/>
			<polygon class="st1" points="102.5,959.5 101.7,960 89,953.2 89,938.3 101.7,931.1 102.5,931.5 102.5,931 101.7,930.5 88.6,938 
				88.6,953.4 101.7,960.5 102.5,960 			"/>
			<path class="st1" d="M43.6,1011.4l13-7.7v-14.8l-13-7.5l-13.1,7.5v15.4l13,7L43.6,1011.4z M31,989.1l12.6-7.2l12.5,7.3v14.2
				l-12.5,7.4L31,1004V989.1z"/>
			<path class="st1" d="M13.1,1011.4l13-7.7v-14.8l-13-7.5L0,988.9v15.4l13,7L13.1,1011.4z M0.5,989.1l12.6-7.2l12.5,7.3v14.2
				l-12.5,7.4L0.5,1004V989.1z"/>
			<path class="st1" d="M72.6,1011.4l13-7.7v-14.8l-13-7.5l-13.1,7.5v15.4l13,7L72.6,1011.4z M60,989.1l12.6-7.2l12.5,7.3v14.2
				l-12.5,7.4L60,1004V989.1z"/>
			<polygon class="st1" points="102.5,1010.3 101.7,1010.8 89,1004 89,989.1 101.7,981.9 102.5,982.4 102.5,981.9 101.7,981.4 
				88.6,988.9 88.6,1004.3 101.6,1011.3 101.7,1011.4 102.5,1010.9 			"/>
			<path class="st1" d="M43.6,1032.3l-13.1,7.5v15.4l13,7l0.1,0.1l13-7.7v-14.8l-12.9-7.5L43.6,1032.3z M56.1,1054.3l-12.5,7.4
				L31,1055v-14.9l12.6-7.2l12.5,7.2V1054.3z"/>
			<path class="st1" d="M13.1,1032.3L0,1039.8v15.4l13,7l0.1,0.1l13-7.7v-14.8l-12.9-7.5L13.1,1032.3z M25.6,1054.3l-12.5,7.4
				L0.5,1055v-14.9l12.6-7.2l12.5,7.2V1054.3z"/>
			<path class="st1" d="M72.6,1032.3l-13.1,7.5v15.4l13,7l0.1,0.1l13-7.7v-14.8l-12.9-7.5L72.6,1032.3z M85.2,1054.3l-12.5,7.4
				L60,1055v-14.9l12.6-7.2l12.5,7.2V1054.3z"/>
			<polygon class="st1" points="102.5,1061.3 101.7,1061.8 89,1055 89,1040.1 101.7,1032.9 102.5,1033.3 102.5,1032.8 101.8,1032.4 
				101.7,1032.3 88.6,1039.8 88.6,1055.2 101.6,1062.2 101.7,1062.3 102.5,1061.8 			"/>
		</g>
		<g>
			<path class="st1" d="M42.4,1080.1v-14.8l-13-7.5l-13.1,7.5v15.4l13.1,7.1L42.4,1080.1z M16.8,1080.4v-14.9l12.6-7.2l12.5,7.3
				v14.2l-12.5,7.4L16.8,1080.4z"/>
			<path class="st1" d="M71.4,1080.1v-14.8l-13-7.5l-13.1,7.5v15.4l13.1,7.1L71.4,1080.1z M45.8,1080.4v-14.9l12.6-7.2l12.5,7.3
				v14.2l-12.5,7.4L45.8,1080.4z"/>
			<path class="st1" d="M100.5,1080.1v-14.8l-13-7.5l-13.1,7.5v15.4l13.1,7.1L100.5,1080.1z M74.8,1080.4v-14.9l12.6-7.2l12.5,7.3
				v14.2l-12.5,7.4L74.8,1080.4z"/>
			<path class="st1" d="M42.4,1116.2l-13-7.5l-13.1,7.5v15.4l13.1,7.1l13-7.7V1116.2z M41.9,1130.7l-12.5,7.4l-12.6-6.8v-14.9
				l12.6-7.2l12.5,7.3V1130.7z"/>
			<path class="st1" d="M71.4,1131v-14.8l-13-7.5l-13.1,7.5v15.4l13.1,7.1L71.4,1131z M45.8,1131.3v-14.9l12.6-7.2l12.5,7.3v14.2
				l-12.5,7.4L45.8,1131.3z"/>
			<path class="st1" d="M100.5,1131v-14.8l-13-7.5l-13.1,7.5v15.4l13.1,7.1L100.5,1131z M74.8,1131.3v-14.9l12.6-7.2l12.5,7.3v14.2
				l-12.5,7.4L74.8,1131.3z"/>
			<path class="st1" d="M42.4,1167.1l-12.9-7.5l-0.1-0.1l-13.1,7.5v15.4l13,7l0.1,0.1l13-7.7V1167.1z M41.9,1181.6l-12.5,7.4
				l-12.6-6.8v-14.9l12.6-7.2l12.5,7.2V1181.6z"/>
			<path class="st1" d="M71.4,1167.1l-12.9-7.5l-0.1-0.1l-13.1,7.5v15.4l13,7l0.1,0.1l13-7.7V1167.1z M71,1181.6l-12.5,7.4
				l-12.6-6.8v-14.9l12.6-7.2l12.5,7.2V1181.6z"/>
			<path class="st1" d="M100.5,1167.1l-12.9-7.5l-0.1-0.1l-13.1,7.5v15.4l13,7l0.1,0.1l13-7.7V1167.1z M100,1181.6l-12.5,7.4
				l-12.6-6.8v-14.9l12.6-7.2l12.5,7.2V1181.6z"/>
			<path class="st1" d="M30.5,1105.9l13.1,7.1l13-7.7v-14.8l-13-7.5l-13.1,7.5V1105.9z M31,1090.7l12.6-7.2l12.5,7.3v14.2l-12.5,7.4
				l-12.6-6.8V1090.7z"/>
			<path class="st1" d="M26.1,1105.3v-14.8l-13-7.5L0,1090.5v15.4l13.1,7.1L26.1,1105.3z M0.5,1105.6v-14.9l12.6-7.2l12.5,7.3v14.2
				l-12.5,7.4L0.5,1105.6z"/>
			<path class="st1" d="M59.5,1105.9l13.1,7.1l13-7.7v-14.8l-13-7.5l-13.1,7.5V1105.9z M60,1090.7l12.6-7.2l12.5,7.3v14.2l-12.5,7.4
				l-12.6-6.8V1090.7z"/>
			<polygon class="st1" points="102.5,1112 101.7,1112.5 89,1105.6 89,1090.7 101.7,1083.6 102.5,1084 102.5,1083.5 101.7,1083 
				88.6,1090.5 88.6,1105.9 101.7,1113 102.5,1112.5 			"/>
			<path class="st1" d="M43.6,1163.9l13-7.7v-14.8l-13-7.5l-13.1,7.5v15.4l13,7L43.6,1163.9z M31,1141.6l12.6-7.2l12.5,7.2v14.2
				l-12.5,7.4l-12.6-6.8V1141.6z"/>
			<path class="st1" d="M13.1,1163.9l13-7.7v-14.8l-13-7.5L0,1141.4v15.4l13,7L13.1,1163.9z M0.5,1141.6l12.6-7.2l12.5,7.2v14.2
				l-12.5,7.4l-12.6-6.8V1141.6z"/>
			<path class="st1" d="M72.6,1163.9l13-7.7v-14.8l-13-7.5l-13.1,7.5v15.4l13,7L72.6,1163.9z M60,1141.6l12.6-7.2l12.5,7.2v14.2
				l-12.5,7.4l-12.6-6.8V1141.6z"/>
			<polygon class="st1" points="102.5,1162.8 101.7,1163.3 89,1156.5 89,1141.6 101.7,1134.4 102.5,1134.9 102.5,1134.4 
				101.7,1133.9 88.6,1141.4 88.6,1156.8 101.6,1163.8 101.7,1163.9 102.5,1163.4 			"/>
			<path class="st1" d="M43.6,1184.8l-13.1,7.5v15.4l13,7l0.1,0.1l13-7.7v-14.8l-12.9-7.5L43.6,1184.8z M56.1,1206.8l-12.5,7.4
				l-12.6-6.8v-14.9l12.6-7.2l12.5,7.3V1206.8z"/>
			<path class="st1" d="M13.1,1184.8L0,1192.3v15.4l13,7l0.1,0.1l13-7.7v-14.8l-12.9-7.5L13.1,1184.8z M25.6,1206.8l-12.5,7.4
				l-12.6-6.8v-14.9l12.6-7.2l12.5,7.3V1206.8z"/>
			<path class="st1" d="M72.6,1184.8l-13.1,7.5v15.4l13,7l0.1,0.1l13-7.7v-14.8l-12.9-7.5L72.6,1184.8z M85.2,1206.8l-12.5,7.4
				l-12.6-6.8v-14.9l12.6-7.2l12.5,7.3V1206.8z"/>
			<polygon class="st1" points="102.5,1213.8 101.7,1214.3 89,1207.4 89,1192.5 101.7,1185.4 102.5,1185.8 102.5,1185.3 
				101.8,1184.9 101.7,1184.8 88.6,1192.3 88.6,1207.7 101.6,1214.7 101.7,1214.8 102.5,1214.3 			"/>
		</g>
		<g>
			<path class="st1" d="M42.4,1232.3v-14.8l-13-7.5l-13.1,7.5v15.4l13.1,7.1L42.4,1232.3z M16.8,1232.6v-14.9l12.6-7.2l12.5,7.3
				v14.2l-12.5,7.4L16.8,1232.6z"/>
			<path class="st1" d="M71.4,1232.3v-14.8l-13-7.5l-13.1,7.5v15.4l13.1,7.1L71.4,1232.3z M45.8,1232.6v-14.9l12.6-7.2l12.5,7.3
				v14.2l-12.5,7.4L45.8,1232.6z"/>
			<path class="st1" d="M100.5,1232.3v-14.8l-13-7.5l-13.1,7.5v15.4l13.1,7.1L100.5,1232.3z M74.8,1232.6v-14.9l12.6-7.2l12.5,7.3
				v14.2l-12.5,7.4L74.8,1232.6z"/>
			<path class="st1" d="M42.4,1268.4l-13-7.5l-13.1,7.5v15.4l13.1,7.1l13-7.7V1268.4z M41.9,1282.9l-12.5,7.4l-12.6-6.8v-14.9
				l12.6-7.2l12.5,7.3V1282.9z"/>
			<path class="st1" d="M71.4,1283.1v-14.8l-13-7.5l-13.1,7.5v15.4l13.1,7.1L71.4,1283.1z M45.8,1283.5v-14.9l12.6-7.2l12.5,7.3
				v14.2l-12.5,7.4L45.8,1283.5z"/>
			<path class="st1" d="M100.5,1283.1v-14.8l-13-7.5l-13.1,7.5v15.4l13.1,7.1L100.5,1283.1z M74.8,1283.5v-14.9l12.6-7.2l12.5,7.3
				v14.2l-12.5,7.4L74.8,1283.5z"/>
			<path class="st1" d="M42.4,1319.3l-12.9-7.5l-0.1-0.1l-13.1,7.5v15.4l13,7l0.1,0.1l13-7.7V1319.3z M41.9,1333.8l-12.5,7.4
				l-12.6-6.8v-14.9l12.6-7.2l12.5,7.2V1333.8z"/>
			<path class="st1" d="M71.4,1319.3l-12.9-7.5l-0.1-0.1l-13.1,7.5v15.4l13,7l0.1,0.1l13-7.7V1319.3z M71,1333.8l-12.5,7.4
				l-12.6-6.8v-14.9l12.6-7.2l12.5,7.2V1333.8z"/>
			<path class="st1" d="M100.5,1319.3l-12.9-7.5l-0.1-0.1l-13.1,7.5v15.4l13,7l0.1,0.1l13-7.7V1319.3z M100,1333.8l-12.5,7.4
				l-12.6-6.8v-14.9l12.6-7.2l12.5,7.2V1333.8z"/>
			<path class="st1" d="M30.5,1258.1l13.1,7.1l13-7.7v-14.8l-13-7.5l-13.1,7.5V1258.1z M31,1242.9l12.6-7.2l12.5,7.3v14.2l-12.5,7.4
				l-12.6-6.8V1242.9z"/>
			<path class="st1" d="M26.1,1257.5v-14.8l-13-7.5L0,1242.6v15.4l13.1,7.1L26.1,1257.5z M0.5,1257.8v-14.9l12.6-7.2l12.5,7.3v14.2
				l-12.5,7.4L0.5,1257.8z"/>
			<path class="st1" d="M59.5,1258.1l13.1,7.1l13-7.7v-14.8l-13-7.5l-13.1,7.5V1258.1z M60,1242.9l12.6-7.2l12.5,7.3v14.2l-12.5,7.4
				l-12.6-6.8V1242.9z"/>
			<polygon class="st1" points="102.5,1264.1 101.7,1264.6 89,1257.8 89,1242.9 101.7,1235.7 102.5,1236.2 102.5,1235.7 
				101.7,1235.2 88.6,1242.6 88.6,1258.1 101.7,1265.2 102.5,1264.7 			"/>
			<path class="st1" d="M43.6,1316l13-7.7v-14.8l-13-7.5l-13.1,7.5v15.4l13,7L43.6,1316z M31,1293.8l12.6-7.2l12.5,7.2v14.2
				l-12.5,7.4l-12.6-6.8V1293.8z"/>
			<path class="st1" d="M13.1,1316l13-7.7v-14.8l-13-7.5L0,1293.5v15.4l13,7L13.1,1316z M0.5,1293.8l12.6-7.2l12.5,7.2v14.2
				l-12.5,7.4l-12.6-6.8V1293.8z"/>
			<path class="st1" d="M72.6,1316l13-7.7v-14.8l-13-7.5l-13.1,7.5v15.4l13,7L72.6,1316z M60,1293.8l12.6-7.2l12.5,7.2v14.2
				l-12.5,7.4l-12.6-6.8V1293.8z"/>
			<polygon class="st1" points="102.5,1315 101.7,1315.5 89,1308.7 89,1293.8 101.7,1286.6 102.5,1287.1 102.5,1286.6 101.7,1286.1 
				88.6,1293.5 88.6,1309 101.6,1316 101.7,1316 102.5,1315.6 			"/>
			<path class="st1" d="M43.6,1337l-13.1,7.5v15.4l13,7l0.1,0.1l13-7.7v-14.8l-12.9-7.5L43.6,1337z M56.1,1359l-12.5,7.4l-12.6-6.8
				v-14.9l12.6-7.2l12.5,7.3V1359z"/>
			<path class="st1" d="M13.1,1337L0,1344.5v15.4l13,7l0.1,0.1l13-7.7v-14.8l-12.9-7.5L13.1,1337z M25.6,1359l-12.5,7.4l-12.6-6.8
				v-14.9l12.6-7.2l12.5,7.3V1359z"/>
			<path class="st1" d="M72.6,1337l-13.1,7.5v15.4l13,7l0.1,0.1l13-7.7v-14.8l-12.9-7.5L72.6,1337z M85.2,1359l-12.5,7.4l-12.6-6.8
				v-14.9l12.6-7.2l12.5,7.3V1359z"/>
			<polygon class="st1" points="102.5,1365.9 101.7,1366.4 89,1359.6 89,1344.7 101.7,1337.5 102.5,1338 102.5,1337.5 101.8,1337.1 
				101.7,1337 88.6,1344.5 88.6,1359.9 101.6,1366.9 101.7,1367 102.5,1366.5 			"/>
		</g>
		<g>
			<path class="st1" d="M42.4,1385.6v-14.8l-13-7.5l-13.1,7.5v15.4l13.1,7.1L42.4,1385.6z M16.8,1385.9V1371l12.6-7.2l12.5,7.3v14.2
				l-12.5,7.4L16.8,1385.9z"/>
			<path class="st1" d="M71.4,1385.6v-14.8l-13-7.5l-13.1,7.5v15.4l13.1,7.1L71.4,1385.6z M45.8,1385.9V1371l12.6-7.2l12.5,7.3v14.2
				l-12.5,7.4L45.8,1385.9z"/>
			<path class="st1" d="M100.5,1385.6v-14.8l-13-7.5l-13.1,7.5v15.4l13.1,7.1L100.5,1385.6z M74.8,1385.9V1371l12.6-7.2l12.5,7.3
				v14.2l-12.5,7.4L74.8,1385.9z"/>
			<polygon class="st1" points="17.4,1437.1 16.8,1436.8 16.8,1421.9 29.4,1414.7 41.9,1422 41.9,1436.2 40.3,1437.1 41.2,1437.1 
				42.4,1436.5 42.4,1421.7 29.4,1414.2 16.3,1421.6 16.3,1437.1 16.4,1437.1 			"/>
			<polygon class="st1" points="46.4,1437.1 45.8,1436.8 45.8,1421.9 58.4,1414.7 71,1422 71,1436.2 69.3,1437.1 70.2,1437.1 
				71.4,1436.5 71.4,1421.7 58.4,1414.2 45.3,1421.6 45.3,1437.1 45.5,1437.1 			"/>
			<polygon class="st1" points="75.5,1437.1 74.8,1436.8 74.8,1421.9 87.5,1414.7 100,1422 100,1436.2 98.4,1437.1 99.3,1437.1 
				100.5,1436.5 100.5,1421.7 87.5,1414.2 74.4,1421.6 74.4,1437.1 74.5,1437.1 			"/>
			<path class="st1" d="M30.5,1411.4l13.1,7.1l13-7.7V1396l-13-7.5l-13.1,7.5V1411.4z M31,1396.2l12.6-7.2l12.5,7.3v14.2l-12.5,7.4
				l-12.6-6.8V1396.2z"/>
			<path class="st1" d="M26.1,1410.8V1396l-13-7.5L0,1396v15.4l13.1,7.1L26.1,1410.8z M0.5,1411.1v-14.9l12.6-7.2l12.5,7.3v14.2
				l-12.5,7.4L0.5,1411.1z"/>
			<path class="st1" d="M59.5,1411.4l13.1,7.1l13-7.7V1396l-13-7.5l-13.1,7.5V1411.4z M60,1396.2l12.6-7.2l12.5,7.3v14.2l-12.5,7.4
				l-12.6-6.8V1396.2z"/>
			<polygon class="st1" points="102.5,1417.4 101.7,1417.9 89,1411.1 89,1396.2 101.7,1389 102.5,1389.5 102.5,1389 101.7,1388.5 
				88.6,1396 88.6,1411.4 101.7,1418.5 102.5,1418 			"/>
		</g>
	</g>
	<g>
		<g>
			<polygon class="st1" points="41.9,0 41.9,11.2 29.4,18.6 16.8,11.8 16.8,0 16.3,0 16.3,12 29.4,19.1 42.4,11.4 42.4,0 			"/>
			<polygon class="st1" points="71,0 71,11.2 58.4,18.6 45.8,11.8 45.8,0 45.3,0 45.3,12 58.4,19.1 71.4,11.4 71.4,0 			"/>
			<polygon class="st1" points="100,0 100,11.2 87.5,18.6 74.8,11.8 74.8,0 74.4,0 74.4,12 87.5,19.1 100.5,11.4 100.5,0 			"/>
			<path class="st1" d="M42.4,47.5l-13-7.5l-13.1,7.5v15.4L29.4,70l13-7.7V47.5z M41.9,62l-12.5,7.4l-12.6-6.8V47.8l12.6-7.2
				l12.5,7.3V62z"/>
			<path class="st1" d="M71.4,62.3V47.5l-13-7.5l-13.1,7.5v15.4L58.4,70L71.4,62.3z M45.8,62.7V47.8l12.6-7.2L71,47.8V62l-12.5,7.4
				L45.8,62.7z"/>
			<path class="st1" d="M100.5,62.3V47.5l-13-7.5l-13.1,7.5v15.4L87.5,70L100.5,62.3z M74.8,62.7V47.8l12.6-7.2l12.5,7.3V62
				l-12.5,7.4L74.8,62.7z"/>
			<path class="st1" d="M42.4,98.5L29.5,91l-0.1-0.1l-13.1,7.5v15.4l13,7l0.1,0.1l13-7.7V98.5z M41.9,113l-12.5,7.4l-12.6-6.8V98.7
				l12.6-7.2l12.5,7.2V113z"/>
			<path class="st1" d="M71.4,98.5L58.6,91l-0.1-0.1l-13.1,7.5v15.4l13,7l0.1,0.1l13-7.7V98.5z M71,113l-12.5,7.4l-12.6-6.8V98.7
				l12.6-7.2L71,98.7V113z"/>
			<path class="st1" d="M100.5,98.5L87.6,91l-0.1-0.1l-13.1,7.5v15.4l13,7l0.1,0.1l13-7.7V98.5z M100,113l-12.5,7.4l-12.6-6.8V98.7
				l12.6-7.2l12.5,7.2V113z"/>
			<path class="st1" d="M30.5,37.3l13.1,7.1l13-7.7V21.9l-13-7.5l-13.1,7.5V37.3z M31,22.1l12.6-7.2l12.5,7.3v14.2l-12.5,7.4L31,37
				V22.1z"/>
			<path class="st1" d="M26.1,36.6V21.9l-13-7.5L0,21.8v15.4l13.1,7.1L26.1,36.6z M0.5,37V22.1l12.6-7.2l12.5,7.3v14.2l-12.5,7.4
				L0.5,37z"/>
			<path class="st1" d="M59.5,37.3l13.1,7.1l13-7.7V21.9l-13-7.5l-13.1,7.5V37.3z M60,22.1l12.6-7.2l12.5,7.3v14.2l-12.5,7.4L60,37
				V22.1z"/>
			<polygon class="st1" points="102.5,43.3 101.7,43.8 89,37 89,22.1 101.7,14.9 102.5,15.4 102.5,14.8 101.7,14.4 88.6,21.8 
				88.6,37.3 101.7,44.3 102.5,43.8 			"/>
			<path class="st1" d="M43.6,95.2l13-7.7V72.8l-13-7.5l-13.1,7.5v15.4l13,7L43.6,95.2z M31,73l12.6-7.2L56.1,73v14.2l-12.5,7.4
				L31,87.9V73z"/>
			<path class="st1" d="M13.1,95.2l13-7.7V72.8l-13-7.5L0,72.7v15.4l13,7L13.1,95.2z M0.5,73l12.6-7.2L25.6,73v14.2l-12.5,7.4
				L0.5,87.9V73z"/>
			<path class="st1" d="M72.6,95.2l13-7.7V72.8l-13-7.5l-13.1,7.5v15.4l13,7L72.6,95.2z M60,73l12.6-7.2L85.2,73v14.2l-12.5,7.4
				L60,87.9V73z"/>
			<polygon class="st1" points="102.5,94.2 101.7,94.7 89,87.9 89,73 101.7,65.8 102.5,66.3 102.5,65.7 101.7,65.2 88.6,72.7 
				88.6,88.2 101.6,95.1 101.7,95.2 102.5,94.7 			"/>
			<path class="st1" d="M43.6,116.2l-13.1,7.5v15.4l13,7l0.1,0.1l13-7.7v-14.8l-12.9-7.5L43.6,116.2z M56.1,138.2l-12.5,7.4
				L31,138.8v-14.9l12.6-7.2l12.5,7.3V138.2z"/>
			<path class="st1" d="M13.1,116.2L0,123.6v15.4l13,7l0.1,0.1l13-7.7v-14.8l-12.9-7.5L13.1,116.2z M25.6,138.2l-12.5,7.4l-12.6-6.8
				v-14.9l12.6-7.2l12.5,7.3V138.2z"/>
			<path class="st1" d="M72.6,116.2l-13.1,7.5v15.4l13,7l0.1,0.1l13-7.7v-14.8l-12.9-7.5L72.6,116.2z M85.2,138.2l-12.5,7.4
				L60,138.8v-14.9l12.6-7.2l12.5,7.3V138.2z"/>
			<polygon class="st1" points="102.5,145.1 101.7,145.6 89,138.8 89,123.9 101.7,116.7 102.5,117.2 102.5,116.6 101.8,116.2 
				101.7,116.2 88.6,123.6 88.6,139.1 101.6,146.1 101.7,146.1 102.5,145.6 			"/>
		</g>
		<g>
			<path class="st1" d="M42.4,164.1v-14.8l-13-7.5l-13.1,7.5v15.4l13.1,7.1L42.4,164.1z M16.8,164.4v-14.9l12.6-7.2l12.5,7.3v14.2
				l-12.5,7.4L16.8,164.4z"/>
			<path class="st1" d="M71.4,164.1v-14.8l-13-7.5l-13.1,7.5v15.4l13.1,7.1L71.4,164.1z M45.8,164.4v-14.9l12.6-7.2l12.5,7.3v14.2
				l-12.5,7.4L45.8,164.4z"/>
			<path class="st1" d="M100.5,164.1v-14.8l-13-7.5l-13.1,7.5v15.4l13.1,7.1L100.5,164.1z M74.8,164.4v-14.9l12.6-7.2l12.5,7.3v14.2
				l-12.5,7.4L74.8,164.4z"/>
			<path class="st1" d="M42.4,200.2l-13-7.5l-13.1,7.5v15.4l13.1,7.1l13-7.7V200.2z M41.9,214.7l-12.5,7.4l-12.6-6.8v-14.9l12.6-7.2
				l12.5,7.2V214.7z"/>
			<path class="st1" d="M71.4,215v-14.8l-13-7.5l-13.1,7.5v15.4l13.1,7.1L71.4,215z M45.8,215.3v-14.9l12.6-7.2l12.5,7.2v14.2
				l-12.5,7.4L45.8,215.3z"/>
			<path class="st1" d="M100.5,215v-14.8l-13-7.5l-13.1,7.5v15.4l13.1,7.1L100.5,215z M74.8,215.3v-14.9l12.6-7.2l12.5,7.2v14.2
				l-12.5,7.4L74.8,215.3z"/>
			<path class="st1" d="M42.4,251.1l-12.9-7.5l-0.1-0.1l-13.1,7.5v15.4l13,7l0.1,0.1l13-7.7V251.1z M41.9,265.6L29.4,273l-12.6-6.8
				v-14.9l12.6-7.2l12.5,7.2V265.6z"/>
			<path class="st1" d="M71.4,251.1l-12.9-7.5l-0.1-0.1l-13.1,7.5v15.4l13,7l0.1,0.1l13-7.7V251.1z M71,265.6L58.4,273l-12.6-6.8
				v-14.9l12.6-7.2l12.5,7.2V265.6z"/>
			<path class="st1" d="M100.5,251.1l-12.9-7.5l-0.1-0.1l-13.1,7.5v15.4l13,7l0.1,0.1l13-7.7V251.1z M100,265.6L87.5,273l-12.6-6.8
				v-14.9l12.6-7.2l12.5,7.2V265.6z"/>
			<path class="st1" d="M30.5,189.9l13.1,7.1l13-7.7v-14.8l-13-7.5l-13.1,7.5V189.9z M31,174.7l12.6-7.2l12.5,7.3V189l-12.5,7.4
				L31,189.7V174.7z"/>
			<path class="st1" d="M26.1,189.3v-14.8l-13-7.5L0,174.5v15.4l13.1,7.1L26.1,189.3z M0.5,189.7v-14.9l12.6-7.2l12.5,7.3V189
				l-12.5,7.4L0.5,189.7z"/>
			<path class="st1" d="M59.5,189.9l13.1,7.1l13-7.7v-14.8l-13-7.5l-13.1,7.5V189.9z M60,174.7l12.6-7.2l12.5,7.3V189l-12.5,7.4
				L60,189.7V174.7z"/>
			<polygon class="st1" points="102.5,196 101.7,196.5 89,189.7 89,174.7 101.7,167.6 102.5,168 102.5,167.5 101.7,167 88.6,174.5 
				88.6,189.9 101.7,197 102.5,196.5 			"/>
			<path class="st1" d="M43.6,247.9l13-7.7v-14.8l-13-7.5l-13.1,7.5v15.4l13,7L43.6,247.9z M31,225.6l12.6-7.2l12.5,7.3v14.2
				l-12.5,7.4L31,240.5V225.6z"/>
			<path class="st1" d="M13.1,247.9l13-7.7v-14.8l-13-7.5L0,225.4v15.4l13,7L13.1,247.9z M0.5,225.6l12.6-7.2l12.5,7.3v14.2
				l-12.5,7.4l-12.6-6.8V225.6z"/>
			<path class="st1" d="M72.6,247.9l13-7.7v-14.8l-13-7.5l-13.1,7.5v15.4l13,7L72.6,247.9z M60,225.6l12.6-7.2l12.5,7.3v14.2
				l-12.5,7.4L60,240.5V225.6z"/>
			<polygon class="st1" points="102.5,246.8 101.7,247.3 89,240.5 89,225.6 101.7,218.4 102.5,218.9 102.5,218.4 101.7,217.9 
				88.6,225.4 88.6,240.8 101.6,247.8 101.7,247.9 102.5,247.4 			"/>
			<path class="st1" d="M43.6,268.8l-13.1,7.5v15.4l13,7l0.1,0.1l13-7.7v-14.8l-12.9-7.5L43.6,268.8z M56.1,290.8l-12.5,7.4
				L31,291.5v-14.9l12.6-7.2l12.5,7.2V290.8z"/>
			<path class="st1" d="M13.1,268.8L0,276.3v15.4l13,7l0.1,0.1l13-7.7v-14.8l-12.9-7.5L13.1,268.8z M25.6,290.8l-12.5,7.4l-12.6-6.8
				v-14.9l12.6-7.2l12.5,7.2V290.8z"/>
			<path class="st1" d="M72.6,268.8l-13.1,7.5v15.4l13,7l0.1,0.1l13-7.7v-14.8l-12.9-7.5L72.6,268.8z M85.2,290.8l-12.5,7.4
				L60,291.5v-14.9l12.6-7.2l12.5,7.2V290.8z"/>
			<polygon class="st1" points="102.5,297.8 101.7,298.3 89,291.5 89,276.5 101.7,269.4 102.5,269.8 102.5,269.3 101.8,268.9 
				101.7,268.8 88.6,276.3 88.6,291.7 101.6,298.7 101.7,298.8 102.5,298.3 			"/>
		</g>
		<g>
			<path class="st1" d="M42.4,316.6v-14.8l-13-7.5l-13.1,7.5v15.4l13.1,7.1L42.4,316.6z M16.8,316.9V302l12.6-7.2l12.5,7.3v14.2
				l-12.5,7.4L16.8,316.9z"/>
			<path class="st1" d="M71.4,316.6v-14.8l-13-7.5l-13.1,7.5v15.4l13.1,7.1L71.4,316.6z M45.8,316.9V302l12.6-7.2l12.5,7.3v14.2
				l-12.5,7.4L45.8,316.9z"/>
			<path class="st1" d="M100.5,316.6v-14.8l-13-7.5l-13.1,7.5v15.4l13.1,7.1L100.5,316.6z M74.8,316.9V302l12.6-7.2l12.5,7.3v14.2
				l-12.5,7.4L74.8,316.9z"/>
			<path class="st1" d="M42.4,352.7l-13-7.5l-13.1,7.5v15.4l13.1,7.1l13-7.7V352.7z M41.9,367.2l-12.5,7.4l-12.6-6.8v-14.9l12.6-7.2
				l12.5,7.3V367.2z"/>
			<path class="st1" d="M71.4,367.5v-14.8l-13-7.5l-13.1,7.5v15.4l13.1,7.1L71.4,367.5z M45.8,367.8v-14.9l12.6-7.2L71,353v14.2
				l-12.5,7.4L45.8,367.8z"/>
			<path class="st1" d="M100.5,367.5v-14.8l-13-7.5l-13.1,7.5v15.4l13.1,7.1L100.5,367.5z M74.8,367.8v-14.9l12.6-7.2L100,353v14.2
				l-12.5,7.4L74.8,367.8z"/>
			<path class="st1" d="M42.4,403.6l-12.9-7.5l-0.1-0.1l-13.1,7.5V419l13,7l0.1,0.1l13-7.7V403.6z M41.9,418.1l-12.5,7.4l-12.6-6.8
				v-14.9l12.6-7.2l12.5,7.2V418.1z"/>
			<path class="st1" d="M71.4,403.6l-12.9-7.5l-0.1-0.1l-13.1,7.5V419l13,7l0.1,0.1l13-7.7V403.6z M71,418.1l-12.5,7.4l-12.6-6.8
				v-14.9l12.6-7.2l12.5,7.2V418.1z"/>
			<path class="st1" d="M100.5,403.6l-12.9-7.5l-0.1-0.1l-13.1,7.5V419l13,7l0.1,0.1l13-7.7V403.6z M100,418.1l-12.5,7.4l-12.6-6.8
				v-14.9l12.6-7.2l12.5,7.2V418.1z"/>
			<path class="st1" d="M30.5,342.4l13.1,7.1l13-7.7V327l-13-7.5L30.5,327V342.4z M31,327.2l12.6-7.2l12.5,7.3v14.2L43.6,349
				L31,342.1V327.2z"/>
			<path class="st1" d="M26.1,341.8V327l-13-7.5L0,327v15.4l13.1,7.1L26.1,341.8z M0.5,342.1v-14.9l12.6-7.2l12.5,7.3v14.2L13.1,349
				L0.5,342.1z"/>
			<path class="st1" d="M59.5,342.4l13.1,7.1l13-7.7V327l-13-7.5L59.5,327V342.4z M60,327.2l12.6-7.2l12.5,7.3v14.2L72.6,349
				L60,342.1V327.2z"/>
			<polygon class="st1" points="102.5,348.5 101.7,349 89,342.1 89,327.2 101.7,320 102.5,320.5 102.5,320 101.7,319.5 88.6,327 
				88.6,342.4 101.7,349.5 102.5,349 			"/>
			<path class="st1" d="M43.6,400.4l13-7.7v-14.8l-13-7.5l-13.1,7.5v15.4l13,7L43.6,400.4z M31,378.1l12.6-7.2l12.5,7.2v14.2
				l-12.5,7.4L31,393V378.1z"/>
			<path class="st1" d="M13.1,400.4l13-7.7v-14.8l-13-7.5L0,377.9v15.4l13,7L13.1,400.4z M0.5,378.1l12.6-7.2l12.5,7.2v14.2
				l-12.5,7.4L0.5,393V378.1z"/>
			<path class="st1" d="M72.6,400.4l13-7.7v-14.8l-13-7.5l-13.1,7.5v15.4l13,7L72.6,400.4z M60,378.1l12.6-7.2l12.5,7.2v14.2
				l-12.5,7.4L60,393V378.1z"/>
			<polygon class="st1" points="102.5,399.3 101.7,399.8 89,393 89,378.1 101.7,370.9 102.5,371.4 102.5,370.9 101.7,370.4 
				88.6,377.9 88.6,393.3 101.6,400.3 101.7,400.4 102.5,399.9 			"/>
			<path class="st1" d="M43.6,421.3l-13.1,7.5v15.4l13,7l0.1,0.1l13-7.7v-14.8l-12.9-7.5L43.6,421.3z M56.1,443.3l-12.5,7.4
				L31,443.9V429l12.6-7.2l12.5,7.3V443.3z"/>
			<path class="st1" d="M13.1,421.3L0,428.8v15.4l13,7l0.1,0.1l13-7.7v-14.8l-12.9-7.5L13.1,421.3z M25.6,443.3l-12.5,7.4l-12.6-6.8
				V429l12.6-7.2l12.5,7.3V443.3z"/>
			<path class="st1" d="M72.6,421.3l-13.1,7.5v15.4l13,7l0.1,0.1l13-7.7v-14.8l-12.9-7.5L72.6,421.3z M85.2,443.3l-12.5,7.4
				L60,443.9V429l12.6-7.2l12.5,7.3V443.3z"/>
			<polygon class="st1" points="102.5,450.3 101.7,450.8 89,443.9 89,429 101.7,421.9 102.5,422.3 102.5,421.8 101.8,421.4 
				101.7,421.3 88.6,428.8 88.6,444.2 101.6,451.2 101.7,451.3 102.5,450.8 			"/>
		</g>
		<g>
			<path class="st1" d="M42.4,468.8V454l-13-7.5l-13.1,7.5v15.4l13.1,7.1L42.4,468.8z M16.8,469.1v-14.9l12.6-7.2l12.5,7.3v14.2
				l-12.5,7.4L16.8,469.1z"/>
			<path class="st1" d="M71.4,468.8V454l-13-7.5l-13.1,7.5v15.4l13.1,7.1L71.4,468.8z M45.8,469.1v-14.9l12.6-7.2l12.5,7.3v14.2
				l-12.5,7.4L45.8,469.1z"/>
			<path class="st1" d="M100.5,468.8V454l-13-7.5l-13.1,7.5v15.4l13.1,7.1L100.5,468.8z M74.8,469.1v-14.9l12.6-7.2l12.5,7.3v14.2
				l-12.5,7.4L74.8,469.1z"/>
			<path class="st1" d="M42.4,504.9l-13-7.5l-13.1,7.5v15.4l13.1,7.1l13-7.7V504.9z M41.9,519.4l-12.5,7.4L16.8,520v-14.9l12.6-7.2
				l12.5,7.3V519.4z"/>
			<path class="st1" d="M71.4,519.6v-14.8l-13-7.5l-13.1,7.5v15.4l13.1,7.1L71.4,519.6z M45.8,520v-14.9l12.6-7.2l12.5,7.3v14.2
				l-12.5,7.4L45.8,520z"/>
			<path class="st1" d="M100.5,519.6v-14.8l-13-7.5l-13.1,7.5v15.4l13.1,7.1L100.5,519.6z M74.8,520v-14.9l12.6-7.2l12.5,7.3v14.2
				l-12.5,7.4L74.8,520z"/>
			<path class="st1" d="M42.4,555.8l-12.9-7.5l-0.1-0.1l-13.1,7.5v15.4l13,7l0.1,0.1l13-7.7V555.8z M41.9,570.3l-12.5,7.4l-12.6-6.8
				V556l12.6-7.2l12.5,7.2V570.3z"/>
			<path class="st1" d="M71.4,555.8l-12.9-7.5l-0.1-0.1l-13.1,7.5v15.4l13,7l0.1,0.1l13-7.7V555.8z M71,570.3l-12.5,7.4l-12.6-6.8
				V556l12.6-7.2l12.5,7.2V570.3z"/>
			<path class="st1" d="M100.5,555.8l-12.9-7.5l-0.1-0.1l-13.1,7.5v15.4l13,7l0.1,0.1l13-7.7V555.8z M100,570.3l-12.5,7.4l-12.6-6.8
				V556l12.6-7.2l12.5,7.2V570.3z"/>
			<path class="st1" d="M30.5,494.6l13.1,7.1l13-7.7v-14.8l-13-7.5l-13.1,7.5V494.6z M31,479.4l12.6-7.2l12.5,7.3v14.2l-12.5,7.4
				L31,494.3V479.4z"/>
			<path class="st1" d="M26.1,494v-14.8l-13-7.5L0,479.1v15.4l13.1,7.1L26.1,494z M0.5,494.3v-14.9l12.6-7.2l12.5,7.3v14.2
				l-12.5,7.4L0.5,494.3z"/>
			<path class="st1" d="M59.5,494.6l13.1,7.1l13-7.7v-14.8l-13-7.5l-13.1,7.5V494.6z M60,479.4l12.6-7.2l12.5,7.3v14.2l-12.5,7.4
				L60,494.3V479.4z"/>
			<polygon class="st1" points="102.5,500.6 101.7,501.1 89,494.3 89,479.4 101.7,472.2 102.5,472.7 102.5,472.2 101.7,471.7 
				88.6,479.1 88.6,494.6 101.7,501.6 102.5,501.2 			"/>
			<path class="st1" d="M43.6,552.5l13-7.7v-14.8l-13-7.5L30.5,530v15.4l13,7L43.6,552.5z M31,530.3l12.6-7.2l12.5,7.2v14.2
				L43.6,552L31,545.2V530.3z"/>
			<path class="st1" d="M13.1,552.5l13-7.7v-14.8l-13-7.5L0,530v15.4l13,7L13.1,552.5z M0.5,530.3l12.6-7.2l12.5,7.2v14.2L13.1,552
				l-12.6-6.8V530.3z"/>
			<path class="st1" d="M72.6,552.5l13-7.7v-14.8l-13-7.5L59.5,530v15.4l13,7L72.6,552.5z M60,530.3l12.6-7.2l12.5,7.2v14.2
				L72.6,552L60,545.2V530.3z"/>
			<polygon class="st1" points="102.5,551.5 101.7,552 89,545.2 89,530.3 101.7,523.1 102.5,523.6 102.5,523.1 101.7,522.6 
				88.6,530 88.6,545.5 101.6,552.5 101.7,552.5 102.5,552 			"/>
			<path class="st1" d="M43.6,573.5l-13.1,7.5v15.4l13,7l0.1,0.1l13-7.7V581l-12.9-7.5L43.6,573.5z M56.1,595.5l-12.5,7.4L31,596.1
				v-14.9l12.6-7.2l12.5,7.3V595.5z"/>
			<path class="st1" d="M13.1,573.5L0,580.9v15.4l13,7l0.1,0.1l13-7.7V581l-12.9-7.5L13.1,573.5z M25.6,595.5l-12.5,7.4l-12.6-6.8
				v-14.9l12.6-7.2l12.5,7.3V595.5z"/>
			<path class="st1" d="M72.6,573.5l-13.1,7.5v15.4l13,7l0.1,0.1l13-7.7V581l-12.9-7.5L72.6,573.5z M85.2,595.5l-12.5,7.4L60,596.1
				v-14.9l12.6-7.2l12.5,7.3V595.5z"/>
			<polygon class="st1" points="102.5,602.4 101.7,602.9 89,596.1 89,581.2 101.7,574 102.5,574.5 102.5,574 101.8,573.6 
				101.7,573.5 88.6,580.9 88.6,596.4 101.6,603.4 101.7,603.4 102.5,603 			"/>
		</g>
		<g>
			<path class="st1" d="M42.4,622.1v-14.8l-13-7.5l-13.1,7.5v15.4l13.1,7.1L42.4,622.1z M16.8,622.4v-14.9l12.6-7.2l12.5,7.3v14.2
				l-12.5,7.4L16.8,622.4z"/>
			<path class="st1" d="M71.4,622.1v-14.8l-13-7.5l-13.1,7.5v15.4l13.1,7.1L71.4,622.1z M45.8,622.4v-14.9l12.6-7.2l12.5,7.3v14.2
				l-12.5,7.4L45.8,622.4z"/>
			<path class="st1" d="M100.5,622.1v-14.8l-13-7.5l-13.1,7.5v15.4l13.1,7.1L100.5,622.1z M74.8,622.4v-14.9l12.6-7.2l12.5,7.3v14.2
				l-12.5,7.4L74.8,622.4z"/>
			<path class="st1" d="M42.4,658.2l-13-7.5l-13.1,7.5v15.4l13.1,7.1l13-7.7V658.2z M41.9,672.7l-12.5,7.4l-12.6-6.8v-14.9l12.6-7.2
				l12.5,7.3V672.7z"/>
			<path class="st1" d="M71.4,673v-14.8l-13-7.5l-13.1,7.5v15.4l13.1,7.1L71.4,673z M45.8,673.3v-14.9l12.6-7.2l12.5,7.3v14.2
				l-12.5,7.4L45.8,673.3z"/>
			<path class="st1" d="M100.5,673v-14.8l-13-7.5l-13.1,7.5v15.4l13.1,7.1L100.5,673z M74.8,673.3v-14.9l12.6-7.2l12.5,7.3v14.2
				l-12.5,7.4L74.8,673.3z"/>
			<path class="st1" d="M42.4,709.1l-12.9-7.5l-0.1-0.1L16.3,709v15.4l13,7l0.1,0.1l13-7.7V709.1z M41.9,723.6L29.4,731l-12.6-6.8
				v-14.9l12.6-7.2l12.5,7.2V723.6z"/>
			<path class="st1" d="M71.4,709.1l-12.9-7.5l-0.1-0.1L45.3,709v15.4l13,7l0.1,0.1l13-7.7V709.1z M71,723.6L58.4,731l-12.6-6.8
				v-14.9l12.6-7.2l12.5,7.2V723.6z"/>
			<path class="st1" d="M100.5,709.1l-12.9-7.5l-0.1-0.1L74.4,709v15.4l13,7l0.1,0.1l13-7.7V709.1z M100,723.6L87.5,731l-12.6-6.8
				v-14.9l12.6-7.2l12.5,7.2V723.6z"/>
			<path class="st1" d="M30.5,647.9l13.1,7.1l13-7.7v-14.8l-13-7.5l-13.1,7.5V647.9z M31,632.7l12.6-7.2l12.5,7.3V647l-12.5,7.4
				L31,647.6V632.7z"/>
			<path class="st1" d="M26.1,647.3v-14.8l-13-7.5L0,632.5v15.4l13.1,7.1L26.1,647.3z M0.5,647.6v-14.9l12.6-7.2l12.5,7.3V647
				l-12.5,7.4L0.5,647.6z"/>
			<path class="st1" d="M59.5,647.9l13.1,7.1l13-7.7v-14.8l-13-7.5l-13.1,7.5V647.9z M60,632.7l12.6-7.2l12.5,7.3V647l-12.5,7.4
				L60,647.6V632.7z"/>
			<polygon class="st1" points="102.5,653.9 101.7,654.4 89,647.6 89,632.7 101.7,625.5 102.5,626 102.5,625.5 101.7,625 
				88.6,632.5 88.6,647.9 101.7,655 102.5,654.5 			"/>
			<path class="st1" d="M43.6,705.9l13-7.7v-14.8l-13-7.5l-13.1,7.5v15.4l13,7L43.6,705.9z M31,683.6l12.6-7.2l12.5,7.2v14.2
				l-12.5,7.4L31,698.5V683.6z"/>
			<path class="st1" d="M13.1,705.9l13-7.7v-14.8l-13-7.5L0,683.4v15.4l13,7L13.1,705.9z M0.5,683.6l12.6-7.2l12.5,7.2v14.2
				l-12.5,7.4l-12.6-6.8V683.6z"/>
			<path class="st1" d="M72.6,705.9l13-7.7v-14.8l-13-7.5l-13.1,7.5v15.4l13,7L72.6,705.9z M60,683.6l12.6-7.2l12.5,7.2v14.2
				l-12.5,7.4L60,698.5V683.6z"/>
			<polygon class="st1" points="102.5,704.8 101.7,705.3 89,698.5 89,683.6 101.7,676.4 102.5,676.9 102.5,676.4 101.7,675.9 
				88.6,683.4 88.6,698.8 101.6,705.8 101.7,705.9 102.5,705.4 			"/>
			<path class="st1" d="M43.6,726.8l-13.1,7.5v15.4l13,7l0.1,0.1l13-7.7v-14.8l-12.9-7.5L43.6,726.8z M56.1,748.8l-12.5,7.4
				L31,749.4v-14.9l12.6-7.2l12.5,7.3V748.8z"/>
			<path class="st1" d="M13.1,726.8L0,734.3v15.4l13,7l0.1,0.1l13-7.7v-14.8l-12.9-7.5L13.1,726.8z M25.6,748.8l-12.5,7.4l-12.6-6.8
				v-14.9l12.6-7.2l12.5,7.3V748.8z"/>
			<path class="st1" d="M72.6,726.8l-13.1,7.5v15.4l13,7l0.1,0.1l13-7.7v-14.8l-12.9-7.5L72.6,726.8z M85.2,748.8l-12.5,7.4
				L60,749.4v-14.9l12.6-7.2l12.5,7.3V748.8z"/>
			<polygon class="st1" points="102.5,755.7 101.7,756.2 89,749.4 89,734.5 101.7,727.3 102.5,727.8 102.5,727.3 101.8,726.9 
				101.7,726.8 88.6,734.3 88.6,749.7 101.6,756.7 101.7,756.8 102.5,756.3 			"/>
		</g>
	</g>
</g>
</svg>
