<?xml version="1.0" encoding="utf-8"?>
<!-- Generator: Adobe Illustrator 19.2.1, SVG Export Plug-In . SVG Version: 6.00 Build 0)  -->
<svg version="1.1" id="Layer_1" xmlns="http://www.w3.org/2000/svg" xmlns:xlink="http://www.w3.org/1999/xlink" x="0px" y="0px"
	 viewBox="0 0 124.1 142.9" style="enable-background:new 0 0 124.1 142.9;" xml:space="preserve">
<style type="text/css">
	.st0{fill:#FFFFFF;}
	.st1{fill:#F0C51A;}
</style>
<g>
	<path class="st0" d="M0,35.6L62.3,0l61.8,34.9v71.8l-61.4,36.2L0,106.8V35.6z"/>
	<polygon class="st1" points="62.5,22.7 104,46.8 104,94.1 62.5,118.8 20.5,96.1 20.5,46.6 	"/>
	<path d="M62.3,4L3.5,37.6v50.8c0,0,0,0,0,0c-0.6,0.2-1.2,0.8-1.6,1.2c-0.6,0.6-0.8,1.5-0.7,2.5c0.2,1.1,0.5,2.4,1.3,2.9
		c0.2,0.1,0.5,0.2,0.9,0.3v9.3l59.2,34.2l58-34.2V36.9L62.3,4z M62.5,122.2l-11.1-6c4.5-0.8,11.1-4.2,16.7-14c4.6,5.4,10.1,8,12.9,9
		L62.5,122.2z M83.2,51.2c0.2-0.7,0.1-6.7-4.3-7.8c0.2-2.3,2.2-4.2,2.2-4.2c2.2,0.7,4.2-1.7,2.9-3.4c-1.9-1.9-4.3-0.2-4.3,1.8
		c-1.8,1.2-3.6,2.8-4.7,4.1c-0.4-0.5-0.4-2.7-0.4-2.7s-0.7,2.1-0.8,1.6c-0.1-0.5-0.4-0.9-0.4-2.1c-0.9,0.7-2.4,3.8-2.4,3.8
		c0.1-0.8-2.7-4-4.2-4.5c0.9-2.1-2.7-4.3-4.3-1.9c-1.8,2.6,1.3,4.6,2.6,4.1c2.3,0.5,3.5,5.2,2.9,5.3c-0.6,0.1-3.3,2.5-2.7,8.1
		c-7.6-5.1-16.7-9-16.7-9c-12-5.2-15.7,5.8-16.8,6.1c-4.6-0.1-10.8,5-14.2,8.2V45.2l44.8-25.5L101,42C90,43.1,83,51.8,83.2,51.2z
		 M106.9,95.9l-6.4,3.8c1.6-15.3-7.9-21.4-9-23.3c8.2,2.3,13.3-1.9,15.3-4.3V95.9z"/>
	<g>
		<path class="st0" d="M86.5,52.2c16.2-15.2,28.5-7.6,29.5-6.5c0.8,0.5,3.5,2.9,1.4,7.6c-2.1,4.7-7.5,23-26.9,21.3
			c-0.4-0.5,0.4-0.9,0.7-1.1c0,0,2.8-1.2,1.4-3.4c-2.9-1.1-2-2.7-0.7-2.5c0.9-0.2,9,1.2,9.8,1c0.7-0.2,0.4-0.6,0.4-0.9
			c0-0.3-2.5-0.5-2.7-0.8C99,66.6,99.9,66,99.9,66l2.6-1.8c0,0-0.8-1.1-1.4-1.3c-0.6-0.2-3.6,3.6-4.5,3.6c-0.8,0-5.2-0.1-5.8-0.5
			c-0.6-0.4,0.7-2.8-1.3-3.6c1.8-0.6,8-2.5,8.3-2.5c0.4,0,3.4-0.2,3.4-0.2s3.3-1.5,3.8-1.5c0.5,0,2.9-0.4,2.9-0.4s0.2-1.5-0.5-1.9
			c-0.7-0.4-4.7,1.3-5.1,1.3c-0.4,0-0.5-3.8-0.5-3.8s-1.8,0.4-1.9,0.9c-0.1,0.6,0.6,3.1-1.3,3.5c-1.9,0.5-10.5,3.1-10.9,3.2
			c-0.5,0.1-0.4-2.9-0.4-3.3c0-0.4,9.7-6.1,12.1-6.2c2.4-0.1,11.5,0.7,12.2,1.1c0.7,0.4,0.7-1.5,0.5-2c-0.2-0.5-2.4-0.7-2.4-0.7
			s1.8-0.9,1.8-1.4c0-0.5-0.1-1.3-0.8-1.4c-0.7-0.1-3.4,2.5-4.1,2.7c-0.7,0.2-4.5,0.4-4.5,0.4l2.8-2.5c0,0-0.6-1.2-1.3-1.2
			c-0.7,0-5.2,4.3-16.6,8.9C85.5,54.3,86.5,52.2,86.5,52.2z"/>
		<path class="st0" d="M88.8,68.6c-0.1,0.3-0.2,1.6,0.6,2c0.8,0.4,1.6,0.8,1.3,1.3c-0.4,0.5-1.4,0.9-1.4,1.3c0,0.3-1.3-3.3-2.8-3.5
			c-0.6-0.1,1.2-3.5-0.1-5.1c-0.4-0.6,0-1.3,0.9-0.6C88.2,64.7,89.4,65.6,88.8,68.6z"/>
		<path class="st0" d="M89.1,75.6c-0.1-0.3-2.9,8.6-15.5,8.1c0.1,3.6-0.7,8.3-1.1,8.9C72.1,93.2,92.6,90.6,89.1,75.6z"/>
		<path class="st0" d="M99.3,105.4c0,0-0.4,1.4-3.1,3.3c-0.6,0.2,3.1,2.6,7.2,0.9C104.6,109.2,99.7,108.8,99.3,105.4z"/>
		<path class="st0" d="M93.5,83.7c-1.8,15.7-20.7,17.6-21.5,17.4c-1-0.2-0.9,1,1.3,1.4c16.9,1.7,22.8-13.2,21.4-17.9
			C94.5,83.5,93.8,82.9,93.5,83.7z"/>
		<path class="st0" d="M97.9,90.4c0.1,13.8-13.7,18.5-14.8,18.2C93,110.2,100.9,99.3,97.9,90.4z"/>
		<path class="st0" d="M84.7,67c-1,0.2-2.9,6.9-13.6,3.9c0,0,0.8,2.3,0.8,2.8c3,2.3,11.3,1.1,12.9-3.7C84.7,68.7,84.7,67,84.7,67z"
			/>
		<path class="st0" d="M65.1,60c-1,4.8,6.6,9.3,10.1,9.5c6.6,0.2,12.2-7.7,10.2-13.4c-2.4-4.5-7.8-1.7-8-1.2
			c-0.3,0.4-0.5,0.4-0.9,0.2c-0.4-0.2-1.6-0.4-2.2-0.3c-0.6,0.1-0.4,1-0.4,1.5c-0.1,0.5-0.6,1.1-0.8,0.8
			C72.3,55.8,66.1,55.2,65.1,60z"/>
		<path class="st0" d="M81.9,51.8c0,0.3,0.3-5.5-2.9-5.4c-2.8,0.1-1.8,5.7-1.2,6.6c0.7-0.2,1.1-0.4,1.1-0.4s-0.4-2.5,0.8-3
			c1.2-0.5,1.5,1.8,1.5,2.4C81.2,52.4,81.9,51.8,81.9,51.8z"/>
		<path class="st0" d="M71.6,54.3c0,0,1-6.8-2.6-6.4c-2.9-0.2-2.6,5.7-2.3,6l1,0.1c0,0,0-3.3,1.8-2.8c1.3,0.1,1.1,2.7,1,3.1
			L71.6,54.3z"/>
		<path class="st0" d="M79.7,39c0,0-2.1,2.3-3,3.9c0,0-0.6,1.1-1,1.8c-0.1,0.3-1.1-0.1-0.9-0.8c0.2-0.6,2.6-3.7,4.2-4.9
			C80.6,37.9,79.7,39,79.7,39z"/>
		<path class="st0" d="M66.6,39.2c0,0,1.9,2.2,2.8,3.8c0,0,0.5,0.9,0.9,2.3c0.1,0.3,1.1-0.1,0.9-0.7c-0.2-0.7-2.4-4.1-3.9-5.3
			C65.7,38,66.6,39.2,66.6,39.2z"/>
		<path class="st0" d="M65.7,37.5c0,0.6-0.5,1.1-1.1,1.1c-0.6,0-1.1-0.5-1.1-1.1c0-0.6,0.5-1.2,1.1-1.2
			C65.2,36.3,65.7,36.8,65.7,37.5z"/>
		<ellipse class="st0" cx="82.1" cy="37" rx="1.1" ry="1.2"/>
		<path class="st0" d="M64.8,56c-0.1-0.5-13.7-9.7-20.9-10.5c-4.3-0.8-6.9,2.6-7.9,4c5.2-0.1,7.5,0.2,6.9,0.3l-0.7-2
			c0,0-0.1-0.5,0.6-0.5c0.7,0,3.1,2.3,4,2.5c0.9,0.1,3.8-1.6,16.7,7.5C63.5,57.3,63.7,56.4,64.8,56z"/>
		<path class="st0" d="M69,74.5c-0.1-0.4,3.2,10.6-1.8,21.3c-0.2,1.6-9.7,12.3-10.3,13c-0.6,0.7-7,5.8-14,5.2
			c-14.9-1.3-25.7-10.8-28.3-10.8c1.5-0.9,2.8-3.4,2-4.2c-0.5-0.5-3.4,2.3-5.9,1.3c-0.5-0.8,2.3-2.3,1.2-3.5C11.3,96.3,9,97,9,97
			s5.2-2.3,4.8-4c0.5-0.6-8.3,0.8-8.8,0.4c-0.9-0.5-1.2-2.1-0.7-2.6c0.5-0.5,5.1-0.9,6.7-5.4c1.6-4.5,1.5-8.9,2.1-12
			c0.6-3.4,8-16,17.3-19.4c9.3-3.4,17.5-1.6,19-1.8c2.9,0.7,5.5,3.2,5.6,3.9c0.1,0.7-8.6-1.4-10.7,3.4c0.2,0.8,1.7,0.1,2.4,0.1
			c0.7,0,7.2-3.4,8.8-1.5c0.7,1.1-6,2.5-6.3,2.6c-0.4,0.1-10.3,2.9-8.9,5.3c0.3,1.5,8.7-4,9.4-3.3c0.7,1.1-0.2,0.7-0.1,1.1
			c0.1,0.4,0.6,1.4,0.6,1.4s-4.3,2.5-3.8,3.2c0.6,0.7,1.9-0.1,2.1,0.2c0.2,0.3,0.4,1.3,0.1,1.8c-0.2,0.5-0.6,0.6-0.5,1.1
			c0.1,0.5-0.1,0.4-0.4,1.1c-0.5,1.2-8.9,3.4-8.1,5.4c0.6,1.5,10.5-3.5,12-4.5c1.5-0.9,2.6-0.1,3.3-0.5c0.7-0.4,1.9-1.4,1.8-0.7
			c-0.1,0.7-4.1,4.6-2.2,4.5c1.9-0.1,3.2-2.9,4.1-3.5c0.9-0.6,1.5-0.7,2.3-1.4c0.8-0.7,0.7-1.1,0.9-2.1c0.2-1.1-0.6-0.8,0.2-1.1
			c0.8-0.2,3.2,1.3,2.2,2.7c-0.9,1.4-10.1,8-6.8,9.2c2.9,0.7,8.8-10.6,9.9-12.7c0.9,0.9,1.4,2.1,0.8,3.2c-0.6,1.9-0.9,4.5-4.2,8.5
			c0,0-3.1,2.3-2.1,3.3c0.9,0.9,2.6-0.7,3.6-2.4C66.1,79.3,69,74.5,69,74.5z"/>
		<path class="st0" d="M61.6,60.7c0,0-4.7-0.3-6.7,2c-2,2.3-2.2,5.5,0.9,6c3.2,0.5,4.7-2,4.9-2.6c0.2-0.6,0.9-1.2,1.1-0.4
			c0.1,0.8,1.4,0.9,1.8,0.4c0.4-0.6,0.4-1.8-0.5-2.7c-0.9-0.4-1.4,0.7-1.6,0.2c0,0-0.7-1.2,1.1-1.3C63.9,62.1,62.5,60.3,61.6,60.7z"
			/>
	</g>
	<path d="M81.2,55.8c-2.1-0.9-1.1,1-1.4,1.4c-2.7,3-10.1,3-10.2,2.6c-0.9-3.5-2.5,0.3-2.3,0.5c-0.6,2.2,1.6,1.2,2,1.3
		c8.2,10.6,11.9-0.2,11.8-2.5c0.2-1.4,0.8-1.6,1.4-1.8C83.2,56.3,82.6,56,81.2,55.8z M76.1,64.6c-2,0.4-4.9-2.6-5.5-3.6
		c-0.1-0.2,5.8,1.2,9-2.1C80.2,58.7,78.5,64.3,76.1,64.6z"/>
	<g>
		<path d="M45,56.1c-0.9,0.2-6.1,0.7-8,1.1c-0.7,0-1.3,0.4-1.9,0.6c-0.6,0.2-5.3,3.8-5.6,3.9c-0.4,0.1-2,0.1-1.6-0.6
			c0.4-0.7,5.8-4.6,6.6-4.9c0.8-0.4,9.6-1.6,10.1-1.6C45,54.5,46.1,55.4,45,56.1z"/>
		<path d="M41,69c0,0-4.5,0.4-4.8,0.5c-0.4,0.1-0.9,0.5-1.3,0.7c-0.4,0.2-2.4,2.5-2.5,3.1c-0.1,0.6,0.4,1.4,1.2,1.2
			c0.8-0.2,1.9-2.8,3.4-2.9c1.6-0.3,3.6-0.1,4.2-0.6C42,71,42.2,69.3,41,69z"/>
		<path d="M23,71.7c0,0-1.2,3.8-1.4,4.1c-0.2,0.4-1.9,1.6-2.1,2.2c-0.2,0.6-3.8,8-4.1,8c-0.4,0-1.2-0.6-0.8-0.9
			c0.4-0.3,1.3-5.4,1.9-6.6c0.6-1.2,1.1-2,1.9-2.7c0.8-0.7,2.6-2.6,2.9-3.2C21.6,72.1,22.5,70.1,23,71.7z"/>
		<path d="M35.9,90c0,0-4.8,3.4-5.4,3.4c-0.6,0-1.2-0.6-1.9-0.1c-0.7,0.5-1.6,0.4-2,0.5c-0.4,0.1-2.9,0.2-3.8,0.2
			c-0.8,0-3.5-0.8-3.3,0c0.2,0.8,4.3,2.7,5.4,2.8C26,97,29.5,96.6,31,96c1.5-0.6,7.9-3.6,7.6-5.3C38.4,89.1,36.7,89.2,35.9,90z"/>
		<path d="M59.1,83c0,0-1.6,4.5-7.9,8.5c0,0-3.3,1.2-4,1.3c-0.7,0.1-1.2,0.1-1.8,0.2c-0.6,0.1-2.1,0.8-2.6,0.6
			c-0.5-0.2,1.4-2.8,2.2-3.3c0.8-0.5,2.8-0.6,4.2-1.3c1.4-0.7,7.8-5.3,8.5-5.9C58.5,82.3,59.5,81.7,59.1,83z"/>
		<path d="M50.1,99.4c0,0-0.6,2.8-2.5,3.9c-3.6,2.7-12.2,3.2-13.3,2.8c-1.1-0.4-2.6-2.2-3.5-2.8c-0.4-0.2-3.2-2.2-3.1-2.7
			c0.5-1.4,4.9,2,6.5,2.6c1.5,0.6,11.2-1.6,12.2-1.9C48.3,101.1,49.5,98.2,50.1,99.4z"/>
		<path d="M35.1,107.8c-0.4-0.5-4.2-0.7-5.2-1.1c-0.9-0.4-2.3-1.1-2.9-1.4c-0.6-0.3-3.1-1.3-4-1.9c-0.9-0.6-3.6-2.7-4.2-2.7
			c-0.6,0-0.2,0.8,4.3,4.3c4.6,3.5,5.3,3.4,6.3,3.6c1.1,0.2,8.9,2.9,10.5,3.1c1.5,0.1,2.3,0.6,3.3,0.2c0.9-0.4,3.5-0.9,4-1.4
			c0.5-0.5,0.1-1.3-0.7-1.3c-0.8,0-3.2,2.1-5.3,1.6c-2.1-0.5-8-2.2-8.6-2.5C32.1,108.3,36.2,109,35.1,107.8z"/>
		<path d="M66.6,82.6c-0.2,0.3-0.5,1.8-0.3,2.6c0.1,0.8,0.1,1.5,0.1,1.5s-0.7-0.6-1.2-1.1c-0.5-0.5-0.9-1.2-1.1-0.3
			c-0.1,0.8,1.3,4.9,0.5,6.9c-0.5,1.3-7.4,7.9-6.8,9.5c0.6,1.6,0.8,0.2,1.3-0.2c0.5-0.5,7.5-8.2,8-9.2c0.5-0.9,1.6-1.9,1.1-4.7
			C67.6,85.4,66.9,82.2,66.6,82.6z"/>
	</g>
</g>
</svg>
