<?xml version="1.0" encoding="utf-8"?>
<!-- Generator: Adobe Illustrator 19.2.1, SVG Export Plug-In . SVG Version: 6.00 Build 0)  -->
<svg version="1.1" id="Layer_1" xmlns="http://www.w3.org/2000/svg" xmlns:xlink="http://www.w3.org/1999/xlink" x="0px" y="0px"
	 viewBox="0 0 202 343" style="enable-background:new 0 0 202 343;" xml:space="preserve">
<style type="text/css">
	.st0{fill:#FFFFFF;}
	.st1{fill:#010101;}
	.st2{fill:#231F20;}
</style>
<g>
	<g>
		<rect x="0.5" y="0.5" class="st0" width="201" height="342"/>
		<path class="st1" d="M202,343H0V0h202V343z M1,342h200V1H1V342z"/>
	</g>
	<g>
		<g>
			<rect x="13.4" y="65.7" class="st2" width="175.9" height="2.6"/>
		</g>
		<g>
			<rect x="13.3" y="266.1" class="st2" width="175.9" height="2.6"/>
		</g>
		<g>
			<rect x="13.4" y="99.2" class="st2" width="175.6" height="1.7"/>
		</g>
		<g>
			<rect x="13.4" y="116.1" class="st2" width="175.6" height="0.9"/>
		</g>
		<g>
			<rect x="13.7" y="133.3" class="st2" width="175.5" height="0.9"/>
		</g>
		<g>
			<rect x="13.5" y="182.6" class="st2" width="175.9" height="0.9"/>
		</g>
		<g>
			<rect x="13.1" y="165.5" class="st2" width="176.3" height="0.9"/>
		</g>
		<g>
			<rect x="13.9" y="199.6" class="st2" width="175.5" height="0.9"/>
		</g>
		<g>
			<rect x="13.7" y="216.8" class="st2" width="175.6" height="0.9"/>
		</g>
		<g>
			<rect x="19.8" y="233.6" class="st2" width="169.5" height="0.9"/>
		</g>
		<g>
			<rect x="13.7" y="250.3" class="st2" width="175.6" height="0.9"/>
		</g>
		<g>
			<rect x="13.7" y="282.6" class="st2" width="174.8" height="0.9"/>
		</g>
		<g>
			
				<rect x="13.7" y="316.6" transform="matrix(1 -3.355686e-03 3.355686e-03 1 -1.0634 0.3411)" class="st2" width="174.8" height="0.9"/>
		</g>
		<g>
			<rect x="13.7" y="299.3" class="st2" width="174.8" height="0.9"/>
		</g>
		<g>
			<g>
				<path class="st2" d="M14.4,28.5V13.2h2l4.4,7.7c1,1.8,1.8,3.4,2.5,4.9l0,0c-0.2-2-0.2-3.9-0.2-6.3v-6.4h1.7v15.2h-1.8l-4.4-7.7
					c-1-1.7-1.9-3.4-2.6-5.1l-0.1,0c0.1,1.9,0.1,3.7,0.1,6.3v6.5H14.4z"/>
			</g>
			<g>
				<path class="st2" d="M36.1,25.5c0,1.1,0,2.1,0.1,3h-1.6l-0.1-1.8h0c-0.5,0.9-1.5,2-3.3,2c-1.6,0-3.4-0.9-3.4-4.8v-6.4h1.8v6
					c0,2.1,0.6,3.5,2.2,3.5c1.2,0,2.1-0.9,2.4-1.8c0.1-0.3,0.2-0.7,0.2-1v-6.7h1.8V25.5z"/>
			</g>
			<g>
				<path class="st2" d="M41.1,14.9v2.6h2.6V19h-2.6v5.9c0,1.4,0.4,2.1,1.4,2.1c0.5,0,0.8,0,1.1-0.1l0.1,1.5
					c-0.4,0.2-0.9,0.3-1.6,0.3c-0.8,0-1.5-0.3-2-0.9c-0.5-0.6-0.7-1.6-0.7-2.8v-6h-1.5v-1.5h1.5v-2L41.1,14.9z"/>
			</g>
			<g>
				<path class="st2" d="M45.5,20.9c0-1.3,0-2.4-0.1-3.4H47l0.1,2.1h0.1c0.5-1.5,1.5-2.4,2.8-2.4c0.2,0,0.4,0,0.5,0.1v1.9
					c-0.2,0-0.4-0.1-0.6-0.1c-1.3,0-2.2,1.1-2.4,2.6c0,0.3-0.1,0.6-0.1,0.9v5.8h-1.8V20.9z"/>
			</g>
			<g>
				<path class="st2" d="M54.1,14.5c0,0.7-0.4,1.2-1.2,1.2c-0.6,0-1.1-0.5-1.1-1.2c0-0.7,0.5-1.2,1.1-1.2
					C53.7,13.2,54.1,13.8,54.1,14.5z M52.1,28.5V17.5h1.8v10.9H52.1z"/>
			</g>
			<g>
				<path class="st2" d="M58.9,14.9v2.6h2.6V19h-2.6v5.9c0,1.4,0.4,2.1,1.4,2.1c0.5,0,0.8,0,1.1-0.1l0.1,1.5
					c-0.4,0.2-0.9,0.3-1.6,0.3c-0.8,0-1.5-0.3-2-0.9c-0.5-0.6-0.7-1.6-0.7-2.8v-6h-1.5v-1.5h1.5v-2L58.9,14.9z"/>
			</g>
			<g>
				<path class="st2" d="M65.3,14.5c0,0.7-0.4,1.2-1.2,1.2c-0.6,0-1.1-0.5-1.1-1.2c0-0.7,0.5-1.2,1.1-1.2
					C64.9,13.2,65.3,13.8,65.3,14.5z M63.3,28.5V17.5h1.8v10.9H63.3z"/>
			</g>
			<g>
				<path class="st2" d="M77,22.9c0,4-2.6,5.8-5,5.8c-2.7,0-4.8-2.2-4.8-5.6c0-3.7,2.2-5.8,4.9-5.8C75,17.3,77,19.6,77,22.9z
					 M69.1,23c0,2.4,1.3,4.2,3,4.2c1.7,0,3-1.8,3-4.2c0-1.9-0.8-4.2-3-4.2C70,18.8,69.1,20.9,69.1,23z"/>
			</g>
			<g>
				<path class="st2" d="M79,20.5c0-1.1,0-2.1-0.1-3h1.6l0.1,1.8h0c0.5-1,1.6-2.1,3.3-2.1c1.4,0,3.5,0.9,3.5,4.6v6.5h-1.8v-6.3
					c0-1.8-0.6-3.2-2.3-3.2c-1.2,0-2.1,0.9-2.4,2c-0.1,0.2-0.1,0.6-0.1,0.9v6.6H79V20.5z"/>
			</g>
			<g>
				<path class="st2" d="M94.5,13.2h7.5v1.6h-5.7v5.1h5.3v1.6h-5.3v6.9h-1.8V13.2z"/>
			</g>
			<g>
				<path class="st2" d="M110.3,25.8c0,0.9,0,1.9,0.2,2.6h-1.6l-0.1-1.4h-0.1c-0.6,0.9-1.6,1.6-3,1.6c-2,0-3-1.6-3-3.1
					c0-2.6,2.1-4.1,6-4.1v-0.2c0-0.9-0.2-2.5-2.3-2.5c-0.9,0-1.9,0.3-2.6,0.8l-0.4-1.3c0.8-0.6,2-1,3.3-1c3,0,3.8,2.3,3.8,4.5V25.8z
					 M108.6,22.9c-2,0-4.2,0.3-4.2,2.5c0,1.3,0.8,1.9,1.7,1.9c1.3,0,2.1-0.9,2.4-1.8c0.1-0.2,0.1-0.4,0.1-0.6V22.9z"/>
			</g>
			<g>
				<path class="st2" d="M120.2,28c-0.5,0.3-1.5,0.7-2.9,0.7c-3,0-5-2.3-5-5.6c0-3.4,2.1-5.8,5.4-5.8c1.1,0,2,0.3,2.5,0.6l-0.4,1.5
					c-0.4-0.3-1.1-0.5-2.1-0.5c-2.3,0-3.5,1.9-3.5,4.1c0,2.5,1.5,4.1,3.5,4.1c1,0,1.7-0.3,2.2-0.5L120.2,28z"/>
			</g>
			<g>
				<path class="st2" d="M124.5,14.9v2.6h2.6V19h-2.6v5.9c0,1.4,0.4,2.1,1.4,2.1c0.5,0,0.8,0,1.1-0.1l0.1,1.5
					c-0.4,0.2-0.9,0.3-1.6,0.3c-0.8,0-1.5-0.3-2-0.9c-0.5-0.6-0.7-1.6-0.7-2.8v-6h-1.5v-1.5h1.5v-2L124.5,14.9z"/>
			</g>
			<g>
				<path class="st2" d="M128.7,26.4c0.5,0.4,1.5,0.8,2.4,0.8c1.3,0,1.9-0.7,1.9-1.6c0-0.9-0.5-1.5-1.9-2c-1.8-0.7-2.6-1.8-2.6-3.1
					c0-1.8,1.3-3.2,3.4-3.2c1,0,1.9,0.3,2.5,0.7l-0.5,1.4c-0.4-0.3-1.1-0.6-2-0.6c-1.1,0-1.7,0.7-1.7,1.5c0,0.9,0.6,1.3,1.9,1.9
					c1.7,0.7,2.6,1.7,2.6,3.3c0,1.9-1.4,3.3-3.7,3.3c-1.1,0-2.1-0.3-2.8-0.8L128.7,26.4z"/>
			</g>
			<g>
				<path class="st2" d="M17.5,45.6L13,30.4h1.9l2.2,7.5c0.6,2.1,1.1,3.9,1.5,5.7h0c0.4-1.8,1-3.7,1.6-5.7l2.3-7.5h1.9l-5,15.2H17.5
					z"/>
			</g>
			<g>
				<path class="st2" d="M32,42.9c0,0.9,0,1.9,0.2,2.6h-1.6l-0.1-1.4h-0.1c-0.6,0.9-1.6,1.6-3,1.6c-2,0-3-1.6-3-3.1
					c0-2.6,2.1-4.1,6-4.1v-0.2c0-0.9-0.2-2.5-2.3-2.5c-0.9,0-1.9,0.3-2.6,0.8l-0.4-1.3c0.8-0.6,2-1,3.3-1c3,0,3.8,2.3,3.8,4.5V42.9z
					 M30.2,40c-2,0-4.2,0.3-4.2,2.5c0,1.3,0.8,1.9,1.7,1.9c1.3,0,2.1-0.9,2.4-1.8c0.1-0.2,0.1-0.4,0.1-0.6V40z"/>
			</g>
			<g>
				<path class="st2" d="M34.7,29.5h1.8v16h-1.8V29.5z"/>
			</g>
			<g>
				<path class="st2" d="M40.4,40.5c0,2.7,1.6,3.8,3.4,3.8c1.3,0,2.1-0.2,2.8-0.6l0.3,1.4c-0.6,0.3-1.7,0.7-3.3,0.7
					c-3.1,0-4.9-2.2-4.9-5.5c0-3.3,1.8-5.9,4.7-5.9c3.3,0,4.1,3.1,4.1,5.1c0,0.4,0,0.7-0.1,0.9H40.4z M45.7,39
					c0-1.3-0.5-3.2-2.5-3.2c-1.8,0-2.6,1.9-2.8,3.2H45.7z"/>
			</g>
			<g>
				<path class="st2" d="M57.8,42.6c0,1.1,0,2.1,0.1,3h-1.6l-0.1-1.8h0c-0.5,0.9-1.5,2-3.3,2c-1.6,0-3.4-0.9-3.4-4.8v-6.4h1.8v6
					c0,2.1,0.6,3.5,2.2,3.5c1.2,0,2.1-0.9,2.4-1.8c0.1-0.3,0.2-0.7,0.2-1v-6.7h1.8V42.6z"/>
			</g>
			<g>
				<path class="st2" d="M60.6,38c0-1.3,0-2.4-0.1-3.4h1.6l0.1,2.1h0.1c0.5-1.5,1.5-2.4,2.8-2.4c0.2,0,0.4,0,0.5,0.1v1.9
					c-0.2,0-0.4-0.1-0.6-0.1c-1.3,0-2.2,1.1-2.4,2.6c0,0.3-0.1,0.6-0.1,0.9v5.8h-1.8V38z"/>
			</g>
			<g>
				<path class="st2" d="M71.3,37.6c0-1.1,0-2.1-0.1-3h1.6l0.1,1.8h0c0.5-1,1.6-2.1,3.3-2.1c1.4,0,3.5,0.9,3.5,4.6v6.5H78v-6.3
					c0-1.8-0.6-3.2-2.3-3.2c-1.2,0-2.1,0.9-2.4,2c-0.1,0.2-0.1,0.6-0.1,0.9v6.6h-1.8V37.6z"/>
			</g>
			<g>
				<path class="st2" d="M90.9,42.6c0,1.1,0,2.1,0.1,3h-1.6l-0.1-1.8h0c-0.5,0.9-1.5,2-3.3,2c-1.6,0-3.4-0.9-3.4-4.8v-6.4h1.8v6
					c0,2.1,0.6,3.5,2.2,3.5c1.2,0,2.1-0.9,2.4-1.8c0.1-0.3,0.2-0.7,0.2-1v-6.7h1.8V42.6z"/>
			</g>
			<g>
				<path class="st2" d="M95.9,32v2.6h2.6v1.5h-2.6V42c0,1.4,0.4,2.1,1.4,2.1c0.5,0,0.8,0,1.1-0.1l0.1,1.5c-0.4,0.2-0.9,0.3-1.6,0.3
					c-0.8,0-1.5-0.3-2-0.9c-0.5-0.6-0.7-1.6-0.7-2.8v-6h-1.5v-1.5h1.5v-2L95.9,32z"/>
			</g>
			<g>
				<path class="st2" d="M100.3,38c0-1.3,0-2.4-0.1-3.4h1.6l0.1,2.1h0.1c0.5-1.5,1.5-2.4,2.8-2.4c0.2,0,0.4,0,0.5,0.1v1.9
					c-0.2,0-0.4-0.1-0.6-0.1c-1.3,0-2.2,1.1-2.4,2.6c0,0.3-0.1,0.6-0.1,0.9v5.8h-1.8V38z"/>
			</g>
			<g>
				<path class="st2" d="M108.9,31.6c0,0.7-0.4,1.2-1.2,1.2c-0.6,0-1.1-0.5-1.1-1.2c0-0.7,0.5-1.2,1.1-1.2
					C108.5,30.3,108.9,30.9,108.9,31.6z M106.9,45.6V34.6h1.8v10.9H106.9z"/>
			</g>
			<g>
				<path class="st2" d="M113.7,32v2.6h2.6v1.5h-2.6V42c0,1.4,0.4,2.1,1.4,2.1c0.5,0,0.8,0,1.1-0.1l0.1,1.5
					c-0.4,0.2-0.9,0.3-1.6,0.3c-0.8,0-1.5-0.3-2-0.9c-0.5-0.6-0.7-1.6-0.7-2.8v-6h-1.5v-1.5h1.5v-2L113.7,32z"/>
			</g>
			<g>
				<path class="st2" d="M120.2,31.6c0,0.7-0.4,1.2-1.2,1.2c-0.6,0-1.1-0.5-1.1-1.2c0-0.7,0.5-1.2,1.1-1.2
					C119.7,30.3,120.2,30.9,120.2,31.6z M118.1,45.6V34.6h1.8v10.9H118.1z"/>
			</g>
			<g>
				<path class="st2" d="M123.5,34.6l2,6.1c0.3,1,0.6,1.9,0.8,2.8h0.1c0.2-0.9,0.5-1.8,0.8-2.8l1.9-6.1h1.9L127,45.6h-1.7l-3.8-10.9
					H123.5z"/>
			</g>
			<g>
				<path class="st2" d="M133.3,40.5c0,2.7,1.6,3.8,3.4,3.8c1.3,0,2.1-0.2,2.8-0.6l0.3,1.4c-0.6,0.3-1.7,0.7-3.3,0.7
					c-3.1,0-4.9-2.2-4.9-5.5c0-3.3,1.8-5.9,4.7-5.9c3.3,0,4.1,3.1,4.1,5.1c0,0.4,0,0.7-0.1,0.9H133.3z M138.6,39
					c0-1.3-0.5-3.2-2.5-3.2c-1.8,0-2.6,1.9-2.8,3.2H138.6z"/>
			</g>
			<g>
				<path class="st2" d="M13.7,54.2c0.5-0.1,1.1-0.2,1.9-0.2c1,0,1.7,0.2,2.1,0.7c0.4,0.4,0.7,1,0.7,1.7c0,0.7-0.2,1.3-0.6,1.7
					c-0.5,0.6-1.3,0.9-2.3,0.9c-0.3,0-0.6,0-0.8-0.1v3.3h-1V54.2z M14.7,58.1c0.2,0.1,0.5,0.1,0.8,0.1c1.2,0,1.9-0.6,1.9-1.7
					c0-1.1-0.7-1.6-1.8-1.6c-0.4,0-0.7,0-0.9,0.1V58.1z"/>
			</g>
			<g>
				<path class="st2" d="M20,59.5c0,1.4,0.9,2,1.8,2c0.7,0,1.1-0.1,1.5-0.3l0.2,0.8c-0.3,0.2-0.9,0.4-1.8,0.4c-1.7,0-2.6-1.2-2.6-3
					c0-1.8,1-3.2,2.5-3.2c1.8,0,2.2,1.7,2.2,2.8c0,0.2,0,0.4,0,0.5H20z M22.9,58.7c0-0.7-0.3-1.7-1.4-1.7c-1,0-1.4,1-1.5,1.7H22.9z"
					/>
			</g>
			<g>
				<path class="st2" d="M24.9,58.2c0-0.7,0-1.3,0-1.8h0.9l0,1.2h0c0.2-0.8,0.8-1.3,1.5-1.3c0.1,0,0.2,0,0.3,0v1c-0.1,0-0.2,0-0.3,0
					c-0.7,0-1.2,0.6-1.3,1.4c0,0.1,0,0.3,0,0.5v3.1h-1V58.2z"/>
			</g>
			<g>
				<path class="st2" d="M30.6,61c0.3,0.2,0.9,0.5,1.6,0.5c1.3,0,1.6-0.9,1.6-1.5c0-1.1-0.9-1.6-1.9-1.6h-0.5v-0.8H32
					c0.7,0,1.6-0.4,1.6-1.3c0-0.6-0.4-1.2-1.3-1.2c-0.6,0-1.1,0.3-1.4,0.5l-0.3-0.8c0.4-0.3,1.1-0.6,1.9-0.6c1.4,0,2.1,0.9,2.1,1.9
					c0,0.8-0.4,1.5-1.3,1.9v0c0.9,0.2,1.6,0.9,1.6,2c0,1.3-0.9,2.4-2.6,2.4c-0.8,0-1.5-0.3-1.9-0.5L30.6,61z"/>
			</g>
			<g>
				<path class="st2" d="M40.7,58.2c0,2.7-0.9,4.2-2.5,4.2c-1.4,0-2.4-1.4-2.4-4.1c0-2.6,1-4.1,2.5-4.1
					C39.9,54.2,40.7,55.7,40.7,58.2z M36.8,58.3c0,2.1,0.6,3.2,1.5,3.2c1,0,1.5-1.3,1.5-3.3c0-1.9-0.5-3.2-1.5-3.2
					C37.4,55,36.8,56.2,36.8,58.3z"/>
			</g>
			<g>
				<path class="st2" d="M41.8,58c0-0.6,0-1.1,0-1.6h0.9l0,0.9h0c0.3-0.6,0.8-1.1,1.7-1.1c0.7,0,1.3,0.5,1.5,1.2h0
					c0.2-0.3,0.4-0.6,0.6-0.8c0.3-0.3,0.7-0.4,1.2-0.4c0.7,0,1.8,0.5,1.8,2.6v3.5h-1v-3.3c0-1.1-0.4-1.8-1.2-1.8c-0.6,0-1,0.4-1.2,1
					c0,0.1-0.1,0.3-0.1,0.5v3.6h-1v-3.5c0-0.9-0.4-1.6-1.1-1.6c-0.6,0-1.1,0.5-1.2,1.1c-0.1,0.2-0.1,0.3-0.1,0.5v3.5h-1V58z"/>
			</g>
			<g>
				<path class="st2" d="M51,53.6h1v8.6h-1V53.6z"/>
			</g>
			<g>
				<path class="st2" d="M57.8,53.8c-0.8,1.2-1.4,2.8-1.4,5c0,2.2,0.6,3.7,1.4,4.9h-0.8c-0.7-1-1.5-2.6-1.5-4.9c0-2.4,0.8-3.9,1.5-5
					H57.8z"/>
			</g>
			<g>
				<path class="st2" d="M58.7,61c0.3,0.2,0.9,0.5,1.6,0.5c1.3,0,1.6-0.9,1.6-1.5c0-1.1-0.9-1.6-1.9-1.6h-0.5v-0.8H60
					c0.7,0,1.6-0.4,1.6-1.3c0-0.6-0.4-1.2-1.3-1.2c-0.6,0-1.1,0.3-1.4,0.5l-0.3-0.8c0.4-0.3,1.1-0.6,1.9-0.6c1.4,0,2.1,0.9,2.1,1.9
					c0,0.8-0.4,1.5-1.3,1.9v0c0.9,0.2,1.6,0.9,1.6,2c0,1.3-0.9,2.4-2.6,2.4c-0.8,0-1.5-0.3-1.9-0.5L58.7,61z"/>
			</g>
			<g>
				<path class="st2" d="M68.7,54.4v0.7l-3.1,7.2h-1l3.1-7v0h-3.5v-0.9H68.7z"/>
			</g>
			<g>
				<path class="st2" d="M70.3,62.4c-0.4,0-0.6-0.3-0.6-0.8c0-0.4,0.3-0.8,0.7-0.8c0.4,0,0.7,0.3,0.7,0.8
					C71,62.1,70.8,62.4,70.3,62.4L70.3,62.4z"/>
			</g>
			<g>
				<path class="st2" d="M73.1,58.1C72.3,57.7,72,57,72,56.3c0-1.3,1-2.1,2.2-2.1c1.4,0,2.1,1,2.1,1.9c0,0.7-0.3,1.4-1.2,1.8v0
					c0.9,0.4,1.5,1.1,1.5,2c0,1.4-1.1,2.3-2.5,2.3c-1.5,0-2.4-1-2.4-2.1C71.7,59.3,72.3,58.5,73.1,58.1L73.1,58.1z M75.6,60.2
					c0-1-0.6-1.4-1.6-1.7c-0.8,0.3-1.3,0.9-1.3,1.6c0,0.8,0.5,1.5,1.4,1.5C75,61.6,75.6,61,75.6,60.2z M72.9,56.3
					c0,0.8,0.5,1.2,1.4,1.5c0.6-0.2,1.1-0.7,1.1-1.4c0-0.6-0.3-1.3-1.2-1.3C73.3,55,72.9,55.6,72.9,56.3z"/>
			</g>
			<g>
				<path class="st2" d="M84.5,61.4c0,1.3-0.2,2.2-0.8,2.7c-0.5,0.5-1.3,0.7-2,0.7c-0.6,0-1.4-0.2-1.8-0.5l0.2-0.8
					c0.4,0.2,0.9,0.5,1.6,0.5c1,0,1.7-0.6,1.7-2.1v-0.7h0c-0.3,0.5-0.9,1-1.7,1c-1.3,0-2.3-1.2-2.3-2.9c0-2,1.2-3.1,2.4-3.1
					c0.9,0,1.4,0.5,1.7,1h0l0-0.9h0.9c0,0.4,0,0.9,0,1.6V61.4z M83.5,58.7c0-0.2,0-0.3-0.1-0.5c-0.2-0.6-0.7-1.1-1.4-1.1
					c-0.9,0-1.6,0.9-1.6,2.2c0,1.2,0.5,2.1,1.6,2.1c0.6,0,1.1-0.4,1.4-1.1c0.1-0.2,0.1-0.4,0.1-0.6V58.7z"/>
			</g>
			<g>
				<path class="st2" d="M85.4,63.7c0.8-1.2,1.4-2.8,1.4-5c0-2.2-0.6-3.7-1.4-4.9h0.8c0.7,1,1.5,2.6,1.5,4.9c0,2.4-0.7,3.9-1.5,5
					H85.4z"/>
			</g>
			<g>
				<path class="st2" d="M90.5,62.7l3.1-8.8h0.8l-3.1,8.8H90.5z"/>
			</g>
			<g>
				<path class="st2" d="M97.2,58.3c0-0.8,0-1.4,0-1.9h0.9l0,1h0c0.4-0.7,1-1.1,1.9-1.1c1.3,0,2.3,1.2,2.3,3c0,2.1-1.2,3.2-2.4,3.2
					c-0.7,0-1.3-0.3-1.7-0.9h0v3.2h-1V58.3z M98.2,59.9c0,0.2,0,0.3,0,0.4c0.2,0.7,0.8,1.3,1.5,1.3c1,0,1.6-0.9,1.6-2.3
					c0-1.2-0.6-2.2-1.6-2.2c-0.7,0-1.3,0.5-1.5,1.3c0,0.1-0.1,0.3-0.1,0.4V59.9z"/>
			</g>
			<g>
				<path class="st2" d="M107.2,60.8c0,0.5,0,1,0.1,1.4h-0.9l-0.1-0.7h0c-0.3,0.5-0.9,0.9-1.6,0.9c-1.1,0-1.6-0.8-1.6-1.7
					c0-1.4,1.2-2.2,3.2-2.2v-0.1c0-0.5-0.1-1.4-1.2-1.4c-0.5,0-1,0.2-1.4,0.4l-0.2-0.7c0.4-0.3,1.1-0.5,1.8-0.5c1.6,0,2,1.2,2,2.4
					V60.8z M106.3,59.3c-1.1,0-2.3,0.2-2.3,1.3c0,0.7,0.4,1,0.9,1c0.7,0,1.1-0.5,1.3-1c0-0.1,0.1-0.2,0.1-0.3V59.3z"/>
			</g>
			<g>
				<path class="st2" d="M108.7,58.2c0-0.7,0-1.3,0-1.8h0.9l0,1.2h0c0.2-0.8,0.8-1.3,1.5-1.3c0.1,0,0.2,0,0.3,0v1
					c-0.1,0-0.2,0-0.3,0c-0.7,0-1.2,0.6-1.3,1.4c0,0.1,0,0.3,0,0.5v3.1h-1V58.2z"/>
			</g>
			<g>
				<path class="st2" d="M114.3,61c0.3,0.2,0.9,0.5,1.6,0.5c1.3,0,1.6-0.9,1.6-1.5c0-1.1-0.9-1.6-1.9-1.6h-0.5v-0.8h0.5
					c0.7,0,1.6-0.4,1.6-1.3c0-0.6-0.4-1.2-1.3-1.2c-0.6,0-1.1,0.3-1.4,0.5l-0.3-0.8c0.4-0.3,1.1-0.6,1.9-0.6c1.4,0,2.1,0.9,2.1,1.9
					c0,0.8-0.4,1.5-1.3,1.9v0c0.9,0.2,1.6,0.9,1.6,2c0,1.3-0.9,2.4-2.6,2.4c-0.8,0-1.5-0.3-1.9-0.5L114.3,61z"/>
			</g>
			<g>
				<path class="st2" d="M124.5,58.2c0,2.7-0.9,4.2-2.5,4.2c-1.4,0-2.4-1.4-2.4-4.1c0-2.6,1-4.1,2.5-4.1
					C123.6,54.2,124.5,55.7,124.5,58.2z M120.6,58.3c0,2.1,0.6,3.2,1.5,3.2c1,0,1.5-1.3,1.5-3.3c0-1.9-0.5-3.2-1.5-3.2
					C121.2,55,120.6,56.2,120.6,58.3z"/>
			</g>
			<g>
				<path class="st2" d="M125.6,58c0-0.6,0-1.1,0-1.6h0.9l0,0.9h0c0.3-0.6,0.8-1.1,1.7-1.1c0.7,0,1.3,0.5,1.5,1.2h0
					c0.2-0.3,0.4-0.6,0.6-0.8c0.3-0.3,0.7-0.4,1.2-0.4c0.7,0,1.8,0.5,1.8,2.6v3.5h-1v-3.3c0-1.1-0.4-1.8-1.2-1.8c-0.6,0-1,0.4-1.2,1
					c0,0.1-0.1,0.3-0.1,0.5v3.6h-1v-3.5c0-0.9-0.4-1.6-1.1-1.6c-0.6,0-1.1,0.5-1.2,1.1c-0.1,0.2-0.1,0.3-0.1,0.5v3.5h-1V58z"/>
			</g>
			<g>
				<path class="st2" d="M134.7,53.6h1v8.6h-1V53.6z"/>
			</g>
			<g>
				<path class="st2" d="M141.6,53.8c-0.8,1.2-1.4,2.8-1.4,5c0,2.2,0.6,3.7,1.4,4.9h-0.8c-0.7-1-1.5-2.6-1.5-4.9
					c0-2.4,0.8-3.9,1.5-5H141.6z"/>
			</g>
			<g>
				<path class="st2" d="M142.4,61c0.3,0.2,0.9,0.5,1.6,0.5c1.3,0,1.6-0.9,1.6-1.5c0-1.1-0.9-1.6-1.9-1.6h-0.5v-0.8h0.5
					c0.7,0,1.6-0.4,1.6-1.3c0-0.6-0.4-1.2-1.3-1.2c-0.6,0-1.1,0.3-1.4,0.5l-0.3-0.8c0.4-0.3,1.1-0.6,1.9-0.6c1.4,0,2.1,0.9,2.1,1.9
					c0,0.8-0.4,1.5-1.3,1.9v0c0.9,0.2,1.6,0.9,1.6,2c0,1.3-0.9,2.4-2.6,2.4c-0.8,0-1.5-0.3-1.9-0.5L142.4,61z"/>
			</g>
			<g>
				<path class="st2" d="M152.5,54.4v0.7l-3.1,7.2h-1l3.1-7v0h-3.5v-0.9H152.5z"/>
			</g>
			<g>
				<path class="st2" d="M154.1,62.4c-0.4,0-0.6-0.3-0.6-0.8c0-0.4,0.3-0.8,0.7-0.8c0.4,0,0.7,0.3,0.7,0.8
					C154.8,62.1,154.5,62.4,154.1,62.4L154.1,62.4z"/>
			</g>
			<g>
				<path class="st2" d="M156.9,58.1c-0.8-0.4-1.1-1.1-1.1-1.8c0-1.3,1-2.1,2.2-2.1c1.4,0,2.1,1,2.1,1.9c0,0.7-0.3,1.4-1.2,1.8v0
					c0.9,0.4,1.5,1.1,1.5,2c0,1.4-1.1,2.3-2.5,2.3c-1.5,0-2.4-1-2.4-2.1C155.4,59.3,156,58.5,156.9,58.1L156.9,58.1z M159.3,60.2
					c0-1-0.6-1.4-1.6-1.7c-0.8,0.3-1.3,0.9-1.3,1.6c0,0.8,0.5,1.5,1.4,1.5C158.8,61.6,159.3,61,159.3,60.2z M156.6,56.3
					c0,0.8,0.5,1.2,1.4,1.5c0.6-0.2,1.1-0.7,1.1-1.4c0-0.6-0.3-1.3-1.2-1.3C157.1,55,156.6,55.6,156.6,56.3z"/>
			</g>
			<g>
				<path class="st2" d="M168.2,61.4c0,1.3-0.2,2.2-0.8,2.7c-0.5,0.5-1.3,0.7-2,0.7c-0.6,0-1.4-0.2-1.8-0.5l0.2-0.8
					c0.4,0.2,0.9,0.5,1.6,0.5c1,0,1.7-0.6,1.7-2.1v-0.7h0c-0.3,0.5-0.9,1-1.7,1c-1.3,0-2.3-1.2-2.3-2.9c0-2,1.2-3.1,2.4-3.1
					c0.9,0,1.4,0.5,1.7,1h0l0-0.9h0.9c0,0.4,0,0.9,0,1.6V61.4z M167.3,58.7c0-0.2,0-0.3-0.1-0.5c-0.2-0.6-0.7-1.1-1.4-1.1
					c-0.9,0-1.6,0.9-1.6,2.2c0,1.2,0.5,2.1,1.6,2.1c0.6,0,1.1-0.4,1.4-1.1c0.1-0.2,0.1-0.4,0.1-0.6V58.7z"/>
			</g>
			<g>
				<path class="st2" d="M169.2,63.7c0.8-1.2,1.4-2.8,1.4-5c0-2.2-0.6-3.7-1.4-4.9h0.8c0.7,1,1.5,2.6,1.5,4.9c0,2.4-0.7,3.9-1.5,5
					H169.2z"/>
			</g>
			<g>
				<path class="st2" d="M14.8,76.5l-0.7,2.4h-0.9l2.4-7.6h1.1l2.4,7.6h-1l-0.7-2.4H14.8z M17.1,75.8l-0.7-2.2
					c-0.2-0.5-0.3-0.9-0.4-1.4h0c-0.1,0.5-0.2,0.9-0.4,1.4L15,75.8H17.1z"/>
			</g>
			<g>
				<path class="st2" d="M19.8,75c0-0.6,0-1,0-1.5h0.8l0,0.9h0c0.3-0.5,0.7-1,1.6-1c0.7,0,1.2,0.5,1.4,1.1h0
					c0.2-0.3,0.4-0.5,0.6-0.7c0.3-0.2,0.6-0.4,1.1-0.4c0.7,0,1.6,0.5,1.6,2.4v3.2H26v-3.1c0-1-0.4-1.7-1.1-1.7
					c-0.5,0-0.9,0.4-1.1,0.9c0,0.1-0.1,0.3-0.1,0.5v3.4h-0.9v-3.3c0-0.9-0.4-1.5-1-1.5c-0.6,0-1,0.5-1.1,1c-0.1,0.1-0.1,0.3-0.1,0.5
					v3.3h-0.9V75z"/>
			</g>
			<g>
				<path class="st2" d="M32.8,76.2c0,2-1.3,2.9-2.5,2.9c-1.3,0-2.4-1.1-2.4-2.8c0-1.8,1.1-2.9,2.5-2.9
					C31.8,73.4,32.8,74.5,32.8,76.2z M28.8,76.2c0,1.2,0.6,2.1,1.5,2.1c0.9,0,1.5-0.9,1.5-2.1c0-0.9-0.4-2.1-1.5-2.1
					S28.8,75.2,28.8,76.2z"/>
			</g>
			<g>
				<path class="st2" d="M38,77.4c0,0.6,0,1.1,0,1.5h-0.8L37.2,78h0c-0.2,0.4-0.8,1-1.6,1c-0.8,0-1.7-0.5-1.7-2.4v-3.2h0.9v3
					c0,1,0.3,1.7,1.1,1.7c0.6,0,1-0.5,1.2-0.9c0.1-0.1,0.1-0.3,0.1-0.5v-3.3H38V77.4z"/>
			</g>
			<g>
				<path class="st2" d="M39.4,75c0-0.6,0-1,0-1.5h0.8l0.1,0.9h0c0.2-0.5,0.8-1,1.6-1c0.7,0,1.8,0.5,1.8,2.3v3.3h-0.9v-3.1
					c0-0.9-0.3-1.6-1.2-1.6c-0.6,0-1.1,0.5-1.2,1c0,0.1-0.1,0.3-0.1,0.5v3.3h-0.9V75z"/>
			</g>
			<g>
				<path class="st2" d="M46.1,72.2v1.3h1.3v0.8h-1.3v2.9c0,0.7,0.2,1.1,0.7,1.1c0.2,0,0.4,0,0.5-0.1l0,0.7
					c-0.2,0.1-0.5,0.1-0.8,0.1c-0.4,0-0.8-0.2-1-0.4c-0.3-0.3-0.4-0.8-0.4-1.4v-3h-0.8v-0.8h0.8v-1L46.1,72.2z"/>
			</g>
			<g>
				<path class="st2" d="M133.3,71.5c0.9,0,1.5,0.8,1.5,2.2c0,1.5-0.7,2.3-1.6,2.3c-0.8,0-1.6-0.7-1.6-2.2
					C131.6,72.3,132.4,71.5,133.3,71.5L133.3,71.5z M133.2,72.1c-0.6,0-0.9,0.7-0.9,1.7c0,0.9,0.3,1.6,0.9,1.6
					c0.6,0,0.9-0.7,0.9-1.7C134.1,72.8,133.8,72.1,133.2,72.1L133.2,72.1z M133.1,79.1l3.9-7.6h0.6l-3.9,7.6H133.1z M137.6,74.5
					c0.9,0,1.5,0.8,1.5,2.2c0,1.5-0.7,2.3-1.6,2.3c-0.8,0-1.6-0.7-1.6-2.2C136,75.3,136.7,74.5,137.6,74.5L137.6,74.5z M137.6,75.1
					c-0.6,0-0.9,0.7-0.9,1.7c0,0.9,0.3,1.6,0.9,1.6c0.6,0,0.9-0.7,0.9-1.7C138.5,75.9,138.2,75.1,137.6,75.1L137.6,75.1z"/>
			</g>
			<g>
				<path class="st2" d="M142.2,71.4c0.5-0.1,1.2-0.2,1.9-0.2c1.3,0,2.2,0.3,2.8,0.9c0.6,0.6,1,1.5,1,2.7c0,1.2-0.4,2.3-1,3
					c-0.6,0.7-1.7,1.1-3.1,1.1c-0.6,0-1.2,0-1.6-0.1V71.4z M143.1,78.2c0.2,0,0.6,0.1,0.9,0.1c1.9,0,3-1.2,3-3.2
					c0-1.8-0.9-2.9-2.8-2.9c-0.5,0-0.8,0-1.1,0.1V78.2z"/>
			</g>
			<g>
				<path class="st2" d="M152.5,77.6c0,0.5,0,0.9,0.1,1.3h-0.8l-0.1-0.7h0c-0.3,0.4-0.8,0.8-1.5,0.8c-1,0-1.5-0.8-1.5-1.6
					c0-1.3,1.1-2,3-2v-0.1c0-0.5-0.1-1.3-1.1-1.3c-0.5,0-0.9,0.2-1.3,0.4l-0.2-0.7c0.4-0.3,1-0.5,1.6-0.5c1.5,0,1.9,1.1,1.9,2.2
					V77.6z M151.6,76.2c-1,0-2.1,0.2-2.1,1.2c0,0.6,0.4,0.9,0.9,0.9c0.6,0,1.1-0.5,1.2-0.9c0-0.1,0.1-0.2,0.1-0.3V76.2z"/>
			</g>
			<g>
				<path class="st2" d="M154.8,71.9c0,0.3-0.2,0.6-0.6,0.6c-0.3,0-0.5-0.3-0.5-0.6c0-0.3,0.2-0.6,0.6-0.6
					C154.6,71.3,154.8,71.6,154.8,71.9z M153.8,78.9v-5.5h0.9v5.5H153.8z"/>
			</g>
			<g>
				<path class="st2" d="M156.1,70.9h0.9v8h-0.9V70.9z"/>
			</g>
			<g>
				<path class="st2" d="M158.8,73.5l1.1,3.2c0.1,0.4,0.2,0.8,0.3,1.1h0c0.1-0.3,0.2-0.7,0.3-1.1l1-3.2h1l-1.4,3.9
					c-0.6,1.9-1.1,2.8-1.7,3.4c-0.4,0.4-0.9,0.6-1.1,0.6l-0.2-0.8c0.2-0.1,0.5-0.2,0.8-0.5c0.2-0.2,0.6-0.6,0.8-1.1
					c0-0.1,0.1-0.2,0.1-0.2c0-0.1,0-0.1-0.1-0.3l-1.8-5H158.8z"/>
			</g>
			<g>
				<path class="st2" d="M166.8,78.9l-2.3-7.6h1l1.1,3.7c0.3,1,0.6,2,0.7,2.8h0c0.2-0.9,0.5-1.8,0.8-2.8l1.2-3.8h1l-2.5,7.6H166.8z"
					/>
			</g>
			<g>
				<path class="st2" d="M174.4,77.6c0,0.5,0,0.9,0.1,1.3h-0.8l-0.1-0.7h0c-0.3,0.4-0.8,0.8-1.5,0.8c-1,0-1.5-0.8-1.5-1.6
					c0-1.3,1.1-2,3-2v-0.1c0-0.5-0.1-1.3-1.1-1.3c-0.5,0-0.9,0.2-1.3,0.4l-0.2-0.7c0.4-0.3,1-0.5,1.6-0.5c1.5,0,1.9,1.1,1.9,2.2
					V77.6z M173.6,76.2c-1,0-2.1,0.2-2.1,1.2c0,0.6,0.4,0.9,0.9,0.9c0.6,0,1.1-0.5,1.2-0.9c0-0.1,0.1-0.2,0.1-0.3V76.2z"/>
			</g>
			<g>
				<path class="st2" d="M175.8,70.9h0.9v8h-0.9V70.9z"/>
			</g>
			<g>
				<path class="st2" d="M182.3,77.4c0,0.6,0,1.1,0,1.5h-0.8l-0.1-0.9h0c-0.2,0.4-0.8,1-1.6,1c-0.8,0-1.7-0.5-1.7-2.4v-3.2h0.9v3
					c0,1,0.3,1.7,1.1,1.7c0.6,0,1-0.5,1.2-0.9c0.1-0.1,0.1-0.3,0.1-0.5v-3.3h0.9V77.4z"/>
			</g>
			<g>
				<path class="st2" d="M184.2,76.4c0,1.3,0.8,1.9,1.7,1.9c0.6,0,1-0.1,1.4-0.3l0.2,0.7c-0.3,0.2-0.9,0.3-1.7,0.3
					c-1.5,0-2.5-1.1-2.5-2.8c0-1.6,0.9-2.9,2.3-2.9c1.6,0,2.1,1.6,2.1,2.6c0,0.2,0,0.4,0,0.5H184.2z M186.9,75.7
					c0-0.6-0.2-1.6-1.3-1.6c-0.9,0-1.3,0.9-1.4,1.6H186.9z"/>
			</g>
			<g>
				<path class="st2" d="M15,88.9h-2.1V88H18v0.8h-2.1v6.8H15V88.9z"/>
			</g>
			<g>
				<path class="st2" d="M18.4,93.1c0,1.3,0.8,1.9,1.7,1.9c0.6,0,1-0.1,1.4-0.3l0.2,0.7c-0.3,0.2-0.9,0.3-1.7,0.3
					c-1.5,0-2.5-1.1-2.5-2.8s0.9-2.9,2.3-2.9c1.6,0,2.1,1.6,2.1,2.6c0,0.2,0,0.4,0,0.5H18.4z M21.1,92.4c0-0.6-0.2-1.6-1.3-1.6
					c-0.9,0-1.3,0.9-1.4,1.6H21.1z"/>
			</g>
			<g>
				<path class="st2" d="M23,91.6c0-0.6,0-1,0-1.5h0.8l0.1,0.9h0c0.2-0.5,0.8-1,1.6-1c0.7,0,1.8,0.5,1.8,2.3v3.3h-0.9v-3.1
					c0-0.9-0.3-1.6-1.2-1.6c-0.6,0-1.1,0.5-1.2,1c0,0.1-0.1,0.3-0.1,0.5v3.3H23V91.6z"/>
			</g>
			<g>
				<path class="st2" d="M29.1,93.1c0,1.3,0.8,1.9,1.7,1.9c0.6,0,1-0.1,1.4-0.3l0.2,0.7c-0.3,0.2-0.9,0.3-1.7,0.3
					c-1.5,0-2.5-1.1-2.5-2.8s0.9-2.9,2.3-2.9c1.6,0,2.1,1.6,2.1,2.6c0,0.2,0,0.4,0,0.5H29.1z M31.7,92.4c0-0.6-0.2-1.6-1.3-1.6
					c-0.9,0-1.3,0.9-1.4,1.6H31.7z"/>
			</g>
			<g>
				<path class="st2" d="M37.8,94.1c0,0.6,0,1.1,0,1.5H37L37,94.7h0c-0.2,0.4-0.8,1-1.6,1c-0.8,0-1.7-0.5-1.7-2.4v-3.2h0.9v3
					c0,1,0.3,1.7,1.1,1.7c0.6,0,1-0.5,1.2-0.9c0.1-0.1,0.1-0.3,0.1-0.5v-3.3h0.9V94.1z"/>
			</g>
			<g>
				<path class="st2" d="M39.2,91.9c0-0.6,0-1.2,0-1.7H40l0,1.1h0c0.2-0.7,0.8-1.2,1.4-1.2c0.1,0,0.2,0,0.3,0V91c-0.1,0-0.2,0-0.3,0
					c-0.6,0-1.1,0.5-1.2,1.3c0,0.1,0,0.3,0,0.5v2.9h-0.9V91.9z"/>
			</g>
			<g>
				<path class="st2" d="M99.8,88.2c0.9,0,1.5,0.8,1.5,2.2c0,1.5-0.7,2.3-1.6,2.3c-0.8,0-1.6-0.7-1.6-2.2
					C98.2,89,98.9,88.2,99.8,88.2L99.8,88.2z M99.8,88.8c-0.6,0-0.9,0.7-0.9,1.7c0,0.9,0.3,1.6,0.9,1.6c0.6,0,0.9-0.7,0.9-1.7
					C100.6,89.5,100.4,88.8,99.8,88.8L99.8,88.8z M99.7,95.8l3.9-7.6h0.6l-3.9,7.6H99.7z M104.2,91.2c0.9,0,1.5,0.8,1.5,2.2
					c0,1.5-0.7,2.3-1.6,2.3c-0.8,0-1.6-0.7-1.6-2.2C102.5,92,103.3,91.2,104.2,91.2L104.2,91.2z M104.1,91.8c-0.6,0-0.9,0.7-0.9,1.7
					c0,0.9,0.3,1.6,0.9,1.6c0.6,0,0.9-0.7,0.9-1.7C105,92.5,104.8,91.8,104.1,91.8L104.1,91.8z"/>
			</g>
			<g>
				<path class="st2" d="M109.1,90.2l1,3.1c0.2,0.5,0.3,0.9,0.4,1.4h0c0.1-0.5,0.3-0.9,0.4-1.4l1-3.1h0.9l-2,5.5H110l-1.9-5.5H109.1
					z"/>
			</g>
			<g>
				<path class="st2" d="M117.1,94.3c0,0.5,0,0.9,0.1,1.3h-0.8l-0.1-0.7h0c-0.3,0.4-0.8,0.8-1.5,0.8c-1,0-1.5-0.8-1.5-1.6
					c0-1.3,1.1-2,3-2V92c0-0.5-0.1-1.3-1.1-1.3c-0.5,0-0.9,0.2-1.3,0.4l-0.2-0.7c0.4-0.3,1-0.5,1.6-0.5c1.5,0,1.9,1.1,1.9,2.2V94.3z
					 M116.2,92.8c-1,0-2.1,0.2-2.1,1.2c0,0.6,0.4,0.9,0.9,0.9c0.6,0,1.1-0.5,1.2-0.9c0-0.1,0.1-0.2,0.1-0.3V92.8z"/>
			</g>
			<g>
				<path class="st2" d="M118.4,87.6h0.9v8h-0.9V87.6z"/>
			</g>
			<g>
				<path class="st2" d="M121.3,93.1c0,1.3,0.8,1.9,1.7,1.9c0.6,0,1-0.1,1.4-0.3l0.2,0.7c-0.3,0.2-0.9,0.3-1.7,0.3
					c-1.5,0-2.5-1.1-2.5-2.8s0.9-2.9,2.3-2.9c1.6,0,2.1,1.6,2.1,2.6c0,0.2,0,0.4,0,0.5H121.3z M123.9,92.4c0-0.6-0.2-1.6-1.3-1.6
					c-0.9,0-1.3,0.9-1.4,1.6H123.9z"/>
			</g>
			<g>
				<path class="st2" d="M130,94.1c0,0.6,0,1.1,0,1.5h-0.8l-0.1-0.9h0c-0.2,0.4-0.8,1-1.6,1c-0.8,0-1.7-0.5-1.7-2.4v-3.2h0.9v3
					c0,1,0.3,1.7,1.1,1.7c0.6,0,1-0.5,1.2-0.9c0.1-0.1,0.1-0.3,0.1-0.5v-3.3h0.9V94.1z"/>
			</g>
			<g>
				<path class="st2" d="M131.4,91.9c0-0.6,0-1.2,0-1.7h0.8l0,1.1h0c0.2-0.7,0.8-1.2,1.4-1.2c0.1,0,0.2,0,0.3,0V91
					c-0.1,0-0.2,0-0.3,0c-0.6,0-1.1,0.5-1.2,1.3c0,0.1,0,0.3,0,0.5v2.9h-0.9V91.9z"/>
			</g>
			<g>
				<path class="st2" d="M140.1,94.8L140.1,94.8c-0.3,0.5-0.8,1-1.6,1c-1.2,0-2.1-1.1-2.1-2.8c0-2,1.2-2.9,2.3-2.9
					c0.8,0,1.3,0.4,1.5,0.9h0l0-0.8h0.9c0,0.5,0,0.9,0,1.5v6.2h-0.9V94.8z M140.1,92.4c0-0.1,0-0.3,0-0.4c-0.1-0.6-0.6-1.1-1.3-1.1
					c-0.9,0-1.5,0.9-1.5,2.1c0,1.1,0.5,2,1.5,2c0.6,0,1.1-0.4,1.3-1.1c0-0.1,0.1-0.3,0.1-0.5V92.4z"/>
			</g>
			<g>
				<path class="st2" d="M146.6,94.1c0,0.6,0,1.1,0,1.5h-0.8l-0.1-0.9h0c-0.2,0.4-0.8,1-1.6,1c-0.8,0-1.7-0.5-1.7-2.4v-3.2h0.9v3
					c0,1,0.3,1.7,1.1,1.7c0.6,0,1-0.5,1.2-0.9c0.1-0.1,0.1-0.3,0.1-0.5v-3.3h0.9V94.1z"/>
			</g>
			<g>
				<path class="st2" d="M152.5,92.8c0,2-1.3,2.9-2.5,2.9c-1.3,0-2.4-1.1-2.4-2.8c0-1.8,1.1-2.9,2.5-2.9
					C151.5,90,152.5,91.2,152.5,92.8z M148.6,92.9c0,1.2,0.6,2.1,1.5,2.1c0.9,0,1.5-0.9,1.5-2.1c0-0.9-0.4-2.1-1.5-2.1
					C149,90.8,148.6,91.9,148.6,92.9z"/>
			</g>
			<g>
				<path class="st2" d="M154.6,88.9v1.3h1.3v0.8h-1.3v2.9c0,0.7,0.2,1.1,0.7,1.1c0.2,0,0.4,0,0.5-0.1l0,0.7
					c-0.2,0.1-0.5,0.1-0.8,0.1c-0.4,0-0.8-0.2-1-0.4c-0.3-0.3-0.4-0.8-0.4-1.4v-3H153v-0.8h0.8v-1L154.6,88.9z"/>
			</g>
			<g>
				<path class="st2" d="M157.9,88.6c0,0.3-0.2,0.6-0.6,0.6c-0.3,0-0.5-0.3-0.5-0.6c0-0.3,0.2-0.6,0.6-0.6
					C157.7,88,157.9,88.3,157.9,88.6z M156.9,95.6v-5.5h0.9v5.5H156.9z"/>
			</g>
			<g>
				<path class="st2" d="M163.5,87.6v6.6c0,0.5,0,1,0,1.4h-0.8l0-0.9h0c-0.3,0.6-0.9,1.1-1.7,1.1c-1.2,0-2.1-1.1-2.1-2.8
					c0-1.8,1-2.9,2.2-2.9c0.8,0,1.3,0.4,1.5,0.8h0v-3.3H163.5z M162.6,92.4c0-0.1,0-0.3,0-0.4c-0.1-0.6-0.6-1.2-1.3-1.2
					c-0.9,0-1.5,0.9-1.5,2.1c0,1.1,0.5,2,1.5,2c0.6,0,1.2-0.4,1.3-1.2c0-0.1,0-0.3,0-0.4V92.4z"/>
			</g>
			<g>
				<path class="st2" d="M165.9,88.6c0,0.3-0.2,0.6-0.6,0.6c-0.3,0-0.5-0.3-0.5-0.6c0-0.3,0.2-0.6,0.6-0.6
					C165.7,88,165.9,88.3,165.9,88.6z M164.9,95.6v-5.5h0.9v5.5H164.9z"/>
			</g>
			<g>
				<path class="st2" d="M167.7,93.1c0,1.3,0.8,1.9,1.7,1.9c0.6,0,1-0.1,1.4-0.3l0.2,0.7c-0.3,0.2-0.9,0.3-1.7,0.3
					c-1.5,0-2.5-1.1-2.5-2.8s0.9-2.9,2.3-2.9c1.6,0,2.1,1.6,2.1,2.6c0,0.2,0,0.4,0,0.5H167.7z M170.3,92.4c0-0.6-0.2-1.6-1.3-1.6
					c-0.9,0-1.3,0.9-1.4,1.6H170.3z"/>
			</g>
			<g>
				<path class="st2" d="M172.2,91.6c0-0.6,0-1,0-1.5h0.8l0.1,0.9h0c0.2-0.5,0.8-1,1.6-1c0.7,0,1.8,0.5,1.8,2.3v3.3h-0.9v-3.1
					c0-0.9-0.3-1.6-1.2-1.6c-0.6,0-1.1,0.5-1.2,1c0,0.1-0.1,0.3-0.1,0.5v3.3h-0.9V91.6z"/>
			</g>
			<g>
				<path class="st2" d="M177.8,91.6c0-0.6,0-1,0-1.5h0.8l0.1,0.9h0c0.2-0.5,0.8-1,1.6-1c0.7,0,1.8,0.5,1.8,2.3v3.3h-0.9v-3.1
					c0-0.9-0.3-1.6-1.2-1.6c-0.6,0-1.1,0.5-1.2,1c0,0.1-0.1,0.3-0.1,0.5v3.3h-0.9V91.6z"/>
			</g>
			<g>
				<path class="st2" d="M184,93.1c0,1.3,0.8,1.9,1.7,1.9c0.6,0,1-0.1,1.4-0.3l0.2,0.7c-0.3,0.2-0.9,0.3-1.7,0.3
					c-1.5,0-2.5-1.1-2.5-2.8s0.9-2.9,2.3-2.9c1.6,0,2.1,1.6,2.1,2.6c0,0.2,0,0.4,0,0.5H184z M186.6,92.4c0-0.6-0.2-1.6-1.3-1.6
					c-0.9,0-1.3,0.9-1.4,1.6H186.6z"/>
			</g>
			<g>
				<path class="st2" d="M18.9,112c-0.4,0.2-1.1,0.4-2,0.4c-2.1,0-3.7-1.5-3.7-4.2c0-2.6,1.6-4.3,3.9-4.3c0.9,0,1.5,0.2,1.8,0.4
					l-0.2,0.9c-0.4-0.2-0.9-0.3-1.5-0.3c-1.8,0-2.9,1.2-2.9,3.4c0,2,1.1,3.3,2.9,3.3c0.6,0,1.2-0.1,1.6-0.3L18.9,112z"/>
			</g>
			<g>
				<path class="st2" d="M23.7,110.9c0,0.5,0,1,0.1,1.4h-0.9l-0.1-0.7h0c-0.3,0.5-0.9,0.9-1.6,0.9c-1.1,0-1.6-0.8-1.6-1.7
					c0-1.4,1.2-2.2,3.2-2.2v-0.1c0-0.5-0.1-1.4-1.2-1.4c-0.5,0-1,0.2-1.4,0.4l-0.2-0.7c0.4-0.3,1.1-0.5,1.8-0.5c1.6,0,2,1.2,2,2.4
					V110.9z M22.8,109.3c-1.1,0-2.3,0.2-2.3,1.3c0,0.7,0.4,1,0.9,1c0.7,0,1.1-0.5,1.3-1c0-0.1,0.1-0.2,0.1-0.3V109.3z"/>
			</g>
			<g>
				<path class="st2" d="M25.2,103.7h1v8.6h-1V103.7z"/>
			</g>
			<g>
				<path class="st2" d="M32.5,109.3c0,2.2-1.4,3.1-2.7,3.1c-1.5,0-2.6-1.2-2.6-3c0-2,1.2-3.1,2.7-3.1
					C31.5,106.3,32.5,107.5,32.5,109.3z M28.3,109.4c0,1.3,0.7,2.3,1.6,2.3c0.9,0,1.6-1,1.6-2.3c0-1-0.5-2.3-1.6-2.3
					C28.8,107.1,28.3,108.3,28.3,109.4z"/>
			</g>
			<g>
				<path class="st2" d="M33.7,108.3c0-0.7,0-1.3,0-1.8h0.9l0,1.2h0c0.2-0.8,0.8-1.3,1.5-1.3c0.1,0,0.2,0,0.3,0v1
					c-0.1,0-0.2,0-0.3,0c-0.7,0-1.2,0.6-1.3,1.4c0,0.1,0,0.3,0,0.5v3.1h-1V108.3z"/>
			</g>
			<g>
				<path class="st2" d="M38.3,104.8c0,0.4-0.2,0.7-0.6,0.7c-0.3,0-0.6-0.3-0.6-0.7c0-0.4,0.3-0.7,0.6-0.7
					C38.1,104.1,38.3,104.4,38.3,104.8z M37.2,112.3v-5.9h1v5.9H37.2z"/>
			</g>
			<g>
				<path class="st2" d="M40.2,109.6c0,1.4,0.9,2,1.8,2c0.7,0,1.1-0.1,1.5-0.3l0.2,0.8c-0.3,0.2-0.9,0.4-1.8,0.4
					c-1.7,0-2.6-1.2-2.6-3c0-1.8,1-3.2,2.5-3.2c1.8,0,2.2,1.7,2.2,2.8c0,0.2,0,0.4,0,0.5H40.2z M43.1,108.8c0-0.7-0.3-1.7-1.4-1.7
					c-1,0-1.4,1-1.5,1.7H43.1z"/>
			</g>
			<g>
				<path class="st2" d="M45,111.2c0.3,0.2,0.8,0.4,1.3,0.4c0.7,0,1-0.4,1-0.9c0-0.5-0.3-0.8-1-1.1c-1-0.4-1.4-1-1.4-1.7
					c0-0.9,0.7-1.7,1.9-1.7c0.5,0,1,0.2,1.3,0.4l-0.2,0.8c-0.2-0.1-0.6-0.3-1.1-0.3c-0.6,0-0.9,0.4-0.9,0.8c0,0.5,0.3,0.7,1,1
					c0.9,0.4,1.4,0.9,1.4,1.8c0,1-0.7,1.8-2,1.8c-0.6,0-1.1-0.2-1.5-0.4L45,111.2z"/>
			</g>
			<g>
				<path class="st2" d="M50.8,112.8l3.1-8.8h0.8l-3.1,8.8H50.8z"/>
			</g>
			<g>
				<path class="st2" d="M62.9,112c-0.4,0.2-1.1,0.4-2,0.4c-2.1,0-3.7-1.5-3.7-4.2c0-2.6,1.6-4.3,3.9-4.3c0.9,0,1.5,0.2,1.8,0.4
					l-0.2,0.9c-0.4-0.2-0.9-0.3-1.5-0.3c-1.8,0-2.9,1.2-2.9,3.4c0,2,1.1,3.3,2.9,3.3c0.6,0,1.2-0.1,1.6-0.3L62.9,112z"/>
			</g>
			<g>
				<path class="st2" d="M67.6,110.9c0,0.5,0,1,0.1,1.4h-0.9l-0.1-0.7h0c-0.3,0.5-0.9,0.9-1.6,0.9c-1.1,0-1.6-0.8-1.6-1.7
					c0-1.4,1.2-2.2,3.2-2.2v-0.1c0-0.5-0.1-1.4-1.2-1.4c-0.5,0-1,0.2-1.4,0.4l-0.2-0.7c0.4-0.3,1.1-0.5,1.8-0.5c1.6,0,2,1.2,2,2.4
					V110.9z M66.7,109.3c-1.1,0-2.3,0.2-2.3,1.3c0,0.7,0.4,1,0.9,1c0.7,0,1.1-0.5,1.3-1c0-0.1,0.1-0.2,0.1-0.3V109.3z"/>
			</g>
			<g>
				<path class="st2" d="M69.1,103.7h1v8.6h-1V103.7z"/>
			</g>
			<g>
				<path class="st2" d="M76.4,109.3c0,2.2-1.4,3.1-2.7,3.1c-1.5,0-2.6-1.2-2.6-3c0-2,1.2-3.1,2.7-3.1
					C75.4,106.3,76.4,107.5,76.4,109.3z M72.2,109.4c0,1.3,0.7,2.3,1.6,2.3c0.9,0,1.6-1,1.6-2.3c0-1-0.5-2.3-1.6-2.3
					C72.7,107.1,72.2,108.3,72.2,109.4z"/>
			</g>
			<g>
				<path class="st2" d="M77.6,108.3c0-0.7,0-1.3,0-1.8h0.9l0,1.2h0c0.2-0.8,0.8-1.3,1.5-1.3c0.1,0,0.2,0,0.3,0v1
					c-0.1,0-0.2,0-0.3,0c-0.7,0-1.2,0.6-1.3,1.4c0,0.1,0,0.3,0,0.5v3.1h-1V108.3z"/>
			</g>
			<g>
				<path class="st2" d="M82.2,104.8c0,0.4-0.2,0.7-0.6,0.7c-0.3,0-0.6-0.3-0.6-0.7c0-0.4,0.3-0.7,0.6-0.7
					C82,104.1,82.2,104.4,82.2,104.8z M81.1,112.3v-5.9h1v5.9H81.1z"/>
			</g>
			<g>
				<path class="st2" d="M84.2,109.6c0,1.4,0.9,2,1.8,2c0.7,0,1.1-0.1,1.5-0.3l0.2,0.8c-0.3,0.2-0.9,0.4-1.8,0.4
					c-1.7,0-2.6-1.2-2.6-3c0-1.8,1-3.2,2.5-3.2c1.8,0,2.2,1.7,2.2,2.8c0,0.2,0,0.4,0,0.5H84.2z M87,108.8c0-0.7-0.3-1.7-1.4-1.7
					c-1,0-1.4,1-1.5,1.7H87z"/>
			</g>
			<g>
				<path class="st2" d="M88.9,111.2c0.3,0.2,0.8,0.4,1.3,0.4c0.7,0,1-0.4,1-0.9c0-0.5-0.3-0.8-1-1.1c-1-0.4-1.4-1-1.4-1.7
					c0-0.9,0.7-1.7,1.9-1.7c0.5,0,1,0.2,1.3,0.4l-0.2,0.8c-0.2-0.1-0.6-0.3-1.1-0.3c-0.6,0-0.9,0.4-0.9,0.8c0,0.5,0.3,0.7,1,1
					c0.9,0.4,1.4,0.9,1.4,1.8c0,1-0.7,1.8-2,1.8c-0.6,0-1.1-0.2-1.5-0.4L88.9,111.2z"/>
			</g>
			<g>
				<path class="st2" d="M96.6,108.2c-0.8-0.4-1.1-1.1-1.1-1.8c0-1.3,1-2.1,2.2-2.1c1.4,0,2.1,1,2.1,1.9c0,0.7-0.3,1.4-1.2,1.8v0
					c0.9,0.4,1.5,1.1,1.5,2c0,1.4-1.1,2.3-2.5,2.3c-1.5,0-2.4-1-2.4-2.1C95.2,109.3,95.7,108.6,96.6,108.2L96.6,108.2z M99.1,110.3
					c0-1-0.6-1.4-1.6-1.7c-0.8,0.3-1.3,0.9-1.3,1.6c0,0.8,0.5,1.5,1.4,1.5C98.5,111.7,99.1,111.1,99.1,110.3z M96.4,106.3
					c0,0.8,0.5,1.2,1.4,1.5c0.6-0.2,1.1-0.7,1.1-1.4c0-0.6-0.3-1.3-1.2-1.3C96.8,105,96.4,105.6,96.4,106.3z"/>
			</g>
			<g>
				<path class="st2" d="M105.6,108.3c0,2.7-0.9,4.2-2.5,4.2c-1.4,0-2.4-1.4-2.4-4.1c0-2.6,1-4.1,2.5-4.1
					C104.8,104.3,105.6,105.8,105.6,108.3z M101.7,108.4c0,2.1,0.6,3.2,1.5,3.2c1,0,1.5-1.3,1.5-3.3c0-1.9-0.5-3.2-1.5-3.2
					C102.3,105.1,101.7,106.2,101.7,108.4z"/>
			</g>
			<g>
				<path class="st2" d="M13.7,120.8h4v0.9h-3.1v2.7h2.8v0.9h-2.8v3.7h-1V120.8z"/>
			</g>
			<g>
				<path class="st2" d="M22.2,127.6c0,0.5,0,1,0.1,1.4h-0.9l-0.1-0.7h0c-0.3,0.5-0.9,0.9-1.6,0.9c-1.1,0-1.6-0.8-1.6-1.7
					c0-1.4,1.2-2.2,3.2-2.2v-0.1c0-0.5-0.1-1.4-1.2-1.4c-0.5,0-1,0.2-1.4,0.4l-0.2-0.7c0.4-0.3,1.1-0.5,1.8-0.5c1.6,0,2,1.2,2,2.4
					V127.6z M21.3,126c-1.1,0-2.3,0.2-2.3,1.3c0,0.7,0.4,1,0.9,1c0.7,0,1.1-0.5,1.3-1c0-0.1,0.1-0.2,0.1-0.3V126z"/>
			</g>
			<g>
				<path class="st2" d="M24.8,121.7v1.4h1.4v0.8h-1.4v3.2c0,0.7,0.2,1.1,0.7,1.1c0.3,0,0.4,0,0.6-0.1l0,0.8
					c-0.2,0.1-0.5,0.2-0.9,0.2c-0.5,0-0.8-0.2-1.1-0.5c-0.3-0.3-0.4-0.8-0.4-1.5v-3.2h-0.8v-0.8h0.8V122L24.8,121.7z"/>
			</g>
			<g>
				<path class="st2" d="M28.6,129.5l3.1-8.8h0.8l-3.1,8.8H28.6z"/>
			</g>
			<g>
				<path class="st2" d="M35.4,120.8h1v7.3h3.2v0.9h-4.2V120.8z"/>
			</g>
			<g>
				<path class="st2" d="M41.6,121.5c0,0.4-0.2,0.7-0.6,0.7c-0.3,0-0.6-0.3-0.6-0.7c0-0.4,0.3-0.7,0.6-0.7
					C41.4,120.8,41.6,121.1,41.6,121.5z M40.5,129v-5.9h1v5.9H40.5z"/>
			</g>
			<g>
				<path class="st2" d="M43,125c0-0.8,0-1.4,0-1.9h0.9l0,1h0c0.4-0.7,1-1.1,1.9-1.1c1.3,0,2.3,1.2,2.3,3c0,2.1-1.2,3.2-2.4,3.2
					c-0.7,0-1.3-0.3-1.7-0.9h0v3.2h-1V125z M44,126.6c0,0.2,0,0.3,0,0.4c0.2,0.7,0.8,1.3,1.5,1.3c1,0,1.6-0.9,1.6-2.3
					c0-1.2-0.6-2.2-1.6-2.2c-0.7,0-1.3,0.5-1.5,1.3c0,0.1-0.1,0.3-0.1,0.4V126.6z"/>
			</g>
			<g>
				<path class="st2" d="M50.3,121.5c0,0.4-0.2,0.7-0.6,0.7c-0.3,0-0.6-0.3-0.6-0.7c0-0.4,0.3-0.7,0.6-0.7
					C50.1,120.8,50.3,121.1,50.3,121.5z M49.2,129v-5.9h1v5.9H49.2z"/>
			</g>
			<g>
				<path class="st2" d="M56.3,120.4v7.1c0,0.5,0,1.1,0,1.5h-0.9l0-1h0c-0.3,0.7-1,1.2-1.8,1.2c-1.3,0-2.3-1.2-2.3-3
					c0-2,1.1-3.2,2.4-3.2c0.8,0,1.4,0.4,1.6,0.9h0v-3.5H56.3z M55.4,125.5c0-0.1,0-0.3,0-0.4c-0.1-0.7-0.7-1.2-1.4-1.2
					c-1,0-1.6,1-1.6,2.3c0,1.2,0.5,2.2,1.6,2.2c0.7,0,1.3-0.5,1.4-1.3c0-0.1,0-0.3,0-0.5V125.5z"/>
			</g>
			<g>
				<path class="st2" d="M58.4,126.2c0,1.4,0.9,2,1.8,2c0.7,0,1.1-0.1,1.5-0.3l0.2,0.8c-0.3,0.2-0.9,0.4-1.8,0.4
					c-1.7,0-2.6-1.2-2.6-3s1-3.2,2.5-3.2c1.8,0,2.2,1.7,2.2,2.8c0,0.2,0,0.4,0,0.5H58.4z M61.2,125.5c0-0.7-0.3-1.7-1.4-1.7
					c-1,0-1.4,1-1.5,1.7H61.2z"/>
			</g>
			<g>
				<path class="st2" d="M63.2,127.9c0.3,0.2,0.8,0.4,1.3,0.4c0.7,0,1-0.4,1-0.9c0-0.5-0.3-0.8-1-1.1c-1-0.4-1.4-1-1.4-1.7
					c0-0.9,0.7-1.7,1.9-1.7c0.5,0,1,0.2,1.3,0.4l-0.2,0.8c-0.2-0.1-0.6-0.3-1.1-0.3c-0.6,0-0.9,0.4-0.9,0.8c0,0.5,0.3,0.7,1,1
					c0.9,0.4,1.4,0.9,1.4,1.8c0,1-0.7,1.8-2,1.8c-0.6,0-1.1-0.2-1.5-0.4L63.2,127.9z"/>
			</g>
			<g>
				<path class="st2" d="M74.3,125c0,2.7-0.9,4.2-2.5,4.2c-1.4,0-2.4-1.4-2.4-4.1c0-2.6,1-4.1,2.5-4.1C73.4,121,74.3,122.4,74.3,125
					z M70.4,125.1c0,2.1,0.6,3.2,1.5,3.2c1,0,1.5-1.3,1.5-3.3c0-1.9-0.5-3.2-1.5-3.2C71,121.8,70.4,122.9,70.4,125.1z"/>
			</g>
			<g>
				<path class="st2" d="M75.8,129.1c-0.4,0-0.6-0.3-0.6-0.8c0-0.4,0.3-0.8,0.7-0.8c0.4,0,0.7,0.3,0.7,0.8
					C76.5,128.8,76.2,129.1,75.8,129.1L75.8,129.1z"/>
			</g>
			<g>
				<path class="st2" d="M79.4,122.1L79.4,122.1l-1.3,0.7l-0.2-0.8l1.6-0.9h0.8v7.9h-0.9V122.1z"/>
			</g>
			<g>
				<path class="st2" d="M90,128.1c0,1.3-0.2,2.2-0.8,2.7c-0.5,0.5-1.3,0.7-2,0.7c-0.6,0-1.4-0.2-1.8-0.5l0.2-0.8
					c0.4,0.2,0.9,0.5,1.6,0.5c1,0,1.7-0.6,1.7-2.1V128h0c-0.3,0.5-0.9,1-1.7,1c-1.3,0-2.3-1.2-2.3-2.9c0-2,1.2-3.1,2.4-3.1
					c0.9,0,1.4,0.5,1.7,1h0l0-0.9H90c0,0.4,0,0.9,0,1.6V128.1z M89,125.4c0-0.2,0-0.3-0.1-0.5c-0.2-0.6-0.7-1.1-1.4-1.1
					c-0.9,0-1.6,0.9-1.6,2.2c0,1.2,0.5,2.1,1.6,2.1c0.6,0,1.1-0.4,1.4-1.1c0.1-0.2,0.1-0.4,0.1-0.6V125.4z"/>
			</g>
			<g>
				<path class="st2" d="M176.5,125c0,2.7-0.9,4.2-2.5,4.2c-1.4,0-2.4-1.4-2.4-4.1c0-2.6,1-4.1,2.5-4.1
					C175.6,121,176.5,122.4,176.5,125z M172.6,125.1c0,2.1,0.6,3.2,1.5,3.2c1,0,1.5-1.3,1.5-3.3c0-1.9-0.5-3.2-1.5-3.2
					C173.2,121.8,172.6,122.9,172.6,125.1z"/>
			</g>
			<g>
				<path class="st2" d="M181.1,121c1,0,1.7,0.9,1.7,2.4c0,1.7-0.8,2.5-1.7,2.5c-0.9,0-1.7-0.8-1.7-2.4
					C179.4,121.8,180.2,121,181.1,121L181.1,121z M181.1,121.6c-0.6,0-0.9,0.8-0.9,1.8c0,1,0.3,1.8,0.9,1.8c0.6,0,0.9-0.8,0.9-1.8
					C182,122.4,181.8,121.6,181.1,121.6L181.1,121.6z M181,129.1l4.2-8.2h0.6l-4.2,8.2H181z M185.8,124.2c1,0,1.7,0.9,1.7,2.4
					c0,1.7-0.8,2.5-1.7,2.5c-0.9,0-1.7-0.8-1.7-2.4C184.1,125.1,184.9,124.2,185.8,124.2L185.8,124.2z M185.8,124.9
					c-0.6,0-0.9,0.8-0.9,1.8c0,1,0.3,1.8,0.9,1.8c0.6,0,0.9-0.8,0.9-1.8C186.7,125.7,186.5,124.9,185.8,124.9L185.8,124.9z"/>
			</g>
			<g>
				<path class="st2" d="M20.8,144.4c0.4,0.3,1.1,0.5,1.7,0.5c1,0,1.6-0.6,1.6-1.4c0-0.8-0.4-1.2-1.4-1.6c-1.2-0.5-2-1.2-2-2.3
					c0-1.3,1-2.2,2.4-2.2c0.8,0,1.3,0.2,1.7,0.4l-0.3,0.9c-0.2-0.1-0.7-0.4-1.4-0.4c-1,0-1.4,0.7-1.4,1.2c0,0.8,0.5,1.1,1.5,1.6
					c1.3,0.5,1.9,1.2,1.9,2.4c0,1.3-0.9,2.4-2.6,2.4c-0.7,0-1.5-0.2-1.9-0.5L20.8,144.4z"/>
			</g>
			<g>
				<path class="st2" d="M30.1,144.3c0,0.5,0,1,0.1,1.4h-0.9l-0.1-0.7h0c-0.3,0.5-0.9,0.9-1.6,0.9c-1.1,0-1.6-0.8-1.6-1.7
					c0-1.4,1.2-2.2,3.2-2.2v-0.1c0-0.5-0.1-1.4-1.2-1.4c-0.5,0-1,0.2-1.4,0.4l-0.2-0.7c0.4-0.3,1.1-0.5,1.8-0.5c1.6,0,2,1.2,2,2.4
					V144.3z M29.1,142.7c-1.1,0-2.3,0.2-2.3,1.3c0,0.7,0.4,1,0.9,1c0.7,0,1.1-0.5,1.3-1c0-0.1,0.1-0.2,0.1-0.3V142.7z"/>
			</g>
			<g>
				<path class="st2" d="M32.7,138.4v1.4h1.4v0.8h-1.4v3.2c0,0.7,0.2,1.1,0.7,1.1c0.3,0,0.4,0,0.6-0.1l0,0.8
					c-0.2,0.1-0.5,0.2-0.9,0.2c-0.5,0-0.8-0.2-1.1-0.5c-0.3-0.3-0.4-0.8-0.4-1.5v-3.2h-0.8v-0.8h0.8v-1.1L32.7,138.4z"/>
			</g>
			<g>
				<path class="st2" d="M39.6,144.1c0,0.6,0,1.1,0,1.6h-0.9l-0.1-1h0c-0.3,0.5-0.8,1.1-1.8,1.1c-0.8,0-1.9-0.5-1.9-2.6v-3.4h1v3.3
					c0,1.1,0.3,1.9,1.2,1.9c0.7,0,1.1-0.5,1.3-1c0.1-0.2,0.1-0.4,0.1-0.5v-3.6h1V144.1z"/>
			</g>
			<g>
				<path class="st2" d="M41.1,141.6c0-0.7,0-1.3,0-1.8h0.9l0,1.2h0c0.2-0.8,0.8-1.3,1.5-1.3c0.1,0,0.2,0,0.3,0v1
					c-0.1,0-0.2,0-0.3,0c-0.7,0-1.2,0.6-1.3,1.4c0,0.1,0,0.3,0,0.5v3.1h-1V141.6z"/>
			</g>
			<g>
				<path class="st2" d="M48.3,144.3c0,0.5,0,1,0.1,1.4h-0.9l-0.1-0.7h0c-0.3,0.5-0.9,0.9-1.6,0.9c-1.1,0-1.6-0.8-1.6-1.7
					c0-1.4,1.2-2.2,3.2-2.2v-0.1c0-0.5-0.1-1.4-1.2-1.4c-0.5,0-1,0.2-1.4,0.4l-0.2-0.7c0.4-0.3,1.1-0.5,1.8-0.5c1.6,0,2,1.2,2,2.4
					V144.3z M47.4,142.7c-1.1,0-2.3,0.2-2.3,1.3c0,0.7,0.4,1,0.9,1c0.7,0,1.1-0.5,1.3-1c0-0.1,0.1-0.2,0.1-0.3V142.7z"/>
			</g>
			<g>
				<path class="st2" d="M50.9,138.4v1.4h1.4v0.8h-1.4v3.2c0,0.7,0.2,1.1,0.7,1.1c0.3,0,0.4,0,0.6-0.1l0,0.8
					c-0.2,0.1-0.5,0.2-0.9,0.2c-0.5,0-0.8-0.2-1.1-0.5c-0.3-0.3-0.4-0.8-0.4-1.5v-3.2h-0.8v-0.8h0.8v-1.1L50.9,138.4z"/>
			</g>
			<g>
				<path class="st2" d="M53.8,142.9c0,1.4,0.9,2,1.8,2c0.7,0,1.1-0.1,1.5-0.3l0.2,0.8c-0.3,0.2-0.9,0.4-1.8,0.4
					c-1.7,0-2.6-1.2-2.6-3c0-1.8,1-3.2,2.5-3.2c1.8,0,2.2,1.7,2.2,2.8c0,0.2,0,0.4,0,0.5H53.8z M56.6,142.2c0-0.7-0.3-1.7-1.4-1.7
					c-1,0-1.4,1-1.5,1.7H56.6z"/>
			</g>
			<g>
				<path class="st2" d="M63.3,137.1v7.1c0,0.5,0,1.1,0,1.5h-0.9l0-1h0c-0.3,0.7-1,1.2-1.8,1.2c-1.3,0-2.3-1.2-2.3-3
					c0-2,1.1-3.2,2.4-3.2c0.8,0,1.4,0.4,1.6,0.9h0v-3.5H63.3z M62.3,142.2c0-0.1,0-0.3,0-0.4c-0.1-0.7-0.7-1.2-1.4-1.2
					c-1,0-1.6,1-1.6,2.3c0,1.2,0.5,2.2,1.6,2.2c0.7,0,1.3-0.5,1.4-1.3c0-0.1,0-0.3,0-0.5V142.2z"/>
			</g>
			<g>
				<path class="st2" d="M66.2,146.2l3.1-8.8h0.8l-3.1,8.8H66.2z"/>
			</g>
			<g>
				<path class="st2" d="M72.8,144.6c0.3,0.2,0.8,0.4,1.3,0.4c0.7,0,1-0.4,1-0.9c0-0.5-0.3-0.8-1-1.1c-1-0.4-1.4-1-1.4-1.7
					c0-0.9,0.7-1.7,1.9-1.7c0.5,0,1,0.2,1.3,0.4l-0.2,0.8c-0.2-0.1-0.6-0.3-1.1-0.3c-0.6,0-0.9,0.4-0.9,0.8c0,0.5,0.3,0.7,1,1
					c0.9,0.4,1.4,0.9,1.4,1.8c0,1-0.7,1.8-2,1.8c-0.6,0-1.1-0.2-1.5-0.4L72.8,144.6z"/>
			</g>
			<g>
				<path class="st2" d="M81,144.3c0,0.5,0,1,0.1,1.4h-0.9l-0.1-0.7h0c-0.3,0.5-0.9,0.9-1.6,0.9c-1.1,0-1.6-0.8-1.6-1.7
					c0-1.4,1.2-2.2,3.2-2.2v-0.1c0-0.5-0.1-1.4-1.2-1.4c-0.5,0-1,0.2-1.4,0.4l-0.2-0.7c0.4-0.3,1.1-0.5,1.8-0.5c1.6,0,2,1.2,2,2.4
					V144.3z M80.1,142.7c-1.1,0-2.3,0.2-2.3,1.3c0,0.7,0.4,1,0.9,1c0.7,0,1.1-0.5,1.3-1c0-0.1,0.1-0.2,0.1-0.3V142.7z"/>
			</g>
			<g>
				<path class="st2" d="M83.6,138.4v1.4H85v0.8h-1.4v3.2c0,0.7,0.2,1.1,0.7,1.1c0.3,0,0.4,0,0.6-0.1l0,0.8
					c-0.2,0.1-0.5,0.2-0.9,0.2c-0.5,0-0.8-0.2-1.1-0.5c-0.3-0.3-0.4-0.8-0.4-1.5v-3.2h-0.8v-0.8h0.8v-1.1L83.6,138.4z"/>
			</g>
			<g>
				<path class="st2" d="M90.5,144.1c0,0.6,0,1.1,0,1.6h-0.9l-0.1-1h0c-0.3,0.5-0.8,1.1-1.8,1.1c-0.8,0-1.9-0.5-1.9-2.6v-3.4h1v3.3
					c0,1.1,0.3,1.9,1.2,1.9c0.7,0,1.1-0.5,1.3-1c0.1-0.2,0.1-0.4,0.1-0.5v-3.6h1V144.1z"/>
			</g>
			<g>
				<path class="st2" d="M92,141.6c0-0.7,0-1.3,0-1.8h0.9l0,1.2h0c0.2-0.8,0.8-1.3,1.5-1.3c0.1,0,0.2,0,0.3,0v1c-0.1,0-0.2,0-0.3,0
					c-0.7,0-1.2,0.6-1.3,1.4c0,0.1,0,0.3,0,0.5v3.1h-1V141.6z"/>
			</g>
			<g>
				<path class="st2" d="M96,142.9c0,1.4,0.9,2,1.8,2c0.7,0,1.1-0.1,1.5-0.3l0.2,0.8c-0.3,0.2-0.9,0.4-1.8,0.4c-1.7,0-2.6-1.2-2.6-3
					c0-1.8,1-3.2,2.5-3.2c1.8,0,2.2,1.7,2.2,2.8c0,0.2,0,0.4,0,0.5H96z M98.8,142.2c0-0.7-0.3-1.7-1.4-1.7c-1,0-1.4,1-1.5,1.7H98.8z
					 M99,137.3l-1.4,1.7H97l1-1.7H99z"/>
			</g>
			<g>
				<path class="st2" d="M100.7,144.6c0.3,0.2,0.8,0.4,1.3,0.4c0.7,0,1-0.4,1-0.9c0-0.5-0.3-0.8-1-1.1c-1-0.4-1.4-1-1.4-1.7
					c0-0.9,0.7-1.7,1.9-1.7c0.5,0,1,0.2,1.3,0.4l-0.2,0.8c-0.2-0.1-0.6-0.3-1.1-0.3c-0.6,0-0.9,0.4-0.9,0.8c0,0.5,0.3,0.7,1,1
					c0.9,0.4,1.4,0.9,1.4,1.8c0,1-0.7,1.8-2,1.8c-0.6,0-1.1-0.2-1.5-0.4L100.7,144.6z"/>
			</g>
			<g>
				<path class="st2" d="M111.9,141.6c0,2.7-0.9,4.2-2.5,4.2c-1.4,0-2.4-1.4-2.4-4.1c0-2.6,1-4.1,2.5-4.1
					C111,137.6,111.9,139.1,111.9,141.6z M107.9,141.8c0,2.1,0.6,3.2,1.5,3.2c1,0,1.5-1.3,1.5-3.3c0-1.9-0.5-3.2-1.5-3.2
					C108.6,138.5,107.9,139.6,107.9,141.8z"/>
			</g>
			<g>
				<path class="st2" d="M119.8,144.8c0,1.3-0.2,2.2-0.8,2.7c-0.5,0.5-1.3,0.7-2,0.7c-0.6,0-1.4-0.2-1.8-0.5l0.2-0.8
					c0.4,0.2,0.9,0.5,1.6,0.5c1,0,1.7-0.6,1.7-2.1v-0.7h0c-0.3,0.5-0.9,1-1.7,1c-1.3,0-2.3-1.2-2.3-2.9c0-2,1.2-3.1,2.4-3.1
					c0.9,0,1.4,0.5,1.7,1h0l0-0.9h0.9c0,0.4,0,0.9,0,1.6V144.8z M118.8,142.1c0-0.2,0-0.3-0.1-0.5c-0.2-0.6-0.7-1.1-1.4-1.1
					c-0.9,0-1.6,0.9-1.6,2.2c0,1.2,0.5,2.1,1.6,2.1c0.6,0,1.1-0.4,1.4-1.1c0.1-0.2,0.1-0.4,0.1-0.6V142.1z"/>
			</g>
			<g>
				<path class="st2" d="M176.5,149.5c0,2.7-0.9,4.2-2.5,4.2c-1.4,0-2.4-1.4-2.4-4.1c0-2.6,1-4.1,2.5-4.1
					C175.7,145.5,176.5,146.9,176.5,149.5z M172.6,149.6c0,2.1,0.6,3.2,1.5,3.2c1,0,1.5-1.3,1.5-3.3c0-1.9-0.5-3.2-1.5-3.2
					C173.2,146.3,172.6,147.4,172.6,149.6z"/>
			</g>
			<g>
				<path class="st2" d="M181.1,145.5c1,0,1.7,0.9,1.7,2.4c0,1.7-0.8,2.5-1.7,2.5c-0.9,0-1.7-0.8-1.7-2.4
					C179.4,146.3,180.2,145.5,181.1,145.5L181.1,145.5z M181.1,146.1c-0.6,0-0.9,0.8-0.9,1.8c0,1,0.3,1.8,0.9,1.8
					c0.6,0,0.9-0.8,0.9-1.8C182,146.9,181.8,146.1,181.1,146.1L181.1,146.1z M181,153.6l4.2-8.2h0.6l-4.2,8.2H181z M185.8,148.7
					c1,0,1.7,0.9,1.7,2.4c0,1.7-0.8,2.5-1.7,2.5c-0.9,0-1.7-0.8-1.7-2.4C184.1,149.6,184.9,148.7,185.8,148.7L185.8,148.7z
					 M185.8,149.4c-0.6,0-0.9,0.8-0.9,1.8c0,1,0.3,1.8,0.9,1.8c0.6,0,0.9-0.8,0.9-1.8C186.7,150.2,186.5,149.4,185.8,149.4
					L185.8,149.4z"/>
			</g>
			<g>
				<path class="st2" d="M23.8,155.9v2.9h2.5v0.7h-2.5v2.9h-0.7v-2.9h-2.5v-0.7h2.5v-2.9H23.8z"/>
			</g>
			<g>
				<path class="st2" d="M30.7,155.1h-2.3v-0.9h5.5v0.9h-2.3v7.3h-1V155.1z"/>
			</g>
			<g>
				<path class="st2" d="M34.6,158.3c0-0.7,0-1.3,0-1.8h0.9l0,1.2h0c0.2-0.8,0.8-1.3,1.5-1.3c0.1,0,0.2,0,0.3,0v1
					c-0.1,0-0.2,0-0.3,0c-0.7,0-1.2,0.6-1.3,1.4c0,0.1,0,0.3,0,0.5v3.1h-1V158.3z"/>
			</g>
			<g>
				<path class="st2" d="M41.9,161c0,0.5,0,1,0.1,1.4h-0.9l-0.1-0.7h0c-0.3,0.5-0.9,0.9-1.6,0.9c-1.1,0-1.6-0.8-1.6-1.7
					c0-1.4,1.2-2.2,3.2-2.2v-0.1c0-0.5-0.1-1.4-1.2-1.4c-0.5,0-1,0.2-1.4,0.4l-0.2-0.7c0.4-0.3,1.1-0.5,1.8-0.5c1.6,0,2,1.2,2,2.4
					V161z M41,159.4c-1.1,0-2.3,0.2-2.3,1.3c0,0.7,0.4,1,0.9,1c0.7,0,1.1-0.5,1.3-1c0-0.1,0.1-0.2,0.1-0.3V159.4z"/>
			</g>
			<g>
				<path class="st2" d="M43.4,158.1c0-0.6,0-1.1,0-1.6h0.9l0.1,1h0c0.3-0.6,0.9-1.1,1.8-1.1c0.7,0,1.9,0.5,1.9,2.5v3.5h-1V159
					c0-0.9-0.3-1.7-1.2-1.7c-0.6,0-1.1,0.5-1.3,1.1c0,0.1-0.1,0.3-0.1,0.5v3.5h-1V158.1z"/>
			</g>
			<g>
				<path class="st2" d="M49.3,161.3c0.3,0.2,0.8,0.4,1.3,0.4c0.7,0,1-0.4,1-0.9c0-0.5-0.3-0.8-1-1.1c-1-0.4-1.4-1-1.4-1.7
					c0-0.9,0.7-1.7,1.9-1.7c0.5,0,1,0.2,1.3,0.4l-0.2,0.8c-0.2-0.1-0.6-0.3-1.1-0.3c-0.6,0-0.9,0.4-0.9,0.8c0,0.5,0.3,0.7,1,1
					c0.9,0.4,1.4,0.9,1.4,1.8c0,1-0.7,1.8-2,1.8c-0.6,0-1.1-0.2-1.5-0.4L49.3,161.3z"/>
			</g>
			<g>
				<path class="st2" d="M55.1,162.8l3.1-8.8H59l-3.1,8.8H55.1z"/>
			</g>
			<g>
				<path class="st2" d="M63,155.1v1.4h1.4v0.8H63v3.2c0,0.7,0.2,1.1,0.7,1.1c0.3,0,0.4,0,0.6-0.1l0,0.8c-0.2,0.1-0.5,0.2-0.9,0.2
					c-0.5,0-0.8-0.2-1.1-0.5c-0.3-0.3-0.4-0.8-0.4-1.5v-3.2h-0.8v-0.8h0.8v-1.1L63,155.1z"/>
			</g>
			<g>
				<path class="st2" d="M65.4,158.3c0-0.7,0-1.3,0-1.8h0.9l0,1.2h0c0.2-0.8,0.8-1.3,1.5-1.3c0.1,0,0.2,0,0.3,0v1
					c-0.1,0-0.2,0-0.3,0c-0.7,0-1.2,0.6-1.3,1.4c0,0.1,0,0.3,0,0.5v3.1h-1V158.3z"/>
			</g>
			<g>
				<path class="st2" d="M72.7,161c0,0.5,0,1,0.1,1.4h-0.9l-0.1-0.7h0c-0.3,0.5-0.9,0.9-1.6,0.9c-1.1,0-1.6-0.8-1.6-1.7
					c0-1.4,1.2-2.2,3.2-2.2v-0.1c0-0.5-0.1-1.4-1.2-1.4c-0.5,0-1,0.2-1.4,0.4l-0.2-0.7c0.4-0.3,1.1-0.5,1.8-0.5c1.6,0,2,1.2,2,2.4
					V161z M71.7,159.4c-1.1,0-2.3,0.2-2.3,1.3c0,0.7,0.4,1,0.9,1c0.7,0,1.1-0.5,1.3-1c0-0.1,0.1-0.2,0.1-0.3V159.4z"/>
			</g>
			<g>
				<path class="st2" d="M74.1,158.1c0-0.6,0-1.1,0-1.6h0.9l0.1,1h0c0.3-0.6,0.9-1.1,1.8-1.1c0.7,0,1.9,0.5,1.9,2.5v3.5h-1V159
					c0-0.9-0.3-1.7-1.2-1.7c-0.6,0-1.1,0.5-1.3,1.1c0,0.1-0.1,0.3-0.1,0.5v3.5h-1V158.1z"/>
			</g>
			<g>
				<path class="st2" d="M80,161.3c0.3,0.2,0.8,0.4,1.3,0.4c0.7,0,1-0.4,1-0.9c0-0.5-0.3-0.8-1-1.1c-1-0.4-1.4-1-1.4-1.7
					c0-0.9,0.7-1.7,1.9-1.7c0.5,0,1,0.2,1.3,0.4l-0.2,0.8c-0.2-0.1-0.6-0.3-1.1-0.3c-0.6,0-0.9,0.4-0.9,0.8c0,0.5,0.3,0.7,1,1
					c0.9,0.4,1.4,0.9,1.4,1.8c0,1-0.7,1.8-2,1.8c-0.6,0-1.1-0.2-1.5-0.4L80,161.3z"/>
			</g>
			<g>
				<path class="st2" d="M91.2,158.3c0,2.7-0.9,4.2-2.5,4.2c-1.4,0-2.4-1.4-2.4-4.1c0-2.6,1-4.1,2.5-4.1
					C90.3,154.3,91.2,155.8,91.2,158.3z M87.2,158.5c0,2.1,0.6,3.2,1.5,3.2c1,0,1.5-1.3,1.5-3.3c0-1.9-0.5-3.2-1.5-3.2
					C87.9,155.2,87.2,156.3,87.2,158.5z"/>
			</g>
			<g>
				<path class="st2" d="M18.9,178.8c-0.4,0.2-1.1,0.4-2,0.4c-2.1,0-3.7-1.5-3.7-4.2c0-2.6,1.6-4.3,3.9-4.3c0.9,0,1.5,0.2,1.8,0.4
					l-0.2,0.9c-0.4-0.2-0.9-0.3-1.5-0.3c-1.8,0-2.9,1.2-2.9,3.4c0,2,1.1,3.3,2.9,3.3c0.6,0,1.2-0.1,1.6-0.3L18.9,178.8z"/>
			</g>
			<g>
				<path class="st2" d="M20,170.4h1v3.7h0c0.2-0.3,0.4-0.6,0.7-0.8c0.3-0.2,0.6-0.3,1-0.3c0.7,0,1.9,0.5,1.9,2.5v3.5h-1v-3.4
					c0-0.9-0.3-1.7-1.2-1.7c-0.6,0-1.1,0.5-1.3,1.1c-0.1,0.1-0.1,0.3-0.1,0.5v3.5h-1V170.4z"/>
			</g>
			<g>
				<path class="st2" d="M30.9,176.1c0,2.2-1.4,3.1-2.7,3.1c-1.5,0-2.6-1.2-2.6-3c0-2,1.2-3.1,2.7-3.1
					C29.9,173,30.9,174.3,30.9,176.1z M26.7,176.1c0,1.3,0.7,2.3,1.6,2.3c0.9,0,1.6-1,1.6-2.3c0-1-0.5-2.3-1.6-2.3
					C27.2,173.8,26.7,175,26.7,176.1z"/>
			</g>
			<g>
				<path class="st2" d="M32,170.4h1v8.6h-1V170.4z"/>
			</g>
			<g>
				<path class="st2" d="M35.1,176.3c0,1.4,0.9,2,1.8,2c0.7,0,1.1-0.1,1.5-0.3l0.2,0.8c-0.3,0.2-0.9,0.4-1.8,0.4
					c-1.7,0-2.6-1.2-2.6-3c0-1.8,1-3.2,2.5-3.2c1.8,0,2.2,1.7,2.2,2.8c0,0.2,0,0.4,0,0.5H35.1z M37.9,175.5c0-0.7-0.3-1.7-1.4-1.7
					c-1,0-1.4,1-1.5,1.7H37.9z"/>
			</g>
			<g>
				<path class="st2" d="M39.9,178c0.3,0.2,0.8,0.4,1.3,0.4c0.7,0,1-0.4,1-0.9c0-0.5-0.3-0.8-1-1.1c-1-0.4-1.4-1-1.4-1.7
					c0-0.9,0.7-1.7,1.9-1.7c0.5,0,1,0.2,1.3,0.4l-0.2,0.8c-0.2-0.1-0.6-0.3-1.1-0.3c-0.6,0-0.9,0.4-0.9,0.8c0,0.5,0.3,0.7,1,1
					c0.9,0.4,1.4,0.9,1.4,1.8c0,1-0.7,1.8-2,1.8c-0.6,0-1.1-0.2-1.5-0.4L39.9,178z"/>
			</g>
			<g>
				<path class="st2" d="M45.4,171.8v1.4h1.4v0.8h-1.4v3.2c0,0.7,0.2,1.1,0.7,1.1c0.3,0,0.4,0,0.6-0.1l0,0.8
					c-0.2,0.1-0.5,0.2-0.9,0.2c-0.5,0-0.8-0.2-1.1-0.5c-0.3-0.3-0.4-0.8-0.4-1.5V174h-0.8v-0.8h0.8v-1.1L45.4,171.8z"/>
			</g>
			<g>
				<path class="st2" d="M48.3,176.3c0,1.4,0.9,2,1.8,2c0.7,0,1.1-0.1,1.5-0.3l0.2,0.8c-0.3,0.2-0.9,0.4-1.8,0.4
					c-1.7,0-2.6-1.2-2.6-3c0-1.8,1-3.2,2.5-3.2c1.8,0,2.2,1.7,2.2,2.8c0,0.2,0,0.4,0,0.5H48.3z M51.2,175.5c0-0.7-0.3-1.7-1.4-1.7
					c-1,0-1.4,1-1.5,1.7H51.2z"/>
			</g>
			<g>
				<path class="st2" d="M53.2,175c0-0.7,0-1.3,0-1.8H54l0,1.2h0c0.2-0.8,0.8-1.3,1.5-1.3c0.1,0,0.2,0,0.3,0v1c-0.1,0-0.2,0-0.3,0
					c-0.7,0-1.2,0.6-1.3,1.4c0,0.1,0,0.3,0,0.5v3.1h-1V175z"/>
			</g>
			<g>
				<path class="st2" d="M61.6,176.1c0,2.2-1.4,3.1-2.7,3.1c-1.5,0-2.6-1.2-2.6-3c0-2,1.2-3.1,2.7-3.1
					C60.5,173,61.6,174.3,61.6,176.1z M57.3,176.1c0,1.3,0.7,2.3,1.6,2.3c0.9,0,1.6-1,1.6-2.3c0-1-0.5-2.3-1.6-2.3
					C57.8,173.8,57.3,175,57.3,176.1z"/>
			</g>
			<g>
				<path class="st2" d="M62.7,170.4h1v8.6h-1V170.4z"/>
			</g>
			<g>
				<path class="st2" d="M66.6,179.5l3.1-8.8h0.8l-3.1,8.8H66.6z"/>
			</g>
			<g>
				<path class="st2" d="M78.6,178.8c-0.4,0.2-1.1,0.4-2,0.4c-2.1,0-3.7-1.5-3.7-4.2c0-2.6,1.6-4.3,3.9-4.3c0.9,0,1.5,0.2,1.8,0.4
					l-0.2,0.9c-0.4-0.2-0.9-0.3-1.5-0.3c-1.8,0-2.9,1.2-2.9,3.4c0,2,1.1,3.3,2.9,3.3c0.6,0,1.2-0.1,1.6-0.3L78.6,178.8z"/>
			</g>
			<g>
				<path class="st2" d="M79.7,170.4h1v3.7h0c0.2-0.3,0.4-0.6,0.7-0.8c0.3-0.2,0.6-0.3,1-0.3c0.7,0,1.9,0.5,1.9,2.5v3.5h-1v-3.4
					c0-0.9-0.3-1.7-1.2-1.7c-0.6,0-1.1,0.5-1.3,1.1c-0.1,0.1-0.1,0.3-0.1,0.5v3.5h-1V170.4z"/>
			</g>
			<g>
				<path class="st2" d="M90.6,176.1c0,2.2-1.4,3.1-2.7,3.1c-1.5,0-2.6-1.2-2.6-3c0-2,1.2-3.1,2.7-3.1
					C89.6,173,90.6,174.3,90.6,176.1z M86.3,176.1c0,1.3,0.7,2.3,1.6,2.3c0.9,0,1.6-1,1.6-2.3c0-1-0.5-2.3-1.6-2.3
					C86.8,173.8,86.3,175,86.3,176.1z"/>
			</g>
			<g>
				<path class="st2" d="M91.7,170.4h1v8.6h-1V170.4z"/>
			</g>
			<g>
				<path class="st2" d="M94.8,176.3c0,1.4,0.9,2,1.8,2c0.7,0,1.1-0.1,1.5-0.3l0.2,0.8c-0.3,0.2-0.9,0.4-1.8,0.4
					c-1.7,0-2.6-1.2-2.6-3c0-1.8,1-3.2,2.5-3.2c1.8,0,2.2,1.7,2.2,2.8c0,0.2,0,0.4,0,0.5H94.8z M97.6,175.5c0-0.7-0.3-1.7-1.4-1.7
					c-1,0-1.4,1-1.5,1.7H97.6z"/>
			</g>
			<g>
				<path class="st2" d="M99.5,178c0.3,0.2,0.8,0.4,1.3,0.4c0.7,0,1-0.4,1-0.9c0-0.5-0.3-0.8-1-1.1c-1-0.4-1.4-1-1.4-1.7
					c0-0.9,0.7-1.7,1.9-1.7c0.5,0,1,0.2,1.3,0.4l-0.2,0.8c-0.2-0.1-0.6-0.3-1.1-0.3c-0.6,0-0.9,0.4-0.9,0.8c0,0.5,0.3,0.7,1,1
					c0.9,0.4,1.4,0.9,1.4,1.8c0,1-0.7,1.8-2,1.8c-0.6,0-1.1-0.2-1.5-0.4L99.5,178z"/>
			</g>
			<g>
				<path class="st2" d="M105.1,171.8v1.4h1.4v0.8h-1.4v3.2c0,0.7,0.2,1.1,0.7,1.1c0.3,0,0.4,0,0.6-0.1l0,0.8
					c-0.2,0.1-0.5,0.2-0.9,0.2c-0.5,0-0.8-0.2-1.1-0.5c-0.3-0.3-0.4-0.8-0.4-1.5V174h-0.8v-0.8h0.8v-1.1L105.1,171.8z"/>
			</g>
			<g>
				<path class="st2" d="M108,176.3c0,1.4,0.9,2,1.8,2c0.7,0,1.1-0.1,1.5-0.3l0.2,0.8c-0.3,0.2-0.9,0.4-1.8,0.4
					c-1.7,0-2.6-1.2-2.6-3c0-1.8,1-3.2,2.5-3.2c1.8,0,2.2,1.7,2.2,2.8c0,0.2,0,0.4,0,0.5H108z M110.9,175.5c0-0.7-0.3-1.7-1.4-1.7
					c-1,0-1.4,1-1.5,1.7H110.9z M111.1,170.6l-1.4,1.7H109l1-1.7H111.1z"/>
			</g>
			<g>
				<path class="st2" d="M112.9,175c0-0.7,0-1.3,0-1.8h0.9l0,1.2h0c0.2-0.8,0.8-1.3,1.5-1.3c0.1,0,0.2,0,0.3,0v1c-0.1,0-0.2,0-0.3,0
					c-0.7,0-1.2,0.6-1.3,1.4c0,0.1,0,0.3,0,0.5v3.1h-1V175z"/>
			</g>
			<g>
				<path class="st2" d="M121.2,176.1c0,2.2-1.4,3.1-2.7,3.1c-1.5,0-2.6-1.2-2.6-3c0-2,1.2-3.1,2.7-3.1
					C120.1,173,121.2,174.3,121.2,176.1z M116.9,176.1c0,1.3,0.7,2.3,1.6,2.3c0.9,0,1.6-1,1.6-2.3c0-1-0.5-2.3-1.6-2.3
					C117.4,173.8,116.9,175,116.9,176.1z"/>
			</g>
			<g>
				<path class="st2" d="M122.3,170.4h1v8.6h-1V170.4z"/>
			</g>
			<g>
				<path class="st2" d="M131.5,175c0,2.7-0.9,4.2-2.5,4.2c-1.4,0-2.4-1.4-2.4-4.1c0-2.6,1-4.1,2.5-4.1
					C130.6,171,131.5,172.5,131.5,175z M127.6,175.1c0,2.1,0.6,3.2,1.5,3.2c1,0,1.5-1.3,1.5-3.3c0-1.9-0.5-3.2-1.5-3.2
					C128.2,171.8,127.6,173,127.6,175.1z"/>
			</g>
			<g>
				<path class="st2" d="M134.9,174.8c0-0.6,0-1.1,0-1.6h0.9l0,0.9h0c0.3-0.6,0.8-1.1,1.7-1.1c0.7,0,1.3,0.5,1.5,1.2h0
					c0.2-0.3,0.4-0.6,0.6-0.8c0.3-0.3,0.7-0.4,1.2-0.4c0.7,0,1.8,0.5,1.8,2.6v3.5h-1v-3.3c0-1.1-0.4-1.8-1.2-1.8c-0.6,0-1,0.4-1.2,1
					c0,0.1-0.1,0.3-0.1,0.5v3.6h-1v-3.5c0-0.9-0.4-1.6-1.1-1.6c-0.6,0-1.1,0.5-1.2,1.1c-0.1,0.2-0.1,0.3-0.1,0.5v3.5h-1V174.8z"/>
			</g>
			<g>
				<path class="st2" d="M148.6,178.2c0,1.3-0.2,2.2-0.8,2.7c-0.5,0.5-1.3,0.7-2,0.7c-0.6,0-1.4-0.2-1.8-0.5l0.2-0.8
					c0.4,0.2,0.9,0.5,1.6,0.5c1,0,1.7-0.6,1.7-2.1V178h0c-0.3,0.5-0.9,1-1.7,1c-1.3,0-2.3-1.2-2.3-2.9c0-2,1.2-3.1,2.4-3.1
					c0.9,0,1.4,0.5,1.7,1h0l0-0.9h0.9c0,0.4,0,0.9,0,1.6V178.2z M147.6,175.5c0-0.2,0-0.3-0.1-0.5c-0.2-0.6-0.7-1.1-1.4-1.1
					c-0.9,0-1.6,0.9-1.6,2.2c0,1.2,0.5,2.1,1.6,2.1c0.6,0,1.1-0.4,1.4-1.1c0.1-0.2,0.1-0.4,0.1-0.6V175.5z"/>
			</g>
			<g>
				<path class="st2" d="M13.6,194.4c0.4,0.3,1.1,0.5,1.7,0.5c1,0,1.6-0.6,1.6-1.4c0-0.8-0.4-1.2-1.4-1.6c-1.2-0.5-2-1.2-2-2.3
					c0-1.3,1-2.2,2.4-2.2c0.8,0,1.3,0.2,1.7,0.4l-0.3,0.9c-0.2-0.1-0.7-0.4-1.4-0.4c-1,0-1.4,0.7-1.4,1.2c0,0.8,0.5,1.1,1.5,1.6
					c1.3,0.5,1.9,1.2,1.9,2.4c0,1.3-0.9,2.4-2.6,2.4c-0.7,0-1.5-0.2-1.9-0.5L13.6,194.4z"/>
			</g>
			<g>
				<path class="st2" d="M24,192.7c0,2.2-1.4,3.1-2.7,3.1c-1.5,0-2.6-1.2-2.6-3c0-2,1.2-3.1,2.7-3.1C22.9,189.7,24,190.9,24,192.7z
					 M19.7,192.8c0,1.3,0.7,2.3,1.6,2.3c0.9,0,1.6-1,1.6-2.3c0-1-0.5-2.3-1.6-2.3C20.2,190.5,19.7,191.7,19.7,192.8z"/>
			</g>
			<g>
				<path class="st2" d="M29.7,187.1v7.1c0,0.5,0,1.1,0,1.5h-0.9l0-1h0c-0.3,0.7-1,1.2-1.8,1.2c-1.3,0-2.3-1.2-2.3-3
					c0-2,1.1-3.2,2.4-3.2c0.8,0,1.4,0.4,1.6,0.9h0v-3.5H29.7z M28.7,192.2c0-0.1,0-0.3,0-0.4c-0.1-0.7-0.7-1.2-1.4-1.2
					c-1,0-1.6,1-1.6,2.3c0,1.2,0.5,2.2,1.6,2.2c0.7,0,1.3-0.5,1.4-1.3c0-0.1,0-0.3,0-0.5V192.2z"/>
			</g>
			<g>
				<path class="st2" d="M32.3,188.2c0,0.4-0.2,0.7-0.6,0.7c-0.3,0-0.6-0.3-0.6-0.7c0-0.4,0.3-0.7,0.6-0.7
					C32.1,187.5,32.3,187.8,32.3,188.2z M31.2,195.7v-5.9h1v5.9H31.2z"/>
			</g>
			<g>
				<path class="st2" d="M38.2,194.1c0,0.6,0,1.1,0,1.6h-0.9l-0.1-1h0c-0.3,0.5-0.8,1.1-1.8,1.1c-0.8,0-1.9-0.5-1.9-2.6v-3.4h1v3.3
					c0,1.1,0.3,1.9,1.2,1.9c0.7,0,1.1-0.5,1.3-1c0.1-0.2,0.1-0.4,0.1-0.5v-3.6h1V194.1z"/>
			</g>
			<g>
				<path class="st2" d="M39.7,191.4c0-0.6,0-1.1,0-1.6h0.9l0,0.9h0c0.3-0.6,0.8-1.1,1.7-1.1c0.7,0,1.3,0.5,1.5,1.2h0
					c0.2-0.3,0.4-0.6,0.6-0.8c0.3-0.3,0.7-0.4,1.2-0.4c0.7,0,1.8,0.5,1.8,2.6v3.5h-1v-3.3c0-1.1-0.4-1.8-1.2-1.8c-0.6,0-1,0.4-1.2,1
					c0,0.1-0.1,0.3-0.1,0.5v3.6h-1v-3.5c0-0.9-0.4-1.6-1.1-1.6c-0.6,0-1.1,0.5-1.2,1.1c-0.1,0.2-0.1,0.3-0.1,0.5v3.5h-1V191.4z"/>
			</g>
			<g>
				<path class="st2" d="M50.3,196.2l3.1-8.8h0.8l-3.1,8.8H50.3z"/>
			</g>
			<g>
				<path class="st2" d="M56.9,194.4c0.4,0.3,1.1,0.5,1.7,0.5c1,0,1.6-0.6,1.6-1.4c0-0.8-0.4-1.2-1.4-1.6c-1.2-0.5-2-1.2-2-2.3
					c0-1.3,1-2.2,2.4-2.2c0.8,0,1.3,0.2,1.7,0.4l-0.3,0.9c-0.2-0.1-0.7-0.4-1.4-0.4c-1,0-1.4,0.7-1.4,1.2c0,0.8,0.5,1.1,1.5,1.6
					c1.3,0.5,1.9,1.2,1.9,2.4c0,1.3-0.9,2.4-2.6,2.4c-0.7,0-1.5-0.2-1.9-0.5L56.9,194.4z"/>
			</g>
			<g>
				<path class="st2" d="M67.3,192.7c0,2.2-1.4,3.1-2.7,3.1c-1.5,0-2.6-1.2-2.6-3c0-2,1.2-3.1,2.7-3.1
					C66.3,189.7,67.3,190.9,67.3,192.7z M63.1,192.8c0,1.3,0.7,2.3,1.6,2.3c0.9,0,1.6-1,1.6-2.3c0-1-0.5-2.3-1.6-2.3
					C63.6,190.5,63.1,191.7,63.1,192.8z"/>
			</g>
			<g>
				<path class="st2" d="M73.1,187.1v7.1c0,0.5,0,1.1,0,1.5h-0.9l0-1h0c-0.3,0.7-1,1.2-1.8,1.2c-1.3,0-2.3-1.2-2.3-3
					c0-2,1.1-3.2,2.4-3.2c0.8,0,1.4,0.4,1.6,0.9h0v-3.5H73.1z M72.1,192.2c0-0.1,0-0.3,0-0.4c-0.1-0.7-0.7-1.2-1.4-1.2
					c-1,0-1.6,1-1.6,2.3c0,1.2,0.5,2.2,1.6,2.2c0.7,0,1.3-0.5,1.4-1.3c0-0.1,0-0.3,0-0.5V192.2z"/>
			</g>
			<g>
				<path class="st2" d="M75.7,188.2c0,0.4-0.2,0.7-0.6,0.7c-0.3,0-0.6-0.3-0.6-0.7c0-0.4,0.3-0.7,0.6-0.7
					C75.4,187.5,75.7,187.8,75.7,188.2z M74.6,195.7v-5.9h1v5.9H74.6z"/>
			</g>
			<g>
				<path class="st2" d="M81.6,194.1c0,0.6,0,1.1,0,1.6h-0.9l-0.1-1h0c-0.3,0.5-0.8,1.1-1.8,1.1c-0.8,0-1.9-0.5-1.9-2.6v-3.4h1v3.3
					c0,1.1,0.3,1.9,1.2,1.9c0.7,0,1.1-0.5,1.3-1c0.1-0.2,0.1-0.4,0.1-0.5v-3.6h1V194.1z"/>
			</g>
			<g>
				<path class="st2" d="M83.1,191.4c0-0.6,0-1.1,0-1.6h0.9l0,0.9h0c0.3-0.6,0.8-1.1,1.7-1.1c0.7,0,1.3,0.5,1.5,1.2h0
					c0.2-0.3,0.4-0.6,0.6-0.8c0.3-0.3,0.7-0.4,1.2-0.4c0.7,0,1.8,0.5,1.8,2.6v3.5h-1v-3.3c0-1.1-0.4-1.8-1.2-1.8c-0.6,0-1,0.4-1.2,1
					c0,0.1-0.1,0.3-0.1,0.5v3.6h-1v-3.5c0-0.9-0.4-1.6-1.1-1.6c-0.6,0-1.1,0.5-1.2,1.1c-0.1,0.2-0.1,0.3-0.1,0.5v3.5h-1V191.4z"/>
			</g>
			<g>
				<path class="st2" d="M96.3,188.8L96.3,188.8l-1.3,0.7l-0.2-0.8l1.6-0.9h0.8v7.9h-0.9V188.8z"/>
			</g>
			<g>
				<path class="st2" d="M100.3,195c0.2,0,0.5,0,0.8,0c0.6-0.1,1.1-0.3,1.5-0.8c0.5-0.5,0.8-1.2,1-2.1h0c-0.4,0.5-1,0.9-1.7,0.9
					c-1.3,0-2.1-1.1-2.1-2.4c0-1.5,1-2.8,2.5-2.8s2.4,1.3,2.4,3.3c0,1.7-0.5,3-1.2,3.7c-0.6,0.6-1.3,1-2.1,1.1
					c-0.4,0.1-0.7,0.1-0.9,0.1V195z M102,188.5c-0.8,0-1.4,0.8-1.4,1.9c0,1,0.5,1.7,1.4,1.7c0.7,0,1.2-0.4,1.4-0.8
					c0.1-0.1,0.1-0.2,0.1-0.4C103.5,189.6,103.1,188.5,102,188.5L102,188.5z"/>
			</g>
			<g>
				<path class="st2" d="M110.1,191.7c0,2.7-0.9,4.2-2.5,4.2c-1.4,0-2.4-1.4-2.4-4.1c0-2.6,1-4.1,2.5-4.1
					C109.2,187.7,110.1,189.2,110.1,191.7z M106.2,191.8c0,2.1,0.6,3.2,1.5,3.2c1,0,1.5-1.3,1.5-3.3c0-1.9-0.5-3.2-1.5-3.2
					C106.8,188.5,106.2,189.7,106.2,191.8z"/>
			</g>
			<g>
				<path class="st2" d="M113.4,191.4c0-0.6,0-1.1,0-1.6h0.9l0,0.9h0c0.3-0.6,0.8-1.1,1.7-1.1c0.7,0,1.3,0.5,1.5,1.2h0
					c0.2-0.3,0.4-0.6,0.6-0.8c0.3-0.3,0.7-0.4,1.2-0.4c0.7,0,1.8,0.5,1.8,2.6v3.5h-1v-3.3c0-1.1-0.4-1.8-1.2-1.8c-0.6,0-1,0.4-1.2,1
					c0,0.1-0.1,0.3-0.1,0.5v3.6h-1v-3.5c0-0.9-0.4-1.6-1.1-1.6c-0.6,0-1.1,0.5-1.2,1.1c-0.1,0.2-0.1,0.3-0.1,0.5v3.5h-1V191.4z"/>
			</g>
			<g>
				<path class="st2" d="M127.1,194.9c0,1.3-0.2,2.2-0.8,2.7c-0.5,0.5-1.3,0.7-2,0.7c-0.6,0-1.4-0.2-1.8-0.5l0.2-0.8
					c0.4,0.2,0.9,0.5,1.6,0.5c1,0,1.7-0.6,1.7-2.1v-0.7h0c-0.3,0.5-0.9,1-1.7,1c-1.3,0-2.3-1.2-2.3-2.9c0-2,1.2-3.1,2.4-3.1
					c0.9,0,1.4,0.5,1.7,1h0l0-0.9h0.9c0,0.4,0,0.9,0,1.6V194.9z M126.2,192.2c0-0.2,0-0.3-0.1-0.5c-0.2-0.6-0.7-1.1-1.4-1.1
					c-0.9,0-1.6,0.9-1.6,2.2c0,1.2,0.5,2.1,1.6,2.1c0.6,0,1.1-0.4,1.4-1.1c0.1-0.2,0.1-0.4,0.1-0.6V192.2z"/>
			</g>
			<g>
				<path class="st2" d="M173.1,191.6c-0.8-0.4-1.1-1.1-1.1-1.8c0-1.3,1-2.1,2.2-2.1c1.4,0,2.1,1,2.1,1.9c0,0.7-0.3,1.4-1.2,1.8v0
					c0.9,0.4,1.5,1.1,1.5,2c0,1.4-1.1,2.3-2.5,2.3c-1.5,0-2.4-1-2.4-2.1C171.6,192.7,172.2,192,173.1,191.6L173.1,191.6z
					 M175.5,193.7c0-1-0.6-1.4-1.6-1.7c-0.8,0.3-1.3,0.9-1.3,1.6c0,0.8,0.5,1.5,1.4,1.5C175,195.1,175.5,194.5,175.5,193.7z
					 M172.8,189.7c0,0.8,0.5,1.2,1.4,1.5c0.6-0.2,1.1-0.7,1.1-1.4c0-0.6-0.3-1.3-1.2-1.3C173.3,188.5,172.8,189.1,172.8,189.7z"/>
			</g>
			<g>
				<path class="st2" d="M181.1,187.7c1,0,1.7,0.9,1.7,2.4c0,1.7-0.8,2.5-1.7,2.5c-0.9,0-1.7-0.8-1.7-2.4
					C179.4,188.6,180.2,187.7,181.1,187.7L181.1,187.7z M181.1,188.3c-0.6,0-0.9,0.8-0.9,1.8c0,1,0.3,1.8,0.9,1.8
					c0.6,0,0.9-0.8,0.9-1.8C182,189.2,181.8,188.3,181.1,188.3L181.1,188.3z M181,195.9l4.2-8.2h0.6l-4.2,8.2H181z M185.8,191
					c1,0,1.7,0.9,1.7,2.4c0,1.7-0.8,2.5-1.7,2.5c-0.9,0-1.7-0.8-1.7-2.4C184.1,191.9,184.9,191,185.8,191L185.8,191z M185.8,191.6
					c-0.6,0-0.9,0.8-0.9,1.8c0,1,0.3,1.8,0.9,1.8c0.6,0,0.9-0.8,0.9-1.8C186.7,192.4,186.5,191.6,185.8,191.6L185.8,191.6z"/>
			</g>
			<g>
				<path class="st2" d="M18.9,212.2c-0.4,0.2-1.1,0.4-2,0.4c-2.1,0-3.7-1.5-3.7-4.2c0-2.6,1.6-4.3,3.9-4.3c0.9,0,1.5,0.2,1.8,0.4
					l-0.2,0.9c-0.4-0.2-0.9-0.3-1.5-0.3c-1.8,0-2.9,1.2-2.9,3.4c0,2,1.1,3.3,2.9,3.3c0.6,0,1.2-0.1,1.6-0.3L18.9,212.2z"/>
			</g>
			<g>
				<path class="st2" d="M23.7,211c0,0.5,0,1,0.1,1.4h-0.9l-0.1-0.7h0c-0.3,0.5-0.9,0.9-1.6,0.9c-1.1,0-1.6-0.8-1.6-1.7
					c0-1.4,1.2-2.2,3.2-2.2v-0.1c0-0.5-0.1-1.4-1.2-1.4c-0.5,0-1,0.2-1.4,0.4l-0.2-0.7c0.4-0.3,1.1-0.5,1.8-0.5c1.6,0,2,1.2,2,2.4
					V211z M22.8,209.4c-1.1,0-2.3,0.2-2.3,1.3c0,0.7,0.4,1,0.9,1c0.7,0,1.1-0.5,1.3-1c0-0.1,0.1-0.2,0.1-0.3V209.4z"/>
			</g>
			<g>
				<path class="st2" d="M25.2,208.4c0-0.7,0-1.3,0-1.8H26l0,1.2h0c0.2-0.8,0.8-1.3,1.5-1.3c0.1,0,0.2,0,0.3,0v1c-0.1,0-0.2,0-0.3,0
					c-0.7,0-1.2,0.6-1.3,1.4c0,0.1,0,0.3,0,0.5v3.1h-1V208.4z"/>
			</g>
			<g>
				<path class="st2" d="M28.7,203.8h1v3.7h0c0.3-0.7,1-1.1,1.8-1.1c1.3,0,2.3,1.2,2.3,3c0,2.1-1.2,3.1-2.4,3.1
					c-0.8,0-1.4-0.3-1.8-1.1h0l0,1h-0.8c0-0.4,0-1,0-1.5V203.8z M29.7,210.1c0,0.1,0,0.3,0,0.4c0.2,0.7,0.8,1.3,1.5,1.3
					c1,0,1.6-0.9,1.6-2.3c0-1.2-0.6-2.2-1.6-2.2c-0.7,0-1.3,0.5-1.5,1.3c0,0.1-0.1,0.3-0.1,0.4V210.1z"/>
			</g>
			<g>
				<path class="st2" d="M39.8,209.4c0,2.2-1.4,3.1-2.7,3.1c-1.5,0-2.6-1.2-2.6-3c0-2,1.2-3.1,2.7-3.1
					C38.7,206.4,39.8,207.6,39.8,209.4z M35.5,209.5c0,1.3,0.7,2.3,1.6,2.3c0.9,0,1.6-1,1.6-2.3c0-1-0.5-2.3-1.6-2.3
					C36,207.2,35.5,208.4,35.5,209.5z"/>
			</g>
			<g>
				<path class="st2" d="M40.9,203.8h1v3.7h0c0.2-0.3,0.4-0.6,0.7-0.8c0.3-0.2,0.6-0.3,1-0.3c0.7,0,1.9,0.5,1.9,2.5v3.5h-1V209
					c0-0.9-0.3-1.7-1.2-1.7c-0.6,0-1.1,0.5-1.3,1.1c-0.1,0.1-0.1,0.3-0.1,0.5v3.5h-1V203.8z"/>
			</g>
			<g>
				<path class="st2" d="M47.3,206.5l1.2,3.5c0.1,0.4,0.3,0.9,0.3,1.2h0c0.1-0.4,0.2-0.8,0.3-1.2l1.1-3.4h1l-1.5,4.2
					c-0.7,2-1.2,3-1.8,3.7c-0.5,0.5-1,0.6-1.2,0.7l-0.2-0.9c0.2-0.1,0.6-0.3,0.9-0.5c0.3-0.2,0.6-0.6,0.8-1.2c0-0.1,0.1-0.2,0.1-0.3
					c0-0.1,0-0.1-0.1-0.3l-2-5.4H47.3z"/>
			</g>
			<g>
				<path class="st2" d="M56.6,203.8v7.1c0,0.5,0,1.1,0,1.5h-0.9l0-1h0c-0.3,0.7-1,1.2-1.8,1.2c-1.3,0-2.3-1.2-2.3-3
					c0-2,1.1-3.2,2.4-3.2c0.8,0,1.4,0.4,1.6,0.9h0v-3.5H56.6z M55.6,208.9c0-0.1,0-0.3,0-0.4c-0.1-0.7-0.7-1.2-1.4-1.2
					c-1,0-1.6,1-1.6,2.3c0,1.2,0.5,2.2,1.6,2.2c0.7,0,1.3-0.5,1.4-1.3c0-0.1,0-0.3,0-0.5V208.9z"/>
			</g>
			<g>
				<path class="st2" d="M58.1,208.4c0-0.7,0-1.3,0-1.8h0.9l0,1.2h0c0.2-0.8,0.8-1.3,1.5-1.3c0.1,0,0.2,0,0.3,0v1
					c-0.1,0-0.2,0-0.3,0c-0.7,0-1.2,0.6-1.3,1.4c0,0.1,0,0.3,0,0.5v3.1h-1V208.4z"/>
			</g>
			<g>
				<path class="st2" d="M65.3,211c0,0.5,0,1,0.1,1.4h-0.9l-0.1-0.7h0c-0.3,0.5-0.9,0.9-1.6,0.9c-1.1,0-1.6-0.8-1.6-1.7
					c0-1.4,1.2-2.2,3.2-2.2v-0.1c0-0.5-0.1-1.4-1.2-1.4c-0.5,0-1,0.2-1.4,0.4l-0.2-0.7c0.4-0.3,1.1-0.5,1.8-0.5c1.6,0,2,1.2,2,2.4
					V211z M64.4,209.4c-1.1,0-2.3,0.2-2.3,1.3c0,0.7,0.4,1,0.9,1c0.7,0,1.1-0.5,1.3-1c0-0.1,0.1-0.2,0.1-0.3V209.4z"/>
			</g>
			<g>
				<path class="st2" d="M67.9,205.1v1.4h1.4v0.8h-1.4v3.2c0,0.7,0.2,1.1,0.7,1.1c0.3,0,0.4,0,0.6-0.1l0,0.8
					c-0.2,0.1-0.5,0.2-0.9,0.2c-0.5,0-0.8-0.2-1.1-0.5c-0.3-0.3-0.4-0.8-0.4-1.5v-3.2h-0.8v-0.8H67v-1.1L67.9,205.1z"/>
			</g>
			<g>
				<path class="st2" d="M70.8,209.7c0,1.4,0.9,2,1.8,2c0.7,0,1.1-0.1,1.5-0.3l0.2,0.8c-0.3,0.2-0.9,0.4-1.8,0.4
					c-1.7,0-2.6-1.2-2.6-3c0-1.8,1-3.2,2.5-3.2c1.8,0,2.2,1.7,2.2,2.8c0,0.2,0,0.4,0,0.5H70.8z M73.6,208.9c0-0.7-0.3-1.7-1.4-1.7
					c-1,0-1.4,1-1.5,1.7H73.6z"/>
			</g>
			<g>
				<path class="st2" d="M77.1,212.9l3.1-8.8H81l-3.1,8.8H77.1z"/>
			</g>
			<g>
				<path class="st2" d="M89.6,212.1c-0.4,0.2-1.3,0.4-2.3,0.4c-1.1,0-2.1-0.3-2.8-1.1c-0.6-0.7-1-1.8-1-3c0-2.4,1.5-4.2,4-4.2
					c0.9,0,1.5,0.2,1.9,0.4l-0.2,0.9c-0.4-0.2-0.9-0.4-1.7-0.4c-1.8,0-3,1.2-3,3.3c0,2.1,1.1,3.3,2.9,3.3c0.6,0,1.1-0.1,1.3-0.2V209
					h-1.5v-0.9h2.5V212.1z"/>
			</g>
			<g>
				<path class="st2" d="M90.9,203.8h1v8.6h-1V203.8z"/>
			</g>
			<g>
				<path class="st2" d="M97.9,210.8c0,0.6,0,1.1,0,1.6h-0.9l-0.1-1h0c-0.3,0.5-0.8,1.1-1.8,1.1c-0.8,0-1.9-0.5-1.9-2.6v-3.4h1v3.3
					c0,1.1,0.3,1.9,1.2,1.9c0.7,0,1.1-0.5,1.3-1c0.1-0.2,0.1-0.4,0.1-0.5v-3.6h1V210.8z"/>
			</g>
			<g>
				<path class="st2" d="M103.3,212.2c-0.3,0.1-0.8,0.4-1.5,0.4c-1.6,0-2.7-1.2-2.7-3c0-1.8,1.1-3.1,2.9-3.1c0.6,0,1.1,0.2,1.4,0.3
					l-0.2,0.8c-0.2-0.1-0.6-0.3-1.1-0.3c-1.2,0-1.9,1-1.9,2.2c0,1.4,0.8,2.2,1.9,2.2c0.6,0,0.9-0.2,1.2-0.3L103.3,212.2z"/>
			</g>
			<g>
				<path class="st2" d="M105.4,204.9c0,0.4-0.2,0.7-0.6,0.7c-0.3,0-0.6-0.3-0.6-0.7c0-0.4,0.3-0.7,0.6-0.7
					C105.1,204.2,105.4,204.5,105.4,204.9z M104.3,212.4v-5.9h1v5.9H104.3z"/>
			</g>
			<g>
				<path class="st2" d="M111.4,203.8v7.1c0,0.5,0,1.1,0,1.5h-0.9l0-1h0c-0.3,0.7-1,1.2-1.8,1.2c-1.3,0-2.3-1.2-2.3-3
					c0-2,1.1-3.2,2.4-3.2c0.8,0,1.4,0.4,1.6,0.9h0v-3.5H111.4z M110.4,208.9c0-0.1,0-0.3,0-0.4c-0.1-0.7-0.7-1.2-1.4-1.2
					c-1,0-1.6,1-1.6,2.3c0,1.2,0.5,2.2,1.6,2.2c0.7,0,1.3-0.5,1.4-1.3c0-0.1,0-0.3,0-0.5V208.9z"/>
			</g>
			<g>
				<path class="st2" d="M113.5,209.7c0,1.4,0.9,2,1.8,2c0.7,0,1.1-0.1,1.5-0.3l0.2,0.8c-0.3,0.2-0.9,0.4-1.8,0.4
					c-1.7,0-2.6-1.2-2.6-3c0-1.8,1-3.2,2.5-3.2c1.8,0,2.2,1.7,2.2,2.8c0,0.2,0,0.4,0,0.5H113.5z M116.3,208.9c0-0.7-0.3-1.7-1.4-1.7
					c-1,0-1.4,1-1.5,1.7H116.3z"/>
			</g>
			<g>
				<path class="st2" d="M118.2,211.3c0.3,0.2,0.8,0.4,1.3,0.4c0.7,0,1-0.4,1-0.9c0-0.5-0.3-0.8-1-1.1c-1-0.4-1.4-1-1.4-1.7
					c0-0.9,0.7-1.7,1.9-1.7c0.5,0,1,0.2,1.3,0.4l-0.2,0.8c-0.2-0.1-0.6-0.3-1.1-0.3c-0.6,0-0.9,0.4-0.9,0.8c0,0.5,0.3,0.7,1,1
					c0.9,0.4,1.4,0.9,1.4,1.8c0,1-0.7,1.8-2,1.8c-0.6,0-1.1-0.2-1.5-0.4L118.2,211.3z"/>
			</g>
			<g>
				<path class="st2" d="M124.6,212.4v-0.7l0.8-0.8c1.8-1.9,2.7-2.9,2.7-4.1c0-0.8-0.4-1.5-1.4-1.5c-0.7,0-1.2,0.4-1.5,0.7l-0.3-0.8
					c0.5-0.5,1.2-0.8,2-0.8c1.6,0,2.2,1.2,2.2,2.3c0,1.5-1,2.6-2.5,4.2l-0.6,0.6v0h3.2v0.9H124.6z"/>
			</g>
			<g>
				<path class="st2" d="M134.9,208.4c0,2.7-0.9,4.2-2.5,4.2c-1.4,0-2.4-1.4-2.4-4.1c0-2.6,1-4.1,2.5-4.1
					C134.1,204.4,134.9,205.9,134.9,208.4z M131,208.5c0,2.1,0.6,3.2,1.5,3.2c1,0,1.5-1.3,1.5-3.3c0-1.9-0.5-3.2-1.5-3.2
					C131.6,205.2,131,206.4,131,208.5z"/>
			</g>
			<g>
				<path class="st2" d="M142.9,211.6c0,1.3-0.2,2.2-0.8,2.7c-0.5,0.5-1.3,0.7-2,0.7c-0.6,0-1.4-0.2-1.8-0.5l0.2-0.8
					c0.4,0.2,0.9,0.5,1.6,0.5c1,0,1.7-0.6,1.7-2.1v-0.7h0c-0.3,0.5-0.9,1-1.7,1c-1.3,0-2.3-1.2-2.3-2.9c0-2,1.2-3.1,2.4-3.1
					c0.9,0,1.4,0.5,1.7,1h0l0-0.9h0.9c0,0.4,0,0.9,0,1.6V211.6z M141.9,208.9c0-0.2,0-0.3-0.1-0.5c-0.2-0.6-0.7-1.1-1.4-1.1
					c-0.9,0-1.6,0.9-1.6,2.2c0,1.2,0.5,2.1,1.6,2.1c0.6,0,1.1-0.4,1.4-1.1c0.1-0.2,0.1-0.4,0.1-0.6V208.9z"/>
			</g>
			<g>
				<path class="st2" d="M176.4,204.5v0.7l-3.1,7.2h-1l3.1-7v0h-3.5v-0.9H176.4z"/>
			</g>
			<g>
				<path class="st2" d="M181.1,204.4c1,0,1.7,0.9,1.7,2.4c0,1.7-0.8,2.5-1.7,2.5c-0.9,0-1.7-0.8-1.7-2.4
					C179.4,205.3,180.2,204.4,181.1,204.4L181.1,204.4z M181.1,205c-0.6,0-0.9,0.8-0.9,1.8c0,1,0.3,1.8,0.9,1.8
					c0.6,0,0.9-0.8,0.9-1.8C182,205.8,181.8,205,181.1,205L181.1,205z M181,212.6l4.2-8.2h0.6l-4.2,8.2H181z M185.8,207.7
					c1,0,1.7,0.9,1.7,2.4c0,1.7-0.8,2.5-1.7,2.5c-0.9,0-1.7-0.8-1.7-2.4C184.1,208.5,184.9,207.7,185.8,207.7L185.8,207.7z
					 M185.8,208.3c-0.6,0-0.9,0.8-0.9,1.8c0,1,0.3,1.8,0.9,1.8c0.6,0,0.9-0.8,0.9-1.8C186.7,209.1,186.5,208.3,185.8,208.3
					L185.8,208.3z"/>
			</g>
			<g>
				<path class="st2" d="M21,220.9h4v0.9h-3.1v2.7h2.8v0.9h-2.8v3.7h-1V220.9z"/>
			</g>
			<g>
				<path class="st2" d="M27,221.6c0,0.4-0.2,0.7-0.6,0.7c-0.3,0-0.6-0.3-0.6-0.7c0-0.4,0.3-0.7,0.6-0.7
					C26.8,220.9,27,221.2,27,221.6z M25.9,229.1v-5.9h1v5.9H25.9z"/>
			</g>
			<g>
				<path class="st2" d="M28.4,220.5h1v3.7h0c0.3-0.7,1-1.1,1.8-1.1c1.3,0,2.3,1.2,2.3,3c0,2.1-1.2,3.1-2.4,3.1
					c-0.8,0-1.4-0.3-1.8-1.1h0l0,1h-0.8c0-0.4,0-1,0-1.5V220.5z M29.4,226.7c0,0.1,0,0.3,0,0.4c0.2,0.7,0.8,1.3,1.5,1.3
					c1,0,1.6-0.9,1.6-2.3c0-1.2-0.6-2.2-1.6-2.2c-0.7,0-1.3,0.5-1.5,1.3c0,0.1-0.1,0.3-0.1,0.4V226.7z"/>
			</g>
			<g>
				<path class="st2" d="M34.6,225.1c0-0.7,0-1.3,0-1.8h0.9l0,1.2h0c0.2-0.8,0.8-1.3,1.5-1.3c0.1,0,0.2,0,0.3,0v1
					c-0.1,0-0.2,0-0.3,0c-0.7,0-1.2,0.6-1.3,1.4c0,0.1,0,0.3,0,0.5v3.1h-1V225.1z"/>
			</g>
			<g>
				<path class="st2" d="M38.6,226.4c0,1.4,0.9,2,1.8,2c0.7,0,1.1-0.1,1.5-0.3l0.2,0.8c-0.3,0.2-0.9,0.4-1.8,0.4
					c-1.7,0-2.6-1.2-2.6-3c0-1.8,1-3.2,2.5-3.2c1.8,0,2.2,1.7,2.2,2.8c0,0.2,0,0.4,0,0.5H38.6z M41.4,225.6c0-0.7-0.3-1.7-1.4-1.7
					c-1,0-1.4,1-1.5,1.7H41.4z"/>
			</g>
			<g>
				<path class="st2" d="M44.9,229.6l3.1-8.8h0.8l-3.1,8.8H44.9z"/>
			</g>
			<g>
				<path class="st2" d="M51.7,220.9h4v0.9h-3.1v2.7h2.8v0.9h-2.8v3.7h-1V220.9z"/>
			</g>
			<g>
				<path class="st2" d="M57.7,221.6c0,0.4-0.2,0.7-0.6,0.7c-0.3,0-0.6-0.3-0.6-0.7c0-0.4,0.3-0.7,0.6-0.7
					C57.5,220.9,57.7,221.2,57.7,221.6z M56.6,229.1v-5.9h1v5.9H56.6z"/>
			</g>
			<g>
				<path class="st2" d="M59.1,220.5h1v3.7h0c0.3-0.7,1-1.1,1.8-1.1c1.3,0,2.3,1.2,2.3,3c0,2.1-1.2,3.1-2.4,3.1
					c-0.8,0-1.4-0.3-1.8-1.1h0l0,1h-0.8c0-0.4,0-1,0-1.5V220.5z M60.1,226.7c0,0.1,0,0.3,0,0.4c0.2,0.7,0.8,1.3,1.5,1.3
					c1,0,1.6-0.9,1.6-2.3c0-1.2-0.6-2.2-1.6-2.2c-0.7,0-1.3,0.5-1.5,1.3c0,0.1-0.1,0.3-0.1,0.4V226.7z"/>
			</g>
			<g>
				<path class="st2" d="M65.3,225.1c0-0.7,0-1.3,0-1.8h0.9l0,1.2h0c0.2-0.8,0.8-1.3,1.5-1.3c0.1,0,0.2,0,0.3,0v1
					c-0.1,0-0.2,0-0.3,0c-0.7,0-1.2,0.6-1.3,1.4c0,0.1,0,0.3,0,0.5v3.1h-1V225.1z"/>
			</g>
			<g>
				<path class="st2" d="M69.3,226.4c0,1.4,0.9,2,1.8,2c0.7,0,1.1-0.1,1.5-0.3l0.2,0.8c-0.3,0.2-0.9,0.4-1.8,0.4
					c-1.7,0-2.6-1.2-2.6-3c0-1.8,1-3.2,2.5-3.2c1.8,0,2.2,1.7,2.2,2.8c0,0.2,0,0.4,0,0.5H69.3z M72.1,225.6c0-0.7-0.3-1.7-1.4-1.7
					c-1,0-1.4,1-1.5,1.7H72.1z"/>
			</g>
			<g>
				<path class="st2" d="M74,228c0.3,0.2,0.8,0.4,1.3,0.4c0.7,0,1-0.4,1-0.9c0-0.5-0.3-0.8-1-1.1c-1-0.4-1.4-1-1.4-1.7
					c0-0.9,0.7-1.7,1.9-1.7c0.5,0,1,0.2,1.3,0.4l-0.2,0.8c-0.2-0.1-0.6-0.3-1.1-0.3c-0.6,0-0.9,0.4-0.9,0.8c0,0.5,0.3,0.7,1,1
					c0.9,0.4,1.4,0.9,1.4,1.8c0,1-0.7,1.8-2,1.8c-0.6,0-1.1-0.2-1.5-0.4L74,228z"/>
			</g>
			<g>
				<path class="st2" d="M85.2,225.1c0,2.7-0.9,4.2-2.5,4.2c-1.4,0-2.4-1.4-2.4-4.1c0-2.6,1-4.1,2.5-4.1
					C84.3,221.1,85.2,222.6,85.2,225.1z M81.3,225.2c0,2.1,0.6,3.2,1.5,3.2c1,0,1.5-1.3,1.5-3.3c0-1.9-0.5-3.2-1.5-3.2
					C81.9,221.9,81.3,223,81.3,225.2z"/>
			</g>
			<g>
				<path class="st2" d="M93.1,228.3c0,1.3-0.2,2.2-0.8,2.7c-0.5,0.5-1.3,0.7-2,0.7c-0.6,0-1.4-0.2-1.8-0.5l0.2-0.8
					c0.4,0.2,0.9,0.5,1.6,0.5c1,0,1.7-0.6,1.7-2.1v-0.7h0c-0.3,0.5-0.9,1-1.7,1c-1.3,0-2.3-1.2-2.3-2.9c0-2,1.2-3.1,2.4-3.1
					c0.9,0,1.4,0.5,1.7,1h0l0-0.9h0.9c0,0.4,0,0.9,0,1.6V228.3z M92.1,225.5c0-0.2,0-0.3-0.1-0.5c-0.2-0.6-0.7-1.1-1.4-1.1
					c-0.9,0-1.6,0.9-1.6,2.2c0,1.2,0.5,2.1,1.6,2.1c0.6,0,1.1-0.4,1.4-1.1c0.1-0.2,0.1-0.4,0.1-0.6V225.5z"/>
			</g>
			<g>
				<path class="st2" d="M176.5,225.1c0,2.7-0.9,4.2-2.5,4.2c-1.4,0-2.4-1.4-2.4-4.1c0-2.6,1-4.1,2.5-4.1
					C175.7,221.1,176.5,222.6,176.5,225.1z M172.6,225.2c0,2.1,0.6,3.2,1.5,3.2c1,0,1.5-1.3,1.5-3.3c0-1.9-0.5-3.2-1.5-3.2
					C173.2,221.9,172.6,223,172.6,225.2z"/>
			</g>
			<g>
				<path class="st2" d="M181.1,221.1c1,0,1.7,0.9,1.7,2.4c0,1.7-0.8,2.5-1.7,2.5c-0.9,0-1.7-0.8-1.7-2.4
					C179.4,222,180.2,221.1,181.1,221.1L181.1,221.1z M181.1,221.7c-0.6,0-0.9,0.8-0.9,1.8c0,1,0.3,1.8,0.9,1.8
					c0.6,0,0.9-0.8,0.9-1.8C182,222.5,181.8,221.7,181.1,221.7L181.1,221.7z M181,229.3l4.2-8.2h0.6l-4.2,8.2H181z M185.8,224.3
					c1,0,1.7,0.9,1.7,2.4c0,1.7-0.8,2.5-1.7,2.5c-0.9,0-1.7-0.8-1.7-2.4C184.1,225.2,184.9,224.3,185.8,224.3L185.8,224.3z
					 M185.8,225c-0.6,0-0.9,0.8-0.9,1.8c0,1,0.3,1.8,0.9,1.8c0.6,0,0.9-0.8,0.9-1.8C186.7,225.8,186.5,225,185.8,225L185.8,225z"/>
			</g>
			<g>
				<path class="st2" d="M20.8,244.5c0.4,0.3,1.1,0.5,1.7,0.5c1,0,1.6-0.6,1.6-1.4c0-0.8-0.4-1.2-1.4-1.6c-1.2-0.5-2-1.2-2-2.3
					c0-1.3,1-2.2,2.4-2.2c0.8,0,1.3,0.2,1.7,0.4l-0.3,0.9c-0.2-0.1-0.7-0.4-1.4-0.4c-1,0-1.4,0.7-1.4,1.2c0,0.8,0.5,1.1,1.5,1.6
					c1.3,0.5,1.9,1.2,1.9,2.4c0,1.3-0.9,2.4-2.6,2.4c-0.7,0-1.5-0.2-1.9-0.5L20.8,244.5z"/>
			</g>
			<g>
				<path class="st2" d="M30.8,244.2c0,0.6,0,1.1,0,1.6h-0.9l-0.1-1h0c-0.3,0.5-0.8,1.1-1.8,1.1c-0.8,0-1.9-0.5-1.9-2.6v-3.4h1v3.3
					c0,1.1,0.3,1.9,1.2,1.9c0.7,0,1.1-0.5,1.3-1c0.1-0.2,0.1-0.4,0.1-0.5v-3.6h1V244.2z"/>
			</g>
			<g>
				<path class="st2" d="M36.9,244.9c0,1.3-0.2,2.2-0.8,2.7c-0.5,0.5-1.3,0.7-2,0.7c-0.6,0-1.4-0.2-1.8-0.5l0.2-0.8
					c0.4,0.2,0.9,0.5,1.6,0.5c1,0,1.7-0.6,1.7-2.1v-0.7h0c-0.3,0.5-0.9,1-1.7,1c-1.3,0-2.3-1.2-2.3-2.9c0-2,1.2-3.1,2.4-3.1
					c0.9,0,1.4,0.5,1.7,1h0l0-0.9h0.9c0,0.4,0,0.9,0,1.6V244.9z M35.9,242.2c0-0.2,0-0.3-0.1-0.5c-0.2-0.6-0.7-1.1-1.4-1.1
					c-0.9,0-1.6,0.9-1.6,2.2c0,1.2,0.5,2.1,1.6,2.1c0.6,0,1.1-0.4,1.4-1.1c0.1-0.2,0.1-0.4,0.1-0.6V242.2z"/>
			</g>
			<g>
				<path class="st2" d="M42.1,244.4c0,0.5,0,1,0.1,1.4h-0.9l-0.1-0.7h0c-0.3,0.5-0.9,0.9-1.6,0.9c-1.1,0-1.6-0.8-1.6-1.7
					c0-1.4,1.2-2.2,3.2-2.2v-0.1c0-0.5-0.1-1.4-1.2-1.4c-0.5,0-1,0.2-1.4,0.4l-0.2-0.7c0.4-0.3,1.1-0.5,1.8-0.5c1.6,0,2,1.2,2,2.4
					V244.4z M41.2,242.8c-1.1,0-2.3,0.2-2.3,1.3c0,0.7,0.4,1,0.9,1c0.7,0,1.1-0.5,1.3-1c0-0.1,0.1-0.2,0.1-0.3V242.8z"/>
			</g>
			<g>
				<path class="st2" d="M43.6,241.7c0-0.7,0-1.3,0-1.8h0.9l0,1.2h0c0.2-0.8,0.8-1.3,1.5-1.3c0.1,0,0.2,0,0.3,0v1
					c-0.1,0-0.2,0-0.3,0c-0.7,0-1.2,0.6-1.3,1.4c0,0.1,0,0.3,0,0.5v3.1h-1V241.7z"/>
			</g>
			<g>
				<path class="st2" d="M47,244.7c0.3,0.2,0.8,0.4,1.3,0.4c0.7,0,1-0.4,1-0.9c0-0.5-0.3-0.8-1-1.1c-1-0.4-1.4-1-1.4-1.7
					c0-0.9,0.7-1.7,1.9-1.7c0.5,0,1,0.2,1.3,0.4l-0.2,0.8c-0.2-0.1-0.6-0.3-1.1-0.3c-0.6,0-0.9,0.4-0.9,0.8c0,0.5,0.3,0.7,1,1
					c0.9,0.4,1.4,0.9,1.4,1.8c0,1-0.7,1.8-2,1.8c-0.6,0-1.1-0.2-1.5-0.4L47,244.7z"/>
			</g>
			<g>
				<path class="st2" d="M52.8,246.3l3.1-8.8h0.8l-3.1,8.8H52.8z"/>
			</g>
			<g>
				<path class="st2" d="M59.5,244.5c0.4,0.3,1.1,0.5,1.7,0.5c1,0,1.6-0.6,1.6-1.4c0-0.8-0.4-1.2-1.4-1.6c-1.2-0.5-2-1.2-2-2.3
					c0-1.3,1-2.2,2.4-2.2c0.8,0,1.3,0.2,1.7,0.4l-0.3,0.9c-0.2-0.1-0.7-0.4-1.4-0.4c-1,0-1.4,0.7-1.4,1.2c0,0.8,0.5,1.1,1.5,1.6
					c1.3,0.5,1.9,1.2,1.9,2.4c0,1.3-0.9,2.4-2.6,2.4c-0.7,0-1.5-0.2-1.9-0.5L59.5,244.5z"/>
			</g>
			<g>
				<path class="st2" d="M69.4,244.2c0,0.6,0,1.1,0,1.6h-0.9l-0.1-1h0c-0.3,0.5-0.8,1.1-1.8,1.1c-0.8,0-1.9-0.5-1.9-2.6v-3.4h1v3.3
					c0,1.1,0.3,1.9,1.2,1.9c0.7,0,1.1-0.5,1.3-1c0.1-0.2,0.1-0.4,0.1-0.5v-3.6h1V244.2z"/>
			</g>
			<g>
				<path class="st2" d="M74.8,245.6c-0.3,0.1-0.8,0.4-1.5,0.4c-1.6,0-2.7-1.2-2.7-3c0-1.8,1.1-3.1,2.9-3.1c0.6,0,1.1,0.2,1.4,0.3
					l-0.2,0.8c-0.2-0.1-0.6-0.3-1.1-0.3c-1.2,0-1.9,1-1.9,2.2c0,1.4,0.8,2.2,1.9,2.2c0.6,0,0.9-0.2,1.2-0.3L74.8,245.6z"/>
			</g>
			<g>
				<path class="st2" d="M75.8,241.7c0-0.7,0-1.3,0-1.8h0.9l0,1.2h0c0.2-0.8,0.8-1.3,1.5-1.3c0.1,0,0.2,0,0.3,0v1
					c-0.1,0-0.2,0-0.3,0c-0.7,0-1.2,0.6-1.3,1.4c0,0.1,0,0.3,0,0.5v3.1h-1V241.7z"/>
			</g>
			<g>
				<path class="st2" d="M79.7,243c0,1.4,0.9,2,1.8,2c0.7,0,1.1-0.1,1.5-0.3l0.2,0.8c-0.3,0.2-0.9,0.4-1.8,0.4c-1.7,0-2.6-1.2-2.6-3
					c0-1.8,1-3.2,2.5-3.2c1.8,0,2.2,1.7,2.2,2.8c0,0.2,0,0.4,0,0.5H79.7z M82.6,242.3c0-0.7-0.3-1.7-1.4-1.7c-1,0-1.4,1-1.5,1.7
					H82.6z"/>
			</g>
			<g>
				<path class="st2" d="M84.5,244.7c0.3,0.2,0.8,0.4,1.3,0.4c0.7,0,1-0.4,1-0.9c0-0.5-0.3-0.8-1-1.1c-1-0.4-1.4-1-1.4-1.7
					c0-0.9,0.7-1.7,1.9-1.7c0.5,0,1,0.2,1.3,0.4l-0.2,0.8c-0.2-0.1-0.6-0.3-1.1-0.3c-0.6,0-0.9,0.4-0.9,0.8c0,0.5,0.3,0.7,1,1
					c0.9,0.4,1.4,0.9,1.4,1.8c0,1-0.7,1.8-2,1.8c-0.6,0-1.1-0.2-1.5-0.4L84.5,244.7z"/>
			</g>
			<g>
				<path class="st2" d="M93,238.9L93,238.9l-1.3,0.7l-0.2-0.8l1.6-0.9h0.8v7.9H93V238.9z"/>
			</g>
			<g>
				<path class="st2" d="M100.5,238.6c-0.2,0-0.5,0-0.7,0c-1.5,0.3-2.3,1.5-2.5,2.8h0c0.3-0.5,0.9-0.9,1.7-0.9c1.3,0,2.2,1,2.2,2.6
					c0,1.4-0.9,2.8-2.4,2.8c-1.5,0-2.6-1.3-2.6-3.4c0-1.6,0.5-2.8,1.2-3.6c0.6-0.6,1.4-1,2.3-1.2c0.3,0,0.5-0.1,0.7-0.1V238.6z
					 M98.9,245.1c0.8,0,1.4-0.8,1.4-1.9c0-1.1-0.6-1.8-1.5-1.8c-0.6,0-1.1,0.4-1.4,1c-0.1,0.1-0.1,0.3-0.1,0.5
					C97.3,244.1,97.8,245.1,98.9,245.1L98.9,245.1z"/>
			</g>
			<g>
				<path class="st2" d="M109.1,244.9c0,1.3-0.2,2.2-0.8,2.7c-0.5,0.5-1.3,0.7-2,0.7c-0.6,0-1.4-0.2-1.8-0.5l0.2-0.8
					c0.4,0.2,0.9,0.5,1.6,0.5c1,0,1.7-0.6,1.7-2.1v-0.7h0c-0.3,0.5-0.9,1-1.7,1c-1.3,0-2.3-1.2-2.3-2.9c0-2,1.2-3.1,2.4-3.1
					c0.9,0,1.4,0.5,1.7,1h0l0-0.9h0.9c0,0.4,0,0.9,0,1.6V244.9z M108.2,242.2c0-0.2,0-0.3-0.1-0.5c-0.2-0.6-0.7-1.1-1.4-1.1
					c-0.9,0-1.6,0.9-1.6,2.2c0,1.2,0.5,2.1,1.6,2.1c0.6,0,1.1-0.4,1.4-1.1c0.1-0.2,0.1-0.4,0.1-0.6V242.2z"/>
			</g>
			<g>
				<path class="st2" d="M13.7,254.4c0.5-0.1,1.1-0.2,1.9-0.2c1,0,1.7,0.2,2.1,0.7c0.4,0.4,0.7,1,0.7,1.7c0,0.7-0.2,1.3-0.6,1.7
					c-0.5,0.6-1.3,0.9-2.3,0.9c-0.3,0-0.6,0-0.8-0.1v3.3h-1V254.4z M14.7,258.3c0.2,0.1,0.5,0.1,0.8,0.1c1.2,0,1.9-0.6,1.9-1.7
					c0-1.1-0.7-1.6-1.8-1.6c-0.4,0-0.7,0-0.9,0.1V258.3z"/>
			</g>
			<g>
				<path class="st2" d="M19.3,258.4c0-0.7,0-1.3,0-1.8h0.9l0,1.2h0c0.2-0.8,0.8-1.3,1.5-1.3c0.1,0,0.2,0,0.3,0v1
					c-0.1,0-0.2,0-0.3,0c-0.7,0-1.2,0.6-1.3,1.4c0,0.1,0,0.3,0,0.5v3.1h-1V258.4z"/>
			</g>
			<g>
				<path class="st2" d="M27.7,259.5c0,2.2-1.4,3.1-2.7,3.1c-1.5,0-2.6-1.2-2.6-3c0-2,1.2-3.1,2.7-3.1
					C26.6,256.5,27.7,257.7,27.7,259.5z M23.4,259.5c0,1.3,0.7,2.3,1.6,2.3c0.9,0,1.6-1,1.6-2.3c0-1-0.5-2.3-1.6-2.3
					C23.9,257.3,23.4,258.4,23.4,259.5z"/>
			</g>
			<g>
				<path class="st2" d="M30,255.2v1.4h1.4v0.8H30v3.2c0,0.7,0.2,1.1,0.7,1.1c0.3,0,0.4,0,0.6-0.1l0,0.8c-0.2,0.1-0.5,0.2-0.9,0.2
					c-0.5,0-0.8-0.2-1.1-0.5c-0.3-0.3-0.4-0.8-0.4-1.5v-3.2h-0.8v-0.8H29v-1.1L30,255.2z"/>
			</g>
			<g>
				<path class="st2" d="M32.8,259.7c0,1.4,0.9,2,1.8,2c0.7,0,1.1-0.1,1.5-0.3l0.2,0.8c-0.3,0.2-0.9,0.4-1.8,0.4
					c-1.7,0-2.6-1.2-2.6-3c0-1.8,1-3.2,2.5-3.2c1.8,0,2.2,1.7,2.2,2.8c0,0.2,0,0.4,0,0.5H32.8z M35.7,259c0-0.7-0.3-1.7-1.4-1.7
					c-1,0-1.4,1-1.5,1.7H35.7z"/>
			</g>
			<g>
				<path class="st2" d="M38.8,254.9c0,0.4-0.2,0.7-0.6,0.7c-0.3,0-0.6-0.3-0.6-0.7c0-0.4,0.3-0.7,0.6-0.7
					C38.6,254.3,38.8,254.6,38.8,254.9z M37.7,262.5v-5.9h1v5.9H37.7z"/>
			</g>
			<g>
				<path class="st2" d="M40.2,258.2c0-0.6,0-1.1,0-1.6H41l0.1,1h0c0.3-0.6,0.9-1.1,1.8-1.1c0.7,0,1.9,0.5,1.9,2.5v3.5h-1v-3.4
					c0-0.9-0.3-1.7-1.2-1.7c-0.6,0-1.1,0.5-1.3,1.1c0,0.1-0.1,0.3-0.1,0.5v3.5h-1V258.2z"/>
			</g>
			<g>
				<path class="st2" d="M47.7,263l3.1-8.8h0.8l-3.1,8.8H47.7z"/>
			</g>
			<g>
				<path class="st2" d="M54.5,254.4c0.5-0.1,1.1-0.2,1.9-0.2c1,0,1.7,0.2,2.1,0.7c0.4,0.4,0.7,1,0.7,1.7c0,0.7-0.2,1.3-0.6,1.7
					c-0.5,0.6-1.3,0.9-2.3,0.9c-0.3,0-0.6,0-0.8-0.1v3.3h-1V254.4z M55.4,258.3c0.2,0.1,0.5,0.1,0.8,0.1c1.2,0,1.9-0.6,1.9-1.7
					c0-1.1-0.7-1.6-1.8-1.6c-0.4,0-0.7,0-0.9,0.1V258.3z"/>
			</g>
			<g>
				<path class="st2" d="M60,258.4c0-0.7,0-1.3,0-1.8h0.9l0,1.2h0c0.2-0.8,0.8-1.3,1.5-1.3c0.1,0,0.2,0,0.3,0v1c-0.1,0-0.2,0-0.3,0
					c-0.7,0-1.2,0.6-1.3,1.4c0,0.1,0,0.3,0,0.5v3.1h-1V258.4z"/>
			</g>
			<g>
				<path class="st2" d="M68.3,259.5c0,2.2-1.4,3.1-2.7,3.1c-1.5,0-2.6-1.2-2.6-3c0-2,1.2-3.1,2.7-3.1
					C67.3,256.5,68.3,257.7,68.3,259.5z M64.1,259.5c0,1.3,0.7,2.3,1.6,2.3c0.9,0,1.6-1,1.6-2.3c0-1-0.5-2.3-1.6-2.3
					C64.6,257.3,64.1,258.4,64.1,259.5z"/>
			</g>
			<g>
				<path class="st2" d="M70.6,255.2v1.4H72v0.8h-1.4v3.2c0,0.7,0.2,1.1,0.7,1.1c0.3,0,0.4,0,0.6-0.1l0,0.8
					c-0.2,0.1-0.5,0.2-0.9,0.2c-0.5,0-0.8-0.2-1.1-0.5c-0.3-0.3-0.4-0.8-0.4-1.5v-3.2h-0.8v-0.8h0.8v-1.1L70.6,255.2z"/>
			</g>
			<g>
				<path class="st2" d="M73.5,259.7c0,1.4,0.9,2,1.8,2c0.7,0,1.1-0.1,1.5-0.3l0.2,0.8c-0.3,0.2-0.9,0.4-1.8,0.4
					c-1.7,0-2.6-1.2-2.6-3c0-1.8,1-3.2,2.5-3.2c1.8,0,2.2,1.7,2.2,2.8c0,0.2,0,0.4,0,0.5H73.5z M76.3,259c0-0.7-0.3-1.7-1.4-1.7
					c-1,0-1.4,1-1.5,1.7H76.3z M76.6,254.1l-1.4,1.7h-0.7l1-1.7H76.6z"/>
			</g>
			<g>
				<path class="st2" d="M79.5,254.9c0,0.4-0.2,0.7-0.6,0.7c-0.3,0-0.6-0.3-0.6-0.7c0-0.4,0.3-0.7,0.6-0.7
					C79.2,254.3,79.5,254.6,79.5,254.9z M78.4,262.5v-5.9h1v5.9H78.4z"/>
			</g>
			<g>
				<path class="st2" d="M80.9,258.2c0-0.6,0-1.1,0-1.6h0.9l0.1,1h0c0.3-0.6,0.9-1.1,1.8-1.1c0.7,0,1.9,0.5,1.9,2.5v3.5h-1v-3.4
					c0-0.9-0.3-1.7-1.2-1.7c-0.6,0-1.1,0.5-1.3,1.1c0,0.1-0.1,0.3-0.1,0.5v3.5h-1V258.2z"/>
			</g>
			<g>
				<path class="st2" d="M87.4,259.7c0,1.4,0.9,2,1.8,2c0.7,0,1.1-0.1,1.5-0.3l0.2,0.8c-0.3,0.2-0.9,0.4-1.8,0.4
					c-1.7,0-2.6-1.2-2.6-3c0-1.8,1-3.2,2.5-3.2c1.8,0,2.2,1.7,2.2,2.8c0,0.2,0,0.4,0,0.5H87.4z M90.3,259c0-0.7-0.3-1.7-1.4-1.7
					c-1,0-1.4,1-1.5,1.7H90.3z"/>
			</g>
			<g>
				<path class="st2" d="M92.2,261.4c0.3,0.2,0.8,0.4,1.3,0.4c0.7,0,1-0.4,1-0.9c0-0.5-0.3-0.8-1-1.1c-1-0.4-1.4-1-1.4-1.7
					c0-0.9,0.7-1.7,1.9-1.7c0.5,0,1,0.2,1.3,0.4l-0.2,0.8c-0.2-0.1-0.6-0.3-1.1-0.3c-0.6,0-0.9,0.4-0.9,0.8c0,0.5,0.3,0.7,1,1
					c0.9,0.4,1.4,0.9,1.4,1.8c0,1-0.7,1.8-2,1.8c-0.6,0-1.1-0.2-1.5-0.4L92.2,261.4z"/>
			</g>
			<g>
				<path class="st2" d="M103.4,258.4c0,2.7-0.9,4.2-2.5,4.2c-1.4,0-2.4-1.4-2.4-4.1c0-2.6,1-4.1,2.5-4.1
					C102.5,254.4,103.4,255.9,103.4,258.4z M99.4,258.6c0,2.1,0.6,3.2,1.5,3.2c1,0,1.5-1.3,1.5-3.3c0-1.9-0.5-3.2-1.5-3.2
					C100.1,255.3,99.4,256.4,99.4,258.6z"/>
			</g>
			<g>
				<path class="st2" d="M104.9,262.6c-0.4,0-0.6-0.3-0.6-0.8c0-0.4,0.3-0.8,0.7-0.8c0.4,0,0.7,0.3,0.7,0.8
					C105.5,262.3,105.3,262.6,104.9,262.6L104.9,262.6z"/>
			</g>
			<g>
				<path class="st2" d="M109.3,262.5v-2.1H106v-0.7l3.2-5h1.1v4.9h1v0.8h-1v2.1H109.3z M109.3,259.5v-2.6c0-0.4,0-0.8,0-1.2h0
					c-0.2,0.5-0.4,0.8-0.6,1.2l-1.8,2.7v0H109.3z"/>
			</g>
			<g>
				<path class="st2" d="M119,261.6c0,1.3-0.2,2.2-0.8,2.7c-0.5,0.5-1.3,0.7-2,0.7c-0.6,0-1.4-0.2-1.8-0.5l0.2-0.8
					c0.4,0.2,0.9,0.5,1.6,0.5c1,0,1.7-0.6,1.7-2.1v-0.7h0c-0.3,0.5-0.9,1-1.7,1c-1.3,0-2.3-1.2-2.3-2.9c0-2,1.2-3.1,2.4-3.1
					c0.9,0,1.4,0.5,1.7,1h0l0-0.9h0.9c0,0.4,0,0.9,0,1.6V261.6z M118.1,258.9c0-0.2,0-0.3-0.1-0.5c-0.2-0.6-0.7-1.1-1.4-1.1
					c-0.9,0-1.6,0.9-1.6,2.2c0,1.2,0.5,2.1,1.6,2.1c0.6,0,1.1-0.4,1.4-1.1c0.1-0.2,0.1-0.4,0.1-0.6V258.9z"/>
			</g>
			<g>
				<path class="st2" d="M15.4,279.2l-2.4-8.2h1l1.2,4c0.3,1.1,0.6,2.1,0.8,3.1h0c0.2-0.9,0.5-2,0.9-3l1.3-4h1l-2.7,8.2H15.4z"/>
			</g>
			<g>
				<path class="st2" d="M20.7,271.6c0,0.4-0.2,0.7-0.6,0.7c-0.3,0-0.6-0.3-0.6-0.7c0-0.4,0.3-0.7,0.6-0.7
					C20.4,271,20.7,271.3,20.7,271.6z M19.6,279.2v-5.9h1v5.9H19.6z"/>
			</g>
			<g>
				<path class="st2" d="M23.2,271.9v1.4h1.4v0.8h-1.4v3.2c0,0.7,0.2,1.1,0.7,1.1c0.3,0,0.4,0,0.6-0.1l0,0.8
					c-0.2,0.1-0.5,0.2-0.9,0.2c-0.5,0-0.8-0.2-1.1-0.5c-0.3-0.3-0.4-0.8-0.4-1.5v-3.2h-0.8v-0.8h0.8v-1.1L23.2,271.9z"/>
			</g>
			<g>
				<path class="st2" d="M29.4,277.8c0,0.5,0,1,0.1,1.4h-0.9l-0.1-0.7h0c-0.3,0.5-0.9,0.9-1.6,0.9c-1.1,0-1.6-0.8-1.6-1.7
					c0-1.4,1.2-2.2,3.2-2.2v-0.1c0-0.5-0.1-1.4-1.2-1.4c-0.5,0-1,0.2-1.4,0.4l-0.2-0.7c0.4-0.3,1.1-0.5,1.8-0.5c1.6,0,2,1.2,2,2.4
					V277.8z M28.5,276.2c-1.1,0-2.3,0.2-2.3,1.3c0,0.7,0.4,1,0.9,1c0.7,0,1.1-0.5,1.3-1c0-0.1,0.1-0.2,0.1-0.3V276.2z"/>
			</g>
			<g>
				<path class="st2" d="M30.9,274.9c0-0.6,0-1.1,0-1.6h0.9l0,0.9h0c0.3-0.6,0.8-1.1,1.7-1.1c0.7,0,1.3,0.5,1.5,1.2h0
					c0.2-0.3,0.4-0.6,0.6-0.8c0.3-0.3,0.7-0.4,1.2-0.4c0.7,0,1.8,0.5,1.8,2.6v3.5h-1v-3.3c0-1.1-0.4-1.8-1.2-1.8c-0.6,0-1,0.4-1.2,1
					c0,0.1-0.1,0.3-0.1,0.5v3.6h-1v-3.5c0-0.9-0.4-1.6-1.1-1.6c-0.6,0-1.1,0.5-1.2,1.1c-0.1,0.2-0.1,0.3-0.1,0.5v3.5h-1V274.9z"/>
			</g>
			<g>
				<path class="st2" d="M41.1,271.6c0,0.4-0.2,0.7-0.6,0.7c-0.3,0-0.6-0.3-0.6-0.7c0-0.4,0.3-0.7,0.6-0.7
					C40.9,271,41.1,271.3,41.1,271.6z M40,279.2v-5.9h1v5.9H40z"/>
			</g>
			<g>
				<path class="st2" d="M42.5,274.9c0-0.6,0-1.1,0-1.6h0.9l0.1,1h0c0.3-0.6,0.9-1.1,1.8-1.1c0.7,0,1.9,0.5,1.9,2.5v3.5h-1v-3.4
					c0-0.9-0.3-1.7-1.2-1.7c-0.6,0-1.1,0.5-1.3,1.1c0,0.1-0.1,0.3-0.1,0.5v3.5h-1V274.9z"/>
			</g>
			<g>
				<path class="st2" d="M52,276.6l-0.8,2.6h-1l2.5-8.2H54l2.6,8.2h-1l-0.8-2.6H52z M54.5,275.8l-0.7-2.4c-0.2-0.5-0.3-1-0.4-1.5h0
					c-0.1,0.5-0.2,1-0.4,1.5l-0.7,2.4H54.5z"/>
			</g>
			<g>
				<path class="st2" d="M58.9,279.6l3.1-8.8h0.8l-3.1,8.8H58.9z"/>
			</g>
			<g>
				<path class="st2" d="M66.9,279.2l-2.4-8.2h1l1.2,4c0.3,1.1,0.6,2.1,0.8,3.1h0c0.2-0.9,0.5-2,0.9-3l1.3-4h1l-2.7,8.2H66.9z"/>
			</g>
			<g>
				<path class="st2" d="M72.2,271.6c0,0.4-0.2,0.7-0.6,0.7c-0.3,0-0.6-0.3-0.6-0.7c0-0.4,0.3-0.7,0.6-0.7
					C72,271,72.2,271.3,72.2,271.6z M71.1,279.2v-5.9h1v5.9H71.1z"/>
			</g>
			<g>
				<path class="st2" d="M74.8,271.9v1.4h1.4v0.8h-1.4v3.2c0,0.7,0.2,1.1,0.7,1.1c0.3,0,0.4,0,0.6-0.1l0,0.8
					c-0.2,0.1-0.5,0.2-0.9,0.2c-0.5,0-0.8-0.2-1.1-0.5c-0.3-0.3-0.4-0.8-0.4-1.5v-3.2H73v-0.8h0.8v-1.1L74.8,271.9z"/>
			</g>
			<g>
				<path class="st2" d="M80.9,277.8c0,0.5,0,1,0.1,1.4h-0.9l-0.1-0.7h0c-0.3,0.5-0.9,0.9-1.6,0.9c-1.1,0-1.6-0.8-1.6-1.7
					c0-1.4,1.2-2.2,3.2-2.2v-0.1c0-0.5-0.1-1.4-1.2-1.4c-0.5,0-1,0.2-1.4,0.4l-0.2-0.7c0.4-0.3,1.1-0.5,1.8-0.5c1.6,0,2,1.2,2,2.4
					V277.8z M80,276.2c-1.1,0-2.3,0.2-2.3,1.3c0,0.7,0.4,1,0.9,1c0.7,0,1.1-0.5,1.3-1c0-0.1,0.1-0.2,0.1-0.3V276.2z"/>
			</g>
			<g>
				<path class="st2" d="M82.4,274.9c0-0.6,0-1.1,0-1.6h0.9l0,0.9h0c0.3-0.6,0.8-1.1,1.7-1.1c0.7,0,1.3,0.5,1.5,1.2h0
					c0.2-0.3,0.4-0.6,0.6-0.8c0.3-0.3,0.7-0.4,1.2-0.4c0.7,0,1.8,0.5,1.8,2.6v3.5h-1v-3.3c0-1.1-0.4-1.8-1.2-1.8c-0.6,0-1,0.4-1.2,1
					c0,0.1-0.1,0.3-0.1,0.5v3.6h-1v-3.5c0-0.9-0.4-1.6-1.1-1.6c-0.6,0-1.1,0.5-1.2,1.1c-0.1,0.2-0.1,0.3-0.1,0.5v3.5h-1V274.9z"/>
			</g>
			<g>
				<path class="st2" d="M92.6,271.6c0,0.4-0.2,0.7-0.6,0.7c-0.3,0-0.6-0.3-0.6-0.7c0-0.4,0.3-0.7,0.6-0.7
					C92.4,271,92.6,271.3,92.6,271.6z M91.6,279.2v-5.9h1v5.9H91.6z"/>
			</g>
			<g>
				<path class="st2" d="M94,274.9c0-0.6,0-1.1,0-1.6h0.9l0.1,1h0c0.3-0.6,0.9-1.1,1.8-1.1c0.7,0,1.9,0.5,1.9,2.5v3.5h-1v-3.4
					c0-0.9-0.3-1.7-1.2-1.7c-0.6,0-1.1,0.5-1.3,1.1c0,0.1-0.1,0.3-0.1,0.5v3.5h-1V274.9z"/>
			</g>
			<g>
				<path class="st2" d="M100.6,276.4c0,1.4,0.9,2,1.8,2c0.7,0,1.1-0.1,1.5-0.3l0.2,0.8c-0.3,0.2-0.9,0.4-1.8,0.4
					c-1.7,0-2.6-1.2-2.6-3c0-1.8,1-3.2,2.5-3.2c1.8,0,2.2,1.7,2.2,2.8c0,0.2,0,0.4,0,0.5H100.6z M103.5,275.7c0-0.7-0.3-1.7-1.4-1.7
					c-1,0-1.4,1-1.5,1.7H103.5z"/>
			</g>
			<g>
				<path class="st2" d="M109,276.6l-0.8,2.6h-1l2.5-8.2h1.2l2.6,8.2h-1l-0.8-2.6H109z M111.5,275.8l-0.7-2.4
					c-0.2-0.5-0.3-1-0.4-1.5h0c-0.1,0.5-0.2,1-0.4,1.5l-0.7,2.4H111.5z"/>
			</g>
			<g>
				<path class="st2" d="M176.5,275.1c0,2.7-0.9,4.2-2.5,4.2c-1.4,0-2.4-1.4-2.4-4.1c0-2.6,1-4.1,2.5-4.1
					C175.7,271.1,176.5,272.6,176.5,275.1z M172.6,275.3c0,2.1,0.6,3.2,1.5,3.2c1,0,1.5-1.3,1.5-3.3c0-1.9-0.5-3.2-1.5-3.2
					C173.2,272,172.6,273.1,172.6,275.3z"/>
			</g>
			<g>
				<path class="st2" d="M181.1,271.1c1,0,1.7,0.9,1.7,2.4c0,1.7-0.8,2.5-1.7,2.5c-0.9,0-1.7-0.8-1.7-2.4
					C179.4,272,180.2,271.1,181.1,271.1L181.1,271.1z M181.1,271.8c-0.6,0-0.9,0.8-0.9,1.8c0,1,0.3,1.8,0.9,1.8
					c0.6,0,0.9-0.8,0.9-1.8C182,272.6,181.8,271.8,181.1,271.8L181.1,271.8z M181,279.3l4.2-8.2h0.6l-4.2,8.2H181z M185.8,274.4
					c1,0,1.7,0.9,1.7,2.4c0,1.7-0.8,2.5-1.7,2.5c-0.9,0-1.7-0.8-1.7-2.4C184.1,275.3,184.9,274.4,185.8,274.4L185.8,274.4z
					 M185.8,275c-0.6,0-0.9,0.8-0.9,1.8c0,1,0.3,1.8,0.9,1.8c0.6,0,0.9-0.8,0.9-1.8C186.7,275.8,186.5,275,185.8,275L185.8,275z"/>
			</g>
			<g>
				<path class="st2" d="M15.4,295.8l-2.4-8.2h1l1.2,4c0.3,1.1,0.6,2.1,0.8,3.1h0c0.2-0.9,0.5-2,0.9-3l1.3-4h1l-2.7,8.2H15.4z"/>
			</g>
			<g>
				<path class="st2" d="M20.7,288.3c0,0.4-0.2,0.7-0.6,0.7c-0.3,0-0.6-0.3-0.6-0.7c0-0.4,0.3-0.7,0.6-0.7
					C20.4,287.6,20.7,287.9,20.7,288.3z M19.6,295.8V290h1v5.9H19.6z"/>
			</g>
			<g>
				<path class="st2" d="M23.2,288.6v1.4h1.4v0.8h-1.4v3.2c0,0.7,0.2,1.1,0.7,1.1c0.3,0,0.4,0,0.6-0.1l0,0.8
					c-0.2,0.1-0.5,0.2-0.9,0.2c-0.5,0-0.8-0.2-1.1-0.5c-0.3-0.3-0.4-0.8-0.4-1.5v-3.2h-0.8V290h0.8v-1.1L23.2,288.6z"/>
			</g>
			<g>
				<path class="st2" d="M29.4,294.4c0,0.5,0,1,0.1,1.4h-0.9l-0.1-0.7h0c-0.3,0.5-0.9,0.9-1.6,0.9c-1.1,0-1.6-0.8-1.6-1.7
					c0-1.4,1.2-2.2,3.2-2.2V292c0-0.5-0.1-1.4-1.2-1.4c-0.5,0-1,0.2-1.4,0.4l-0.2-0.7c0.4-0.3,1.1-0.5,1.8-0.5c1.6,0,2,1.2,2,2.4
					V294.4z M28.5,292.8c-1.1,0-2.3,0.2-2.3,1.3c0,0.7,0.4,1,0.9,1c0.7,0,1.1-0.5,1.3-1c0-0.1,0.1-0.2,0.1-0.3V292.8z"/>
			</g>
			<g>
				<path class="st2" d="M30.9,291.6c0-0.6,0-1.1,0-1.6h0.9l0,0.9h0c0.3-0.6,0.8-1.1,1.7-1.1c0.7,0,1.3,0.5,1.5,1.2h0
					c0.2-0.3,0.4-0.6,0.6-0.8c0.3-0.3,0.7-0.4,1.2-0.4c0.7,0,1.8,0.5,1.8,2.6v3.5h-1v-3.3c0-1.1-0.4-1.8-1.2-1.8c-0.6,0-1,0.4-1.2,1
					c0,0.1-0.1,0.3-0.1,0.5v3.6h-1v-3.5c0-0.9-0.4-1.6-1.1-1.6c-0.6,0-1.1,0.5-1.2,1.1c-0.1,0.2-0.1,0.3-0.1,0.5v3.5h-1V291.6z"/>
			</g>
			<g>
				<path class="st2" d="M41.1,288.3c0,0.4-0.2,0.7-0.6,0.7c-0.3,0-0.6-0.3-0.6-0.7c0-0.4,0.3-0.7,0.6-0.7
					C40.9,287.6,41.1,287.9,41.1,288.3z M40,295.8V290h1v5.9H40z"/>
			</g>
			<g>
				<path class="st2" d="M42.5,291.6c0-0.6,0-1.1,0-1.6h0.9l0.1,1h0c0.3-0.6,0.9-1.1,1.8-1.1c0.7,0,1.9,0.5,1.9,2.5v3.5h-1v-3.4
					c0-0.9-0.3-1.7-1.2-1.7c-0.6,0-1.1,0.5-1.3,1.1c0,0.1-0.1,0.3-0.1,0.5v3.5h-1V291.6z"/>
			</g>
			<g>
				<path class="st2" d="M56,295.6c-0.4,0.2-1.1,0.4-2,0.4c-2.1,0-3.7-1.5-3.7-4.2c0-2.6,1.6-4.3,3.9-4.3c0.9,0,1.5,0.2,1.8,0.4
					l-0.2,0.9c-0.4-0.2-0.9-0.3-1.5-0.3c-1.8,0-2.9,1.2-2.9,3.4c0,2,1.1,3.3,2.9,3.3c0.6,0,1.2-0.1,1.6-0.3L56,295.6z"/>
			</g>
			<g>
				<path class="st2" d="M58.5,296.3l3.1-8.8h0.8l-3.1,8.8H58.5z"/>
			</g>
			<g>
				<path class="st2" d="M66.5,295.8l-2.4-8.2h1l1.2,4c0.3,1.1,0.6,2.1,0.8,3.1h0c0.2-0.9,0.5-2,0.9-3l1.3-4h1l-2.7,8.2H66.5z"/>
			</g>
			<g>
				<path class="st2" d="M71.9,288.3c0,0.4-0.2,0.7-0.6,0.7c-0.3,0-0.6-0.3-0.6-0.7c0-0.4,0.3-0.7,0.6-0.7
					C71.6,287.6,71.9,287.9,71.9,288.3z M70.8,295.8V290h1v5.9H70.8z"/>
			</g>
			<g>
				<path class="st2" d="M74.4,288.6v1.4h1.4v0.8h-1.4v3.2c0,0.7,0.2,1.1,0.7,1.1c0.3,0,0.4,0,0.6-0.1l0,0.8
					c-0.2,0.1-0.5,0.2-0.9,0.2c-0.5,0-0.8-0.2-1.1-0.5c-0.3-0.3-0.4-0.8-0.4-1.5v-3.2h-0.8V290h0.8v-1.1L74.4,288.6z"/>
			</g>
			<g>
				<path class="st2" d="M80.6,294.4c0,0.5,0,1,0.1,1.4h-0.9l-0.1-0.7h0c-0.3,0.5-0.9,0.9-1.6,0.9c-1.1,0-1.6-0.8-1.6-1.7
					c0-1.4,1.2-2.2,3.2-2.2V292c0-0.5-0.1-1.4-1.2-1.4c-0.5,0-1,0.2-1.4,0.4l-0.2-0.7c0.4-0.3,1.1-0.5,1.8-0.5c1.6,0,2,1.2,2,2.4
					V294.4z M79.6,292.8c-1.1,0-2.3,0.2-2.3,1.3c0,0.7,0.4,1,0.9,1c0.7,0,1.1-0.5,1.3-1c0-0.1,0.1-0.2,0.1-0.3V292.8z"/>
			</g>
			<g>
				<path class="st2" d="M82.1,291.6c0-0.6,0-1.1,0-1.6h0.9l0,0.9h0c0.3-0.6,0.8-1.1,1.7-1.1c0.7,0,1.3,0.5,1.5,1.2h0
					c0.2-0.3,0.4-0.6,0.6-0.8c0.3-0.3,0.7-0.4,1.2-0.4c0.7,0,1.8,0.5,1.8,2.6v3.5h-1v-3.3c0-1.1-0.4-1.8-1.2-1.8c-0.6,0-1,0.4-1.2,1
					c0,0.1-0.1,0.3-0.1,0.5v3.6h-1v-3.5c0-0.9-0.4-1.6-1.1-1.6c-0.6,0-1.1,0.5-1.2,1.1c-0.1,0.2-0.1,0.3-0.1,0.5v3.5h-1V291.6z"/>
			</g>
			<g>
				<path class="st2" d="M92.3,288.3c0,0.4-0.2,0.7-0.6,0.7c-0.3,0-0.6-0.3-0.6-0.7c0-0.4,0.3-0.7,0.6-0.7
					C92.1,287.6,92.3,287.9,92.3,288.3z M91.2,295.8V290h1v5.9H91.2z"/>
			</g>
			<g>
				<path class="st2" d="M93.7,291.6c0-0.6,0-1.1,0-1.6h0.9l0.1,1h0c0.3-0.6,0.9-1.1,1.8-1.1c0.7,0,1.9,0.5,1.9,2.5v3.5h-1v-3.4
					c0-0.9-0.3-1.7-1.2-1.7c-0.6,0-1.1,0.5-1.3,1.1c0,0.1-0.1,0.3-0.1,0.5v3.5h-1V291.6z"/>
			</g>
			<g>
				<path class="st2" d="M100.3,293.1c0,1.4,0.9,2,1.8,2c0.7,0,1.1-0.1,1.5-0.3l0.2,0.8c-0.3,0.2-0.9,0.4-1.8,0.4
					c-1.7,0-2.6-1.2-2.6-3c0-1.8,1-3.2,2.5-3.2c1.8,0,2.2,1.7,2.2,2.8c0,0.2,0,0.4,0,0.5H100.3z M103.1,292.3c0-0.7-0.3-1.7-1.4-1.7
					c-1,0-1.4,1-1.5,1.7H103.1z"/>
			</g>
			<g>
				<path class="st2" d="M112.7,295.6c-0.4,0.2-1.1,0.4-2,0.4c-2.1,0-3.7-1.5-3.7-4.2c0-2.6,1.6-4.3,3.9-4.3c0.9,0,1.5,0.2,1.8,0.4
					l-0.2,0.9c-0.4-0.2-0.9-0.3-1.5-0.3c-1.8,0-2.9,1.2-2.9,3.4c0,2,1.1,3.3,2.9,3.3c0.6,0,1.2-0.1,1.6-0.3L112.7,295.6z"/>
			</g>
			<g>
				<path class="st2" d="M176.5,291.8c0,2.7-0.9,4.2-2.5,4.2c-1.4,0-2.4-1.4-2.4-4.1c0-2.6,1-4.1,2.5-4.1
					C175.6,287.8,176.5,289.3,176.5,291.8z M172.6,291.9c0,2.1,0.6,3.2,1.5,3.2c1,0,1.5-1.3,1.5-3.3c0-1.9-0.5-3.2-1.5-3.2
					C173.2,288.6,172.6,289.8,172.6,291.9z"/>
			</g>
			<g>
				<path class="st2" d="M181.1,287.8c1,0,1.7,0.9,1.7,2.4c0,1.7-0.8,2.5-1.7,2.5c-0.9,0-1.7-0.8-1.7-2.4
					C179.4,288.7,180.2,287.8,181.1,287.8L181.1,287.8z M181.1,288.5c-0.6,0-0.9,0.8-0.9,1.8c0,1,0.3,1.8,0.9,1.8
					c0.6,0,0.9-0.8,0.9-1.8C182,289.3,181.8,288.5,181.1,288.5L181.1,288.5z M181,296l4.2-8.2h0.6l-4.2,8.2H181z M185.8,291.1
					c1,0,1.7,0.9,1.7,2.4c0,1.7-0.8,2.5-1.7,2.5c-0.9,0-1.7-0.8-1.7-2.4C184.1,292,184.9,291.1,185.8,291.1L185.8,291.1z
					 M185.8,291.7c-0.6,0-0.9,0.8-0.9,1.8c0,1,0.3,1.8,0.9,1.8c0.6,0,0.9-0.8,0.9-1.8C186.7,292.5,186.5,291.7,185.8,291.7
					L185.8,291.7z"/>
			</g>
			<g>
				<path class="st2" d="M18.9,312.3c-0.4,0.2-1.1,0.4-2,0.4c-2.1,0-3.7-1.5-3.7-4.2c0-2.6,1.6-4.3,3.9-4.3c0.9,0,1.5,0.2,1.8,0.4
					l-0.2,0.9c-0.4-0.2-0.9-0.3-1.5-0.3c-1.8,0-2.9,1.2-2.9,3.4c0,2,1.1,3.3,2.9,3.3c0.6,0,1.2-0.1,1.6-0.3L18.9,312.3z"/>
			</g>
			<g>
				<path class="st2" d="M23.7,311.1c0,0.5,0,1,0.1,1.4h-0.9l-0.1-0.7h0c-0.3,0.5-0.9,0.9-1.6,0.9c-1.1,0-1.6-0.8-1.6-1.7
					c0-1.4,1.2-2.2,3.2-2.2v-0.1c0-0.5-0.1-1.4-1.2-1.4c-0.5,0-1,0.2-1.4,0.4l-0.2-0.7c0.4-0.3,1.1-0.5,1.8-0.5c1.6,0,2,1.2,2,2.4
					V311.1z M22.8,309.5c-1.1,0-2.3,0.2-2.3,1.3c0,0.7,0.4,1,0.9,1c0.7,0,1.1-0.5,1.3-1c0-0.1,0.1-0.2,0.1-0.3V309.5z"/>
			</g>
			<g>
				<path class="st2" d="M25.2,303.9h1v8.6h-1V303.9z"/>
			</g>
			<g>
				<path class="st2" d="M31.5,312.3c-0.3,0.1-0.8,0.4-1.5,0.4c-1.6,0-2.7-1.2-2.7-3c0-1.8,1.1-3.1,2.9-3.1c0.6,0,1.1,0.2,1.4,0.3
					l-0.2,0.8c-0.2-0.1-0.6-0.3-1.1-0.3c-1.2,0-1.9,1-1.9,2.2c0,1.4,0.8,2.2,1.9,2.2c0.6,0,0.9-0.2,1.2-0.3L31.5,312.3z"/>
			</g>
			<g>
				<path class="st2" d="M33.6,305c0,0.4-0.2,0.7-0.6,0.7c-0.3,0-0.6-0.3-0.6-0.7c0-0.4,0.3-0.7,0.6-0.7
					C33.4,304.3,33.6,304.6,33.6,305z M32.5,312.5v-5.9h1v5.9H32.5z"/>
			</g>
			<g>
				<path class="st2" d="M39.5,310.9c0,0.6,0,1.1,0,1.6h-0.9l-0.1-1h0c-0.3,0.5-0.8,1.1-1.8,1.1c-0.8,0-1.9-0.5-1.9-2.6v-3.4h1v3.3
					c0,1.1,0.3,1.9,1.2,1.9c0.7,0,1.1-0.5,1.3-1c0.1-0.2,0.1-0.4,0.1-0.5v-3.6h1V310.9z"/>
			</g>
			<g>
				<path class="st2" d="M41,308.2c0-0.6,0-1.1,0-1.6h0.9l0,0.9h0c0.3-0.6,0.8-1.1,1.7-1.1c0.7,0,1.3,0.5,1.5,1.2h0
					c0.2-0.3,0.4-0.6,0.6-0.8c0.3-0.3,0.7-0.4,1.2-0.4c0.7,0,1.8,0.5,1.8,2.6v3.5h-1v-3.3c0-1.1-0.4-1.8-1.2-1.8c-0.6,0-1,0.4-1.2,1
					c0,0.1-0.1,0.3-0.1,0.5v3.6h-1V309c0-0.9-0.4-1.6-1.1-1.6c-0.6,0-1.1,0.5-1.2,1.1c-0.1,0.2-0.1,0.3-0.1,0.5v3.5h-1V308.2z"/>
			</g>
			<g>
				<path class="st2" d="M51.6,313l3.1-8.8h0.8l-3.1,8.8H51.6z"/>
			</g>
			<g>
				<path class="st2" d="M63.6,312.3c-0.4,0.2-1.1,0.4-2,0.4c-2.1,0-3.7-1.5-3.7-4.2c0-2.6,1.6-4.3,3.9-4.3c0.9,0,1.5,0.2,1.8,0.4
					l-0.2,0.9c-0.4-0.2-0.9-0.3-1.5-0.3c-1.8,0-2.9,1.2-2.9,3.4c0,2,1.1,3.3,2.9,3.3c0.6,0,1.2-0.1,1.6-0.3L63.6,312.3z"/>
			</g>
			<g>
				<path class="st2" d="M68.3,311.1c0,0.5,0,1,0.1,1.4h-0.9l-0.1-0.7h0c-0.3,0.5-0.9,0.9-1.6,0.9c-1.1,0-1.6-0.8-1.6-1.7
					c0-1.4,1.2-2.2,3.2-2.2v-0.1c0-0.5-0.1-1.4-1.2-1.4c-0.5,0-1,0.2-1.4,0.4l-0.2-0.7c0.4-0.3,1.1-0.5,1.8-0.5c1.6,0,2,1.2,2,2.4
					V311.1z M67.4,309.5c-1.1,0-2.3,0.2-2.3,1.3c0,0.7,0.4,1,0.9,1c0.7,0,1.1-0.5,1.3-1c0-0.1,0.1-0.2,0.1-0.3V309.5z"/>
			</g>
			<g>
				<path class="st2" d="M69.8,303.9h1v8.6h-1V303.9z"/>
			</g>
			<g>
				<path class="st2" d="M76.1,312.3c-0.3,0.1-0.8,0.4-1.5,0.4c-1.6,0-2.7-1.2-2.7-3c0-1.8,1.1-3.1,2.9-3.1c0.6,0,1.1,0.2,1.4,0.3
					l-0.2,0.8c-0.2-0.1-0.6-0.3-1.1-0.3c-1.2,0-1.9,1-1.9,2.2c0,1.4,0.8,2.2,1.9,2.2c0.6,0,0.9-0.2,1.2-0.3L76.1,312.3z"/>
			</g>
			<g>
				<path class="st2" d="M78.3,305c0,0.4-0.2,0.7-0.6,0.7c-0.3,0-0.6-0.3-0.6-0.7c0-0.4,0.3-0.7,0.6-0.7
					C78,304.3,78.3,304.6,78.3,305z M77.2,312.5v-5.9h1v5.9H77.2z"/>
			</g>
			<g>
				<path class="st2" d="M84.2,310.9c0,0.6,0,1.1,0,1.6h-0.9l-0.1-1h0c-0.3,0.5-0.8,1.1-1.8,1.1c-0.8,0-1.9-0.5-1.9-2.6v-3.4h1v3.3
					c0,1.1,0.3,1.9,1.2,1.9c0.7,0,1.1-0.5,1.3-1c0.1-0.2,0.1-0.4,0.1-0.5v-3.6h1V310.9z"/>
			</g>
			<g>
				<path class="st2" d="M85.7,308.2c0-0.6,0-1.1,0-1.6h0.9l0,0.9h0c0.3-0.6,0.8-1.1,1.7-1.1c0.7,0,1.3,0.5,1.5,1.2h0
					c0.2-0.3,0.4-0.6,0.6-0.8c0.3-0.3,0.7-0.4,1.2-0.4c0.7,0,1.8,0.5,1.8,2.6v3.5h-1v-3.3c0-1.1-0.4-1.8-1.2-1.8c-0.6,0-1,0.4-1.2,1
					c0,0.1-0.1,0.3-0.1,0.5v3.6h-1V309c0-0.9-0.4-1.6-1.1-1.6c-0.6,0-1.1,0.5-1.2,1.1c-0.1,0.2-0.1,0.3-0.1,0.5v3.5h-1V308.2z"/>
			</g>
			<g>
				<path class="st2" d="M176.5,308.5c0,2.7-0.9,4.2-2.5,4.2c-1.4,0-2.4-1.4-2.4-4.1c0-2.6,1-4.1,2.5-4.1
					C175.7,304.5,176.5,306,176.5,308.5z M172.6,308.6c0,2.1,0.6,3.2,1.5,3.2c1,0,1.5-1.3,1.5-3.3c0-1.9-0.5-3.2-1.5-3.2
					C173.2,305.3,172.6,306.5,172.6,308.6z"/>
			</g>
			<g>
				<path class="st2" d="M181.1,304.5c1,0,1.7,0.9,1.7,2.4c0,1.7-0.8,2.5-1.7,2.5c-0.9,0-1.7-0.8-1.7-2.4
					C179.4,305.4,180.2,304.5,181.1,304.5L181.1,304.5z M181.1,305.1c-0.6,0-0.9,0.8-0.9,1.8c0,1,0.3,1.8,0.9,1.8
					c0.6,0,0.9-0.8,0.9-1.8C182,305.9,181.8,305.1,181.1,305.1L181.1,305.1z M181,312.7l4.2-8.2h0.6l-4.2,8.2H181z M185.8,307.8
					c1,0,1.7,0.9,1.7,2.4c0,1.7-0.8,2.5-1.7,2.5c-0.9,0-1.7-0.8-1.7-2.4C184.1,308.7,184.9,307.8,185.8,307.8L185.8,307.8z
					 M185.8,308.4c-0.6,0-0.9,0.8-0.9,1.8c0,1,0.3,1.8,0.9,1.8c0.6,0,0.9-0.8,0.9-1.8C186.7,309.2,186.5,308.4,185.8,308.4
					L185.8,308.4z"/>
			</g>
			<g>
				<path class="st2" d="M14.7,321v8.2h-1V321H14.7z"/>
			</g>
			<g>
				<path class="st2" d="M16.3,325.2c0-0.7,0-1.3,0-1.8h0.9l0,1.2h0c0.2-0.8,0.8-1.3,1.5-1.3c0.1,0,0.2,0,0.3,0v1
					c-0.1,0-0.2,0-0.3,0c-0.7,0-1.2,0.6-1.3,1.4c0,0.1,0,0.3,0,0.5v3.1h-1V325.2z"/>
			</g>
			<g>
				<path class="st2" d="M24.6,326.2c0,2.2-1.4,3.1-2.7,3.1c-1.5,0-2.6-1.2-2.6-3c0-2,1.2-3.1,2.7-3.1
					C23.6,323.2,24.6,324.4,24.6,326.2z M20.3,326.3c0,1.3,0.7,2.3,1.6,2.3c0.9,0,1.6-1,1.6-2.3c0-1-0.5-2.3-1.6-2.3
					C20.8,324,20.3,325.2,20.3,326.3z"/>
			</g>
			<g>
				<path class="st2" d="M25.7,324.9c0-0.6,0-1.1,0-1.6h0.9l0.1,1h0c0.3-0.6,0.9-1.1,1.8-1.1c0.7,0,1.9,0.5,1.9,2.5v3.5h-1v-3.4
					c0-0.9-0.3-1.7-1.2-1.7c-0.6,0-1.1,0.5-1.3,1.1c0,0.1-0.1,0.3-0.1,0.5v3.5h-1V324.9z"/>
			</g>
			<g>
				<path class="st2" d="M33.2,329.7l3.1-8.8H37l-3.1,8.8H33.2z"/>
			</g>
			<g>
				<path class="st2" d="M40,321h4v0.9h-3.1v2.7h2.8v0.9h-2.8v3.7h-1V321z"/>
			</g>
			<g>
				<path class="st2" d="M45.4,326.5c0,1.4,0.9,2,1.8,2c0.7,0,1.1-0.1,1.5-0.3l0.2,0.8c-0.3,0.2-0.9,0.4-1.8,0.4
					c-1.7,0-2.6-1.2-2.6-3c0-1.8,1-3.2,2.5-3.2c1.8,0,2.2,1.7,2.2,2.8c0,0.2,0,0.4,0,0.5H45.4z M48.3,325.7c0-0.7-0.3-1.7-1.4-1.7
					c-1,0-1.4,1-1.5,1.7H48.3z"/>
			</g>
			<g>
				<path class="st2" d="M50.3,325.2c0-0.7,0-1.3,0-1.8h0.9l0,1.2h0c0.2-0.8,0.8-1.3,1.5-1.3c0.1,0,0.2,0,0.3,0v1
					c-0.1,0-0.2,0-0.3,0c-0.7,0-1.2,0.6-1.3,1.4c0,0.1,0,0.3,0,0.5v3.1h-1V325.2z"/>
			</g>
			<g>
				<path class="st2" d="M171.7,329.2v-0.7l0.8-0.8c1.8-1.9,2.7-2.9,2.7-4.1c0-0.8-0.4-1.5-1.4-1.5c-0.7,0-1.2,0.4-1.5,0.7l-0.3-0.8
					c0.5-0.5,1.2-0.8,2-0.8c1.6,0,2.2,1.2,2.2,2.3c0,1.5-1,2.6-2.5,4.2l-0.6,0.6v0h3.2v0.9H171.7z"/>
			</g>
			<g>
				<path class="st2" d="M181.1,321.2c1,0,1.7,0.9,1.7,2.4c0,1.7-0.8,2.5-1.7,2.5c-0.9,0-1.7-0.8-1.7-2.4
					C179.4,322.1,180.2,321.2,181.1,321.2L181.1,321.2z M181.1,321.8c-0.6,0-0.9,0.8-0.9,1.8c0,1,0.3,1.8,0.9,1.8
					c0.6,0,0.9-0.8,0.9-1.8C182,322.6,181.8,321.8,181.1,321.8L181.1,321.8z M181,329.4l4.2-8.2h0.6l-4.2,8.2H181z M185.8,324.5
					c1,0,1.7,0.9,1.7,2.4c0,1.7-0.8,2.5-1.7,2.5c-0.9,0-1.7-0.8-1.7-2.4C184.1,325.3,184.9,324.5,185.8,324.5L185.8,324.5z
					 M185.8,325.1c-0.6,0-0.9,0.8-0.9,1.8c0,1,0.3,1.8,0.9,1.8c0.6,0,0.9-0.8,0.9-1.8C186.7,325.9,186.5,325.1,185.8,325.1
					L185.8,325.1z"/>
			</g>
		</g>
	</g>
</g>
</svg>
