<?xml version="1.0" encoding="utf-8"?>
<!-- Generator: Adobe Illustrator 19.2.1, SVG Export Plug-In . SVG Version: 6.00 Build 0)  -->
<svg version="1.1" id="Layer_1" xmlns="http://www.w3.org/2000/svg" xmlns:xlink="http://www.w3.org/1999/xlink" x="0px" y="0px"
	 viewBox="0 0 116.7 109.6" style="enable-background:new 0 0 116.7 109.6;" xml:space="preserve">
<style type="text/css">
	.st0{fill:#010101;}
	.st1{fill:#FFFFFF;}
	.st2{fill:#F1C61B;}
	.st3{fill:#EB2227;}
	.st4{fill:#231F20;}
</style>
<g>
	<g>
		<g>
			<g>
				<path class="st0" d="M28.3,64.1c-2,10.7,1,21.2,2.4,25.4c2.3,4.8,4.2,7.4,8.3,10.8c2.9,2.4,6.7,2.5,10.2,3.4
					c3.7,1,7.2,2.5,10.8,3.9c4.8,1.8,11.8,3.3,16.4,0.3c-5.9-1.6-7.7-5.4-9-7.1c-1.3-1.7,0.3-6.3,0.3-6.3
					c5.6-16.8-3.6-26.1-4.3-28.4c10.4,2.4,16.4,1.4,19.3-0.7C90,61.6,96.3,55,100.2,47.8c1.7-3.1,3.3-6.1,2.1-9.7
					c-0.9-2.7-3.5-4.4-5.9-5.5c-4.1-1.8-9.3-3.4-13.8-2.9c-12-0.7-22.7,6.6-22.3,5.9c0.4-0.7,1.8-7.5-3-9.8c0.8-2.6,3.6-4.2,3.6-4.2
					c2.3,1.3,5.2-0.8,4.2-3.1c-1.7-2.6-4.8-1.3-5.3,0.9c-2.3,0.9-4.8,2.3-6.3,3.5c-0.3-0.6,0.3-3.1,0.3-3.1s-1.3,2.2-1.3,1.6
					c0-0.6-0.2-1.1,0.1-2.5c-1.2,0.6-3.6,3.6-3.6,3.6c0.3-0.9-2.1-5.2-3.7-6.1c1.6-2.1-2-5.5-4.4-3.2c-2.6,2.5,0.3,5.5,1.9,5.3
					c2.5,1.1,2.7,6.7,2,6.7c-0.7,0-4.3,2-5,8.5c0,0,0,0.4-0.2,0.2c-0.9-1-4.1-7.4-14.9-13.4c-4.5-2.7-7-2.8-12.2-3.2
					c-3.1-0.2-7.4,1.3-9.7,3.3c-3,2.5-2.8,6-2.5,9.6c0.6,8.3,4,17.2,9.7,24.1c2,3.4,5.6,6.7,17.6,9.6L28.3,64.1z"/>
			</g>
			<path class="st1" d="M63.7,37.6c22-13,34-1.5,34.8,0c0.8,0.7,3.2,4.2-0.3,8.9C94.7,51.4,84,70.7,62.7,63.9c-0.3-0.6,0.6-1,1.1-1
				c0,0,3.5-0.6,2.4-3.5c-3-1.9-1.6-3.6-0.2-3c1.1,0,9.9,3.6,10.7,3.5c0.8-0.1,0.5-0.6,0.6-1c0.1-0.4-2.7-1.1-2.8-1.6
				c-0.2-0.5,0.9-0.9,0.9-0.9l3.3-1.3c0,0-0.7-1.4-1.3-1.8c-0.6-0.4-5,3.2-5.9,3c-0.9-0.2-5.8-1.4-6.4-2c-0.6-0.5,1.5-3-0.6-4.4
				c2.1-0.2,9.6-0.8,10-0.7c0.4,0.1,3.9,0.6,3.9,0.6s4.1-0.9,4.6-0.8c0.5,0.1,3.4,0.3,3.4,0.3s0.6-1.7-0.1-2.2
				c-0.7-0.6-5.6,0.3-6,0.2c-0.4-0.1,0.4-4.4,0.4-4.4s-2.1,0-2.3,0.6c-0.3,0.6-0.1,3.6-2.3,3.7C74,47.2,63.7,48,63.1,48.1
				c-0.6,0,0.3-3.4,0.4-3.8c0.1-0.4,12.5-4.5,15.2-4c2.7,0.5,12.8,3.6,13.5,4.2c0.7,0.6,1.2-1.6,1-2.1c-0.1-0.6-2.5-1.4-2.5-1.4
				s2.2-0.6,2.3-1.2c0.1-0.5,0.2-1.5-0.6-1.8c-0.8-0.3-4.4,1.9-5.3,2c-0.9,0.1-5.1-0.7-5.1-0.7l3.8-2.1c0,0-0.4-1.5-1.2-1.6
				c-0.8-0.2-6.9,3.6-20.9,6C62.1,39.8,63.7,37.6,63.7,37.6z"/>
			<path class="st2" d="M62.3,56.6c-0.2,0.4-0.7,1.8,0.2,2.4c0.8,0.6,1.6,1.3,1.1,1.8c-0.5,0.4-1.8,0.7-1.9,1.1
				c-0.1,0.4-0.6-4-2.3-4.7c-0.6-0.3,2.2-3.7,1.1-5.7c-0.3-0.7,0.3-1.4,1.2-0.4C62.6,52.1,63.7,53.5,62.3,56.6z"/>
			<path class="st2" d="M39.6,78.7c2.7,0.7,5.8,0.7,8.4,0.4c2.1-0.3,4.2-0.8,6.1-1.8c4.8-2.4,7-7.3,7-12.6c0-0.4-5.4,8.9-19.2,5.3
				c0,0-8.4-2.3-11.2-6.1c-0.2-0.3-0.5,1.3-0.5,1.4c-0.2,1.4,0,3,0.4,4.4c0.7,2.7,2.4,5.1,4.6,6.8C36.4,77.5,38,78.2,39.6,78.7z"/>
			<path class="st2" d="M65,100.7c0,0-0.7,1.5-4.3,2.9c-0.7,0.1,2.8,3.7,7.8,2.8C70,106.3,64.6,104.7,65,100.7z"/>
			<path class="st2" d="M64,75.2c-6.4,17.1-28,14-28.9,13.5c-1-0.5-1.3,0.8,1,1.9C54.6,97.1,65.3,82,65,76.4
				C65.2,75.3,64.6,74.3,64,75.2z"/>
			<path class="st2" d="M67.1,83.4c-3.3,15.6-20,17.5-21.2,16.9C56.7,104.5,68.4,94.2,67.1,83.4z"/>
			<path class="st2" d="M41.5,58.9c2.3,1.1,4.9,1.9,7.4,2c3.1,0.1,6.8-0.7,8.5-3.6c0.1-1.5,0.5-3.4,0.5-3.4c-1.1,0-5,7-16.2,1
				c0,0-3.8-2-4.2-2.5c-0.4-0.5-1.3,1.1-1.5,1.3c-0.5,0.8-0.7,1.4-0.1,2.1c1.1,1.1,2.9,1.9,4.3,2.6C40.7,58.5,41.1,58.7,41.5,58.9z"
				/>
			<path class="st1" d="M58.7,36c-0.1,0.3,1.7-6.1-1.9-6.8c-3.2-0.6-3.5,5.9-3,7.1c0.8,0,1.4-0.2,1.4-0.2s0.1-2.9,1.6-3.2
				c1.5-0.3,1.2,2.5,1.1,3.1C57.8,36.5,58.7,36,58.7,36z"/>
			<path class="st1" d="M46.5,36.3c0,0,2.8-7.4-1.4-7.9c-3.2-0.9-4.3,5.8-4.1,6.2l1.1,0.3c0,0,0.8-3.7,2.7-2.7
				c1.5,0.4,0.5,3.3,0.3,3.7L46.5,36.3z"/>
			<path class="st1" d="M59.3,21.1c0,0-2.9,2.1-4.3,3.6c0,0-1,1-1.6,1.8c-0.2,0.3-1.2-0.4-0.8-1.1c0.4-0.7,3.9-3.5,6-4.4
				C60.7,20.1,59.3,21.1,59.3,21.1z"/>
			<path class="st1" d="M44.5,18c0,0,1.6,2.9,2.2,5c0,0,0.3,1.1,0.5,2.8c0,0.4,1.3,0.2,1.2-0.6c-0.1-0.8-1.7-5.2-3.1-6.9
				C43.8,16.5,44.5,18,44.5,18z"/>
			<path class="st2" d="M44,15.9c-0.2,0.7-0.9,1.2-1.5,1c-0.7-0.2-1.1-0.9-1-1.6c0.2-0.7,0.8-1.2,1.5-1C43.7,14.5,44.2,15.2,44,15.9
				z"/>
			<path class="st2" d="M63.8,19.7c-0.2,0.7-0.9,1.2-1.5,1c-0.7-0.2-1.1-0.9-1-1.6c0.2-0.7,0.8-1.2,1.5-1
				C63.5,18.2,63.9,18.9,63.8,19.7z"/>
			<path class="st1" d="M37.2,35.9C20.6,13.6,8.4,21,6.8,22c-1.2,0.3-5.4,2.1-4,8.1c0.9,4,1.7,8,3.2,11.9c1.9,4.8,4.6,9.2,8.4,12.8
				c2.2,2.1,4.7,3.2,7.5,4.6c1.5,0.8,3.7,1.5,5.3,2.1c0.1,0,1.2,0.1,1.3,0.1c0.7-2-4.4-2.8-3.5-6c0.2-0.9,1.1-0.8,1.2-1.6
				c0.1-0.9-2.9-2.3-3.6-2.5c-1.2-0.6-4.6-0.7-5.5-1.2c-0.8-0.5-0.3-0.8-0.2-1.2c0.1-0.4,3.7,1,4.1,0.6C21.4,49.3,21,49,21,49
				l-2.8-2.8c0,0,1-0.8,1.9-0.9c0.8-0.1,6.3,5.9,7.3,6.2c1.1,0.3,0-2.4,0.4-3.2c0.7-1.5,0.3-1.2,1.9-2.8c-2.1-1.2-2.9-1.4-3.4-1.6
				c-0.5-0.1-4.3-1.4-4.3-1.4s-3.8-2.8-4.4-3c-0.6-0.2-3.7-1.4-3.7-1.4s0.1-1.8,1.1-1.9c1-0.2,5.7,3,6.2,3.1c0.5,0.1,1.7-4,1.7-4
				s2.2,1,2.2,1.7c0,0.7-1.6,3.2,0.7,4.4c2.3,1.2,4.6,2.6,5.1,2.2c1.3-1,3.2-1.2,3.3-1.6c0.1-0.4-5.3-5.9-8.2-7.1
				c-3.8-1.6-13.4-4.1-15.5-3.7c-1,0.2-0.5-1.9,0-2.4c0.4-0.4,3.2,0,3.2,0s-2-1.6-1.9-2.2c0.1-0.5,0.5-1.4,1.5-1.3
				c0.9,0.1,3.7,3.9,4.5,4.4c0.8,0.5,5.7,1.9,5.7,1.9l-2.9-3.7c0,0,1.1-1.1,2-0.9c0.9,0.2-0.5,3.4,12.9,12.3
				C37.8,38.6,37.2,35.9,37.2,35.9z"/>
			<path class="st2" d="M30.7,51.6c0.2,0.4,0.2,1.4-0.9,2.1c-1.1,0.7-2.3,1.9-1.6,2.4c0.6,0.5,2.4,1.4,2.5,1.8
				c0.1,0.5,1.5-4.9,3.7-5.6c0.8-0.3-2.5-4.2-1-6.5c0.4-0.8-0.3-1.7-1.5-0.5C30.7,46.5,29.2,48,30.7,51.6z"/>
		</g>
		<g>
			<path class="st0" d="M37.7,41.1c-2.3,5.2,5.1,12.2,9.1,13.2c7.4,1.8,15.6-5.6,14.8-12.5c-1.6-5.6-8.3-3.8-8.7-3.4
				c-0.4,0.4-0.7,0.3-1,0c-0.4-0.3-1.7-0.8-2.4-0.8c-0.7-0.1-0.6,1-0.9,1.6c-0.2,0.6-1,1-1.1,0.7C46.9,38.2,40,36,37.7,41.1z"/>
			<path class="st1" d="M37.7,41.1c-2.3,5.2,5.1,12.2,9.1,13.2c7.4,1.8,15.6-5.6,14.8-12.5c-1.6-5.6-8.3-3.8-8.7-3.4
				c-0.4,0.4-0.7,0.3-1,0c-0.4-0.3-1.7-0.8-2.4-0.8c-0.7-0.1-0.6,1-0.9,1.6c-0.2,0.6-1,1-1.1,0.7C46.9,38.2,40,36,37.7,41.1z"/>
			<path class="st0" d="M56.9,40.4c-2.1-1.6-1.5,0.9-1.9,1.2c-3.8,2.8-12.1,0.9-12.1,0.4c-0.1-4.1-2.9-0.2-2.8,0
				c-1.3,2.3,1.5,1.8,1.9,1.9c6.6,14,13.4,2.7,13.9,0.1c0.6-1.5,1.3-1.6,2-1.7C59,41.4,58.4,40.9,56.9,40.4z M48.9,49
				c-2.4,0-4.9-4.1-5.3-5.5c-0.1-0.2,6.2,2.7,10.6-0.1C55.1,43.4,51.7,49.3,48.9,49z"/>
		</g>
	</g>
	<g>
		<g>
			<path class="st3" d="M93.3,18.9c-3.4,1.4-7.3,4.6-9,6.3c-2.5,2.5-1.4,3.6-4,8.1c-2.5,4.5-2.5,15.5-1.9,17.4
				c0.6,2-1.1,6.7-3.3,9.7c-2.2,3-4.5,7.8-5,9.7c-0.4,1.9-0.5,1.3-3.4,2.7c-2.9,1.4-9.4,9.8-12.4,14.6c-3,4.8-5.4,4.9-12.1,5.7
				c-6.7,0.8-10.8,3-12.2,4.5c-0.5,0.6-0.5,1.6,0,2.8c0.9,1.9,3.3,4.1,7.2,5.5c6.3,2.1,19.3-1.2,23.8-4.3c4.5-3.1,16.5-6.4,18.1-7.1
				c1.6-0.7,4.2-4.6,5.1-4.8c0.9-0.2,2.4-0.5,3.9-2.4c1.5-1.9,2.6-3.9,10.5-9.7c7.9-5.8,8.1-22.6,8.3-26c0.1-3.4,0.4-9.2,5.8-16.8
				c2.2-3.1,0.8-5.8-1.8-8.1l-1.3-1c-0.4-0.3-0.8-0.6-1.2-0.8c-0.7-0.7-1.2-1.5-2.1-2.3c-0.3-0.2-0.6-0.5-0.9-0.7c0,0,0,0,0,0
				c0.3-0.2,0.8-0.5,0.8-0.5c0.1-0.1,0.2-0.1,0.2-0.2c0-0.1,0.4-0.8,0.5-2c0.1-1.7,0-3.4-0.4-4.9c-0.3-1.6-0.8-3.2-1.2-4.8L104.7,7
				c-0.1-0.5,0.2-3.7,0.4-4.3c0.1-0.1,0.1-0.2,0.1-0.3c0-0.2,0-0.3-0.1-0.5c-0.1-0.1-0.2-0.2-0.4-0.3l-0.4-0.1l-0.2,0
				c-1.2-0.3-2.8-0.6-3.9-0.3c-0.3,0.1-0.5,0.3-0.5,0.6c-0.1,2.8,1.5,6.5,3.1,10.2l0.9,2.1c0.9,2.2,0.3,4.6-0.3,6.2
				c-0.1,0.1-0.1,0.3-0.2,0.4l-2.3-0.5c0,0-0.5-2.4-3-2.3C97.9,17.8,95,18,93.3,18.9z"/>
			<path class="st0" d="M43.1,107.7c-2.5,0.1-4.5-0.2-6.2-0.7c-3.7-1.3-6.6-3.5-7.8-6c-0.4-0.9-0.6-1.8-0.5-2.5
				c0.1-0.6,0.3-1,0.6-1.4c1.6-1.7,5.9-4,12.9-4.9l0.7-0.1c6.1-0.7,7.9-0.9,10.6-5.1c3.1-5,9.8-13.5,12.9-15
				c0.8-0.4,1.4-0.7,1.8-0.8c0.7-0.3,0.7-0.3,0.9-1.2c0.5-2,2.9-6.9,5.1-10.1c1.5-2.1,2.8-5.2,3.1-7.3c0.1-0.8,0-1.2,0-1.4
				c-0.5-1.6-0.6-6.8,0-11.4c0.4-3,1.1-5.3,1.9-6.9c1.1-1.9,1.5-3.2,1.8-4.2c0.4-1.4,0.8-2.5,2.3-4.1c1.1-1.1,2.9-2.9,5.3-4.4
				c0,0-0.2,0-0.3-0.1c-0.4-0.1-4.1-1.5-2.9-2.1c0.4-0.2,1.1,0,1.5,0c0.7,0,1.5-0.1,2.2,0c0.1,0,0.1,0,0.1,0c0.9,0,2.7-0.3,4.5-0.8
				l0.6-0.1c1.6-0.4,3.1-0.7,3.8-0.8l0.1,0c1.9-0.1,2.9,1.9,3.3,3l0.7,0.1c0.2-0.7,0.4-1.3,0.5-1.9c0.2-1.1,0-2.1-0.3-3
				c-0.6-1.5-0.8-2-0.9-2.1c-1.6-3.7-3.3-7.5-3.2-10.6c0-0.1,0-0.1,0-0.2c0.1-0.7,0.7-1.3,1.4-1.4c0.3-0.1,0.6-0.1,1-0.1
				c1.2,0,2.4,0.2,3.4,0.4l0.2,0c0.2,0,0.4,0.1,0.4,0.1c0.5,0.1,0.9,0.4,1.1,0.8c0.2,0.3,0.3,0.7,0.3,1.1c0,0,0,0.1,0,0.1
				c0,0.2-0.1,0.3-0.2,0.5c0,0.1-0.1,0.3-0.1,0.8c-0.2,1.1-0.3,2.6-0.2,2.9c0.1,0.4,0.7,2.4,0.7,2.4c0.5,1.6,0.9,3.2,1.3,4.8
				c0.4,1.9,0.5,3.6,0.4,5.2c0,0.2,0,0.3,0,0.5c-0.2,1.1-0.5,1.8-0.6,2c-0.1,0.1-0.1,0.2-0.2,0.2c0.6,0.5,1,1,1.3,1.5
				c0.2,0.3,0.4,0.5,0.6,0.7l0.9,0.6c0.7,0.2,1.4,0.2,2.1,0.2c0.5,0,1,0,1.5,0c0.5,0,0.9,0,1.2-0.1l0.1,0c0.2,0,0.4,0,0.6-0.1
				c0.5,0,0.8,0.1,0.9,0.4l0.1,0.2l-0.1,0.2c-0.5,0.9-2.2,1.4-2.4,1.4c0,0-0.4,0.2-1,0.3c1.4,1.7,2,3.4,1.8,5.2
				c-0.1,1-0.6,2-1.2,2.9c-3,4.2-4.7,8.4-5.3,12.7c-0.2,1.4-0.2,2.6-0.3,3.6l0,0.6c-0.1,3-0.3,5.7-0.7,8.3c-1.2,8.9-3.9,15-8,18
				c-6.9,5.1-8.5,7.2-9.8,8.9L89.2,88c-1.7,2.1-3.4,2.5-4.4,2.8l-0.1,0c-0.3,0.2-1.1,1.2-1.5,1.6c-1.2,1.3-2.4,2.7-3.5,3.2
				c-0.4,0.2-1.3,0.4-2.5,0.8l-0.1,0c-4.2,1.3-12,3.8-15.3,6.1C58.4,104.9,50.1,107.5,43.1,107.7z M97.3,18.9c-0.5,0-1,0.1-1.6,0.2
				c-2.2,0.5-4.5,1.7-7,3.6c-1.2,0.9-2.3,2-3.3,3.1L85.2,26c-1.2,1.2-1.4,1.9-1.8,3.2c-0.3,1.1-0.8,2.5-2,4.6
				c-0.7,1.3-1.3,3.4-1.7,6c-0.6,4.5-0.5,9.6-0.1,10.6c0.2,0.6,0.2,1.4,0.1,2.3c-0.3,2.5-1.8,5.9-3.5,8.2c-2.1,2.9-4.4,7.5-4.8,9.3
				c-0.4,1.8-0.8,2.1-2.3,2.7c-0.4,0.2-1,0.4-1.7,0.8c-2.5,1.2-9.1,9.5-12,14.2c-3.2,5.1-6,5.5-12.2,6.2l-0.7,0.1
				c-6.8,0.8-10.5,3-11.5,4.1c-0.1,0.1-0.1,0.2-0.1,0.3c0,0.3,0.1,0.8,0.3,1.3c0.7,1.5,2.9,3.6,6.5,4.9c1.3,0.5,3.1,0.7,5.3,0.6
				c6.5-0.2,14.4-2.6,17.5-4.7c3.6-2.5,11.6-5,15.9-6.4c1.1-0.4,2.1-0.7,2.4-0.8c0.7-0.3,1.8-1.6,2.7-2.6c1.2-1.4,1.9-2.1,2.6-2.3
				l0.1,0c0.8-0.2,2-0.5,3.2-2l0.5-0.6c1.4-1.8,3.1-4,10.2-9.3c3.6-2.7,6-8.2,7.2-16.5c0.3-2.5,0.6-5.2,0.7-8.1l0-0.6
				c0-1,0.1-2.2,0.3-3.7c0.6-4.7,2.5-9.2,5.7-13.7c0.5-0.7,0.8-1.4,0.9-2c0.2-1.5-0.6-3.1-2.5-4.7c-1-0.9-2.1-1.7-3.1-2.6
				c-0.5-0.4-0.8-0.9-1.2-1.3c-0.4-0.3-3.1-2.2-3-2.7c0.4-1.4,2.7,0.3,2.4,0.6c0,0,0.1-0.1,0.1-0.1c0.7-0.6,0.8-2.5,0.8-3
				c0-0.1,0-0.2,0-0.4c0.1-1.5,0.1-1.9-0.2-3.6c-0.3-1.5-0.7-3.4-1.2-5l-0.5-1.5l-0.7-1.9c-0.1-0.5-0.1-1.4,0-2.5
				c0.1-0.5,0.1-0.8,0.2-1.1l-0.1,0c-0.8-0.2-2-0.4-2.9-0.4c-0.1,0-0.1,0-0.2,0c0.1,2.6-0.1,3.9,1.3,7.3c0.9,2.1,1.5,3.4,1.5,3.4
				c0.5,1.2,1,3.4,0.8,4.9c-0.2,1.1-0.1,2-0.7,2.9c-0.3,0.5-0.3,0.9-1,0.9c-0.4,0-0.9-0.1-1.3-0.2c-0.1,0-0.2,0-0.3-0.1
				c-0.4-0.1-0.8-0.2-1.1-0.5c-0.3-0.2-0.4-0.5-0.5-0.8c0-0.1-0.1-0.2-0.2-0.3c-0.2-0.3-0.5-0.5-1-0.7
				C98.2,18.9,97.7,18.9,97.3,18.9z"/>
			<path class="st4" d="M92.1,25.4c-1.1-0.2-2.2,1.1-2.7,2.5c-0.5,1.5-1.4,2.5-2.2,2.9c-0.8,0.4-2.8,4.7-3.3,7
				c-0.5,2.3-0.4,6.4-0.3,8.2c0.1,1.8-0.8,4.9-2.1,6.4c-1.3,1.5,0,1.6,0.7,1.3c0.7-0.3,3-1.4,4.1-3c1.1-1.6,0.7-3,0.5-4.6
				c-0.2-1.6-1.2-2.7-0.6-4.7c0.6-2,0.9-4.6,0.8-5.7c-0.2-1.2,2.3-0.9,4-2.8C92.7,31.1,95.8,26.1,92.1,25.4z"/>
			<path class="st4" d="M81.2,59c-0.5,0.2-0.7,0.2-2.3,1.4c-1.5,1.1-3.9,3.7-4.6,5.7c-0.7,2-2.6,4.6-1,4.3c1.6-0.3,8.4-2.3,7-2.8
				c-1.4-0.4-4.1,0.3-3.5-1.1c0.6-1.5,3-4,4.2-5C82.3,60.6,82.9,58.4,81.2,59z"/>
			<path class="st4" d="M73.7,75.1c-1,0-1.8,0-4.4,2c-2.6,2-2.8,2.5-3.8,4c-1,1.6-2.4,3.5-4.6,4.5c-2.2,1-2.2,1.7-4.2,3.9
				c-2,2.1-1.1,2.2-4.3,3.7c-3.1,1.5-4,1.7-6.3,2.2c-1.9,0.4-3.6,1.3-5.5,1.5c-2,0.2-4.1,0-6.1,0.4c-0.7,0.1-2,0.4-2.2,1.2
				c-0.2,1.2,2.6,2.3,3.5,2.2c0.9-0.1,1.5-0.9,2.3-1.2c1.7-0.6,4.4-1.6,6.5-1.9c2.1-0.4,5.2-1.5,7.4-2.5c2.2-1,6.9-2.2,8-4.4
				c1.1-2.2,2.8-4.7,4.6-5.6c1.8-0.9,2.9-1.6,3.3-2.8c0.5-1.2,2.3-3.6,4.2-4.2C74.2,77.4,77.3,75,73.7,75.1z"/>
			<path class="st4" d="M68.5,83.3c-1.6,0.7-2.4,2.7-0.7,2.4c1.6-0.3,3.2-1.7,3.2-3C70.9,81.6,68.5,83.3,68.5,83.3z"/>
			<path class="st4" d="M90.7,41.9c-1.1,0.8-2.1,3-2.3,4.7c-0.2,1.6,1.2,3.8,2.2,1.7c1-2.1,2.5-4,2.9-5
				C93.7,42.3,93.7,39.8,90.7,41.9z"/>
			<path class="st4" d="M54.2,97c0,0-12,3.8-14.3,2.8c-1.8-0.8-4.2-1.9-6.2-1.9c-1.1,0-1.4,0.8-0.8,1.7c0.5,0.8,1.7,1.2,2.6,1.6
				c2,0.7,4.5,1.1,6.6,1c1.7,0,3.7-0.3,5.3-0.7c0.7-0.2,1.3-0.7,2-0.4c0,0.1-0.1,0.2-0.2,0.2c-1.8,0.8,2.5,1.7,5.6-0.2
				c3.1-1.9,8.6-7.3,6.7-7.9C59.6,92.7,57.9,94.8,54.2,97z"/>
			<path class="st4" d="M105.3,25.1C105.3,25.1,105.4,25.1,105.3,25.1c1,0,2.2,1.6,2.7,2.3c1.3,1.8,2.5,3.9,1.6,6.1
				c-0.8,1.8-2.3,3.3-2.9,5.2c-0.7,2.1-2.9,12.5-3,17.2c0,4.7-2.6,16.6-11.4,22.5c-5.6,4.1-7,8.1-7.8,8.6c-0.7,0.4-3.3,0.8-3.3,0.8
				s-2.4,3.9-3.9,4.8c-1.5,0.9-5.5,1.8-6.7,2c-1.2,0.2-10.4,4.5-13.5,6.1c-2.5,1.3-5.6,1.9-8.4,2.5c-1.8,0.4-3.5,0.6-5.3,0.9
				c-0.6,0.1-1.3,0.3-1.9,0c-0.6-0.3-0.5-0.5,0.2-0.7c1.7-0.4,3.4-0.6,5.1-0.9c3-0.6,6.4-1,9-2.6c3.7-2.2,9.5-5.9,11.9-6.6
				c2.4-0.7,6.3-1,8.1-2.9c1.9-1.9,3.3-3.7,3.9-4.3c0.6-0.6,4.1-0.7,5.4-3.2c1.2-2.5,4.9-6.6,7.3-8.5c2.4-1.9,9.1-10.8,8.7-13.1
				c-0.4-2.2-2.5,1.3-4.3,2.8c-1.8,1.6,2.1-3.9,3.2-5.8c1.1-1.9,2-2.9,1.6-5.9c-0.4-3-0.5-5.9,0.3-7.8c0.8-1.9,3.5-6.5,4.3-8.4
				c1.3-3.2,2.7-6.5-0.7-8.8C105,27,103.5,25.2,105.3,25.1z"/>
			<path class="st4" d="M98.8,49.1c0,0-3.1,2.6-1.8,5c1.3,2.3,0.4,6.3-0.8,8.3c-1.2,1.9-3.2,2.9-4.8,4.6c-1.6,1.6-1.1-0.5,0.7-2.8
				c1.9-2.3,3.2-4.9,3.2-7.5C95.2,53.8,97.7,46.6,98.8,49.1z"/>
			<path class="st4" d="M87.5,74.3c0,0-2,6-5.5,8.1c-3.5,2.1-5.5,2.6-5.5,2.6s1.6-2.2,3.7-3.5c2-1.2,4.8-5.2,5.1-6.4
				C85.5,74.1,87.5,73.6,87.5,74.3z"/>
			<path class="st4" d="M50.7,99.2c-0.5,0.2-1,0.9-2.1,1.2c-0.8,0.2-1.9,0.3-3.2,0.1c-3.2-0.5-6.6,0.3-5.1,0.9
				c1.4,0.6,7.3,1.3,9.9-0.3C52.7,99.4,52.4,98.6,50.7,99.2z"/>
			<path class="st4" d="M107.6,26.8c-0.8-0.7-2.5-2.9-3.1-3.1c-0.3-0.1-0.8-0.4-1.3-0.5c-0.3-0.1-1.1-0.4-1.8-0.5
				c-0.8-0.1-1.3,0.9-2.3,1.9c-0.4,0.4-0.2-0.5-0.3-0.2c-0.2-0.6-0.3-0.2-0.2-0.9c0.1-0.6-0.1-0.7,0.3-1.1c0.1-0.2,0.4-0.9,0.6-1
				c0,0-0.2,0.1-0.6,0.2c0.3-0.8-1.4-1.7-2-1.7c-0.6,0-3.2-1.1-3.8-0.7c-0.6,0.3-4,1.4-3.5,2.2c0.9,0.3,3.4,0.7,4.4,0.7
				c0.5,0,1.5-0.2,2,0.1c0.7,0.6,0,1.5,0.1,2.3c0.3,1.5,1.2,3.1,2.2,4.3c0.6,0.7,1.7,2.5,2.6,2.5c-0.1-1.3-0.1-2.6,0.3-3.9
				c0.2-0.8,0.5-1.7,1.3-2c1-0.3,1.2,0.1,2,0.7c1.4,1.1,1.5,2.7,3.4,1.9C106.7,27.9,108.5,27.5,107.6,26.8z"/>
			<path class="st1" d="M109,25.3c-1.1-0.7-1.5-1.7-2.7-2.6c-1.2-0.9-2.8-1.6-2.8-1.6l-2.5-0.4c-0.3-1.2-0.9-2.5-2.3-2.8
				c-0.8-0.2-1.5,0.2-2.2,0.4c-0.8,0.1-1.4,0.4-2.2,0.5c-0.5,0.1-0.9,0.2-1.3,0.2c-0.9,0.2-2.5,0.6-3.4,0.2c0,0,0.1,0,0.1,0
				c-0.2,0-0.4,0-0.5-0.1c0.3,0.2,0.8,0.3,1.4,0.3c1.4,0.4,4.3,0.5,5.9,0.6c2,0.2,2.7,1.7,2.7,1.7s-1.4,1.6-0.8,3.1
				c0.6,1.5,1.5,2.8,1.5,2.8s-0.2-1.1,0.3-2.4c0.7-1.5,1.4-2.4,2.3-2.3c0.9,0.2,0.9,0.4,1.8,0.8c0.8,0.4,1.5,2.6,3.6,3.1
				c2.2,0.5,6.6-1.2,6.6-1.2S110.1,26.1,109,25.3z"/>
		</g>
		<path class="st4" d="M110.3,26.8c0,0-2.4,0.3-3.2,0c-0.8-0.3,0.4,1,0.4,1s2.8-0.1,3.1-0.3C110.9,27.3,110.3,26.8,110.3,26.8z"/>
	</g>
</g>
</svg>
