<?xml version="1.0" encoding="utf-8"?>
<!-- Generator: Adobe Illustrator 19.2.1, SVG Export Plug-In . SVG Version: 6.00 Build 0)  -->
<svg version="1.1" id="Layer_1" xmlns="http://www.w3.org/2000/svg" xmlns:xlink="http://www.w3.org/1999/xlink" x="0px" y="0px"
	 viewBox="0 0 202 343" style="enable-background:new 0 0 202 343;" xml:space="preserve">
<style type="text/css">
	.st0{fill:#FFFFFF;}
	.st1{fill:#010101;}
	.st2{fill:#231F20;}
</style>
<g>
	<rect x="0.5" y="0.5" class="st0" width="201" height="342"/>
	<path class="st1" d="M202,343H0V0h202V343z M1,342h200V1H1V342z"/>
</g>
<g>
	<g>
		<rect x="13.5" y="65.6" class="st2" width="175.9" height="2.6"/>
	</g>
	<g>
		<rect x="13.4" y="267" class="st2" width="175.9" height="2.6"/>
	</g>
	<g>
		<rect x="13.5" y="99.2" class="st2" width="175.6" height="1.8"/>
	</g>
	<g>
		<rect x="13.5" y="116.2" class="st2" width="175.6" height="0.9"/>
	</g>
	<g>
		<rect x="13.9" y="133.5" class="st2" width="175.5" height="0.9"/>
	</g>
	<g>
		<rect x="13.6" y="183" class="st2" width="175.9" height="0.9"/>
	</g>
	<g>
		<rect x="13.2" y="165.8" class="st2" width="176.3" height="0.9"/>
	</g>
	<g>
		<rect x="14" y="200.1" class="st2" width="175.5" height="0.9"/>
	</g>
	<g>
		<rect x="13.9" y="217.5" class="st2" width="175.6" height="0.9"/>
	</g>
	<g>
		<rect x="19.9" y="234.3" class="st2" width="169.5" height="0.9"/>
	</g>
	<g>
		<rect x="13.9" y="251.2" class="st2" width="175.6" height="0.9"/>
	</g>
	<g>
		<rect x="13.9" y="283.6" class="st2" width="174.8" height="0.9"/>
	</g>
	<g>
		
			<rect x="13.9" y="317.8" transform="matrix(1 -3.340739e-03 3.340739e-03 1 -1.0627 0.34)" class="st2" width="174.8" height="0.9"/>
	</g>
	<g>
		<rect x="13.9" y="300.5" class="st2" width="174.8" height="0.9"/>
	</g>
	<g>
		<g>
			<path class="st2" d="M14.6,28.1V12.8h2l4.4,7.7c1,1.8,1.8,3.4,2.5,5l0,0c-0.2-2-0.2-3.9-0.2-6.3v-6.4H25v15.3h-1.8l-4.4-7.8
				c-1-1.7-1.9-3.4-2.6-5.1l-0.1,0c0.1,1.9,0.1,3.8,0.1,6.3v6.5H14.6z"/>
		</g>
		<g>
			<path class="st2" d="M36.2,25.1c0,1.1,0,2.1,0.1,3h-1.6l-0.1-1.8h0c-0.5,0.9-1.5,2-3.3,2c-1.6,0-3.4-1-3.4-4.8v-6.4h1.8v6.1
				c0,2.1,0.6,3.5,2.2,3.5c1.2,0,2.1-0.9,2.4-1.8c0.1-0.3,0.2-0.7,0.2-1v-6.7h1.8V25.1z"/>
		</g>
		<g>
			<path class="st2" d="M41.2,14.5v2.6h2.6v1.5h-2.6v5.9c0,1.4,0.3,2.1,1.4,2.1c0.5,0,0.8,0,1.1-0.1l0.1,1.5
				c-0.3,0.2-0.9,0.3-1.6,0.3c-0.8,0-1.5-0.3-2-0.9c-0.5-0.6-0.7-1.6-0.7-2.9v-6h-1.5v-1.5h1.5v-2L41.2,14.5z"/>
		</g>
		<g>
			<path class="st2" d="M45.6,20.5c0-1.3,0-2.4-0.1-3.4h1.6l0.1,2.2h0.1c0.5-1.5,1.5-2.4,2.8-2.4c0.2,0,0.3,0,0.5,0.1v1.9
				c-0.2,0-0.4-0.1-0.6-0.1c-1.3,0-2.2,1.1-2.4,2.6c0,0.3-0.1,0.6-0.1,0.9v5.9h-1.8V20.5z"/>
		</g>
		<g>
			<path class="st2" d="M54.2,14c0,0.7-0.4,1.2-1.2,1.2c-0.6,0-1.1-0.5-1.1-1.2c0-0.7,0.5-1.2,1.1-1.2C53.8,12.8,54.2,13.3,54.2,14z
				 M52.2,28.1v-11H54v11H52.2z"/>
		</g>
		<g>
			<path class="st2" d="M59,14.5v2.6h2.6v1.5H59v5.9c0,1.4,0.3,2.1,1.4,2.1c0.5,0,0.8,0,1.1-0.1l0.1,1.5c-0.3,0.2-0.9,0.3-1.6,0.3
				c-0.8,0-1.5-0.3-2-0.9c-0.5-0.6-0.7-1.6-0.7-2.9v-6h-1.5v-1.5h1.5v-2L59,14.5z"/>
		</g>
		<g>
			<path class="st2" d="M65.5,14c0,0.7-0.4,1.2-1.2,1.2c-0.6,0-1.1-0.5-1.1-1.2c0-0.7,0.5-1.2,1.1-1.2C65,12.8,65.5,13.3,65.5,14z
				 M63.4,28.1v-11h1.8v11H63.4z"/>
		</g>
		<g>
			<path class="st2" d="M77.1,22.5c0,4.1-2.6,5.8-5,5.8c-2.7,0-4.8-2.2-4.8-5.6c0-3.7,2.2-5.8,4.9-5.8
				C75.1,16.8,77.1,19.1,77.1,22.5z M69.2,22.6c0,2.4,1.3,4.2,3,4.2c1.7,0,3-1.8,3-4.3c0-1.9-0.8-4.2-3-4.2
				C70.1,18.3,69.2,20.5,69.2,22.6z"/>
		</g>
		<g>
			<path class="st2" d="M79.2,20.1c0-1.1,0-2.1-0.1-3h1.6l0.1,1.8h0c0.5-1,1.6-2.1,3.3-2.1c1.4,0,3.5,0.9,3.5,4.7v6.6h-1.8v-6.3
				c0-1.8-0.6-3.2-2.3-3.2c-1.2,0-2.1,0.9-2.4,2C81,20.8,81,21.1,81,21.5v6.6h-1.8V20.1z"/>
		</g>
		<g>
			<path class="st2" d="M94.6,12.8h7.5v1.7h-5.7v5.1h5.3v1.6h-5.3v6.9h-1.8V12.8z"/>
		</g>
		<g>
			<path class="st2" d="M110.5,25.4c0,1,0,1.9,0.2,2.6H109l-0.1-1.4h-0.1c-0.6,0.9-1.6,1.6-3,1.6c-2,0-3-1.6-3-3.2
				c0-2.7,2.1-4.1,6-4.1v-0.2c0-0.9-0.2-2.5-2.3-2.5c-0.9,0-1.9,0.3-2.6,0.8l-0.4-1.3c0.8-0.6,2-1,3.3-1c3,0,3.8,2.3,3.8,4.5V25.4z
				 M108.7,22.5c-2,0-4.2,0.3-4.2,2.5c0,1.3,0.8,1.9,1.7,1.9c1.3,0,2.1-0.9,2.4-1.8c0.1-0.2,0.1-0.4,0.1-0.6V22.5z"/>
		</g>
		<g>
			<path class="st2" d="M120.3,27.7c-0.5,0.3-1.5,0.7-2.9,0.7c-3,0-5-2.3-5-5.6c0-3.4,2.1-5.8,5.4-5.8c1.1,0,2,0.3,2.5,0.6l-0.4,1.5
				c-0.4-0.3-1.1-0.5-2.1-0.5c-2.3,0-3.5,1.9-3.5,4.2c0,2.5,1.5,4.1,3.5,4.1c1,0,1.7-0.3,2.2-0.5L120.3,27.7z"/>
		</g>
		<g>
			<path class="st2" d="M124.6,14.5v2.6h2.6v1.5h-2.6v5.9c0,1.4,0.3,2.1,1.4,2.1c0.5,0,0.8,0,1.1-0.1l0.1,1.5
				c-0.3,0.2-0.9,0.3-1.6,0.3c-0.8,0-1.5-0.3-2-0.9c-0.5-0.6-0.7-1.6-0.7-2.9v-6h-1.5v-1.5h1.5v-2L124.6,14.5z"/>
		</g>
		<g>
			<path class="st2" d="M128.8,26c0.5,0.4,1.5,0.8,2.4,0.8c1.3,0,1.9-0.7,1.9-1.6c0-1-0.5-1.5-1.9-2c-1.8-0.7-2.6-1.8-2.6-3.1
				c0-1.8,1.3-3.2,3.4-3.2c1,0,1.9,0.3,2.5,0.7l-0.5,1.5c-0.4-0.3-1.1-0.6-2-0.6c-1.1,0-1.7,0.7-1.7,1.5c0,0.9,0.6,1.3,1.9,1.9
				c1.7,0.7,2.6,1.7,2.6,3.3c0,1.9-1.4,3.3-3.7,3.3c-1.1,0-2.1-0.3-2.8-0.8L128.8,26z"/>
		</g>
		<g>
			<path class="st2" d="M17.6,45.3L13.1,30H15l2.2,7.5c0.6,2.1,1.1,3.9,1.5,5.7h0c0.4-1.8,1-3.7,1.6-5.7l2.3-7.6h1.9l-5,15.3H17.6z"
				/>
		</g>
		<g>
			<path class="st2" d="M32.1,42.6c0,1,0,1.9,0.2,2.6h-1.6l-0.1-1.4h-0.1c-0.6,0.9-1.6,1.6-3,1.6c-2,0-3-1.6-3-3.2
				c0-2.7,2.1-4.1,6-4.1v-0.2c0-0.9-0.2-2.5-2.3-2.5c-0.9,0-1.9,0.3-2.6,0.8L25,35c0.8-0.6,2-1,3.3-1c3,0,3.8,2.3,3.8,4.5V42.6z
				 M30.4,39.7c-2,0-4.2,0.3-4.2,2.5c0,1.3,0.8,1.9,1.7,1.9c1.3,0,2.1-0.9,2.4-1.8c0.1-0.2,0.1-0.4,0.1-0.6V39.7z"/>
		</g>
		<g>
			<path class="st2" d="M34.8,29.2h1.8v16.1h-1.8V29.2z"/>
		</g>
		<g>
			<path class="st2" d="M40.5,40.2c0,2.7,1.6,3.8,3.4,3.8c1.3,0,2.1-0.2,2.8-0.6l0.3,1.4c-0.6,0.3-1.7,0.7-3.3,0.7
				c-3.1,0-4.9-2.2-4.9-5.6c0-3.3,1.8-5.9,4.7-5.9c3.3,0,4.1,3.2,4.1,5.2c0,0.4,0,0.7-0.1,0.9H40.5z M45.8,38.7
				c0-1.3-0.5-3.2-2.5-3.2c-1.8,0-2.6,1.9-2.8,3.2H45.8z"/>
		</g>
		<g>
			<path class="st2" d="M57.9,42.3c0,1.1,0,2.1,0.1,3h-1.6l-0.1-1.8h0c-0.5,0.9-1.5,2-3.3,2c-1.6,0-3.4-1-3.4-4.8v-6.4h1.8v6.1
				c0,2.1,0.6,3.5,2.2,3.5c1.2,0,2.1-0.9,2.4-1.8c0.1-0.3,0.2-0.7,0.2-1v-6.7h1.8V42.3z"/>
		</g>
		<g>
			<path class="st2" d="M60.7,37.7c0-1.3,0-2.4-0.1-3.4h1.6l0.1,2.2h0.1c0.5-1.5,1.5-2.4,2.8-2.4c0.2,0,0.4,0,0.5,0.1V36
				c-0.2,0-0.4-0.1-0.6-0.1c-1.3,0-2.2,1.1-2.4,2.6c0,0.3-0.1,0.6-0.1,0.9v5.9h-1.8V37.7z"/>
		</g>
		<g>
			<path class="st2" d="M71.4,37.3c0-1.1,0-2.1-0.1-3H73l0.1,1.8h0c0.5-1,1.6-2.1,3.3-2.1c1.4,0,3.5,0.9,3.5,4.7v6.6h-1.8V39
				c0-1.8-0.6-3.2-2.3-3.2c-1.2,0-2.1,0.9-2.4,2c-0.1,0.2-0.1,0.6-0.1,0.9v6.6h-1.8V37.3z"/>
		</g>
		<g>
			<path class="st2" d="M91,42.3c0,1.1,0,2.1,0.1,3h-1.6l-0.1-1.8h0c-0.5,0.9-1.5,2-3.3,2c-1.6,0-3.4-1-3.4-4.8v-6.4h1.8v6.1
				c0,2.1,0.6,3.5,2.2,3.5c1.2,0,2.1-0.9,2.4-1.8c0.1-0.3,0.2-0.7,0.2-1v-6.7H91V42.3z"/>
		</g>
		<g>
			<path class="st2" d="M96,31.7v2.6h2.6v1.5H96v5.9c0,1.4,0.3,2.1,1.4,2.1c0.5,0,0.8,0,1.1-0.1l0.1,1.5c-0.3,0.2-0.9,0.3-1.6,0.3
				c-0.8,0-1.5-0.3-2-0.9c-0.5-0.6-0.7-1.6-0.7-2.9v-6h-1.5v-1.5h1.5v-2L96,31.7z"/>
		</g>
		<g>
			<path class="st2" d="M100.4,37.7c0-1.3,0-2.4-0.1-3.4h1.6l0.1,2.2h0.1c0.5-1.5,1.5-2.4,2.8-2.4c0.2,0,0.4,0,0.5,0.1V36
				c-0.2,0-0.4-0.1-0.6-0.1c-1.3,0-2.2,1.1-2.4,2.6c0,0.3-0.1,0.6-0.1,0.9v5.9h-1.8V37.7z"/>
		</g>
		<g>
			<path class="st2" d="M109,31.2c0,0.7-0.4,1.2-1.2,1.2c-0.6,0-1.1-0.5-1.1-1.2c0-0.7,0.5-1.2,1.1-1.2C108.6,30,109,30.5,109,31.2z
				 M107,45.3v-11h1.8v11H107z"/>
		</g>
		<g>
			<path class="st2" d="M113.8,31.7v2.6h2.6v1.5h-2.6v5.9c0,1.4,0.3,2.1,1.4,2.1c0.5,0,0.8,0,1.1-0.1l0.1,1.5
				c-0.3,0.2-0.9,0.3-1.6,0.3c-0.8,0-1.5-0.3-2-0.9c-0.5-0.6-0.7-1.6-0.7-2.9v-6h-1.5v-1.5h1.5v-2L113.8,31.7z"/>
		</g>
		<g>
			<path class="st2" d="M120.3,31.2c0,0.7-0.4,1.2-1.2,1.2c-0.6,0-1.1-0.5-1.1-1.2c0-0.7,0.5-1.2,1.1-1.2
				C119.8,30,120.3,30.5,120.3,31.2z M118.3,45.3v-11h1.8v11H118.3z"/>
		</g>
		<g>
			<path class="st2" d="M123.6,34.3l2,6.2c0.3,1,0.6,1.9,0.8,2.8h0.1c0.2-0.9,0.5-1.8,0.8-2.8l1.9-6.2h1.9l-3.9,11h-1.7l-3.8-11
				H123.6z"/>
		</g>
		<g>
			<path class="st2" d="M133.4,40.2c0,2.7,1.6,3.8,3.4,3.8c1.3,0,2.1-0.2,2.8-0.6l0.3,1.4c-0.6,0.3-1.7,0.7-3.3,0.7
				c-3.1,0-4.9-2.2-4.9-5.6c0-3.3,1.8-5.9,4.7-5.9c3.3,0,4.1,3.2,4.1,5.2c0,0.4,0,0.7-0.1,0.9H133.4z M138.7,38.7
				c0-1.3-0.5-3.2-2.5-3.2c-1.8,0-2.6,1.9-2.8,3.2H138.7z"/>
		</g>
		<g>
			<path class="st2" d="M13.8,53.9c0.5-0.1,1.1-0.2,1.9-0.2c1,0,1.7,0.2,2.1,0.7c0.4,0.4,0.7,1,0.7,1.7c0,0.7-0.2,1.3-0.6,1.8
				c-0.5,0.6-1.3,0.9-2.3,0.9c-0.3,0-0.6,0-0.8-0.1v3.3h-1V53.9z M14.8,57.9C15,58,15.3,58,15.6,58c1.2,0,1.9-0.6,1.9-1.8
				c0-1.1-0.7-1.6-1.8-1.6c-0.4,0-0.7,0-0.9,0.1V57.9z"/>
		</g>
		<g>
			<path class="st2" d="M20.1,59.3c0,1.5,0.9,2.1,1.8,2.1c0.7,0,1.1-0.1,1.5-0.3l0.2,0.8c-0.3,0.2-0.9,0.4-1.8,0.4
				c-1.7,0-2.6-1.2-2.6-3c0-1.8,1-3.2,2.5-3.2c1.8,0,2.2,1.7,2.2,2.8c0,0.2,0,0.4,0,0.5H20.1z M23,58.5c0-0.7-0.3-1.7-1.4-1.7
				c-1,0-1.4,1-1.5,1.7H23z"/>
		</g>
		<g>
			<path class="st2" d="M25,58c0-0.7,0-1.3,0-1.8h0.9l0,1.2h0c0.2-0.8,0.8-1.3,1.5-1.3c0.1,0,0.2,0,0.3,0v1c-0.1,0-0.2,0-0.3,0
				c-0.7,0-1.2,0.6-1.3,1.4c0,0.1,0,0.3,0,0.5v3.2h-1V58z"/>
		</g>
		<g>
			<path class="st2" d="M30.7,60.8c0.3,0.2,0.9,0.5,1.6,0.5c1.3,0,1.6-0.9,1.6-1.5c0-1.1-0.9-1.6-1.9-1.6h-0.5v-0.8h0.5
				c0.7,0,1.6-0.4,1.6-1.3c0-0.6-0.4-1.2-1.3-1.2c-0.6,0-1.1,0.3-1.4,0.5l-0.3-0.8c0.4-0.3,1.1-0.6,1.9-0.6c1.4,0,2.1,0.9,2.1,1.9
				c0,0.8-0.4,1.5-1.3,1.9v0c0.9,0.2,1.6,0.9,1.6,2c0,1.3-0.9,2.4-2.6,2.4c-0.8,0-1.5-0.3-1.9-0.5L30.7,60.8z"/>
		</g>
		<g>
			<path class="st2" d="M40.9,58c0,2.7-0.9,4.2-2.5,4.2c-1.4,0-2.4-1.5-2.4-4.1c0-2.7,1-4.1,2.5-4.1C40,54,40.9,55.5,40.9,58z
				 M36.9,58.1c0,2.1,0.6,3.2,1.5,3.2c1,0,1.5-1.3,1.5-3.3c0-2-0.5-3.2-1.5-3.2C37.6,54.8,36.9,56,36.9,58.1z"/>
		</g>
		<g>
			<path class="st2" d="M42,57.7c0-0.6,0-1.1,0-1.6h0.9l0,1h0c0.3-0.6,0.8-1.1,1.7-1.1c0.7,0,1.3,0.5,1.5,1.2h0
				c0.2-0.3,0.4-0.6,0.6-0.8c0.3-0.3,0.7-0.4,1.2-0.4c0.7,0,1.8,0.5,1.8,2.6v3.5h-1v-3.3c0-1.1-0.4-1.8-1.2-1.8c-0.6,0-1,0.5-1.2,1
				c0,0.1-0.1,0.3-0.1,0.5v3.7h-1v-3.5c0-0.9-0.4-1.6-1.1-1.6c-0.6,0-1.1,0.5-1.2,1.1c-0.1,0.2-0.1,0.3-0.1,0.5v3.6h-1V57.7z"/>
		</g>
		<g>
			<path class="st2" d="M51.1,53.4h1v8.7h-1V53.4z"/>
		</g>
		<g>
			<path class="st2" d="M58,53.6c-0.8,1.2-1.4,2.8-1.4,5c0,2.2,0.6,3.7,1.4,5h-0.8c-0.7-1-1.5-2.6-1.5-5c0-2.4,0.8-4,1.5-5H58z"/>
		</g>
		<g>
			<path class="st2" d="M58.8,60.8c0.3,0.2,0.9,0.5,1.6,0.5c1.3,0,1.6-0.9,1.6-1.5c0-1.1-0.9-1.6-1.9-1.6h-0.5v-0.8h0.5
				c0.7,0,1.6-0.4,1.6-1.3c0-0.6-0.4-1.2-1.3-1.2c-0.6,0-1.1,0.3-1.4,0.5l-0.3-0.8c0.4-0.3,1.1-0.6,1.9-0.6c1.4,0,2.1,0.9,2.1,1.9
				c0,0.8-0.4,1.5-1.3,1.9v0c0.9,0.2,1.6,0.9,1.6,2c0,1.3-0.9,2.4-2.6,2.4c-0.8,0-1.5-0.3-1.9-0.5L58.8,60.8z"/>
		</g>
		<g>
			<path class="st2" d="M68.8,54.1v0.7l-3.1,7.2h-1l3.1-7v0h-3.5v-0.9H68.8z"/>
		</g>
		<g>
			<path class="st2" d="M70.5,62.2c-0.4,0-0.6-0.3-0.6-0.8c0-0.5,0.3-0.8,0.7-0.8c0.4,0,0.7,0.3,0.7,0.8
				C71.1,61.9,70.9,62.2,70.5,62.2L70.5,62.2z"/>
		</g>
		<g>
			<path class="st2" d="M73.2,57.9c-0.8-0.4-1.1-1.1-1.1-1.8c0-1.3,1-2.1,2.2-2.1c1.4,0,2.1,1,2.1,2c0,0.7-0.3,1.4-1.2,1.9v0
				c0.9,0.4,1.5,1.1,1.5,2.1c0,1.4-1.1,2.3-2.5,2.3c-1.5,0-2.4-1-2.4-2.2C71.8,59,72.4,58.3,73.2,57.9L73.2,57.9z M75.7,60
				c0-1-0.6-1.4-1.6-1.7c-0.8,0.3-1.3,0.9-1.3,1.6c0,0.8,0.5,1.5,1.4,1.5C75.1,61.4,75.7,60.8,75.7,60z M73,56
				c0,0.8,0.5,1.2,1.4,1.5c0.6-0.2,1.1-0.7,1.1-1.4c0-0.6-0.3-1.3-1.2-1.3C73.5,54.8,73,55.3,73,56z"/>
		</g>
		<g>
			<path class="st2" d="M84.6,61.2c0,1.4-0.2,2.2-0.8,2.7c-0.5,0.5-1.3,0.7-2,0.7c-0.6,0-1.4-0.2-1.8-0.5l0.2-0.8
				c0.4,0.2,0.9,0.5,1.6,0.5c1,0,1.7-0.6,1.7-2.1V61h0c-0.3,0.6-0.9,1-1.7,1c-1.3,0-2.3-1.2-2.3-2.9c0-2,1.2-3.1,2.4-3.1
				c0.9,0,1.4,0.5,1.7,1h0l0-0.9h0.9c0,0.4,0,0.9,0,1.6V61.2z M83.7,58.5c0-0.2,0-0.3-0.1-0.5c-0.2-0.6-0.7-1.1-1.4-1.1
				c-0.9,0-1.6,0.9-1.6,2.2c0,1.2,0.5,2.1,1.6,2.1c0.6,0,1.1-0.4,1.4-1.1c0.1-0.2,0.1-0.4,0.1-0.6V58.5z"/>
		</g>
		<g>
			<path class="st2" d="M85.5,63.5c0.8-1.2,1.4-2.8,1.4-5c0-2.2-0.6-3.8-1.4-5h0.8c0.7,1,1.5,2.6,1.5,5c0,2.4-0.7,3.9-1.5,5H85.5z"
				/>
		</g>
		<g>
			<path class="st2" d="M90.6,62.5l3.1-8.9h0.8l-3.1,8.9H90.6z"/>
		</g>
		<g>
			<path class="st2" d="M97.3,58.1c0-0.8,0-1.4,0-1.9h0.9l0,1h0c0.4-0.7,1-1.1,1.9-1.1c1.3,0,2.3,1.2,2.3,3c0,2.1-1.2,3.2-2.4,3.2
				c-0.7,0-1.3-0.3-1.7-0.9h0v3.2h-1V58.1z M98.3,59.7c0,0.2,0,0.3,0,0.4c0.2,0.7,0.8,1.3,1.5,1.3c1,0,1.6-0.9,1.6-2.3
				c0-1.2-0.6-2.2-1.6-2.2c-0.7,0-1.3,0.5-1.5,1.3c0,0.1-0.1,0.3-0.1,0.4V59.7z"/>
		</g>
		<g>
			<path class="st2" d="M107.3,60.6c0,0.5,0,1,0.1,1.4h-0.9l-0.1-0.7h0c-0.3,0.5-0.9,0.9-1.6,0.9c-1.1,0-1.6-0.8-1.6-1.7
				c0-1.4,1.2-2.2,3.2-2.2v-0.1c0-0.5-0.1-1.4-1.2-1.4c-0.5,0-1,0.2-1.4,0.4l-0.2-0.7c0.4-0.3,1.1-0.5,1.8-0.5c1.6,0,2,1.2,2,2.4
				V60.6z M106.4,59c-1.1,0-2.3,0.2-2.3,1.3c0,0.7,0.4,1,0.9,1c0.7,0,1.1-0.5,1.3-1c0-0.1,0.1-0.2,0.1-0.3V59z"/>
		</g>
		<g>
			<path class="st2" d="M108.8,58c0-0.7,0-1.3,0-1.8h0.9l0,1.2h0c0.2-0.8,0.8-1.3,1.5-1.3c0.1,0,0.2,0,0.3,0v1c-0.1,0-0.2,0-0.3,0
				c-0.7,0-1.2,0.6-1.3,1.4c0,0.1,0,0.3,0,0.5v3.2h-1V58z"/>
		</g>
		<g>
			<path class="st2" d="M114.5,60.8c0.3,0.2,0.9,0.5,1.6,0.5c1.3,0,1.6-0.9,1.6-1.5c0-1.1-0.9-1.6-1.9-1.6h-0.5v-0.8h0.5
				c0.7,0,1.6-0.4,1.6-1.3c0-0.6-0.4-1.2-1.3-1.2c-0.6,0-1.1,0.3-1.4,0.5l-0.3-0.8c0.4-0.3,1.1-0.6,1.9-0.6c1.4,0,2.1,0.9,2.1,1.9
				c0,0.8-0.4,1.5-1.3,1.9v0c0.9,0.2,1.6,0.9,1.6,2c0,1.3-0.9,2.4-2.6,2.4c-0.8,0-1.5-0.3-1.9-0.5L114.5,60.8z"/>
		</g>
		<g>
			<path class="st2" d="M124.6,58c0,2.7-0.9,4.2-2.5,4.2c-1.4,0-2.4-1.5-2.4-4.1c0-2.7,1-4.1,2.5-4.1C123.7,54,124.6,55.5,124.6,58z
				 M120.7,58.1c0,2.1,0.6,3.2,1.5,3.2c1,0,1.5-1.3,1.5-3.3c0-2-0.5-3.2-1.5-3.2C121.3,54.8,120.7,56,120.7,58.1z"/>
		</g>
		<g>
			<path class="st2" d="M125.7,57.7c0-0.6,0-1.1,0-1.6h0.9l0,1h0c0.3-0.6,0.8-1.1,1.7-1.1c0.7,0,1.3,0.5,1.5,1.2h0
				c0.2-0.3,0.4-0.6,0.6-0.8c0.3-0.3,0.7-0.4,1.2-0.4c0.7,0,1.8,0.5,1.8,2.6v3.5h-1v-3.3c0-1.1-0.4-1.8-1.2-1.8c-0.6,0-1,0.5-1.2,1
				c0,0.1-0.1,0.3-0.1,0.5v3.7h-1v-3.5c0-0.9-0.4-1.6-1.1-1.6c-0.6,0-1.1,0.5-1.2,1.1c-0.1,0.2-0.1,0.3-0.1,0.5v3.6h-1V57.7z"/>
		</g>
		<g>
			<path class="st2" d="M134.8,53.4h1v8.7h-1V53.4z"/>
		</g>
		<g>
			<path class="st2" d="M141.7,53.6c-0.8,1.2-1.4,2.8-1.4,5c0,2.2,0.6,3.7,1.4,5h-0.8c-0.7-1-1.5-2.6-1.5-5c0-2.4,0.8-4,1.5-5H141.7
				z"/>
		</g>
		<g>
			<path class="st2" d="M142.6,60.8c0.3,0.2,0.9,0.5,1.6,0.5c1.3,0,1.6-0.9,1.6-1.5c0-1.1-0.9-1.6-1.9-1.6h-0.5v-0.8h0.5
				c0.7,0,1.6-0.4,1.6-1.3c0-0.6-0.4-1.2-1.3-1.2c-0.6,0-1.1,0.3-1.4,0.5l-0.3-0.8c0.4-0.3,1.1-0.6,1.9-0.6c1.4,0,2.1,0.9,2.1,1.9
				c0,0.8-0.4,1.5-1.3,1.9v0c0.9,0.2,1.6,0.9,1.6,2c0,1.3-0.9,2.4-2.6,2.4c-0.8,0-1.5-0.3-1.9-0.5L142.6,60.8z"/>
		</g>
		<g>
			<path class="st2" d="M152.6,54.1v0.7l-3.1,7.2h-1l3.1-7v0H148v-0.9H152.6z"/>
		</g>
		<g>
			<path class="st2" d="M154.2,62.2c-0.4,0-0.6-0.3-0.6-0.8c0-0.5,0.3-0.8,0.7-0.8c0.4,0,0.7,0.3,0.7,0.8
				C154.9,61.9,154.6,62.2,154.2,62.2L154.2,62.2z"/>
		</g>
		<g>
			<path class="st2" d="M157,57.9c-0.8-0.4-1.1-1.1-1.1-1.8c0-1.3,1-2.1,2.2-2.1c1.4,0,2.1,1,2.1,2c0,0.7-0.3,1.4-1.2,1.9v0
				c0.9,0.4,1.5,1.1,1.5,2.1c0,1.4-1.1,2.3-2.5,2.3c-1.5,0-2.4-1-2.4-2.2C155.6,59,156.1,58.3,157,57.9L157,57.9z M159.5,60
				c0-1-0.6-1.4-1.6-1.7c-0.8,0.3-1.3,0.9-1.3,1.6c0,0.8,0.5,1.5,1.4,1.5C158.9,61.4,159.5,60.8,159.5,60z M156.8,56
				c0,0.8,0.5,1.2,1.4,1.5c0.6-0.2,1.1-0.7,1.1-1.4c0-0.6-0.3-1.3-1.2-1.3C157.2,54.8,156.8,55.3,156.8,56z"/>
		</g>
		<g>
			<path class="st2" d="M168.4,61.2c0,1.4-0.2,2.2-0.8,2.7c-0.5,0.5-1.3,0.7-2,0.7c-0.6,0-1.4-0.2-1.8-0.5l0.2-0.8
				c0.4,0.2,0.9,0.5,1.6,0.5c1,0,1.7-0.6,1.7-2.1V61h0c-0.3,0.6-0.9,1-1.7,1c-1.3,0-2.3-1.2-2.3-2.9c0-2,1.2-3.1,2.4-3.1
				c0.9,0,1.4,0.5,1.7,1h0l0-0.9h0.9c0,0.4,0,0.9,0,1.6V61.2z M167.4,58.5c0-0.2,0-0.3-0.1-0.5c-0.2-0.6-0.7-1.1-1.4-1.1
				c-0.9,0-1.6,0.9-1.6,2.2c0,1.2,0.5,2.1,1.6,2.1c0.6,0,1.1-0.4,1.4-1.1c0.1-0.2,0.1-0.4,0.1-0.6V58.5z"/>
		</g>
		<g>
			<path class="st2" d="M169.3,63.5c0.8-1.2,1.4-2.8,1.4-5c0-2.2-0.6-3.8-1.4-5h0.8c0.7,1,1.5,2.6,1.5,5c0,2.4-0.7,3.9-1.5,5H169.3z
				"/>
		</g>
		<g>
			<path class="st2" d="M14.9,76.4l-0.7,2.4h-0.9l2.4-7.6h1.1l2.4,7.6h-1l-0.7-2.4H14.9z M17.2,75.7l-0.7-2.2
				c-0.2-0.5-0.3-1-0.4-1.4h0c-0.1,0.5-0.2,0.9-0.4,1.4l-0.7,2.2H17.2z"/>
		</g>
		<g>
			<path class="st2" d="M19.9,74.8c0-0.6,0-1,0-1.5h0.8l0,0.9h0c0.3-0.5,0.7-1,1.6-1c0.7,0,1.2,0.5,1.4,1.1h0
				c0.2-0.3,0.3-0.5,0.6-0.7c0.3-0.2,0.6-0.4,1.1-0.4c0.7,0,1.6,0.5,1.6,2.4v3.2h-0.9v-3.1c0-1.1-0.4-1.7-1.1-1.7
				c-0.5,0-0.9,0.4-1.1,0.9c0,0.1-0.1,0.3-0.1,0.5v3.4H23v-3.3c0-0.9-0.4-1.5-1-1.5c-0.6,0-1,0.5-1.1,1c-0.1,0.1-0.1,0.3-0.1,0.5
				v3.3h-0.9V74.8z"/>
		</g>
		<g>
			<path class="st2" d="M32.9,76c0,2-1.3,2.9-2.5,2.9c-1.3,0-2.4-1.1-2.4-2.8c0-1.8,1.1-2.9,2.5-2.9C31.9,73.2,32.9,74.4,32.9,76z
				 M29,76.1c0,1.2,0.6,2.1,1.5,2.1c0.9,0,1.5-0.9,1.5-2.1c0-0.9-0.4-2.1-1.5-2.1C29.4,74,29,75.1,29,76.1z"/>
		</g>
		<g>
			<path class="st2" d="M38.1,77.3c0,0.6,0,1.1,0,1.5h-0.8l-0.1-0.9h0c-0.2,0.4-0.8,1-1.6,1c-0.8,0-1.7-0.5-1.7-2.4v-3.2h0.9v3
				c0,1,0.3,1.7,1.1,1.7c0.6,0,1-0.5,1.2-0.9c0.1-0.1,0.1-0.3,0.1-0.5v-3.4h0.9V77.3z"/>
		</g>
		<g>
			<path class="st2" d="M39.5,74.8c0-0.6,0-1,0-1.5h0.8l0.1,0.9h0c0.2-0.5,0.8-1,1.6-1c0.7,0,1.8,0.5,1.8,2.3v3.3h-0.9v-3.2
				c0-0.9-0.3-1.6-1.2-1.6c-0.6,0-1.1,0.5-1.2,1c0,0.1-0.1,0.3-0.1,0.5v3.3h-0.9V74.8z"/>
		</g>
		<g>
			<path class="st2" d="M46.2,72v1.3h1.3v0.8h-1.3v3c0,0.7,0.2,1.1,0.7,1.1c0.2,0,0.4,0,0.5-0.1l0,0.7C47.3,78.9,47,79,46.6,79
				c-0.4,0-0.8-0.2-1-0.4c-0.3-0.3-0.3-0.8-0.3-1.4v-3h-0.8v-0.8h0.8v-1L46.2,72z"/>
		</g>
		<g>
			<path class="st2" d="M133.4,71.3c0.9,0,1.5,0.8,1.5,2.2c0,1.6-0.7,2.3-1.6,2.3c-0.8,0-1.6-0.7-1.6-2.2
				C131.7,72.2,132.5,71.3,133.4,71.3L133.4,71.3z M133.3,71.9c-0.6,0-0.9,0.7-0.9,1.7c0,0.9,0.3,1.7,0.9,1.7c0.6,0,0.9-0.7,0.9-1.7
				C134.2,72.7,134,71.9,133.3,71.9L133.3,71.9z M133.3,79l3.9-7.6h0.6l-3.9,7.6H133.3z M137.7,74.4c0.9,0,1.5,0.8,1.5,2.2
				c0,1.6-0.7,2.3-1.6,2.3c-0.8,0-1.6-0.7-1.6-2.2C136.1,75.2,136.8,74.4,137.7,74.4L137.7,74.4z M137.7,75c-0.6,0-0.9,0.7-0.9,1.7
				c0,0.9,0.3,1.7,0.9,1.7c0.6,0,0.9-0.7,0.9-1.7C138.6,75.7,138.3,75,137.7,75L137.7,75z"/>
		</g>
		<g>
			<path class="st2" d="M142.4,71.3c0.5-0.1,1.2-0.2,1.9-0.2c1.3,0,2.2,0.3,2.8,1c0.6,0.6,1,1.5,1,2.7c0,1.2-0.4,2.3-1,3
				c-0.6,0.7-1.7,1.1-3.1,1.1c-0.6,0-1.2,0-1.6-0.1V71.3z M143.3,78.1c0.2,0,0.6,0.1,0.9,0.1c1.9,0,3-1.2,3-3.2
				c0-1.8-0.9-2.9-2.8-2.9c-0.5,0-0.8,0-1.1,0.1V78.1z"/>
		</g>
		<g>
			<path class="st2" d="M152.6,77.5c0,0.5,0,0.9,0.1,1.3h-0.8l-0.1-0.7h0c-0.3,0.4-0.8,0.8-1.5,0.8c-1,0-1.5-0.8-1.5-1.6
				c0-1.3,1.1-2.1,3-2v-0.1c0-0.5-0.1-1.3-1.1-1.3c-0.5,0-0.9,0.2-1.3,0.4l-0.2-0.7c0.4-0.3,1-0.5,1.6-0.5c1.5,0,1.9,1.1,1.9,2.2
				V77.5z M151.7,76c-1,0-2.1,0.2-2.1,1.2c0,0.6,0.4,1,0.9,1c0.6,0,1.1-0.5,1.2-0.9c0-0.1,0.1-0.2,0.1-0.3V76z"/>
		</g>
		<g>
			<path class="st2" d="M155,71.8c0,0.3-0.2,0.6-0.6,0.6c-0.3,0-0.5-0.3-0.5-0.6c0-0.4,0.2-0.6,0.6-0.6
				C154.7,71.2,155,71.5,155,71.8z M153.9,78.8v-5.5h0.9v5.5H153.9z"/>
		</g>
		<g>
			<path class="st2" d="M156.3,70.8h0.9v8h-0.9V70.8z"/>
		</g>
		<g>
			<path class="st2" d="M158.9,73.3l1.1,3.2c0.1,0.4,0.2,0.8,0.3,1.1h0c0.1-0.3,0.2-0.7,0.3-1.1l1-3.2h1l-1.4,3.9
				c-0.6,1.9-1.1,2.8-1.7,3.4c-0.4,0.4-0.9,0.6-1.1,0.6l-0.2-0.8c0.2-0.1,0.5-0.2,0.8-0.5c0.2-0.2,0.6-0.6,0.8-1.1
				c0-0.1,0.1-0.2,0.1-0.2c0-0.1,0-0.1-0.1-0.3l-1.8-5.1H158.9z"/>
		</g>
		<g>
			<path class="st2" d="M167,78.8l-2.3-7.6h1l1.1,3.8c0.3,1,0.6,2,0.7,2.9h0c0.2-0.9,0.5-1.8,0.8-2.8l1.2-3.8h1l-2.5,7.6H167z"/>
		</g>
		<g>
			<path class="st2" d="M174.6,77.5c0,0.5,0,0.9,0.1,1.3h-0.8l-0.1-0.7h0c-0.3,0.4-0.8,0.8-1.5,0.8c-1,0-1.5-0.8-1.5-1.6
				c0-1.3,1.1-2.1,3-2v-0.1c0-0.5-0.1-1.3-1.1-1.3c-0.5,0-0.9,0.2-1.3,0.4l-0.2-0.7c0.4-0.3,1-0.5,1.6-0.5c1.5,0,1.9,1.1,1.9,2.2
				V77.5z M173.7,76c-1,0-2.1,0.2-2.1,1.2c0,0.6,0.4,1,0.9,1c0.6,0,1.1-0.5,1.2-0.9c0-0.1,0.1-0.2,0.1-0.3V76z"/>
		</g>
		<g>
			<path class="st2" d="M175.9,70.8h0.9v8h-0.9V70.8z"/>
		</g>
		<g>
			<path class="st2" d="M182.4,77.3c0,0.6,0,1.1,0,1.5h-0.8l-0.1-0.9h0c-0.2,0.4-0.8,1-1.6,1c-0.8,0-1.7-0.5-1.7-2.4v-3.2h0.9v3
				c0,1,0.3,1.7,1.1,1.7c0.6,0,1-0.5,1.2-0.9c0.1-0.1,0.1-0.3,0.1-0.5v-3.4h0.9V77.3z"/>
		</g>
		<g>
			<path class="st2" d="M184.3,76.3c0,1.3,0.8,1.9,1.7,1.9c0.6,0,1-0.1,1.4-0.3l0.2,0.7c-0.3,0.2-0.9,0.4-1.7,0.4
				c-1.5,0-2.5-1.1-2.5-2.8c0-1.7,0.9-3,2.3-3c1.6,0,2.1,1.6,2.1,2.6c0,0.2,0,0.4,0,0.5H184.3z M187,75.6c0-0.6-0.2-1.6-1.3-1.6
				c-0.9,0-1.3,0.9-1.4,1.6H187z"/>
		</g>
		<g>
			<path class="st2" d="M15.1,88.8H13V88h5.1v0.8H16v6.8h-0.9V88.8z"/>
		</g>
		<g>
			<path class="st2" d="M18.5,93.1c0,1.3,0.8,1.9,1.7,1.9c0.6,0,1-0.1,1.4-0.3l0.2,0.7c-0.3,0.2-0.9,0.4-1.7,0.4
				c-1.5,0-2.5-1.1-2.5-2.8c0-1.7,0.9-3,2.3-3c1.6,0,2.1,1.6,2.1,2.6c0,0.2,0,0.4,0,0.5H18.5z M21.2,92.3c0-0.6-0.2-1.6-1.3-1.6
				c-0.9,0-1.3,0.9-1.4,1.6H21.2z"/>
		</g>
		<g>
			<path class="st2" d="M23.1,91.6c0-0.6,0-1,0-1.5h0.8l0.1,0.9h0c0.2-0.5,0.8-1,1.6-1c0.7,0,1.8,0.5,1.8,2.3v3.3h-0.9v-3.2
				c0-0.9-0.3-1.6-1.2-1.6c-0.6,0-1.1,0.5-1.2,1c0,0.1-0.1,0.3-0.1,0.5v3.3h-0.9V91.6z"/>
		</g>
		<g>
			<path class="st2" d="M29.2,93.1c0,1.3,0.8,1.9,1.7,1.9c0.6,0,1-0.1,1.4-0.3l0.2,0.7c-0.3,0.2-0.9,0.4-1.7,0.4
				c-1.5,0-2.5-1.1-2.5-2.8c0-1.7,0.9-3,2.3-3c1.6,0,2.1,1.6,2.1,2.6c0,0.2,0,0.4,0,0.5H29.2z M31.9,92.3c0-0.6-0.2-1.6-1.3-1.6
				c-0.9,0-1.3,0.9-1.4,1.6H31.9z"/>
		</g>
		<g>
			<path class="st2" d="M37.9,94.1c0,0.6,0,1.1,0,1.5h-0.8l-0.1-0.9h0c-0.2,0.4-0.8,1-1.6,1c-0.8,0-1.7-0.5-1.7-2.4v-3.2h0.9v3
				c0,1,0.3,1.7,1.1,1.7c0.6,0,1-0.5,1.2-0.9c0.1-0.1,0.1-0.3,0.1-0.5v-3.4h0.9V94.1z"/>
		</g>
		<g>
			<path class="st2" d="M39.3,91.8c0-0.6,0-1.2,0-1.7h0.8l0,1.1h0c0.2-0.7,0.8-1.2,1.4-1.2c0.1,0,0.2,0,0.3,0V91c-0.1,0-0.2,0-0.3,0
				c-0.6,0-1.1,0.5-1.2,1.3c0,0.1,0,0.3,0,0.5v2.9h-0.9V91.8z"/>
		</g>
		<g>
			<path class="st2" d="M99.9,88.1c0.9,0,1.5,0.8,1.5,2.2c0,1.6-0.7,2.3-1.6,2.3c-0.8,0-1.6-0.7-1.6-2.2
				C98.3,88.9,99,88.1,99.9,88.1L99.9,88.1z M99.9,88.7c-0.6,0-0.9,0.7-0.9,1.7c0,0.9,0.3,1.7,0.9,1.7c0.6,0,0.9-0.7,0.9-1.7
				C100.7,89.5,100.5,88.7,99.9,88.7L99.9,88.7z M99.8,95.8l3.9-7.6h0.6l-3.9,7.6H99.8z M104.3,91.2c0.9,0,1.5,0.8,1.5,2.2
				c0,1.6-0.7,2.3-1.6,2.3c-0.8,0-1.6-0.7-1.6-2.2C102.7,92,103.4,91.2,104.3,91.2L104.3,91.2z M104.2,91.8c-0.6,0-0.9,0.7-0.9,1.7
				c0,0.9,0.3,1.7,0.9,1.7c0.6,0,0.9-0.7,0.9-1.7C105.1,92.5,104.9,91.8,104.2,91.8L104.2,91.8z"/>
		</g>
		<g>
			<path class="st2" d="M109.2,90.1l1,3.1c0.2,0.5,0.3,1,0.4,1.4h0c0.1-0.5,0.3-0.9,0.4-1.4l1-3.1h0.9l-2,5.5h-0.9l-1.9-5.5H109.2z"
				/>
		</g>
		<g>
			<path class="st2" d="M117.2,94.3c0,0.5,0,0.9,0.1,1.3h-0.8l-0.1-0.7h0c-0.3,0.4-0.8,0.8-1.5,0.8c-1,0-1.5-0.8-1.5-1.6
				c0-1.3,1.1-2.1,3-2V92c0-0.5-0.1-1.3-1.1-1.3c-0.5,0-0.9,0.2-1.3,0.4l-0.2-0.7c0.4-0.3,1-0.5,1.6-0.5c1.5,0,1.9,1.1,1.9,2.2V94.3
				z M116.3,92.8c-1,0-2.1,0.2-2.1,1.2c0,0.6,0.4,1,0.9,1c0.6,0,1.1-0.5,1.2-0.9c0-0.1,0.1-0.2,0.1-0.3V92.8z"/>
		</g>
		<g>
			<path class="st2" d="M118.5,87.6h0.9v8h-0.9V87.6z"/>
		</g>
		<g>
			<path class="st2" d="M121.4,93.1c0,1.3,0.8,1.9,1.7,1.9c0.6,0,1-0.1,1.4-0.3l0.2,0.7c-0.3,0.2-0.9,0.4-1.7,0.4
				c-1.5,0-2.5-1.1-2.5-2.8c0-1.7,0.9-3,2.3-3c1.6,0,2.1,1.6,2.1,2.6c0,0.2,0,0.4,0,0.5H121.4z M124,92.3c0-0.6-0.2-1.6-1.3-1.6
				c-0.9,0-1.3,0.9-1.4,1.6H124z"/>
		</g>
		<g>
			<path class="st2" d="M130.1,94.1c0,0.6,0,1.1,0,1.5h-0.8l-0.1-0.9h0c-0.2,0.4-0.8,1-1.6,1c-0.8,0-1.7-0.5-1.7-2.4v-3.2h0.9v3
				c0,1,0.3,1.7,1.1,1.7c0.6,0,1-0.5,1.2-0.9c0.1-0.1,0.1-0.3,0.1-0.5v-3.4h0.9V94.1z"/>
		</g>
		<g>
			<path class="st2" d="M131.5,91.8c0-0.6,0-1.2,0-1.7h0.8l0,1.1h0c0.2-0.7,0.8-1.2,1.4-1.2c0.1,0,0.2,0,0.3,0V91
				c-0.1,0-0.2,0-0.3,0c-0.6,0-1.1,0.5-1.2,1.3c0,0.1,0,0.3,0,0.5v2.9h-0.9V91.8z"/>
		</g>
		<g>
			<path class="st2" d="M140.2,94.8L140.2,94.8c-0.3,0.5-0.8,1-1.6,1c-1.2,0-2.1-1.1-2.1-2.8c0-2.1,1.2-3,2.3-3c0.8,0,1.3,0.4,1.5,1
				h0l0-0.8h0.9c0,0.5,0,0.9,0,1.5v6.2h-0.9V94.8z M140.2,92.3c0-0.1,0-0.3,0-0.4c-0.1-0.6-0.6-1.1-1.3-1.1c-0.9,0-1.5,0.9-1.5,2.1
				c0,1.1,0.5,2,1.5,2c0.6,0,1.1-0.4,1.3-1.1c0-0.1,0.1-0.3,0.1-0.5V92.3z"/>
		</g>
		<g>
			<path class="st2" d="M146.7,94.1c0,0.6,0,1.1,0,1.5H146l-0.1-0.9h0c-0.2,0.4-0.8,1-1.6,1c-0.8,0-1.7-0.5-1.7-2.4v-3.2h0.9v3
				c0,1,0.3,1.7,1.1,1.7c0.6,0,1-0.5,1.2-0.9c0.1-0.1,0.1-0.3,0.1-0.5v-3.4h0.9V94.1z"/>
		</g>
		<g>
			<path class="st2" d="M152.6,92.8c0,2-1.3,2.9-2.5,2.9c-1.3,0-2.4-1.1-2.4-2.8c0-1.8,1.1-2.9,2.5-2.9
				C151.7,90,152.6,91.1,152.6,92.8z M148.7,92.9c0,1.2,0.6,2.1,1.5,2.1c0.9,0,1.5-0.9,1.5-2.1c0-0.9-0.4-2.1-1.5-2.1
				C149.1,90.8,148.7,91.8,148.7,92.9z"/>
		</g>
		<g>
			<path class="st2" d="M154.8,88.8v1.3h1.3v0.8h-1.3v3c0,0.7,0.2,1.1,0.7,1.1c0.2,0,0.4,0,0.5-0.1l0,0.7c-0.2,0.1-0.5,0.1-0.8,0.1
				c-0.4,0-0.8-0.2-1-0.4c-0.3-0.3-0.3-0.8-0.3-1.4v-3h-0.8v-0.8h0.8v-1L154.8,88.8z"/>
		</g>
		<g>
			<path class="st2" d="M158,88.6c0,0.3-0.2,0.6-0.6,0.6c-0.3,0-0.5-0.3-0.5-0.6c0-0.4,0.2-0.6,0.6-0.6C157.8,88,158,88.2,158,88.6z
				 M157,95.6v-5.5h0.9v5.5H157z"/>
		</g>
		<g>
			<path class="st2" d="M163.6,87.6v6.6c0,0.5,0,1,0,1.4h-0.8l0-1h0c-0.3,0.6-0.9,1.1-1.7,1.1c-1.2,0-2.1-1.1-2.1-2.8
				c0-1.8,1-2.9,2.2-2.9c0.8,0,1.3,0.4,1.5,0.8h0v-3.3H163.6z M162.7,92.4c0-0.1,0-0.3,0-0.4c-0.1-0.6-0.6-1.2-1.3-1.2
				c-0.9,0-1.5,0.9-1.5,2.1c0,1.1,0.5,2,1.5,2c0.6,0,1.2-0.4,1.3-1.2c0-0.1,0-0.3,0-0.4V92.4z"/>
		</g>
		<g>
			<path class="st2" d="M166,88.6c0,0.3-0.2,0.6-0.6,0.6c-0.3,0-0.5-0.3-0.5-0.6c0-0.4,0.2-0.6,0.6-0.6C165.8,88,166,88.2,166,88.6z
				 M165,95.6v-5.5h0.9v5.5H165z"/>
		</g>
		<g>
			<path class="st2" d="M167.8,93.1c0,1.3,0.8,1.9,1.7,1.9c0.6,0,1-0.1,1.4-0.3l0.2,0.7c-0.3,0.2-0.9,0.4-1.7,0.4
				c-1.5,0-2.5-1.1-2.5-2.8c0-1.7,0.9-3,2.3-3c1.6,0,2.1,1.6,2.1,2.6c0,0.2,0,0.4,0,0.5H167.8z M170.5,92.3c0-0.6-0.2-1.6-1.3-1.6
				c-0.9,0-1.3,0.9-1.4,1.6H170.5z"/>
		</g>
		<g>
			<path class="st2" d="M172.4,91.6c0-0.6,0-1,0-1.5h0.8l0.1,0.9h0c0.2-0.5,0.8-1,1.6-1c0.7,0,1.8,0.5,1.8,2.3v3.3h-0.9v-3.2
				c0-0.9-0.3-1.6-1.2-1.6c-0.6,0-1.1,0.5-1.2,1c0,0.1-0.1,0.3-0.1,0.5v3.3h-0.9V91.6z"/>
		</g>
		<g>
			<path class="st2" d="M178,91.6c0-0.6,0-1,0-1.5h0.8l0.1,0.9h0c0.2-0.5,0.8-1,1.6-1c0.7,0,1.8,0.5,1.8,2.3v3.3h-0.9v-3.2
				c0-0.9-0.3-1.6-1.2-1.6c-0.6,0-1.1,0.5-1.2,1c0,0.1-0.1,0.3-0.1,0.5v3.3H178V91.6z"/>
		</g>
		<g>
			<path class="st2" d="M184.1,93.1c0,1.3,0.8,1.9,1.7,1.9c0.6,0,1-0.1,1.4-0.3l0.2,0.7c-0.3,0.2-0.9,0.4-1.7,0.4
				c-1.5,0-2.5-1.1-2.5-2.8c0-1.7,0.9-3,2.3-3c1.6,0,2.1,1.6,2.1,2.6c0,0.2,0,0.4,0,0.5H184.1z M186.7,92.3c0-0.6-0.2-1.6-1.3-1.6
				c-0.9,0-1.3,0.9-1.4,1.6H186.7z"/>
		</g>
		<g>
			<path class="st2" d="M19.1,112.1c-0.4,0.2-1.1,0.4-2,0.4c-2.1,0-3.7-1.5-3.7-4.2c0-2.6,1.6-4.3,3.9-4.3c0.9,0,1.5,0.2,1.8,0.4
				l-0.2,0.9c-0.4-0.2-0.9-0.3-1.5-0.3c-1.8,0-2.9,1.2-2.9,3.4c0,2,1.1,3.3,2.9,3.3c0.6,0,1.2-0.1,1.6-0.3L19.1,112.1z"/>
		</g>
		<g>
			<path class="st2" d="M23.8,111c0,0.5,0,1,0.1,1.4H23l-0.1-0.7h0c-0.3,0.5-0.9,0.9-1.6,0.9c-1.1,0-1.6-0.8-1.6-1.7
				c0-1.4,1.2-2.2,3.2-2.2v-0.1c0-0.5-0.1-1.4-1.2-1.4c-0.5,0-1,0.2-1.4,0.4l-0.2-0.7c0.4-0.3,1.1-0.5,1.8-0.5c1.6,0,2,1.2,2,2.4
				V111z M22.9,109.4c-1.1,0-2.3,0.2-2.3,1.3c0,0.7,0.4,1,0.9,1c0.7,0,1.1-0.5,1.3-1c0-0.1,0.1-0.2,0.1-0.3V109.4z"/>
		</g>
		<g>
			<path class="st2" d="M25.3,103.7h1v8.7h-1V103.7z"/>
		</g>
		<g>
			<path class="st2" d="M32.6,109.4c0,2.2-1.4,3.1-2.7,3.1c-1.5,0-2.6-1.2-2.6-3c0-2,1.2-3.1,2.7-3.1
				C31.6,106.3,32.6,107.6,32.6,109.4z M28.4,109.4c0,1.3,0.7,2.3,1.6,2.3c0.9,0,1.6-1,1.6-2.3c0-1-0.5-2.3-1.6-2.3
				C28.9,107.1,28.4,108.3,28.4,109.4z"/>
		</g>
		<g>
			<path class="st2" d="M33.8,108.3c0-0.7,0-1.3,0-1.8h0.9l0,1.2h0c0.2-0.8,0.8-1.3,1.5-1.3c0.1,0,0.2,0,0.3,0v1c-0.1,0-0.2,0-0.3,0
				c-0.7,0-1.2,0.6-1.3,1.4c0,0.1,0,0.3,0,0.5v3.2h-1V108.3z"/>
		</g>
		<g>
			<path class="st2" d="M38.4,104.8c0,0.4-0.2,0.7-0.6,0.7c-0.3,0-0.6-0.3-0.6-0.7c0-0.4,0.3-0.7,0.6-0.7
				C38.2,104.1,38.4,104.4,38.4,104.8z M37.3,112.4v-5.9h1v5.9H37.3z"/>
		</g>
		<g>
			<path class="st2" d="M40.4,109.6c0,1.5,0.9,2.1,1.8,2.1c0.7,0,1.1-0.1,1.5-0.3l0.2,0.8c-0.3,0.2-0.9,0.4-1.8,0.4
				c-1.7,0-2.6-1.2-2.6-3c0-1.8,1-3.2,2.5-3.2c1.8,0,2.2,1.7,2.2,2.8c0,0.2,0,0.4,0,0.5H40.4z M43.2,108.9c0-0.7-0.3-1.7-1.4-1.7
				c-1,0-1.4,1-1.5,1.7H43.2z"/>
		</g>
		<g>
			<path class="st2" d="M45.1,111.3c0.3,0.2,0.8,0.4,1.3,0.4c0.7,0,1-0.4,1-0.9c0-0.5-0.3-0.8-1-1.1c-1-0.4-1.4-1-1.4-1.7
				c0-1,0.7-1.7,1.9-1.7c0.5,0,1,0.2,1.3,0.4l-0.2,0.8c-0.2-0.1-0.6-0.3-1.1-0.3c-0.6,0-0.9,0.4-0.9,0.8c0,0.5,0.3,0.7,1,1
				c0.9,0.4,1.4,0.9,1.4,1.8c0,1-0.7,1.8-2,1.8c-0.6,0-1.1-0.2-1.5-0.4L45.1,111.3z"/>
		</g>
		<g>
			<path class="st2" d="M51,112.9l3.1-8.9h0.8l-3.1,8.9H51z"/>
		</g>
		<g>
			<path class="st2" d="M63,112.1c-0.4,0.2-1.1,0.4-2,0.4c-2.1,0-3.7-1.5-3.7-4.2c0-2.6,1.6-4.3,3.9-4.3c0.9,0,1.5,0.2,1.8,0.4
				l-0.2,0.9c-0.4-0.2-0.9-0.3-1.5-0.3c-1.8,0-2.9,1.2-2.9,3.4c0,2,1.1,3.3,2.9,3.3c0.6,0,1.2-0.1,1.6-0.3L63,112.1z"/>
		</g>
		<g>
			<path class="st2" d="M67.7,111c0,0.5,0,1,0.1,1.4h-0.9l-0.1-0.7h0c-0.3,0.5-0.9,0.9-1.6,0.9c-1.1,0-1.6-0.8-1.6-1.7
				c0-1.4,1.2-2.2,3.2-2.2v-0.1c0-0.5-0.1-1.4-1.2-1.4c-0.5,0-1,0.2-1.4,0.4l-0.2-0.7c0.4-0.3,1.1-0.5,1.8-0.5c1.6,0,2,1.2,2,2.4
				V111z M66.8,109.4c-1.1,0-2.3,0.2-2.3,1.3c0,0.7,0.4,1,0.9,1c0.7,0,1.1-0.5,1.3-1c0-0.1,0.1-0.2,0.1-0.3V109.4z"/>
		</g>
		<g>
			<path class="st2" d="M69.2,103.7h1v8.7h-1V103.7z"/>
		</g>
		<g>
			<path class="st2" d="M76.6,109.4c0,2.2-1.4,3.1-2.7,3.1c-1.5,0-2.6-1.2-2.6-3c0-2,1.2-3.1,2.7-3.1
				C75.5,106.3,76.6,107.6,76.6,109.4z M72.3,109.4c0,1.3,0.7,2.3,1.6,2.3c0.9,0,1.6-1,1.6-2.3c0-1-0.5-2.3-1.6-2.3
				C72.8,107.1,72.3,108.3,72.3,109.4z"/>
		</g>
		<g>
			<path class="st2" d="M77.7,108.3c0-0.7,0-1.3,0-1.8h0.9l0,1.2h0c0.2-0.8,0.8-1.3,1.5-1.3c0.1,0,0.2,0,0.3,0v1c-0.1,0-0.2,0-0.3,0
				c-0.7,0-1.2,0.6-1.3,1.4c0,0.1,0,0.3,0,0.5v3.2h-1V108.3z"/>
		</g>
		<g>
			<path class="st2" d="M82.3,104.8c0,0.4-0.2,0.7-0.6,0.7c-0.3,0-0.6-0.3-0.6-0.7c0-0.4,0.3-0.7,0.6-0.7
				C82.1,104.1,82.3,104.4,82.3,104.8z M81.2,112.4v-5.9h1v5.9H81.2z"/>
		</g>
		<g>
			<path class="st2" d="M84.3,109.6c0,1.5,0.9,2.1,1.8,2.1c0.7,0,1.1-0.1,1.5-0.3l0.2,0.8c-0.3,0.2-0.9,0.4-1.8,0.4
				c-1.7,0-2.6-1.2-2.6-3c0-1.8,1-3.2,2.5-3.2c1.8,0,2.2,1.7,2.2,2.8c0,0.2,0,0.4,0,0.5H84.3z M87.1,108.9c0-0.7-0.3-1.7-1.4-1.7
				c-1,0-1.4,1-1.5,1.7H87.1z"/>
		</g>
		<g>
			<path class="st2" d="M89,111.3c0.3,0.2,0.8,0.4,1.3,0.4c0.7,0,1-0.4,1-0.9c0-0.5-0.3-0.8-1-1.1c-1-0.4-1.4-1-1.4-1.7
				c0-1,0.7-1.7,1.9-1.7c0.5,0,1,0.2,1.3,0.4l-0.2,0.8c-0.2-0.1-0.6-0.3-1.1-0.3c-0.6,0-0.9,0.4-0.9,0.8c0,0.5,0.3,0.7,1,1
				c0.9,0.4,1.4,0.9,1.4,1.8c0,1-0.7,1.8-2,1.8c-0.6,0-1.1-0.2-1.5-0.4L89,111.3z"/>
		</g>
		<g>
			<path class="st2" d="M99.5,105.2c-0.2,0-0.5,0-0.7,0c-1.5,0.3-2.3,1.5-2.5,2.8h0c0.3-0.5,0.9-0.9,1.7-0.9c1.3,0,2.2,1,2.2,2.6
				c0,1.5-0.9,2.8-2.4,2.8c-1.5,0-2.6-1.3-2.6-3.4c0-1.6,0.5-2.8,1.2-3.6c0.6-0.6,1.4-1.1,2.3-1.2c0.3,0,0.5-0.1,0.7-0.1V105.2z
				 M97.8,111.7c0.8,0,1.4-0.8,1.4-1.9c0-1.1-0.6-1.8-1.5-1.8c-0.6,0-1.1,0.4-1.4,1c-0.1,0.1-0.1,0.3-0.1,0.5
				C96.2,110.7,96.8,111.7,97.8,111.7L97.8,111.7z"/>
		</g>
		<g>
			<path class="st2" d="M104,112.4v-2.2h-3.4v-0.7l3.2-5.1h1.1v4.9h1v0.8h-1v2.2H104z M104,109.4v-2.7c0-0.4,0-0.8,0-1.2h0
				c-0.2,0.5-0.4,0.8-0.6,1.2l-1.8,2.7v0H104z"/>
		</g>
		<g>
			<path class="st2" d="M13.8,120.9h4v0.9h-3.1v2.7h2.8v0.9h-2.8v3.7h-1V120.9z"/>
		</g>
		<g>
			<path class="st2" d="M22.4,127.8c0,0.5,0,1,0.1,1.4h-0.9l-0.1-0.7h0c-0.3,0.5-0.9,0.9-1.6,0.9c-1.1,0-1.6-0.8-1.6-1.7
				c0-1.4,1.2-2.2,3.2-2.2v-0.1c0-0.5-0.1-1.4-1.2-1.4c-0.5,0-1,0.2-1.4,0.4l-0.2-0.7c0.4-0.3,1.1-0.5,1.8-0.5c1.6,0,2,1.2,2,2.4
				V127.8z M21.4,126.2c-1.1,0-2.3,0.2-2.3,1.3c0,0.7,0.4,1,0.9,1c0.7,0,1.1-0.5,1.3-1c0-0.1,0.1-0.2,0.1-0.3V126.2z"/>
		</g>
		<g>
			<path class="st2" d="M25,121.8v1.4h1.4v0.8H25v3.2c0,0.7,0.2,1.1,0.7,1.1c0.3,0,0.4,0,0.6-0.1l0,0.8c-0.2,0.1-0.5,0.2-0.9,0.2
				c-0.5,0-0.8-0.2-1.1-0.5c-0.3-0.3-0.4-0.8-0.4-1.5v-3.2h-0.8v-0.8H24v-1.1L25,121.8z"/>
		</g>
		<g>
			<path class="st2" d="M28.8,129.7l3.1-8.9h0.8l-3.1,8.9H28.8z"/>
		</g>
		<g>
			<path class="st2" d="M35.6,120.9h1v7.3h3.2v0.9h-4.2V120.9z"/>
		</g>
		<g>
			<path class="st2" d="M41.7,121.6c0,0.4-0.2,0.7-0.6,0.7c-0.3,0-0.6-0.3-0.6-0.7c0-0.4,0.3-0.7,0.6-0.7
				C41.5,120.9,41.7,121.2,41.7,121.6z M40.6,129.2v-5.9h1v5.9H40.6z"/>
		</g>
		<g>
			<path class="st2" d="M43.1,125.2c0-0.8,0-1.4,0-1.9H44l0,1h0c0.4-0.7,1-1.1,1.9-1.1c1.3,0,2.3,1.2,2.3,3c0,2.1-1.2,3.2-2.4,3.2
				c-0.7,0-1.3-0.3-1.7-0.9h0v3.2h-1V125.2z M44.1,126.8c0,0.2,0,0.3,0,0.4c0.2,0.7,0.8,1.3,1.5,1.3c1,0,1.6-0.9,1.6-2.3
				c0-1.2-0.6-2.2-1.6-2.2c-0.7,0-1.3,0.5-1.5,1.3c0,0.1-0.1,0.3-0.1,0.4V126.8z"/>
		</g>
		<g>
			<path class="st2" d="M50.4,121.6c0,0.4-0.2,0.7-0.6,0.7c-0.3,0-0.6-0.3-0.6-0.7c0-0.4,0.3-0.7,0.6-0.7
				C50.2,120.9,50.4,121.2,50.4,121.6z M49.3,129.2v-5.9h1v5.9H49.3z"/>
		</g>
		<g>
			<path class="st2" d="M56.5,120.5v7.1c0,0.5,0,1.1,0,1.5h-0.9l0-1h0c-0.3,0.7-1,1.2-1.8,1.2c-1.3,0-2.3-1.2-2.3-3
				c0-2,1.1-3.2,2.4-3.2c0.8,0,1.4,0.4,1.6,0.9h0v-3.5H56.5z M55.5,125.7c0-0.1,0-0.3,0-0.5c-0.1-0.7-0.7-1.2-1.4-1.2
				c-1,0-1.6,1-1.6,2.3c0,1.2,0.5,2.2,1.6,2.2c0.7,0,1.3-0.5,1.4-1.3c0-0.1,0-0.3,0-0.5V125.7z"/>
		</g>
		<g>
			<path class="st2" d="M58.5,126.4c0,1.5,0.9,2.1,1.8,2.1c0.7,0,1.1-0.1,1.5-0.3l0.2,0.8c-0.3,0.2-0.9,0.4-1.8,0.4
				c-1.7,0-2.6-1.2-2.6-3c0-1.8,1-3.2,2.5-3.2c1.8,0,2.2,1.7,2.2,2.8c0,0.2,0,0.4,0,0.5H58.5z M61.4,125.6c0-0.7-0.3-1.7-1.4-1.7
				c-1,0-1.4,1-1.5,1.7H61.4z"/>
		</g>
		<g>
			<path class="st2" d="M63.3,128.1c0.3,0.2,0.8,0.4,1.3,0.4c0.7,0,1-0.4,1-0.9c0-0.5-0.3-0.8-1-1.1c-1-0.4-1.4-1-1.4-1.7
				c0-1,0.7-1.7,1.9-1.7c0.5,0,1,0.2,1.3,0.4l-0.2,0.8c-0.2-0.1-0.6-0.3-1.1-0.3c-0.6,0-0.9,0.4-0.9,0.8c0,0.5,0.3,0.7,1,1
				c0.9,0.4,1.4,0.9,1.4,1.8c0,1-0.7,1.8-2,1.8c-0.6,0-1.1-0.2-1.5-0.4L63.3,128.1z"/>
		</g>
		<g>
			<path class="st2" d="M74.4,125.1c0,2.7-0.9,4.2-2.5,4.2c-1.4,0-2.4-1.5-2.4-4.1c0-2.7,1-4.1,2.5-4.1
				C73.5,121.1,74.4,122.6,74.4,125.1z M70.5,125.2c0,2.1,0.6,3.2,1.5,3.2c1,0,1.5-1.3,1.5-3.3c0-2-0.5-3.2-1.5-3.2
				C71.1,121.9,70.5,123.1,70.5,125.2z"/>
		</g>
		<g>
			<path class="st2" d="M75.9,129.3c-0.4,0-0.6-0.3-0.6-0.8c0-0.5,0.3-0.8,0.7-0.8c0.4,0,0.7,0.3,0.7,0.8
				C76.6,129,76.3,129.3,75.9,129.3L75.9,129.3z"/>
		</g>
		<g>
			<path class="st2" d="M79.5,122.2L79.5,122.2l-1.3,0.7l-0.2-0.8l1.6-0.9h0.8v7.9h-0.9V122.2z"/>
		</g>
		<g>
			<path class="st2" d="M90.1,128.3c0,1.4-0.2,2.2-0.8,2.7c-0.5,0.5-1.3,0.7-2,0.7c-0.6,0-1.4-0.2-1.8-0.5l0.2-0.8
				c0.4,0.2,0.9,0.5,1.6,0.5c1,0,1.7-0.6,1.7-2.1v-0.7h0c-0.3,0.6-0.9,1-1.7,1c-1.3,0-2.3-1.2-2.3-2.9c0-2,1.2-3.1,2.4-3.1
				c0.9,0,1.4,0.5,1.7,1h0l0-0.9h0.9c0,0.4,0,0.9,0,1.6V128.3z M89.1,125.6c0-0.2,0-0.3-0.1-0.5c-0.2-0.6-0.7-1.1-1.4-1.1
				c-0.9,0-1.6,0.9-1.6,2.2c0,1.2,0.5,2.1,1.6,2.1c0.6,0,1.1-0.4,1.4-1.1c0.1-0.2,0.1-0.4,0.1-0.6V125.6z"/>
		</g>
		<g>
			<path class="st2" d="M176.6,125.1c0,2.7-0.9,4.2-2.5,4.2c-1.4,0-2.4-1.5-2.4-4.1c0-2.7,1-4.1,2.5-4.1
				C175.8,121.1,176.6,122.6,176.6,125.1z M172.7,125.2c0,2.1,0.6,3.2,1.5,3.2c1,0,1.5-1.3,1.5-3.3c0-2-0.5-3.2-1.5-3.2
				C173.3,121.9,172.7,123.1,172.7,125.2z"/>
		</g>
		<g>
			<path class="st2" d="M181.2,121.1c1,0,1.7,0.9,1.7,2.4c0,1.7-0.8,2.5-1.7,2.5c-0.9,0-1.7-0.8-1.7-2.4
				C179.5,122,180.3,121.1,181.2,121.1L181.2,121.1z M181.2,121.7c-0.6,0-0.9,0.8-0.9,1.8c0,1,0.3,1.8,0.9,1.8
				c0.6,0,0.9-0.8,0.9-1.8C182.1,122.5,181.9,121.7,181.2,121.7L181.2,121.7z M181.1,129.3l4.2-8.2h0.6l-4.2,8.2H181.1z M186,124.4
				c1,0,1.7,0.9,1.7,2.4c0,1.7-0.8,2.5-1.7,2.5c-0.9,0-1.7-0.8-1.7-2.4C184.2,125.3,185,124.4,186,124.4L186,124.4z M185.9,125
				c-0.6,0-0.9,0.8-0.9,1.8c0,1,0.3,1.8,0.9,1.8c0.6,0,0.9-0.8,0.9-1.8C186.8,125.8,186.6,125,185.9,125L185.9,125z"/>
		</g>
		<g>
			<path class="st2" d="M20.9,144.7c0.4,0.3,1.1,0.5,1.7,0.5c1,0,1.6-0.6,1.6-1.4c0-0.8-0.4-1.2-1.4-1.6c-1.2-0.5-2-1.2-2-2.3
				c0-1.3,1-2.2,2.4-2.2c0.8,0,1.3,0.2,1.7,0.4l-0.3,0.9c-0.2-0.1-0.7-0.4-1.4-0.4c-1,0-1.4,0.7-1.4,1.2c0,0.8,0.5,1.1,1.5,1.6
				c1.3,0.5,1.9,1.2,1.9,2.4c0,1.3-0.9,2.4-2.6,2.4c-0.7,0-1.5-0.2-1.9-0.5L20.9,144.7z"/>
		</g>
		<g>
			<path class="st2" d="M30.2,144.5c0,0.5,0,1,0.1,1.4h-0.9l-0.1-0.7h0c-0.3,0.5-0.9,0.9-1.6,0.9c-1.1,0-1.6-0.8-1.6-1.7
				c0-1.4,1.2-2.2,3.2-2.2v-0.1c0-0.5-0.1-1.4-1.2-1.4c-0.5,0-1,0.2-1.4,0.4l-0.2-0.7c0.4-0.3,1.1-0.5,1.8-0.5c1.6,0,2,1.2,2,2.4
				V144.5z M29.3,142.9c-1.1,0-2.3,0.2-2.3,1.3c0,0.7,0.4,1,0.9,1c0.7,0,1.1-0.5,1.3-1c0-0.1,0.1-0.2,0.1-0.3V142.9z"/>
		</g>
		<g>
			<path class="st2" d="M32.8,138.6v1.4h1.4v0.8h-1.4v3.2c0,0.7,0.2,1.1,0.7,1.1c0.3,0,0.4,0,0.6-0.1l0,0.8
				c-0.2,0.1-0.5,0.2-0.9,0.2c-0.5,0-0.8-0.2-1.1-0.5c-0.3-0.3-0.4-0.8-0.4-1.5v-3.2H31V140h0.8v-1.1L32.8,138.6z"/>
		</g>
		<g>
			<path class="st2" d="M39.7,144.3c0,0.6,0,1.1,0,1.6h-0.9l-0.1-1h0c-0.3,0.5-0.8,1.1-1.8,1.1c-0.8,0-1.9-0.5-1.9-2.6V140h1v3.3
				c0,1.1,0.3,1.9,1.2,1.9c0.7,0,1.1-0.5,1.3-1c0.1-0.2,0.1-0.4,0.1-0.6V140h1V144.3z"/>
		</g>
		<g>
			<path class="st2" d="M41.2,141.9c0-0.7,0-1.3,0-1.8H42l0,1.2h0c0.2-0.8,0.8-1.3,1.5-1.3c0.1,0,0.2,0,0.3,0v1c-0.1,0-0.2,0-0.3,0
				c-0.7,0-1.2,0.6-1.3,1.4c0,0.1,0,0.3,0,0.5v3.2h-1V141.9z"/>
		</g>
		<g>
			<path class="st2" d="M48.4,144.5c0,0.5,0,1,0.1,1.4h-0.9l-0.1-0.7h0c-0.3,0.5-0.9,0.9-1.6,0.9c-1.1,0-1.6-0.8-1.6-1.7
				c0-1.4,1.2-2.2,3.2-2.2v-0.1c0-0.5-0.1-1.4-1.2-1.4c-0.5,0-1,0.2-1.4,0.4l-0.2-0.7c0.4-0.3,1.1-0.5,1.8-0.5c1.6,0,2,1.2,2,2.4
				V144.5z M47.5,142.9c-1.1,0-2.3,0.2-2.3,1.3c0,0.7,0.4,1,0.9,1c0.7,0,1.1-0.5,1.3-1c0-0.1,0.1-0.2,0.1-0.3V142.9z"/>
		</g>
		<g>
			<path class="st2" d="M51,138.6v1.4h1.4v0.8H51v3.2c0,0.7,0.2,1.1,0.7,1.1c0.3,0,0.4,0,0.6-0.1l0,0.8c-0.2,0.1-0.5,0.2-0.9,0.2
				c-0.5,0-0.8-0.2-1.1-0.5c-0.3-0.3-0.4-0.8-0.4-1.5v-3.2h-0.8V140h0.8v-1.1L51,138.6z"/>
		</g>
		<g>
			<path class="st2" d="M53.9,143.2c0,1.5,0.9,2.1,1.8,2.1c0.7,0,1.1-0.1,1.5-0.3l0.2,0.8c-0.3,0.2-0.9,0.4-1.8,0.4
				c-1.7,0-2.6-1.2-2.6-3c0-1.8,1-3.2,2.5-3.2c1.8,0,2.2,1.7,2.2,2.8c0,0.2,0,0.4,0,0.5H53.9z M56.7,142.4c0-0.7-0.3-1.7-1.4-1.7
				c-1,0-1.4,1-1.5,1.7H56.7z"/>
		</g>
		<g>
			<path class="st2" d="M63.4,137.3v7.1c0,0.5,0,1.1,0,1.5h-0.9l0-1h0c-0.3,0.7-1,1.2-1.8,1.2c-1.3,0-2.3-1.2-2.3-3
				c0-2,1.1-3.2,2.4-3.2c0.8,0,1.4,0.4,1.6,0.9h0v-3.5H63.4z M62.4,142.4c0-0.1,0-0.3,0-0.5c-0.1-0.7-0.7-1.2-1.4-1.2
				c-1,0-1.6,1-1.6,2.3c0,1.2,0.5,2.2,1.6,2.2c0.7,0,1.3-0.5,1.4-1.3c0-0.1,0-0.3,0-0.5V142.4z"/>
		</g>
		<g>
			<path class="st2" d="M66.3,146.4l3.1-8.9h0.8l-3.1,8.9H66.3z"/>
		</g>
		<g>
			<path class="st2" d="M73,144.8c0.3,0.2,0.8,0.4,1.3,0.4c0.7,0,1-0.4,1-0.9c0-0.5-0.3-0.8-1-1.1c-1-0.4-1.4-1-1.4-1.7
				c0-1,0.7-1.7,1.9-1.7c0.5,0,1,0.2,1.3,0.4l-0.2,0.8c-0.2-0.1-0.6-0.3-1.1-0.3c-0.6,0-0.9,0.4-0.9,0.8c0,0.5,0.3,0.7,1,1
				c0.9,0.4,1.4,0.9,1.4,1.8c0,1-0.7,1.8-2,1.8c-0.6,0-1.1-0.2-1.5-0.4L73,144.8z"/>
		</g>
		<g>
			<path class="st2" d="M81.1,144.5c0,0.5,0,1,0.1,1.4h-0.9l-0.1-0.7h0c-0.3,0.5-0.9,0.9-1.6,0.9c-1.1,0-1.6-0.8-1.6-1.7
				c0-1.4,1.2-2.2,3.2-2.2v-0.1c0-0.5-0.1-1.4-1.2-1.4c-0.5,0-1,0.2-1.4,0.4l-0.2-0.7c0.4-0.3,1.1-0.5,1.8-0.5c1.6,0,2,1.2,2,2.4
				V144.5z M80.2,142.9c-1.1,0-2.3,0.2-2.3,1.3c0,0.7,0.4,1,0.9,1c0.7,0,1.1-0.5,1.3-1c0-0.1,0.1-0.2,0.1-0.3V142.9z"/>
		</g>
		<g>
			<path class="st2" d="M83.7,138.6v1.4h1.4v0.8h-1.4v3.2c0,0.7,0.2,1.1,0.7,1.1c0.3,0,0.4,0,0.6-0.1l0,0.8
				c-0.2,0.1-0.5,0.2-0.9,0.2c-0.5,0-0.8-0.2-1.1-0.5c-0.3-0.3-0.4-0.8-0.4-1.5v-3.2H82V140h0.8v-1.1L83.7,138.6z"/>
		</g>
		<g>
			<path class="st2" d="M90.6,144.3c0,0.6,0,1.1,0,1.6h-0.9l-0.1-1h0c-0.3,0.5-0.8,1.1-1.8,1.1c-0.8,0-1.9-0.5-1.9-2.6V140h1v3.3
				c0,1.1,0.3,1.9,1.2,1.9c0.7,0,1.1-0.5,1.3-1c0.1-0.2,0.1-0.4,0.1-0.6V140h1V144.3z"/>
		</g>
		<g>
			<path class="st2" d="M92.1,141.9c0-0.7,0-1.3,0-1.8h0.9l0,1.2h0c0.2-0.8,0.8-1.3,1.5-1.3c0.1,0,0.2,0,0.3,0v1c-0.1,0-0.2,0-0.3,0
				c-0.7,0-1.2,0.6-1.3,1.4c0,0.1,0,0.3,0,0.5v3.2h-1V141.9z"/>
		</g>
		<g>
			<path class="st2" d="M96.1,143.2c0,1.5,0.9,2.1,1.8,2.1c0.7,0,1.1-0.1,1.5-0.3l0.2,0.8c-0.3,0.2-0.9,0.4-1.8,0.4
				c-1.7,0-2.6-1.2-2.6-3c0-1.8,1-3.2,2.5-3.2c1.8,0,2.2,1.7,2.2,2.8c0,0.2,0,0.4,0,0.5H96.1z M98.9,142.4c0-0.7-0.3-1.7-1.4-1.7
				c-1,0-1.4,1-1.5,1.7H98.9z M99.2,137.5l-1.4,1.7h-0.7l1-1.7H99.2z"/>
		</g>
		<g>
			<path class="st2" d="M100.8,144.8c0.3,0.2,0.8,0.4,1.3,0.4c0.7,0,1-0.4,1-0.9c0-0.5-0.3-0.8-1-1.1c-1-0.4-1.4-1-1.4-1.7
				c0-1,0.7-1.7,1.9-1.7c0.5,0,1,0.2,1.3,0.4l-0.2,0.8c-0.2-0.1-0.6-0.3-1.1-0.3c-0.6,0-0.9,0.4-0.9,0.8c0,0.5,0.3,0.7,1,1
				c0.9,0.4,1.4,0.9,1.4,1.8c0,1-0.7,1.8-2,1.8c-0.6,0-1.1-0.2-1.5-0.4L100.8,144.8z"/>
		</g>
		<g>
			<path class="st2" d="M112,141.9c0,2.7-0.9,4.2-2.5,4.2c-1.4,0-2.4-1.5-2.4-4.1c0-2.7,1-4.1,2.5-4.1
				C111.1,137.9,112,139.4,112,141.9z M108.1,142c0,2.1,0.6,3.2,1.5,3.2c1,0,1.5-1.3,1.5-3.3c0-2-0.5-3.2-1.5-3.2
				C108.7,138.7,108.1,139.8,108.1,142z"/>
		</g>
		<g>
			<path class="st2" d="M119.9,145.1c0,1.4-0.2,2.2-0.8,2.7c-0.5,0.5-1.3,0.7-2,0.7c-0.6,0-1.4-0.2-1.8-0.5l0.2-0.8
				c0.4,0.2,0.9,0.5,1.6,0.5c1,0,1.7-0.6,1.7-2.1v-0.7h0c-0.3,0.6-0.9,1-1.7,1c-1.3,0-2.3-1.2-2.3-2.9c0-2,1.2-3.1,2.4-3.1
				c0.9,0,1.4,0.5,1.7,1h0l0-0.9h0.9c0,0.4,0,0.9,0,1.6V145.1z M118.9,142.4c0-0.2,0-0.3-0.1-0.5c-0.2-0.6-0.7-1.1-1.4-1.1
				c-0.9,0-1.6,0.9-1.6,2.2c0,1.2,0.5,2.1,1.6,2.1c0.6,0,1.1-0.4,1.4-1.1c0.1-0.2,0.1-0.4,0.1-0.6V142.4z"/>
		</g>
		<g>
			<path class="st2" d="M176.6,149.7c0,2.7-0.9,4.2-2.5,4.2c-1.4,0-2.4-1.5-2.4-4.1c0-2.7,1-4.1,2.5-4.1
				C175.8,145.7,176.6,147.2,176.6,149.7z M172.7,149.9c0,2.1,0.6,3.2,1.5,3.2c1,0,1.5-1.3,1.5-3.3c0-2-0.5-3.2-1.5-3.2
				C173.3,146.6,172.7,147.7,172.7,149.9z"/>
		</g>
		<g>
			<path class="st2" d="M181.2,145.7c1,0,1.7,0.9,1.7,2.4c0,1.7-0.8,2.5-1.7,2.5c-0.9,0-1.7-0.8-1.7-2.4
				C179.5,146.6,180.3,145.7,181.2,145.7L181.2,145.7z M181.2,146.4c-0.6,0-0.9,0.8-0.9,1.8c0,1,0.3,1.8,0.9,1.8
				c0.6,0,0.9-0.8,0.9-1.8C182.1,147.2,181.9,146.4,181.2,146.4L181.2,146.4z M181.1,153.9l4.2-8.2h0.6l-4.2,8.2H181.1z M185.9,149
				c1,0,1.7,0.9,1.7,2.4c0,1.7-0.8,2.5-1.7,2.5c-0.9,0-1.7-0.8-1.7-2.4C184.2,149.9,185,149,185.9,149L185.9,149z M185.9,149.7
				c-0.6,0-0.9,0.8-0.9,1.8c0,1,0.3,1.8,0.9,1.8c0.6,0,0.9-0.8,0.9-1.8C186.8,150.5,186.6,149.7,185.9,149.7L185.9,149.7z"/>
		</g>
		<g>
			<path class="st2" d="M23.9,156.2v2.9h2.5v0.7h-2.5v2.9h-0.7v-2.9h-2.5v-0.7h2.5v-2.9H23.9z"/>
		</g>
		<g>
			<path class="st2" d="M30.8,155.4h-2.3v-0.9H34v0.9h-2.3v7.3h-1V155.4z"/>
		</g>
		<g>
			<path class="st2" d="M34.7,158.7c0-0.7,0-1.3,0-1.8h0.9l0,1.2h0c0.2-0.8,0.8-1.3,1.5-1.3c0.1,0,0.2,0,0.3,0v1c-0.1,0-0.2,0-0.3,0
				c-0.7,0-1.2,0.6-1.3,1.4c0,0.1,0,0.3,0,0.5v3.2h-1V158.7z"/>
		</g>
		<g>
			<path class="st2" d="M42,161.3c0,0.5,0,1,0.1,1.4h-0.9l-0.1-0.7h0c-0.3,0.5-0.9,0.9-1.6,0.9c-1.1,0-1.6-0.8-1.6-1.7
				c0-1.4,1.2-2.2,3.2-2.2v-0.1c0-0.5-0.1-1.4-1.2-1.4c-0.5,0-1,0.2-1.4,0.4l-0.2-0.7c0.4-0.3,1.1-0.5,1.8-0.5c1.6,0,2,1.2,2,2.4
				V161.3z M41.1,159.7c-1.1,0-2.3,0.2-2.3,1.3c0,0.7,0.4,1,0.9,1c0.7,0,1.1-0.5,1.3-1c0-0.1,0.1-0.2,0.1-0.3V159.7z"/>
		</g>
		<g>
			<path class="st2" d="M43.5,158.4c0-0.6,0-1.1,0-1.6h0.9l0.1,1h0c0.3-0.6,0.9-1.1,1.8-1.1c0.7,0,1.9,0.5,1.9,2.5v3.5h-1v-3.4
				c0-1-0.3-1.7-1.2-1.7c-0.6,0-1.1,0.5-1.3,1.1c0,0.1-0.1,0.3-0.1,0.5v3.6h-1V158.4z"/>
		</g>
		<g>
			<path class="st2" d="M49.4,161.6c0.3,0.2,0.8,0.4,1.3,0.4c0.7,0,1-0.4,1-0.9c0-0.5-0.3-0.8-1-1.1c-1-0.4-1.4-1-1.4-1.7
				c0-1,0.7-1.7,1.9-1.7c0.5,0,1,0.2,1.3,0.4l-0.2,0.8c-0.2-0.1-0.6-0.3-1.1-0.3c-0.6,0-0.9,0.4-0.9,0.8c0,0.5,0.3,0.7,1,1
				c0.9,0.4,1.4,0.9,1.4,1.8c0,1-0.7,1.8-2,1.8c-0.6,0-1.1-0.2-1.5-0.4L49.4,161.6z"/>
		</g>
		<g>
			<path class="st2" d="M55.2,163.2l3.1-8.9h0.8l-3.1,8.9H55.2z"/>
		</g>
		<g>
			<path class="st2" d="M63.2,155.4v1.4h1.4v0.8h-1.4v3.2c0,0.7,0.2,1.1,0.7,1.1c0.3,0,0.4,0,0.6-0.1l0,0.8
				c-0.2,0.1-0.5,0.2-0.9,0.2c-0.5,0-0.8-0.2-1.1-0.5c-0.3-0.3-0.4-0.8-0.4-1.5v-3.2h-0.8v-0.8h0.8v-1.1L63.2,155.4z"/>
		</g>
		<g>
			<path class="st2" d="M65.5,158.7c0-0.7,0-1.3,0-1.8h0.9l0,1.2h0c0.2-0.8,0.8-1.3,1.5-1.3c0.1,0,0.2,0,0.3,0v1c-0.1,0-0.2,0-0.3,0
				c-0.7,0-1.2,0.6-1.3,1.4c0,0.1,0,0.3,0,0.5v3.2h-1V158.7z"/>
		</g>
		<g>
			<path class="st2" d="M72.8,161.3c0,0.5,0,1,0.1,1.4H72l-0.1-0.7h0c-0.3,0.5-0.9,0.9-1.6,0.9c-1.1,0-1.6-0.8-1.6-1.7
				c0-1.4,1.2-2.2,3.2-2.2v-0.1c0-0.5-0.1-1.4-1.2-1.4c-0.5,0-1,0.2-1.4,0.4l-0.2-0.7c0.4-0.3,1.1-0.5,1.8-0.5c1.6,0,2,1.2,2,2.4
				V161.3z M71.8,159.7c-1.1,0-2.3,0.2-2.3,1.3c0,0.7,0.4,1,0.9,1c0.7,0,1.1-0.5,1.3-1c0-0.1,0.1-0.2,0.1-0.3V159.7z"/>
		</g>
		<g>
			<path class="st2" d="M74.2,158.4c0-0.6,0-1.1,0-1.6h0.9l0.1,1h0c0.3-0.6,0.9-1.1,1.8-1.1c0.7,0,1.9,0.5,1.9,2.5v3.5h-1v-3.4
				c0-1-0.3-1.7-1.2-1.7c-0.6,0-1.1,0.5-1.3,1.1c0,0.1-0.1,0.3-0.1,0.5v3.6h-1V158.4z"/>
		</g>
		<g>
			<path class="st2" d="M80.1,161.6c0.3,0.2,0.8,0.4,1.3,0.4c0.7,0,1-0.4,1-0.9c0-0.5-0.3-0.8-1-1.1c-1-0.4-1.4-1-1.4-1.7
				c0-1,0.7-1.7,1.9-1.7c0.5,0,1,0.2,1.3,0.4l-0.2,0.8c-0.2-0.1-0.6-0.3-1.1-0.3c-0.6,0-0.9,0.4-0.9,0.8c0,0.5,0.3,0.7,1,1
				c0.9,0.4,1.4,0.9,1.4,1.8c0,1-0.7,1.8-2,1.8c-0.6,0-1.1-0.2-1.5-0.4L80.1,161.6z"/>
		</g>
		<g>
			<path class="st2" d="M91.3,158.7c0,2.7-0.9,4.2-2.5,4.2c-1.4,0-2.4-1.5-2.4-4.1c0-2.7,1-4.1,2.5-4.1
				C90.4,154.6,91.3,156.1,91.3,158.7z M87.4,158.8c0,2.1,0.6,3.2,1.5,3.2c1,0,1.5-1.3,1.5-3.3c0-2-0.5-3.2-1.5-3.2
				C88,155.5,87.4,156.6,87.4,158.8z"/>
		</g>
		<g>
			<path class="st2" d="M19.1,179.2c-0.4,0.2-1.1,0.4-2,0.4c-2.1,0-3.7-1.5-3.7-4.2c0-2.6,1.6-4.3,3.9-4.3c0.9,0,1.5,0.2,1.8,0.4
				l-0.2,0.9c-0.4-0.2-0.9-0.3-1.5-0.3c-1.8,0-2.9,1.2-2.9,3.4c0,2,1.1,3.3,2.9,3.3c0.6,0,1.2-0.1,1.6-0.3L19.1,179.2z"/>
		</g>
		<g>
			<path class="st2" d="M20.1,170.8h1v3.7h0c0.2-0.3,0.4-0.6,0.7-0.8c0.3-0.2,0.6-0.3,1-0.3c0.7,0,1.9,0.5,1.9,2.5v3.5h-1v-3.4
				c0-1-0.3-1.8-1.2-1.8c-0.6,0-1.1,0.5-1.3,1.1c-0.1,0.1-0.1,0.3-0.1,0.5v3.6h-1V170.8z"/>
		</g>
		<g>
			<path class="st2" d="M31,176.5c0,2.2-1.4,3.1-2.7,3.1c-1.5,0-2.6-1.2-2.6-3c0-2,1.2-3.1,2.7-3.1C30,173.5,31,174.7,31,176.5z
				 M26.8,176.6c0,1.3,0.7,2.3,1.6,2.3c0.9,0,1.6-1,1.6-2.3c0-1-0.5-2.3-1.6-2.3C27.3,174.3,26.8,175.4,26.8,176.6z"/>
		</g>
		<g>
			<path class="st2" d="M32.1,170.8h1v8.7h-1V170.8z"/>
		</g>
		<g>
			<path class="st2" d="M35.2,176.7c0,1.5,0.9,2.1,1.8,2.1c0.7,0,1.1-0.1,1.5-0.3l0.2,0.8c-0.3,0.2-0.9,0.4-1.8,0.4
				c-1.7,0-2.6-1.2-2.6-3c0-1.8,1-3.2,2.5-3.2c1.8,0,2.2,1.7,2.2,2.8c0,0.2,0,0.4,0,0.5H35.2z M38.1,176c0-0.7-0.3-1.7-1.4-1.7
				c-1,0-1.4,1-1.5,1.7H38.1z"/>
		</g>
		<g>
			<path class="st2" d="M40,178.4c0.3,0.2,0.8,0.4,1.3,0.4c0.7,0,1-0.4,1-0.9c0-0.5-0.3-0.8-1-1.1c-1-0.4-1.4-1-1.4-1.7
				c0-1,0.7-1.7,1.9-1.7c0.5,0,1,0.2,1.3,0.4l-0.2,0.8c-0.2-0.1-0.6-0.3-1.1-0.3c-0.6,0-0.9,0.4-0.9,0.8c0,0.5,0.3,0.7,1,1
				c0.9,0.4,1.4,0.9,1.4,1.8c0,1-0.7,1.8-2,1.8c-0.6,0-1.1-0.2-1.5-0.4L40,178.4z"/>
		</g>
		<g>
			<path class="st2" d="M45.6,172.2v1.4H47v0.8h-1.4v3.2c0,0.7,0.2,1.1,0.7,1.1c0.3,0,0.4,0,0.6-0.1l0,0.8c-0.2,0.1-0.5,0.2-0.9,0.2
				c-0.5,0-0.8-0.2-1.1-0.5c-0.3-0.3-0.4-0.8-0.4-1.5v-3.2h-0.8v-0.8h0.8v-1.1L45.6,172.2z"/>
		</g>
		<g>
			<path class="st2" d="M48.4,176.7c0,1.5,0.9,2.1,1.8,2.1c0.7,0,1.1-0.1,1.5-0.3l0.2,0.8c-0.3,0.2-0.9,0.4-1.8,0.4
				c-1.7,0-2.6-1.2-2.6-3c0-1.8,1-3.2,2.5-3.2c1.8,0,2.2,1.7,2.2,2.8c0,0.2,0,0.4,0,0.5H48.4z M51.3,176c0-0.7-0.3-1.7-1.4-1.7
				c-1,0-1.4,1-1.5,1.7H51.3z"/>
		</g>
		<g>
			<path class="st2" d="M53.3,175.4c0-0.7,0-1.3,0-1.8h0.9l0,1.2h0c0.2-0.8,0.8-1.3,1.5-1.3c0.1,0,0.2,0,0.3,0v1c-0.1,0-0.2,0-0.3,0
				c-0.7,0-1.2,0.6-1.3,1.4c0,0.1,0,0.3,0,0.5v3.2h-1V175.4z"/>
		</g>
		<g>
			<path class="st2" d="M61.7,176.5c0,2.2-1.4,3.1-2.7,3.1c-1.5,0-2.6-1.2-2.6-3c0-2,1.2-3.1,2.7-3.1
				C60.7,173.5,61.7,174.7,61.7,176.5z M57.4,176.6c0,1.3,0.7,2.3,1.6,2.3c0.9,0,1.6-1,1.6-2.3c0-1-0.5-2.3-1.6-2.3
				C57.9,174.3,57.4,175.4,57.4,176.6z"/>
		</g>
		<g>
			<path class="st2" d="M62.8,170.8h1v8.7h-1V170.8z"/>
		</g>
		<g>
			<path class="st2" d="M66.7,180l3.1-8.9h0.8l-3.1,8.9H66.7z"/>
		</g>
		<g>
			<path class="st2" d="M78.8,179.2c-0.4,0.2-1.1,0.4-2,0.4c-2.1,0-3.7-1.5-3.7-4.2c0-2.6,1.6-4.3,3.9-4.3c0.9,0,1.5,0.2,1.8,0.4
				l-0.2,0.9c-0.4-0.2-0.9-0.3-1.5-0.3c-1.8,0-2.9,1.2-2.9,3.4c0,2,1.1,3.3,2.9,3.3c0.6,0,1.2-0.1,1.6-0.3L78.8,179.2z"/>
		</g>
		<g>
			<path class="st2" d="M79.8,170.8h1v3.7h0c0.2-0.3,0.4-0.6,0.7-0.8c0.3-0.2,0.6-0.3,1-0.3c0.7,0,1.9,0.5,1.9,2.5v3.5h-1v-3.4
				c0-1-0.3-1.8-1.2-1.8c-0.6,0-1.1,0.5-1.3,1.1c-0.1,0.1-0.1,0.3-0.1,0.5v3.6h-1V170.8z"/>
		</g>
		<g>
			<path class="st2" d="M90.7,176.5c0,2.2-1.4,3.1-2.7,3.1c-1.5,0-2.6-1.2-2.6-3c0-2,1.2-3.1,2.7-3.1
				C89.7,173.5,90.7,174.7,90.7,176.5z M86.5,176.6c0,1.3,0.7,2.3,1.6,2.3c0.9,0,1.6-1,1.6-2.3c0-1-0.5-2.3-1.6-2.3
				C87,174.3,86.5,175.4,86.5,176.6z"/>
		</g>
		<g>
			<path class="st2" d="M91.8,170.8h1v8.7h-1V170.8z"/>
		</g>
		<g>
			<path class="st2" d="M94.9,176.7c0,1.5,0.9,2.1,1.8,2.1c0.7,0,1.1-0.1,1.5-0.3l0.2,0.8c-0.3,0.2-0.9,0.4-1.8,0.4
				c-1.7,0-2.6-1.2-2.6-3c0-1.8,1-3.2,2.5-3.2c1.8,0,2.2,1.7,2.2,2.8c0,0.2,0,0.4,0,0.5H94.9z M97.8,176c0-0.7-0.3-1.7-1.4-1.7
				c-1,0-1.4,1-1.5,1.7H97.8z"/>
		</g>
		<g>
			<path class="st2" d="M99.7,178.4c0.3,0.2,0.8,0.4,1.3,0.4c0.7,0,1-0.4,1-0.9c0-0.5-0.3-0.8-1-1.1c-1-0.4-1.4-1-1.4-1.7
				c0-1,0.7-1.7,1.9-1.7c0.5,0,1,0.2,1.3,0.4l-0.2,0.8c-0.2-0.1-0.6-0.3-1.1-0.3c-0.6,0-0.9,0.4-0.9,0.8c0,0.5,0.3,0.7,1,1
				c0.9,0.4,1.4,0.9,1.4,1.8c0,1-0.7,1.8-2,1.8c-0.6,0-1.1-0.2-1.5-0.4L99.7,178.4z"/>
		</g>
		<g>
			<path class="st2" d="M105.3,172.2v1.4h1.4v0.8h-1.4v3.2c0,0.7,0.2,1.1,0.7,1.1c0.3,0,0.4,0,0.6-0.1l0,0.8
				c-0.2,0.1-0.5,0.2-0.9,0.2c-0.5,0-0.8-0.2-1.1-0.5c-0.3-0.3-0.4-0.8-0.4-1.5v-3.2h-0.8v-0.8h0.8v-1.1L105.3,172.2z"/>
		</g>
		<g>
			<path class="st2" d="M108.1,176.7c0,1.5,0.9,2.1,1.8,2.1c0.7,0,1.1-0.1,1.5-0.3l0.2,0.8c-0.3,0.2-0.9,0.4-1.8,0.4
				c-1.7,0-2.6-1.2-2.6-3c0-1.8,1-3.2,2.5-3.2c1.8,0,2.2,1.7,2.2,2.8c0,0.2,0,0.4,0,0.5H108.1z M111,176c0-0.7-0.3-1.7-1.4-1.7
				c-1,0-1.4,1-1.5,1.7H111z M111.2,171l-1.4,1.7h-0.7l1-1.7H111.2z"/>
		</g>
		<g>
			<path class="st2" d="M113,175.4c0-0.7,0-1.3,0-1.8h0.9l0,1.2h0c0.2-0.8,0.8-1.3,1.5-1.3c0.1,0,0.2,0,0.3,0v1c-0.1,0-0.2,0-0.3,0
				c-0.7,0-1.2,0.6-1.3,1.4c0,0.1,0,0.3,0,0.5v3.2h-1V175.4z"/>
		</g>
		<g>
			<path class="st2" d="M121.3,176.5c0,2.2-1.4,3.1-2.7,3.1c-1.5,0-2.6-1.2-2.6-3c0-2,1.2-3.1,2.7-3.1
				C120.2,173.5,121.3,174.7,121.3,176.5z M117,176.6c0,1.3,0.7,2.3,1.6,2.3c0.9,0,1.6-1,1.6-2.3c0-1-0.5-2.3-1.6-2.3
				C117.5,174.3,117,175.4,117,176.6z"/>
		</g>
		<g>
			<path class="st2" d="M122.4,170.8h1v8.7h-1V170.8z"/>
		</g>
		<g>
			<path class="st2" d="M131.6,175.4c0,2.7-0.9,4.2-2.5,4.2c-1.4,0-2.4-1.5-2.4-4.1c0-2.7,1-4.1,2.5-4.1
				C130.8,171.4,131.6,172.9,131.6,175.4z M127.7,175.6c0,2.1,0.6,3.2,1.5,3.2c1,0,1.5-1.3,1.5-3.3c0-2-0.5-3.2-1.5-3.2
				C128.3,172.3,127.7,173.4,127.7,175.6z"/>
		</g>
		<g>
			<path class="st2" d="M135,175.2c0-0.6,0-1.1,0-1.6h0.9l0,1h0c0.3-0.6,0.8-1.1,1.7-1.1c0.7,0,1.3,0.5,1.5,1.2h0
				c0.2-0.3,0.4-0.6,0.6-0.8c0.3-0.3,0.7-0.4,1.2-0.4c0.7,0,1.8,0.5,1.8,2.6v3.5h-1v-3.3c0-1.1-0.4-1.8-1.2-1.8c-0.6,0-1,0.5-1.2,1
				c0,0.1-0.1,0.3-0.1,0.5v3.7h-1V176c0-0.9-0.4-1.6-1.1-1.6c-0.6,0-1.1,0.5-1.2,1.1c-0.1,0.2-0.1,0.3-0.1,0.5v3.6h-1V175.2z"/>
		</g>
		<g>
			<path class="st2" d="M148.7,178.6c0,1.4-0.2,2.2-0.8,2.7c-0.5,0.5-1.3,0.7-2,0.7c-0.6,0-1.4-0.2-1.8-0.5l0.2-0.8
				c0.4,0.2,0.9,0.5,1.6,0.5c1,0,1.7-0.6,1.7-2.1v-0.7h0c-0.3,0.6-0.9,1-1.7,1c-1.3,0-2.3-1.2-2.3-2.9c0-2,1.2-3.1,2.4-3.1
				c0.9,0,1.4,0.5,1.7,1h0l0-0.9h0.9c0,0.4,0,0.9,0,1.6V178.6z M147.7,175.9c0-0.2,0-0.3-0.1-0.5c-0.2-0.6-0.7-1.1-1.4-1.1
				c-0.9,0-1.6,0.9-1.6,2.2c0,1.2,0.5,2.1,1.6,2.1c0.6,0,1.1-0.4,1.4-1.1c0.1-0.2,0.1-0.4,0.1-0.6V175.9z"/>
		</g>
		<g>
			<path class="st2" d="M13.7,195c0.4,0.3,1.1,0.5,1.7,0.5c1,0,1.6-0.6,1.6-1.4c0-0.8-0.4-1.2-1.4-1.6c-1.2-0.5-2-1.2-2-2.3
				c0-1.3,1-2.2,2.4-2.2c0.8,0,1.3,0.2,1.7,0.4l-0.3,0.9c-0.2-0.1-0.7-0.4-1.4-0.4c-1,0-1.4,0.7-1.4,1.2c0,0.8,0.5,1.1,1.5,1.6
				c1.3,0.5,1.9,1.2,1.9,2.4c0,1.3-0.9,2.4-2.6,2.4c-0.7,0-1.5-0.2-1.9-0.5L13.7,195z"/>
		</g>
		<g>
			<path class="st2" d="M24.1,193.3c0,2.2-1.4,3.1-2.7,3.1c-1.5,0-2.6-1.2-2.6-3c0-2,1.2-3.1,2.7-3.1
				C23,190.2,24.1,191.5,24.1,193.3z M19.8,193.3c0,1.3,0.7,2.3,1.6,2.3c0.9,0,1.6-1,1.6-2.3c0-1-0.5-2.3-1.6-2.3
				C20.3,191,19.8,192.2,19.8,193.3z"/>
		</g>
		<g>
			<path class="st2" d="M29.8,187.6v7.1c0,0.5,0,1.1,0,1.5H29l0-1h0c-0.3,0.7-1,1.2-1.8,1.2c-1.3,0-2.3-1.2-2.3-3
				c0-2,1.1-3.2,2.4-3.2c0.8,0,1.4,0.4,1.6,0.9h0v-3.5H29.8z M28.9,192.8c0-0.1,0-0.3,0-0.5c-0.1-0.7-0.7-1.2-1.4-1.2
				c-1,0-1.6,1-1.6,2.3c0,1.2,0.5,2.2,1.6,2.2c0.7,0,1.3-0.5,1.4-1.3c0-0.1,0-0.3,0-0.5V192.8z"/>
		</g>
		<g>
			<path class="st2" d="M32.4,188.7c0,0.4-0.2,0.7-0.6,0.7c-0.3,0-0.6-0.3-0.6-0.7c0-0.4,0.3-0.7,0.6-0.7
				C32.2,188,32.4,188.3,32.4,188.7z M31.4,196.3v-5.9h1v5.9H31.4z"/>
		</g>
		<g>
			<path class="st2" d="M38.3,194.7c0,0.6,0,1.1,0,1.6h-0.9l-0.1-1h0c-0.3,0.5-0.8,1.1-1.8,1.1c-0.8,0-1.9-0.5-1.9-2.6v-3.5h1v3.3
				c0,1.1,0.3,1.9,1.2,1.9c0.7,0,1.1-0.5,1.3-1c0.1-0.2,0.1-0.4,0.1-0.6v-3.6h1V194.7z"/>
		</g>
		<g>
			<path class="st2" d="M39.8,192c0-0.6,0-1.1,0-1.6h0.9l0,1h0c0.3-0.6,0.8-1.1,1.7-1.1c0.7,0,1.3,0.5,1.5,1.2h0
				c0.2-0.3,0.4-0.6,0.6-0.8c0.3-0.3,0.7-0.4,1.2-0.4c0.7,0,1.8,0.5,1.8,2.6v3.5h-1v-3.3c0-1.1-0.4-1.8-1.2-1.8c-0.6,0-1,0.5-1.2,1
				c0,0.1-0.1,0.3-0.1,0.5v3.7h-1v-3.5c0-0.9-0.4-1.6-1.1-1.6c-0.6,0-1.1,0.5-1.2,1.1c-0.1,0.2-0.1,0.3-0.1,0.5v3.6h-1V192z"/>
		</g>
		<g>
			<path class="st2" d="M50.4,196.8l3.1-8.9h0.8l-3.1,8.9H50.4z"/>
		</g>
		<g>
			<path class="st2" d="M57.1,195c0.4,0.3,1.1,0.5,1.7,0.5c1,0,1.6-0.6,1.6-1.4c0-0.8-0.4-1.2-1.4-1.6c-1.2-0.5-2-1.2-2-2.3
				c0-1.3,1-2.2,2.4-2.2c0.8,0,1.3,0.2,1.7,0.4l-0.3,0.9c-0.2-0.1-0.7-0.4-1.4-0.4c-1,0-1.4,0.7-1.4,1.2c0,0.8,0.5,1.1,1.5,1.6
				c1.3,0.5,1.9,1.2,1.9,2.4c0,1.3-0.9,2.4-2.6,2.4c-0.7,0-1.5-0.2-1.9-0.5L57.1,195z"/>
		</g>
		<g>
			<path class="st2" d="M67.4,193.3c0,2.2-1.4,3.1-2.7,3.1c-1.5,0-2.6-1.2-2.6-3c0-2,1.2-3.1,2.7-3.1
				C66.4,190.2,67.4,191.5,67.4,193.3z M63.2,193.3c0,1.3,0.7,2.3,1.6,2.3c0.9,0,1.6-1,1.6-2.3c0-1-0.5-2.3-1.6-2.3
				C63.7,191,63.2,192.2,63.2,193.3z"/>
		</g>
		<g>
			<path class="st2" d="M73.2,187.6v7.1c0,0.5,0,1.1,0,1.5h-0.9l0-1h0c-0.3,0.7-1,1.2-1.8,1.2c-1.3,0-2.3-1.2-2.3-3
				c0-2,1.1-3.2,2.4-3.2c0.8,0,1.4,0.4,1.6,0.9h0v-3.5H73.2z M72.2,192.8c0-0.1,0-0.3,0-0.5c-0.1-0.7-0.7-1.2-1.4-1.2
				c-1,0-1.6,1-1.6,2.3c0,1.2,0.5,2.2,1.6,2.2c0.7,0,1.3-0.5,1.4-1.3c0-0.1,0-0.3,0-0.5V192.8z"/>
		</g>
		<g>
			<path class="st2" d="M75.8,188.7c0,0.4-0.2,0.7-0.6,0.7c-0.3,0-0.6-0.3-0.6-0.7c0-0.4,0.3-0.7,0.6-0.7
				C75.6,188,75.8,188.3,75.8,188.7z M74.7,196.3v-5.9h1v5.9H74.7z"/>
		</g>
		<g>
			<path class="st2" d="M81.7,194.7c0,0.6,0,1.1,0,1.6h-0.9l-0.1-1h0c-0.3,0.5-0.8,1.1-1.8,1.1c-0.8,0-1.9-0.5-1.9-2.6v-3.5h1v3.3
				c0,1.1,0.3,1.9,1.2,1.9c0.7,0,1.1-0.5,1.3-1c0.1-0.2,0.1-0.4,0.1-0.6v-3.6h1V194.7z"/>
		</g>
		<g>
			<path class="st2" d="M83.2,192c0-0.6,0-1.1,0-1.6H84l0,1h0c0.3-0.6,0.8-1.1,1.7-1.1c0.7,0,1.3,0.5,1.5,1.2h0
				c0.2-0.3,0.4-0.6,0.6-0.8c0.3-0.3,0.7-0.4,1.2-0.4c0.7,0,1.8,0.5,1.8,2.6v3.5h-1v-3.3c0-1.1-0.4-1.8-1.2-1.8c-0.6,0-1,0.5-1.2,1
				c0,0.1-0.1,0.3-0.1,0.5v3.7h-1v-3.5c0-0.9-0.4-1.6-1.1-1.6c-0.6,0-1.1,0.5-1.2,1.1c-0.1,0.2-0.1,0.3-0.1,0.5v3.6h-1V192z"/>
		</g>
		<g>
			<path class="st2" d="M94.3,196.3v-0.7l0.8-0.8c1.8-1.9,2.7-3,2.7-4.2c0-0.8-0.4-1.6-1.4-1.6c-0.7,0-1.2,0.4-1.5,0.7l-0.3-0.8
				c0.5-0.5,1.2-0.8,2-0.8c1.6,0,2.2,1.2,2.2,2.3c0,1.5-1,2.7-2.5,4.3l-0.6,0.6v0h3.2v0.9H94.3z"/>
		</g>
		<g>
			<path class="st2" d="M104.1,189.2h-2.8l-0.3,2c0.2,0,0.3,0,0.6,0c0.6,0,1.1,0.1,1.6,0.4c0.6,0.4,1,1,1,2c0,1.6-1.1,2.7-2.7,2.7
				c-0.8,0-1.5-0.2-1.8-0.5l0.2-0.8c0.3,0.2,0.9,0.4,1.5,0.4c0.9,0,1.7-0.7,1.7-1.7c0-1-0.6-1.8-2.1-1.8c-0.4,0-0.7,0-1,0.1l0.5-3.8
				h3.5V189.2z"/>
		</g>
		<g>
			<path class="st2" d="M110.2,192.2c0,2.7-0.9,4.2-2.5,4.2c-1.4,0-2.4-1.5-2.4-4.1c0-2.7,1-4.1,2.5-4.1
				C109.3,188.2,110.2,189.7,110.2,192.2z M106.3,192.3c0,2.1,0.6,3.2,1.5,3.2c1,0,1.5-1.3,1.5-3.3c0-2-0.5-3.2-1.5-3.2
				C106.9,189,106.3,190.2,106.3,192.3z"/>
		</g>
		<g>
			<path class="st2" d="M113.5,192c0-0.6,0-1.1,0-1.6h0.9l0,1h0c0.3-0.6,0.8-1.1,1.7-1.1c0.7,0,1.3,0.5,1.5,1.2h0
				c0.2-0.3,0.4-0.6,0.6-0.8c0.3-0.3,0.7-0.4,1.2-0.4c0.7,0,1.8,0.5,1.8,2.6v3.5h-1v-3.3c0-1.1-0.4-1.8-1.2-1.8c-0.6,0-1,0.5-1.2,1
				c0,0.1-0.1,0.3-0.1,0.5v3.7h-1v-3.5c0-0.9-0.4-1.6-1.1-1.6c-0.6,0-1.1,0.5-1.2,1.1c-0.1,0.2-0.1,0.3-0.1,0.5v3.6h-1V192z"/>
		</g>
		<g>
			<path class="st2" d="M127.3,195.4c0,1.4-0.2,2.2-0.8,2.7c-0.5,0.5-1.3,0.7-2,0.7c-0.6,0-1.4-0.2-1.8-0.5l0.2-0.8
				c0.4,0.2,0.9,0.5,1.6,0.5c1,0,1.7-0.6,1.7-2.1v-0.7h0c-0.3,0.6-0.9,1-1.7,1c-1.3,0-2.3-1.2-2.3-2.9c0-2,1.2-3.1,2.4-3.1
				c0.9,0,1.4,0.5,1.7,1h0l0-0.9h0.9c0,0.4,0,0.9,0,1.6V195.4z M126.3,192.7c0-0.2,0-0.3-0.1-0.5c-0.2-0.6-0.7-1.1-1.4-1.1
				c-0.9,0-1.6,0.9-1.6,2.2c0,1.2,0.5,2.1,1.6,2.1c0.6,0,1.1-0.4,1.4-1.1c0.1-0.2,0.1-0.4,0.1-0.6V192.7z"/>
		</g>
		<g>
			<path class="st2" d="M173.2,192.1c-0.8-0.4-1.1-1.1-1.1-1.8c0-1.3,1-2.1,2.2-2.1c1.4,0,2.1,1,2.1,2c0,0.7-0.3,1.4-1.2,1.9v0
				c0.9,0.4,1.5,1.1,1.5,2.1c0,1.4-1.1,2.3-2.5,2.3c-1.5,0-2.4-1-2.4-2.2C171.8,193.3,172.3,192.6,173.2,192.1L173.2,192.1z
				 M175.6,194.2c0-1-0.6-1.4-1.6-1.7c-0.8,0.3-1.3,0.9-1.3,1.6c0,0.8,0.5,1.5,1.4,1.5C175.1,195.6,175.6,195,175.6,194.2z
				 M173,190.2c0,0.8,0.5,1.2,1.4,1.5c0.6-0.2,1.1-0.7,1.1-1.4c0-0.6-0.3-1.3-1.2-1.3C173.4,189,173,189.6,173,190.2z"/>
		</g>
		<g>
			<path class="st2" d="M181.2,188.2c1,0,1.7,0.9,1.7,2.4c0,1.7-0.8,2.5-1.7,2.5c-0.9,0-1.7-0.8-1.7-2.4
				C179.5,189.1,180.3,188.2,181.2,188.2L181.2,188.2z M181.2,188.8c-0.6,0-0.9,0.8-0.9,1.8c0,1,0.3,1.8,0.9,1.8
				c0.6,0,0.9-0.8,0.9-1.8C182.1,189.7,181.9,188.8,181.2,188.8L181.2,188.8z M181.1,196.4l4.2-8.2h0.6l-4.2,8.2H181.1z M186,191.5
				c1,0,1.7,0.9,1.7,2.4c0,1.7-0.8,2.5-1.7,2.5c-0.9,0-1.7-0.8-1.7-2.4C184.2,192.4,185,191.5,186,191.5L186,191.5z M185.9,192.1
				c-0.6,0-0.9,0.8-0.9,1.8c0,1,0.3,1.8,0.9,1.8c0.6,0,0.9-0.8,0.9-1.8C186.8,192.9,186.6,192.1,185.9,192.1L185.9,192.1z"/>
		</g>
		<g>
			<path class="st2" d="M19.1,212.8c-0.4,0.2-1.1,0.4-2,0.4c-2.1,0-3.7-1.5-3.7-4.2c0-2.6,1.6-4.3,3.9-4.3c0.9,0,1.5,0.2,1.8,0.4
				l-0.2,0.9c-0.4-0.2-0.9-0.3-1.5-0.3c-1.8,0-2.9,1.2-2.9,3.4c0,2,1.1,3.3,2.9,3.3c0.6,0,1.2-0.1,1.6-0.3L19.1,212.8z"/>
		</g>
		<g>
			<path class="st2" d="M23.8,211.6c0,0.5,0,1,0.1,1.4H23l-0.1-0.7h0c-0.3,0.5-0.9,0.9-1.6,0.9c-1.1,0-1.6-0.8-1.6-1.7
				c0-1.4,1.2-2.2,3.2-2.2v-0.1c0-0.5-0.1-1.4-1.2-1.4c-0.5,0-1,0.2-1.4,0.4l-0.2-0.7c0.4-0.3,1.1-0.5,1.8-0.5c1.6,0,2,1.2,2,2.4
				V211.6z M22.9,210c-1.1,0-2.3,0.2-2.3,1.3c0,0.7,0.4,1,0.9,1c0.7,0,1.1-0.5,1.3-1c0-0.1,0.1-0.2,0.1-0.3V210z"/>
		</g>
		<g>
			<path class="st2" d="M25.3,209c0-0.7,0-1.3,0-1.8h0.9l0,1.2h0c0.2-0.8,0.8-1.3,1.5-1.3c0.1,0,0.2,0,0.3,0v1c-0.1,0-0.2,0-0.3,0
				c-0.7,0-1.2,0.6-1.3,1.4c0,0.1,0,0.3,0,0.5v3.2h-1V209z"/>
		</g>
		<g>
			<path class="st2" d="M28.8,204.4h1v3.7h0c0.3-0.7,1-1.1,1.8-1.1c1.3,0,2.3,1.2,2.3,3c0,2.1-1.2,3.2-2.4,3.2
				c-0.8,0-1.4-0.3-1.8-1.1h0l0,1h-0.8c0-0.4,0-1,0-1.5V204.4z M29.8,210.7c0,0.1,0,0.3,0,0.4c0.2,0.7,0.8,1.3,1.5,1.3
				c1,0,1.6-0.9,1.6-2.3c0-1.2-0.6-2.2-1.6-2.2c-0.7,0-1.3,0.5-1.5,1.3c0,0.1-0.1,0.3-0.1,0.4V210.7z"/>
		</g>
		<g>
			<path class="st2" d="M39.9,210.1c0,2.2-1.4,3.1-2.7,3.1c-1.5,0-2.6-1.2-2.6-3c0-2,1.2-3.1,2.7-3.1
				C38.9,207,39.9,208.2,39.9,210.1z M35.6,210.1c0,1.3,0.7,2.3,1.6,2.3c0.9,0,1.6-1,1.6-2.3c0-1-0.5-2.3-1.6-2.3
				C36.1,207.8,35.6,209,35.6,210.1z"/>
		</g>
		<g>
			<path class="st2" d="M41,204.4h1v3.7h0c0.2-0.3,0.4-0.6,0.7-0.8c0.3-0.2,0.6-0.3,1-0.3c0.7,0,1.9,0.5,1.9,2.5v3.5h-1v-3.4
				c0-1-0.3-1.8-1.2-1.8c-0.6,0-1.1,0.5-1.3,1.1c-0.1,0.1-0.1,0.3-0.1,0.5v3.6h-1V204.4z"/>
		</g>
		<g>
			<path class="st2" d="M47.4,207.1l1.2,3.5c0.1,0.4,0.3,0.9,0.3,1.2h0c0.1-0.4,0.2-0.8,0.3-1.2l1.1-3.5h1l-1.5,4.2
				c-0.7,2-1.2,3.1-1.8,3.7c-0.5,0.5-1,0.6-1.2,0.7l-0.2-0.9c0.2-0.1,0.6-0.3,0.9-0.5c0.3-0.2,0.6-0.6,0.8-1.2
				c0-0.1,0.1-0.2,0.1-0.3c0-0.1,0-0.1-0.1-0.3l-2-5.5H47.4z"/>
		</g>
		<g>
			<path class="st2" d="M56.7,204.4v7.1c0,0.5,0,1.1,0,1.5h-0.9l0-1h0c-0.3,0.7-1,1.2-1.8,1.2c-1.3,0-2.3-1.2-2.3-3
				c0-2,1.1-3.2,2.4-3.2c0.8,0,1.4,0.4,1.6,0.9h0v-3.5H56.7z M55.7,209.5c0-0.1,0-0.3,0-0.5c-0.1-0.7-0.7-1.2-1.4-1.2
				c-1,0-1.6,1-1.6,2.3c0,1.2,0.5,2.2,1.6,2.2c0.7,0,1.3-0.5,1.4-1.3c0-0.1,0-0.3,0-0.5V209.5z"/>
		</g>
		<g>
			<path class="st2" d="M58.2,209c0-0.7,0-1.3,0-1.8H59l0,1.2h0c0.2-0.8,0.8-1.3,1.5-1.3c0.1,0,0.2,0,0.3,0v1c-0.1,0-0.2,0-0.3,0
				c-0.7,0-1.2,0.6-1.3,1.4c0,0.1,0,0.3,0,0.5v3.2h-1V209z"/>
		</g>
		<g>
			<path class="st2" d="M65.4,211.6c0,0.5,0,1,0.1,1.4h-0.9l-0.1-0.7h0c-0.3,0.5-0.9,0.9-1.6,0.9c-1.1,0-1.6-0.8-1.6-1.7
				c0-1.4,1.2-2.2,3.2-2.2v-0.1c0-0.5-0.1-1.4-1.2-1.4c-0.5,0-1,0.2-1.4,0.4l-0.2-0.7c0.4-0.3,1.1-0.5,1.8-0.5c1.6,0,2,1.2,2,2.4
				V211.6z M64.5,210c-1.1,0-2.3,0.2-2.3,1.3c0,0.7,0.4,1,0.9,1c0.7,0,1.1-0.5,1.3-1c0-0.1,0.1-0.2,0.1-0.3V210z"/>
		</g>
		<g>
			<path class="st2" d="M68,205.7v1.4h1.4v0.8H68v3.2c0,0.7,0.2,1.1,0.7,1.1c0.3,0,0.4,0,0.6-0.1l0,0.8c-0.2,0.1-0.5,0.2-0.9,0.2
				c-0.5,0-0.8-0.2-1.1-0.5c-0.3-0.3-0.4-0.8-0.4-1.5V208h-0.8v-0.8h0.8v-1.1L68,205.7z"/>
		</g>
		<g>
			<path class="st2" d="M70.9,210.3c0,1.5,0.9,2.1,1.8,2.1c0.7,0,1.1-0.1,1.5-0.3l0.2,0.8c-0.3,0.2-0.9,0.4-1.8,0.4
				c-1.7,0-2.6-1.2-2.6-3c0-1.8,1-3.2,2.5-3.2c1.8,0,2.2,1.7,2.2,2.8c0,0.2,0,0.4,0,0.5H70.9z M73.8,209.5c0-0.7-0.3-1.7-1.4-1.7
				c-1,0-1.4,1-1.5,1.7H73.8z"/>
		</g>
		<g>
			<path class="st2" d="M77.2,213.5l3.1-8.9h0.8l-3.1,8.9H77.2z"/>
		</g>
		<g>
			<path class="st2" d="M89.7,212.7c-0.4,0.2-1.3,0.5-2.3,0.5c-1.1,0-2.1-0.3-2.8-1.1c-0.6-0.7-1-1.8-1-3.1c0-2.5,1.5-4.3,4-4.3
				c0.9,0,1.5,0.2,1.9,0.4l-0.2,0.9c-0.4-0.2-0.9-0.4-1.7-0.4c-1.8,0-3,1.2-3,3.3c0,2.1,1.1,3.3,2.9,3.3c0.6,0,1.1-0.1,1.3-0.2v-2.5
				h-1.5v-0.9h2.5V212.7z"/>
		</g>
		<g>
			<path class="st2" d="M91,204.4h1v8.7h-1V204.4z"/>
		</g>
		<g>
			<path class="st2" d="M98,211.4c0,0.6,0,1.1,0,1.6h-0.9l-0.1-1h0c-0.3,0.5-0.8,1.1-1.8,1.1c-0.8,0-1.9-0.5-1.9-2.6v-3.5h1v3.3
				c0,1.1,0.3,1.9,1.2,1.9c0.7,0,1.1-0.5,1.3-1c0.1-0.2,0.1-0.4,0.1-0.6v-3.6h1V211.4z"/>
		</g>
		<g>
			<path class="st2" d="M103.4,212.8c-0.3,0.1-0.8,0.4-1.5,0.4c-1.6,0-2.7-1.2-2.7-3c0-1.8,1.1-3.1,2.9-3.1c0.6,0,1.1,0.2,1.4,0.3
				l-0.2,0.8c-0.2-0.1-0.6-0.3-1.1-0.3c-1.2,0-1.9,1-1.9,2.2c0,1.4,0.8,2.2,1.9,2.2c0.6,0,0.9-0.2,1.2-0.3L103.4,212.8z"/>
		</g>
		<g>
			<path class="st2" d="M105.5,205.5c0,0.4-0.2,0.7-0.6,0.7c-0.3,0-0.6-0.3-0.6-0.7c0-0.4,0.3-0.7,0.6-0.7
				C105.3,204.8,105.5,205.1,105.5,205.5z M104.4,213.1v-5.9h1v5.9H104.4z"/>
		</g>
		<g>
			<path class="st2" d="M111.5,204.4v7.1c0,0.5,0,1.1,0,1.5h-0.9l0-1h0c-0.3,0.7-1,1.2-1.8,1.2c-1.3,0-2.3-1.2-2.3-3
				c0-2,1.1-3.2,2.4-3.2c0.8,0,1.4,0.4,1.6,0.9h0v-3.5H111.5z M110.5,209.5c0-0.1,0-0.3,0-0.5c-0.1-0.7-0.7-1.2-1.4-1.2
				c-1,0-1.6,1-1.6,2.3c0,1.2,0.5,2.2,1.6,2.2c0.7,0,1.3-0.5,1.4-1.3c0-0.1,0-0.3,0-0.5V209.5z"/>
		</g>
		<g>
			<path class="st2" d="M113.6,210.3c0,1.5,0.9,2.1,1.8,2.1c0.7,0,1.1-0.1,1.5-0.3l0.2,0.8c-0.3,0.2-0.9,0.4-1.8,0.4
				c-1.7,0-2.6-1.2-2.6-3c0-1.8,1-3.2,2.5-3.2c1.8,0,2.2,1.7,2.2,2.8c0,0.2,0,0.4,0,0.5H113.6z M116.4,209.5c0-0.7-0.3-1.7-1.4-1.7
				c-1,0-1.4,1-1.5,1.7H116.4z"/>
		</g>
		<g>
			<path class="st2" d="M118.3,212c0.3,0.2,0.8,0.4,1.3,0.4c0.7,0,1-0.4,1-0.9c0-0.5-0.3-0.8-1-1.1c-1-0.4-1.4-1-1.4-1.7
				c0-1,0.7-1.7,1.9-1.7c0.5,0,1,0.2,1.3,0.4l-0.2,0.8c-0.2-0.1-0.6-0.3-1.1-0.3c-0.6,0-0.9,0.4-0.9,0.8c0,0.5,0.3,0.7,1,1
				c0.9,0.4,1.4,0.9,1.4,1.8c0,1-0.7,1.8-2,1.8c-0.6,0-1.1-0.2-1.5-0.4L118.3,212z"/>
		</g>
		<g>
			<path class="st2" d="M126.8,206.1L126.8,206.1l-1.3,0.7l-0.2-0.8l1.6-0.9h0.8v7.9h-0.9V206.1z"/>
		</g>
		<g>
			<path class="st2" d="M134.6,206h-2.8l-0.3,2c0.2,0,0.3,0,0.6,0c0.6,0,1.1,0.1,1.6,0.4c0.6,0.4,1,1,1,2c0,1.6-1.1,2.7-2.7,2.7
				c-0.8,0-1.5-0.2-1.8-0.5l0.2-0.8c0.3,0.2,0.9,0.4,1.5,0.4c0.9,0,1.7-0.7,1.7-1.7c0-1-0.6-1.8-2.1-1.8c-0.4,0-0.7,0-1,0.1l0.5-3.8
				h3.5V206z"/>
		</g>
		<g>
			<path class="st2" d="M136.6,213.2c-0.4,0-0.6-0.3-0.6-0.8c0-0.5,0.3-0.8,0.7-0.8c0.4,0,0.7,0.3,0.7,0.8
				C137.2,212.9,137,213.2,136.6,213.2L136.6,213.2z"/>
		</g>
		<g>
			<path class="st2" d="M141.1,213.1v-2.2h-3.4v-0.7l3.2-5.1h1.1v4.9h1v0.8h-1v2.2H141.1z M141.1,210.1v-2.7c0-0.4,0-0.8,0-1.2h0
				c-0.2,0.5-0.4,0.8-0.6,1.2l-1.8,2.7v0H141.1z"/>
		</g>
		<g>
			<path class="st2" d="M150.7,212.2c0,1.4-0.2,2.2-0.8,2.7c-0.5,0.5-1.3,0.7-2,0.7c-0.6,0-1.4-0.2-1.8-0.5l0.2-0.8
				c0.4,0.2,0.9,0.5,1.6,0.5c1,0,1.7-0.6,1.7-2.1V212h0c-0.3,0.6-0.9,1-1.7,1c-1.3,0-2.3-1.2-2.3-2.9c0-2,1.2-3.1,2.4-3.1
				c0.9,0,1.4,0.5,1.7,1h0l0-0.9h0.9c0,0.4,0,0.9,0,1.6V212.2z M149.8,209.5c0-0.2,0-0.3-0.1-0.5c-0.2-0.6-0.7-1.1-1.4-1.1
				c-0.9,0-1.6,0.9-1.6,2.2c0,1.2,0.5,2.1,1.6,2.1c0.6,0,1.1-0.4,1.4-1.1c0.1-0.2,0.1-0.4,0.1-0.6V209.5z"/>
		</g>
		<g>
			<path class="st2" d="M176,205.9c-0.2,0-0.5,0-0.7,0c-1.5,0.3-2.3,1.5-2.5,2.8h0c0.3-0.5,0.9-0.9,1.7-0.9c1.3,0,2.2,1,2.2,2.6
				c0,1.5-0.9,2.8-2.4,2.8c-1.5,0-2.6-1.3-2.6-3.4c0-1.6,0.5-2.8,1.2-3.6c0.6-0.6,1.4-1.1,2.3-1.2c0.3,0,0.5-0.1,0.7-0.1V205.9z
				 M174.3,212.4c0.8,0,1.4-0.8,1.4-1.9s-0.6-1.8-1.5-1.8c-0.6,0-1.1,0.4-1.4,1c-0.1,0.1-0.1,0.3-0.1,0.5
				C172.7,211.4,173.3,212.4,174.3,212.4L174.3,212.4z"/>
		</g>
		<g>
			<path class="st2" d="M181.2,205c1,0,1.7,0.9,1.7,2.4c0,1.7-0.8,2.5-1.7,2.5c-0.9,0-1.7-0.8-1.7-2.4
				C179.5,205.9,180.3,205,181.2,205L181.2,205z M181.2,205.6c-0.6,0-0.9,0.8-0.9,1.8c0,1,0.3,1.8,0.9,1.8c0.6,0,0.9-0.8,0.9-1.8
				C182.1,206.4,181.9,205.6,181.2,205.6L181.2,205.6z M181.1,213.2l4.2-8.2h0.6l-4.2,8.2H181.1z M186,208.3c1,0,1.7,0.9,1.7,2.4
				c0,1.7-0.8,2.5-1.7,2.5c-0.9,0-1.7-0.8-1.7-2.4C184.2,209.2,185,208.3,186,208.3L186,208.3z M185.9,208.9c-0.6,0-0.9,0.8-0.9,1.8
				c0,1,0.3,1.8,0.9,1.8c0.6,0,0.9-0.8,0.9-1.8C186.8,209.7,186.6,208.9,185.9,208.9L185.9,208.9z"/>
		</g>
		<g>
			<path class="st2" d="M21.1,221.6h4v0.9H22v2.7h2.8v0.9H22v3.7h-1V221.6z"/>
		</g>
		<g>
			<path class="st2" d="M27.1,222.3c0,0.4-0.2,0.7-0.6,0.7c-0.3,0-0.6-0.3-0.6-0.7c0-0.4,0.3-0.7,0.6-0.7
				C26.9,221.6,27.1,221.9,27.1,222.3z M26,229.8v-5.9h1v5.9H26z"/>
		</g>
		<g>
			<path class="st2" d="M28.5,221.2h1v3.7h0c0.3-0.7,1-1.1,1.8-1.1c1.3,0,2.3,1.2,2.3,3c0,2.1-1.2,3.2-2.4,3.2
				c-0.8,0-1.4-0.3-1.8-1.1h0l0,1h-0.8c0-0.4,0-1,0-1.5V221.2z M29.5,227.5c0,0.1,0,0.3,0,0.4c0.2,0.7,0.8,1.3,1.5,1.3
				c1,0,1.6-0.9,1.6-2.3c0-1.2-0.6-2.2-1.6-2.2c-0.7,0-1.3,0.5-1.5,1.3c0,0.1-0.1,0.3-0.1,0.4V227.5z"/>
		</g>
		<g>
			<path class="st2" d="M34.7,225.8c0-0.7,0-1.3,0-1.8h0.9l0,1.2h0c0.2-0.8,0.8-1.3,1.5-1.3c0.1,0,0.2,0,0.3,0v1c-0.1,0-0.2,0-0.3,0
				c-0.7,0-1.2,0.6-1.3,1.4c0,0.1,0,0.3,0,0.5v3.2h-1V225.8z"/>
		</g>
		<g>
			<path class="st2" d="M38.7,227.1c0,1.5,0.9,2.1,1.8,2.1c0.7,0,1.1-0.1,1.5-0.3l0.2,0.8c-0.3,0.2-0.9,0.4-1.8,0.4
				c-1.7,0-2.6-1.2-2.6-3c0-1.8,1-3.2,2.5-3.2c1.8,0,2.2,1.7,2.2,2.8c0,0.2,0,0.4,0,0.5H38.7z M41.5,226.3c0-0.7-0.3-1.7-1.4-1.7
				c-1,0-1.4,1-1.5,1.7H41.5z"/>
		</g>
		<g>
			<path class="st2" d="M45,230.3l3.1-8.9h0.8l-3.1,8.9H45z"/>
		</g>
		<g>
			<path class="st2" d="M51.8,221.6h4v0.9h-3.1v2.7h2.8v0.9h-2.8v3.7h-1V221.6z"/>
		</g>
		<g>
			<path class="st2" d="M57.8,222.3c0,0.4-0.2,0.7-0.6,0.7c-0.3,0-0.6-0.3-0.6-0.7c0-0.4,0.3-0.7,0.6-0.7
				C57.6,221.6,57.8,221.9,57.8,222.3z M56.8,229.8v-5.9h1v5.9H56.8z"/>
		</g>
		<g>
			<path class="st2" d="M59.2,221.2h1v3.7h0c0.3-0.7,1-1.1,1.8-1.1c1.3,0,2.3,1.2,2.3,3c0,2.1-1.2,3.2-2.4,3.2
				c-0.8,0-1.4-0.3-1.8-1.1h0l0,1h-0.8c0-0.4,0-1,0-1.5V221.2z M60.2,227.5c0,0.1,0,0.3,0,0.4c0.2,0.7,0.8,1.3,1.5,1.3
				c1,0,1.6-0.9,1.6-2.3c0-1.2-0.6-2.2-1.6-2.2c-0.7,0-1.3,0.5-1.5,1.3c0,0.1-0.1,0.3-0.1,0.4V227.5z"/>
		</g>
		<g>
			<path class="st2" d="M65.4,225.8c0-0.7,0-1.3,0-1.8h0.9l0,1.2h0c0.2-0.8,0.8-1.3,1.5-1.3c0.1,0,0.2,0,0.3,0v1c-0.1,0-0.2,0-0.3,0
				c-0.7,0-1.2,0.6-1.3,1.4c0,0.1,0,0.3,0,0.5v3.2h-1V225.8z"/>
		</g>
		<g>
			<path class="st2" d="M69.4,227.1c0,1.5,0.9,2.1,1.8,2.1c0.7,0,1.1-0.1,1.5-0.3l0.2,0.8c-0.3,0.2-0.9,0.4-1.8,0.4
				c-1.7,0-2.6-1.2-2.6-3c0-1.8,1-3.2,2.5-3.2c1.8,0,2.2,1.7,2.2,2.8c0,0.2,0,0.4,0,0.5H69.4z M72.2,226.3c0-0.7-0.3-1.7-1.4-1.7
				c-1,0-1.4,1-1.5,1.7H72.2z"/>
		</g>
		<g>
			<path class="st2" d="M74.2,228.7c0.3,0.2,0.8,0.4,1.3,0.4c0.7,0,1-0.4,1-0.9c0-0.5-0.3-0.8-1-1.1c-1-0.4-1.4-1-1.4-1.7
				c0-1,0.7-1.7,1.9-1.7c0.5,0,1,0.2,1.3,0.4l-0.2,0.8c-0.2-0.1-0.6-0.3-1.1-0.3c-0.6,0-0.9,0.4-0.9,0.8c0,0.5,0.3,0.7,1,1
				c0.9,0.4,1.4,0.9,1.4,1.8c0,1-0.7,1.8-2,1.8c-0.6,0-1.1-0.2-1.5-0.4L74.2,228.7z"/>
		</g>
		<g>
			<path class="st2" d="M85.3,225.8c0,2.7-0.9,4.2-2.5,4.2c-1.4,0-2.4-1.5-2.4-4.1c0-2.7,1-4.1,2.5-4.1
				C84.4,221.8,85.3,223.2,85.3,225.8z M81.4,225.9c0,2.1,0.6,3.2,1.5,3.2c1,0,1.5-1.3,1.5-3.3c0-2-0.5-3.2-1.5-3.2
				C82,222.6,81.4,223.7,81.4,225.9z"/>
		</g>
		<g>
			<path class="st2" d="M86.8,230c-0.4,0-0.6-0.3-0.6-0.8c0-0.5,0.3-0.8,0.7-0.8c0.4,0,0.7,0.3,0.7,0.8
				C87.5,229.6,87.2,230,86.8,230L86.8,230z"/>
		</g>
		<g>
			<path class="st2" d="M88.5,228.6c0.3,0.2,0.9,0.5,1.6,0.5c1.3,0,1.6-0.9,1.6-1.5c0-1.1-0.9-1.6-1.9-1.6h-0.5v-0.8h0.5
				c0.7,0,1.6-0.4,1.6-1.3c0-0.6-0.4-1.2-1.3-1.2c-0.6,0-1.1,0.3-1.4,0.5l-0.3-0.8c0.4-0.3,1.1-0.6,1.9-0.6c1.4,0,2.1,0.9,2.1,1.9
				c0,0.8-0.4,1.5-1.3,1.9v0c0.9,0.2,1.6,0.9,1.6,2c0,1.3-0.9,2.4-2.6,2.4c-0.8,0-1.5-0.3-1.9-0.5L88.5,228.6z"/>
		</g>
		<g>
			<path class="st2" d="M101,229c0,1.4-0.2,2.2-0.8,2.7c-0.5,0.5-1.3,0.7-2,0.7c-0.6,0-1.4-0.2-1.8-0.5l0.2-0.8
				c0.4,0.2,0.9,0.5,1.6,0.5c1,0,1.7-0.6,1.7-2.1v-0.7h0c-0.3,0.6-0.9,1-1.7,1c-1.3,0-2.3-1.2-2.3-2.9c0-2,1.2-3.1,2.4-3.1
				c0.9,0,1.4,0.5,1.7,1h0l0-0.9h0.9c0,0.4,0,0.9,0,1.6V229z M100,226.3c0-0.2,0-0.3-0.1-0.5c-0.2-0.6-0.7-1.1-1.4-1.1
				c-0.9,0-1.6,0.9-1.6,2.2c0,1.2,0.5,2.1,1.6,2.1c0.6,0,1.1-0.4,1.4-1.1c0.1-0.2,0.1-0.4,0.1-0.6V226.3z"/>
		</g>
		<g>
			<path class="st2" d="M176.6,225.8c0,2.7-0.9,4.2-2.5,4.2c-1.4,0-2.4-1.5-2.4-4.1c0-2.7,1-4.1,2.5-4.1
				C175.8,221.8,176.6,223.2,176.6,225.8z M172.7,225.9c0,2.1,0.6,3.2,1.5,3.2c1,0,1.5-1.3,1.5-3.3c0-2-0.5-3.2-1.5-3.2
				C173.3,222.6,172.7,223.7,172.7,225.9z"/>
		</g>
		<g>
			<path class="st2" d="M181.2,221.8c1,0,1.7,0.9,1.7,2.4c0,1.7-0.8,2.5-1.7,2.5c-0.9,0-1.7-0.8-1.7-2.4
				C179.5,222.6,180.3,221.8,181.2,221.8L181.2,221.8z M181.2,222.4c-0.6,0-0.9,0.8-0.9,1.8c0,1,0.3,1.8,0.9,1.8
				c0.6,0,0.9-0.8,0.9-1.8C182.1,223.2,181.9,222.4,181.2,222.4L181.2,222.4z M181.1,230l4.2-8.2h0.6l-4.2,8.2H181.1z M186,225
				c1,0,1.7,0.9,1.7,2.4c0,1.7-0.8,2.5-1.7,2.5c-0.9,0-1.7-0.8-1.7-2.4C184.2,225.9,185,225,186,225L186,225z M185.9,225.7
				c-0.6,0-0.9,0.8-0.9,1.8c0,1,0.3,1.8,0.9,1.8c0.6,0,0.9-0.8,0.9-1.8C186.8,226.5,186.6,225.7,185.9,225.7L185.9,225.7z"/>
		</g>
		<g>
			<path class="st2" d="M20.9,245.3c0.4,0.3,1.1,0.5,1.7,0.5c1,0,1.6-0.6,1.6-1.4c0-0.8-0.4-1.2-1.4-1.6c-1.2-0.5-2-1.2-2-2.3
				c0-1.3,1-2.2,2.4-2.2c0.8,0,1.3,0.2,1.7,0.4l-0.3,0.9c-0.2-0.1-0.7-0.4-1.4-0.4c-1,0-1.4,0.7-1.4,1.2c0,0.8,0.5,1.1,1.5,1.6
				c1.3,0.5,1.9,1.2,1.9,2.4c0,1.3-0.9,2.4-2.6,2.4c-0.7,0-1.5-0.2-1.9-0.5L20.9,245.3z"/>
		</g>
		<g>
			<path class="st2" d="M30.9,245c0,0.6,0,1.1,0,1.6h-0.9l-0.1-1h0c-0.3,0.5-0.8,1.1-1.8,1.1c-0.8,0-1.9-0.5-1.9-2.6v-3.5h1v3.3
				c0,1.1,0.3,1.9,1.2,1.9c0.7,0,1.1-0.5,1.3-1c0.1-0.2,0.1-0.4,0.1-0.6v-3.6h1V245z"/>
		</g>
		<g>
			<path class="st2" d="M37,245.8c0,1.4-0.2,2.2-0.8,2.7c-0.5,0.5-1.3,0.7-2,0.7c-0.6,0-1.4-0.2-1.8-0.5l0.2-0.8
				c0.4,0.2,0.9,0.5,1.6,0.5c1,0,1.7-0.6,1.7-2.1v-0.7h0c-0.3,0.6-0.9,1-1.7,1c-1.3,0-2.3-1.2-2.3-2.9c0-2,1.2-3.1,2.4-3.1
				c0.9,0,1.4,0.5,1.7,1h0l0-0.9H37c0,0.4,0,0.9,0,1.6V245.8z M36,243c0-0.2,0-0.3-0.1-0.5c-0.2-0.6-0.7-1.1-1.4-1.1
				c-0.9,0-1.6,0.9-1.6,2.2c0,1.2,0.5,2.1,1.6,2.1c0.6,0,1.1-0.4,1.4-1.1c0.1-0.2,0.1-0.4,0.1-0.6V243z"/>
		</g>
		<g>
			<path class="st2" d="M42.3,245.2c0,0.5,0,1,0.1,1.4h-0.9l-0.1-0.7h0c-0.3,0.5-0.9,0.9-1.6,0.9c-1.1,0-1.6-0.8-1.6-1.7
				c0-1.4,1.2-2.2,3.2-2.2v-0.1c0-0.5-0.1-1.4-1.2-1.4c-0.5,0-1,0.2-1.4,0.4l-0.2-0.7c0.4-0.3,1.1-0.5,1.8-0.5c1.6,0,2,1.2,2,2.4
				V245.2z M41.3,243.6c-1.1,0-2.3,0.2-2.3,1.3c0,0.7,0.4,1,0.9,1c0.7,0,1.1-0.5,1.3-1c0-0.1,0.1-0.2,0.1-0.3V243.6z"/>
		</g>
		<g>
			<path class="st2" d="M43.7,242.5c0-0.7,0-1.3,0-1.8h0.9l0,1.2h0c0.2-0.8,0.8-1.3,1.5-1.3c0.1,0,0.2,0,0.3,0v1c-0.1,0-0.2,0-0.3,0
				c-0.7,0-1.2,0.6-1.3,1.4c0,0.1,0,0.3,0,0.5v3.2h-1V242.5z"/>
		</g>
		<g>
			<path class="st2" d="M47.1,245.5c0.3,0.2,0.8,0.4,1.3,0.4c0.7,0,1-0.4,1-0.9c0-0.5-0.3-0.8-1-1.1c-1-0.4-1.4-1-1.4-1.7
				c0-1,0.7-1.7,1.9-1.7c0.5,0,1,0.2,1.3,0.4l-0.2,0.8c-0.2-0.1-0.6-0.3-1.1-0.3c-0.6,0-0.9,0.4-0.9,0.8c0,0.5,0.3,0.7,1,1
				c0.9,0.4,1.4,0.9,1.4,1.8c0,1-0.7,1.8-2,1.8c-0.6,0-1.1-0.2-1.5-0.4L47.1,245.5z"/>
		</g>
		<g>
			<path class="st2" d="M52.9,247.1l3.1-8.9h0.8l-3.1,8.9H52.9z"/>
		</g>
		<g>
			<path class="st2" d="M59.6,245.3c0.4,0.3,1.1,0.5,1.7,0.5c1,0,1.6-0.6,1.6-1.4c0-0.8-0.4-1.2-1.4-1.6c-1.2-0.5-2-1.2-2-2.3
				c0-1.3,1-2.2,2.4-2.2c0.8,0,1.3,0.2,1.7,0.4l-0.3,0.9c-0.2-0.1-0.7-0.4-1.4-0.4c-1,0-1.4,0.7-1.4,1.2c0,0.8,0.5,1.1,1.5,1.6
				c1.3,0.5,1.9,1.2,1.9,2.4c0,1.3-0.9,2.4-2.6,2.4c-0.7,0-1.5-0.2-1.9-0.5L59.6,245.3z"/>
		</g>
		<g>
			<path class="st2" d="M69.5,245c0,0.6,0,1.1,0,1.6h-0.9l-0.1-1h0c-0.3,0.5-0.8,1.1-1.8,1.1c-0.8,0-1.9-0.5-1.9-2.6v-3.5h1v3.3
				c0,1.1,0.3,1.9,1.2,1.9c0.7,0,1.1-0.5,1.3-1c0.1-0.2,0.1-0.4,0.1-0.6v-3.6h1V245z"/>
		</g>
		<g>
			<path class="st2" d="M74.9,246.4c-0.3,0.1-0.8,0.4-1.5,0.4c-1.6,0-2.7-1.2-2.7-3c0-1.8,1.1-3.1,2.9-3.1c0.6,0,1.1,0.2,1.4,0.3
				l-0.2,0.8c-0.2-0.1-0.6-0.3-1.1-0.3c-1.2,0-1.9,1-1.9,2.2c0,1.4,0.8,2.2,1.9,2.2c0.6,0,0.9-0.2,1.2-0.3L74.9,246.4z"/>
		</g>
		<g>
			<path class="st2" d="M75.9,242.5c0-0.7,0-1.3,0-1.8h0.9l0,1.2h0c0.2-0.8,0.8-1.3,1.5-1.3c0.1,0,0.2,0,0.3,0v1c-0.1,0-0.2,0-0.3,0
				c-0.7,0-1.2,0.6-1.3,1.4c0,0.1,0,0.3,0,0.5v3.2h-1V242.5z"/>
		</g>
		<g>
			<path class="st2" d="M79.9,243.9c0,1.5,0.9,2.1,1.8,2.1c0.7,0,1.1-0.1,1.5-0.3l0.2,0.8c-0.3,0.2-0.9,0.4-1.8,0.4
				c-1.7,0-2.6-1.2-2.6-3c0-1.8,1-3.2,2.5-3.2c1.8,0,2.2,1.7,2.2,2.8c0,0.2,0,0.4,0,0.5H79.9z M82.7,243.1c0-0.7-0.3-1.7-1.4-1.7
				c-1,0-1.4,1-1.5,1.7H82.7z"/>
		</g>
		<g>
			<path class="st2" d="M84.6,245.5c0.3,0.2,0.8,0.4,1.3,0.4c0.7,0,1-0.4,1-0.9c0-0.5-0.3-0.8-1-1.1c-1-0.4-1.4-1-1.4-1.7
				c0-1,0.7-1.7,1.9-1.7c0.5,0,1,0.2,1.3,0.4l-0.2,0.8c-0.2-0.1-0.6-0.3-1.1-0.3c-0.6,0-0.9,0.4-0.9,0.8c0,0.5,0.3,0.7,1,1
				c0.9,0.4,1.4,0.9,1.4,1.8c0,1-0.7,1.8-2,1.8c-0.6,0-1.1-0.2-1.5-0.4L84.6,245.5z"/>
		</g>
		<g>
			<path class="st2" d="M93.1,239.7L93.1,239.7l-1.3,0.7l-0.2-0.8l1.6-0.9H94v7.9h-0.9V239.7z"/>
		</g>
		<g>
			<path class="st2" d="M99.6,246.6v-2.2h-3.4v-0.7l3.2-5.1h1.1v4.9h1v0.8h-1v2.2H99.6z M99.6,243.6V241c0-0.4,0-0.8,0-1.2h0
				c-0.2,0.5-0.4,0.8-0.6,1.2l-1.8,2.7v0H99.6z"/>
		</g>
		<g>
			<path class="st2" d="M109.3,245.8c0,1.4-0.2,2.2-0.8,2.7c-0.5,0.5-1.3,0.7-2,0.7c-0.6,0-1.4-0.2-1.8-0.5l0.2-0.8
				c0.4,0.2,0.9,0.5,1.6,0.5c1,0,1.7-0.6,1.7-2.1v-0.7h0c-0.3,0.6-0.9,1-1.7,1c-1.3,0-2.3-1.2-2.3-2.9c0-2,1.2-3.1,2.4-3.1
				c0.9,0,1.4,0.5,1.7,1h0l0-0.9h0.9c0,0.4,0,0.9,0,1.6V245.8z M108.3,243c0-0.2,0-0.3-0.1-0.5c-0.2-0.6-0.7-1.1-1.4-1.1
				c-0.9,0-1.6,0.9-1.6,2.2c0,1.2,0.5,2.1,1.6,2.1c0.6,0,1.1-0.4,1.4-1.1c0.1-0.2,0.1-0.4,0.1-0.6V243z"/>
		</g>
		<g>
			<path class="st2" d="M13.8,255.2c0.5-0.1,1.1-0.2,1.9-0.2c1,0,1.7,0.2,2.1,0.7c0.4,0.4,0.7,1,0.7,1.7c0,0.7-0.2,1.3-0.6,1.8
				c-0.5,0.6-1.3,0.9-2.3,0.9c-0.3,0-0.6,0-0.8-0.1v3.3h-1V255.2z M14.8,259.2c0.2,0.1,0.5,0.1,0.8,0.1c1.2,0,1.9-0.6,1.9-1.8
				c0-1.1-0.7-1.6-1.8-1.6c-0.4,0-0.7,0-0.9,0.1V259.2z"/>
		</g>
		<g>
			<path class="st2" d="M19.4,259.3c0-0.7,0-1.3,0-1.8h0.9l0,1.2h0c0.2-0.8,0.8-1.3,1.5-1.3c0.1,0,0.2,0,0.3,0v1c-0.1,0-0.2,0-0.3,0
				c-0.7,0-1.2,0.6-1.3,1.4c0,0.1,0,0.3,0,0.5v3.2h-1V259.3z"/>
		</g>
		<g>
			<path class="st2" d="M27.8,260.4c0,2.2-1.4,3.1-2.7,3.1c-1.5,0-2.6-1.2-2.6-3c0-2,1.2-3.1,2.7-3.1
				C26.7,257.3,27.8,258.6,27.8,260.4z M23.5,260.4c0,1.3,0.7,2.3,1.6,2.3c0.9,0,1.6-1,1.6-2.3c0-1-0.5-2.3-1.6-2.3
				C24,258.1,23.5,259.3,23.5,260.4z"/>
		</g>
		<g>
			<path class="st2" d="M30.1,256.1v1.4h1.4v0.8h-1.4v3.2c0,0.7,0.2,1.1,0.7,1.1c0.3,0,0.4,0,0.6-0.1l0,0.8
				c-0.2,0.1-0.5,0.2-0.9,0.2c-0.5,0-0.8-0.2-1.1-0.5c-0.3-0.3-0.4-0.8-0.4-1.5v-3.2h-0.8v-0.8h0.8v-1.1L30.1,256.1z"/>
		</g>
		<g>
			<path class="st2" d="M32.9,260.6c0,1.5,0.9,2.1,1.8,2.1c0.7,0,1.1-0.1,1.5-0.3l0.2,0.8c-0.3,0.2-0.9,0.4-1.8,0.4
				c-1.7,0-2.6-1.2-2.6-3c0-1.8,1-3.2,2.5-3.2c1.8,0,2.2,1.7,2.2,2.8c0,0.2,0,0.4,0,0.5H32.9z M35.8,259.9c0-0.7-0.3-1.7-1.4-1.7
				c-1,0-1.4,1-1.5,1.7H35.8z"/>
		</g>
		<g>
			<path class="st2" d="M38.9,255.8c0,0.4-0.2,0.7-0.6,0.7c-0.3,0-0.6-0.3-0.6-0.7c0-0.4,0.3-0.7,0.6-0.7
				C38.7,255.1,38.9,255.4,38.9,255.8z M37.8,263.4v-5.9h1v5.9H37.8z"/>
		</g>
		<g>
			<path class="st2" d="M40.3,259.1c0-0.6,0-1.1,0-1.6h0.9l0.1,1h0c0.3-0.6,0.9-1.1,1.8-1.1c0.7,0,1.9,0.5,1.9,2.5v3.5h-1V260
				c0-1-0.3-1.7-1.2-1.7c-0.6,0-1.1,0.5-1.3,1.1c0,0.1-0.1,0.3-0.1,0.5v3.6h-1V259.1z"/>
		</g>
		<g>
			<path class="st2" d="M47.8,263.9l3.1-8.9h0.8l-3.1,8.9H47.8z"/>
		</g>
		<g>
			<path class="st2" d="M54.6,255.2c0.5-0.1,1.1-0.2,1.9-0.2c1,0,1.7,0.2,2.1,0.7c0.4,0.4,0.7,1,0.7,1.7c0,0.7-0.2,1.3-0.6,1.8
				c-0.5,0.6-1.3,0.9-2.3,0.9c-0.3,0-0.6,0-0.8-0.1v3.3h-1V255.2z M55.6,259.2c0.2,0.1,0.5,0.1,0.8,0.1c1.2,0,1.9-0.6,1.9-1.8
				c0-1.1-0.7-1.6-1.8-1.6c-0.4,0-0.7,0-0.9,0.1V259.2z"/>
		</g>
		<g>
			<path class="st2" d="M60.2,259.3c0-0.7,0-1.3,0-1.8H61l0,1.2h0c0.2-0.8,0.8-1.3,1.5-1.3c0.1,0,0.2,0,0.3,0v1c-0.1,0-0.2,0-0.3,0
				c-0.7,0-1.2,0.6-1.3,1.4c0,0.1,0,0.3,0,0.5v3.2h-1V259.3z"/>
		</g>
		<g>
			<path class="st2" d="M68.4,260.4c0,2.2-1.4,3.1-2.7,3.1c-1.5,0-2.6-1.2-2.6-3c0-2,1.2-3.1,2.7-3.1
				C67.4,257.3,68.4,258.6,68.4,260.4z M64.2,260.4c0,1.3,0.7,2.3,1.6,2.3c0.9,0,1.6-1,1.6-2.3c0-1-0.5-2.3-1.6-2.3
				C64.7,258.1,64.2,259.3,64.2,260.4z"/>
		</g>
		<g>
			<path class="st2" d="M70.7,256.1v1.4h1.4v0.8h-1.4v3.2c0,0.7,0.2,1.1,0.7,1.1c0.3,0,0.4,0,0.6-0.1l0,0.8
				c-0.2,0.1-0.5,0.2-0.9,0.2c-0.5,0-0.8-0.2-1.1-0.5c-0.3-0.3-0.4-0.8-0.4-1.5v-3.2h-0.8v-0.8h0.8v-1.1L70.7,256.1z"/>
		</g>
		<g>
			<path class="st2" d="M73.6,260.6c0,1.5,0.9,2.1,1.8,2.1c0.7,0,1.1-0.1,1.5-0.3l0.2,0.8c-0.3,0.2-0.9,0.4-1.8,0.4
				c-1.7,0-2.6-1.2-2.6-3c0-1.8,1-3.2,2.5-3.2c1.8,0,2.2,1.7,2.2,2.8c0,0.2,0,0.4,0,0.5H73.6z M76.5,259.9c0-0.7-0.3-1.7-1.4-1.7
				c-1,0-1.4,1-1.5,1.7H76.5z M76.7,254.9l-1.4,1.7h-0.7l1-1.7H76.7z"/>
		</g>
		<g>
			<path class="st2" d="M79.6,255.8c0,0.4-0.2,0.7-0.6,0.7c-0.3,0-0.6-0.3-0.6-0.7c0-0.4,0.3-0.7,0.6-0.7
				C79.3,255.1,79.6,255.4,79.6,255.8z M78.5,263.4v-5.9h1v5.9H78.5z"/>
		</g>
		<g>
			<path class="st2" d="M81,259.1c0-0.6,0-1.1,0-1.6h0.9l0.1,1h0c0.3-0.6,0.9-1.1,1.8-1.1c0.7,0,1.9,0.5,1.9,2.5v3.5h-1V260
				c0-1-0.3-1.7-1.2-1.7c-0.6,0-1.1,0.5-1.3,1.1c0,0.1-0.1,0.3-0.1,0.5v3.6h-1V259.1z"/>
		</g>
		<g>
			<path class="st2" d="M87.6,260.6c0,1.5,0.9,2.1,1.8,2.1c0.7,0,1.1-0.1,1.5-0.3l0.2,0.8c-0.3,0.2-0.9,0.4-1.8,0.4
				c-1.7,0-2.6-1.2-2.6-3c0-1.8,1-3.2,2.5-3.2c1.8,0,2.2,1.7,2.2,2.8c0,0.2,0,0.4,0,0.5H87.6z M90.4,259.9c0-0.7-0.3-1.7-1.4-1.7
				c-1,0-1.4,1-1.5,1.7H90.4z"/>
		</g>
		<g>
			<path class="st2" d="M92.3,262.3c0.3,0.2,0.8,0.4,1.3,0.4c0.7,0,1-0.4,1-0.9c0-0.5-0.3-0.8-1-1.1c-1-0.4-1.4-1-1.4-1.7
				c0-1,0.7-1.7,1.9-1.7c0.5,0,1,0.2,1.3,0.4l-0.2,0.8c-0.2-0.1-0.6-0.3-1.1-0.3c-0.6,0-0.9,0.4-0.9,0.8c0,0.5,0.3,0.7,1,1
				c0.9,0.4,1.4,0.9,1.4,1.8c0,1-0.7,1.8-2,1.8c-0.6,0-1.1-0.2-1.5-0.4L92.3,262.3z"/>
		</g>
		<g>
			<path class="st2" d="M103.5,259.3c0,2.7-0.9,4.2-2.5,4.2c-1.4,0-2.4-1.5-2.4-4.1c0-2.7,1-4.1,2.5-4.1
				C102.6,255.3,103.5,256.8,103.5,259.3z M99.6,259.5c0,2.1,0.6,3.2,1.5,3.2c1,0,1.5-1.3,1.5-3.3c0-2-0.5-3.2-1.5-3.2
				C100.2,256.1,99.6,257.3,99.6,259.5z"/>
		</g>
		<g>
			<path class="st2" d="M105,263.5c-0.4,0-0.6-0.3-0.6-0.8c0-0.5,0.3-0.8,0.7-0.8c0.4,0,0.7,0.3,0.7,0.8
				C105.7,263.2,105.4,263.5,105,263.5L105,263.5z"/>
		</g>
		<g>
			<path class="st2" d="M106.7,262.2c0.3,0.2,0.9,0.5,1.6,0.5c1.3,0,1.6-0.9,1.6-1.5c0-1.1-0.9-1.6-1.9-1.6h-0.5v-0.8h0.5
				c0.7,0,1.6-0.4,1.6-1.3c0-0.6-0.4-1.2-1.3-1.2c-0.6,0-1.1,0.3-1.4,0.5l-0.3-0.8c0.4-0.3,1.1-0.6,1.9-0.6c1.4,0,2.1,0.9,2.1,1.9
				c0,0.8-0.4,1.5-1.3,1.9v0c0.9,0.2,1.6,0.9,1.6,2c0,1.3-0.9,2.4-2.6,2.4c-0.8,0-1.5-0.3-1.9-0.5L106.7,262.2z"/>
		</g>
		<g>
			<path class="st2" d="M119.2,262.5c0,1.4-0.2,2.2-0.8,2.7c-0.5,0.5-1.3,0.7-2,0.7c-0.6,0-1.4-0.2-1.8-0.5l0.2-0.8
				c0.4,0.2,0.9,0.5,1.6,0.5c1,0,1.7-0.6,1.7-2.1v-0.7h0c-0.3,0.6-0.9,1-1.7,1c-1.3,0-2.3-1.2-2.3-2.9c0-2,1.2-3.1,2.4-3.1
				c0.9,0,1.4,0.5,1.7,1h0l0-0.9h0.9c0,0.4,0,0.9,0,1.6V262.5z M118.2,259.8c0-0.2,0-0.3-0.1-0.5c-0.2-0.6-0.7-1.1-1.4-1.1
				c-0.9,0-1.6,0.9-1.6,2.2c0,1.2,0.5,2.1,1.6,2.1c0.6,0,1.1-0.4,1.4-1.1c0.1-0.2,0.1-0.4,0.1-0.6V259.8z"/>
		</g>
		<g>
			<path class="st2" d="M15.5,280.2l-2.4-8.2h1l1.2,4.1c0.3,1.1,0.6,2.1,0.8,3.1h0c0.2-1,0.5-2,0.9-3.1l1.3-4.1h1l-2.7,8.2H15.5z"/>
		</g>
		<g>
			<path class="st2" d="M20.8,272.6c0,0.4-0.2,0.7-0.6,0.7c-0.3,0-0.6-0.3-0.6-0.7c0-0.4,0.3-0.7,0.6-0.7
				C20.6,271.9,20.8,272.2,20.8,272.6z M19.7,280.2v-5.9h1v5.9H19.7z"/>
		</g>
		<g>
			<path class="st2" d="M23.4,272.8v1.4h1.4v0.8h-1.4v3.2c0,0.7,0.2,1.1,0.7,1.1c0.3,0,0.4,0,0.6-0.1l0,0.8
				c-0.2,0.1-0.5,0.2-0.9,0.2c-0.5,0-0.8-0.2-1.1-0.5c-0.3-0.3-0.4-0.8-0.4-1.5v-3.2h-0.8v-0.8h0.8v-1.1L23.4,272.8z"/>
		</g>
		<g>
			<path class="st2" d="M29.5,278.7c0,0.5,0,1,0.1,1.4h-0.9l-0.1-0.7h0c-0.3,0.5-0.9,0.9-1.6,0.9c-1.1,0-1.6-0.8-1.6-1.7
				c0-1.4,1.2-2.2,3.2-2.2v-0.1c0-0.5-0.1-1.4-1.2-1.4c-0.5,0-1,0.2-1.4,0.4l-0.2-0.7c0.4-0.3,1.1-0.5,1.8-0.5c1.6,0,2,1.2,2,2.4
				V278.7z M28.6,277.1c-1.1,0-2.3,0.2-2.3,1.3c0,0.7,0.4,1,0.9,1c0.7,0,1.1-0.5,1.3-1c0-0.1,0.1-0.2,0.1-0.3V277.1z"/>
		</g>
		<g>
			<path class="st2" d="M31,275.9c0-0.6,0-1.1,0-1.6h0.9l0,1h0c0.3-0.6,0.8-1.1,1.7-1.1c0.7,0,1.3,0.5,1.5,1.2h0
				c0.2-0.3,0.4-0.6,0.6-0.8c0.3-0.3,0.7-0.4,1.2-0.4c0.7,0,1.8,0.5,1.8,2.6v3.5h-1v-3.3c0-1.1-0.4-1.8-1.2-1.8c-0.6,0-1,0.5-1.2,1
				c0,0.1-0.1,0.3-0.1,0.5v3.7h-1v-3.5c0-0.9-0.4-1.6-1.1-1.6c-0.6,0-1.1,0.5-1.2,1.1c-0.1,0.2-0.1,0.3-0.1,0.5v3.6h-1V275.9z"/>
		</g>
		<g>
			<path class="st2" d="M41.2,272.6c0,0.4-0.2,0.7-0.6,0.7c-0.3,0-0.6-0.3-0.6-0.7c0-0.4,0.3-0.7,0.6-0.7
				C41,271.9,41.2,272.2,41.2,272.6z M40.1,280.2v-5.9h1v5.9H40.1z"/>
		</g>
		<g>
			<path class="st2" d="M42.6,275.9c0-0.6,0-1.1,0-1.6h0.9l0.1,1h0c0.3-0.6,0.9-1.1,1.8-1.1c0.7,0,1.9,0.5,1.9,2.5v3.5h-1v-3.4
				c0-1-0.3-1.7-1.2-1.7c-0.6,0-1.1,0.5-1.3,1.1c0,0.1-0.1,0.3-0.1,0.5v3.6h-1V275.9z"/>
		</g>
		<g>
			<path class="st2" d="M52.1,277.6l-0.8,2.6h-1l2.5-8.2h1.2l2.6,8.2h-1l-0.8-2.6H52.1z M54.6,276.7l-0.7-2.4
				c-0.2-0.5-0.3-1-0.4-1.5h0c-0.1,0.5-0.2,1-0.4,1.5l-0.7,2.4H54.6z"/>
		</g>
		<g>
			<path class="st2" d="M59,280.7l3.1-8.9h0.8l-3.1,8.9H59z"/>
		</g>
		<g>
			<path class="st2" d="M67,280.2l-2.4-8.2h1l1.2,4.1c0.3,1.1,0.6,2.1,0.8,3.1h0c0.2-1,0.5-2,0.9-3.1l1.3-4.1h1l-2.7,8.2H67z"/>
		</g>
		<g>
			<path class="st2" d="M72.3,272.6c0,0.4-0.2,0.7-0.6,0.7c-0.3,0-0.6-0.3-0.6-0.7c0-0.4,0.3-0.7,0.6-0.7
				C72.1,271.9,72.3,272.2,72.3,272.6z M71.2,280.2v-5.9h1v5.9H71.2z"/>
		</g>
		<g>
			<path class="st2" d="M74.9,272.8v1.4h1.4v0.8h-1.4v3.2c0,0.7,0.2,1.1,0.7,1.1c0.3,0,0.4,0,0.6-0.1l0,0.8
				c-0.2,0.1-0.5,0.2-0.9,0.2c-0.5,0-0.8-0.2-1.1-0.5c-0.3-0.3-0.4-0.8-0.4-1.5v-3.2h-0.8v-0.8H74v-1.1L74.9,272.8z"/>
		</g>
		<g>
			<path class="st2" d="M81.1,278.7c0,0.5,0,1,0.1,1.4h-0.9l-0.1-0.7h0c-0.3,0.5-0.9,0.9-1.6,0.9c-1.1,0-1.6-0.8-1.6-1.7
				c0-1.4,1.2-2.2,3.2-2.2v-0.1c0-0.5-0.1-1.4-1.2-1.4c-0.5,0-1,0.2-1.4,0.4l-0.2-0.7c0.4-0.3,1.1-0.5,1.8-0.5c1.6,0,2,1.2,2,2.4
				V278.7z M80.1,277.1c-1.1,0-2.3,0.2-2.3,1.3c0,0.7,0.4,1,0.9,1c0.7,0,1.1-0.5,1.3-1c0-0.1,0.1-0.2,0.1-0.3V277.1z"/>
		</g>
		<g>
			<path class="st2" d="M82.5,275.9c0-0.6,0-1.1,0-1.6h0.9l0,1h0c0.3-0.6,0.8-1.1,1.7-1.1c0.7,0,1.3,0.5,1.5,1.2h0
				c0.2-0.3,0.4-0.6,0.6-0.8c0.3-0.3,0.7-0.4,1.2-0.4c0.7,0,1.8,0.5,1.8,2.6v3.5h-1v-3.3c0-1.1-0.4-1.8-1.2-1.8c-0.6,0-1,0.5-1.2,1
				c0,0.1-0.1,0.3-0.1,0.5v3.7h-1v-3.5c0-0.9-0.4-1.6-1.1-1.6c-0.6,0-1.1,0.5-1.2,1.1c-0.1,0.2-0.1,0.3-0.1,0.5v3.6h-1V275.9z"/>
		</g>
		<g>
			<path class="st2" d="M92.8,272.6c0,0.4-0.2,0.7-0.6,0.7c-0.3,0-0.6-0.3-0.6-0.7c0-0.4,0.3-0.7,0.6-0.7
				C92.5,271.9,92.8,272.2,92.8,272.6z M91.7,280.2v-5.9h1v5.9H91.7z"/>
		</g>
		<g>
			<path class="st2" d="M94.2,275.9c0-0.6,0-1.1,0-1.6H95l0.1,1h0c0.3-0.6,0.9-1.1,1.8-1.1c0.7,0,1.9,0.5,1.9,2.5v3.5h-1v-3.4
				c0-1-0.3-1.7-1.2-1.7c-0.6,0-1.1,0.5-1.3,1.1c0,0.1-0.1,0.3-0.1,0.5v3.6h-1V275.9z"/>
		</g>
		<g>
			<path class="st2" d="M100.7,277.4c0,1.5,0.9,2.1,1.8,2.1c0.7,0,1.1-0.1,1.5-0.3l0.2,0.8c-0.3,0.2-0.9,0.4-1.8,0.4
				c-1.7,0-2.6-1.2-2.6-3c0-1.8,1-3.2,2.5-3.2c1.8,0,2.2,1.7,2.2,2.8c0,0.2,0,0.4,0,0.5H100.7z M103.6,276.6c0-0.7-0.3-1.7-1.4-1.7
				c-1,0-1.4,1-1.5,1.7H103.6z"/>
		</g>
		<g>
			<path class="st2" d="M109.1,277.6l-0.8,2.6h-1l2.5-8.2h1.2l2.6,8.2h-1l-0.8-2.6H109.1z M111.6,276.7l-0.7-2.4
				c-0.2-0.5-0.3-1-0.4-1.5h0c-0.1,0.5-0.2,1-0.4,1.5l-0.7,2.4H111.6z"/>
		</g>
		<g>
			<path class="st2" d="M176.6,276.1c0,2.7-0.9,4.2-2.5,4.2c-1.4,0-2.4-1.5-2.4-4.1c0-2.7,1-4.1,2.5-4.1
				C175.8,272.1,176.6,273.6,176.6,276.1z M172.7,276.2c0,2.1,0.6,3.2,1.5,3.2c1,0,1.5-1.3,1.5-3.3c0-2-0.5-3.2-1.5-3.2
				C173.3,272.9,172.7,274.1,172.7,276.2z"/>
		</g>
		<g>
			<path class="st2" d="M181.2,272.1c1,0,1.7,0.9,1.7,2.4c0,1.7-0.8,2.5-1.7,2.5c-0.9,0-1.7-0.8-1.7-2.4
				C179.5,273,180.3,272.1,181.2,272.1L181.2,272.1z M181.2,272.7c-0.6,0-0.9,0.8-0.9,1.8c0,1,0.3,1.8,0.9,1.8
				c0.6,0,0.9-0.8,0.9-1.8C182.1,273.5,181.9,272.7,181.2,272.7L181.2,272.7z M181.1,280.3l4.2-8.2h0.6l-4.2,8.2H181.1z M186,275.4
				c1,0,1.7,0.9,1.7,2.4c0,1.7-0.8,2.5-1.7,2.5c-0.9,0-1.7-0.8-1.7-2.4C184.2,276.3,185,275.4,186,275.4L186,275.4z M185.9,276
				c-0.6,0-0.9,0.8-0.9,1.8c0,1,0.3,1.8,0.9,1.8c0.6,0,0.9-0.8,0.9-1.8C186.8,276.8,186.6,276,185.9,276L185.9,276z"/>
		</g>
		<g>
			<path class="st2" d="M15.5,296.9l-2.4-8.2h1l1.2,4.1c0.3,1.1,0.6,2.1,0.8,3.1h0c0.2-1,0.5-2,0.9-3.1l1.3-4.1h1l-2.7,8.2H15.5z"/>
		</g>
		<g>
			<path class="st2" d="M20.8,289.4c0,0.4-0.2,0.7-0.6,0.7c-0.3,0-0.6-0.3-0.6-0.7c0-0.4,0.3-0.7,0.6-0.7
				C20.6,288.7,20.8,289,20.8,289.4z M19.7,296.9V291h1v5.9H19.7z"/>
		</g>
		<g>
			<path class="st2" d="M23.4,289.6v1.4h1.4v0.8h-1.4v3.2c0,0.7,0.2,1.1,0.7,1.1c0.3,0,0.4,0,0.6-0.1l0,0.8
				c-0.2,0.1-0.5,0.2-0.9,0.2c-0.5,0-0.8-0.2-1.1-0.5c-0.3-0.3-0.4-0.8-0.4-1.5v-3.2h-0.8V291h0.8v-1.1L23.4,289.6z"/>
		</g>
		<g>
			<path class="st2" d="M29.5,295.5c0,0.5,0,1,0.1,1.4h-0.9l-0.1-0.7h0c-0.3,0.5-0.9,0.9-1.6,0.9c-1.1,0-1.6-0.8-1.6-1.7
				c0-1.4,1.2-2.2,3.2-2.2v-0.1c0-0.5-0.1-1.4-1.2-1.4c-0.5,0-1,0.2-1.4,0.4l-0.2-0.7c0.4-0.3,1.1-0.5,1.8-0.5c1.6,0,2,1.2,2,2.4
				V295.5z M28.6,293.9c-1.1,0-2.3,0.2-2.3,1.3c0,0.7,0.4,1,0.9,1c0.7,0,1.1-0.5,1.3-1c0-0.1,0.1-0.2,0.1-0.3V293.9z"/>
		</g>
		<g>
			<path class="st2" d="M31,292.6c0-0.6,0-1.1,0-1.6h0.9l0,1h0c0.3-0.6,0.8-1.1,1.7-1.1c0.7,0,1.3,0.5,1.5,1.2h0
				c0.2-0.3,0.4-0.6,0.6-0.8c0.3-0.3,0.7-0.4,1.2-0.4c0.7,0,1.8,0.5,1.8,2.6v3.5h-1v-3.3c0-1.1-0.4-1.8-1.2-1.8c-0.6,0-1,0.5-1.2,1
				c0,0.1-0.1,0.3-0.1,0.5v3.7h-1v-3.5c0-0.9-0.4-1.6-1.1-1.6c-0.6,0-1.1,0.5-1.2,1.1c-0.1,0.2-0.1,0.3-0.1,0.5v3.6h-1V292.6z"/>
		</g>
		<g>
			<path class="st2" d="M41.2,289.4c0,0.4-0.2,0.7-0.6,0.7c-0.3,0-0.6-0.3-0.6-0.7c0-0.4,0.3-0.7,0.6-0.7
				C41,288.7,41.2,289,41.2,289.4z M40.1,296.9V291h1v5.9H40.1z"/>
		</g>
		<g>
			<path class="st2" d="M42.6,292.6c0-0.6,0-1.1,0-1.6h0.9l0.1,1h0c0.3-0.6,0.9-1.1,1.8-1.1c0.7,0,1.9,0.5,1.9,2.5v3.5h-1v-3.4
				c0-1-0.3-1.7-1.2-1.7c-0.6,0-1.1,0.5-1.3,1.1c0,0.1-0.1,0.3-0.1,0.5v3.6h-1V292.6z"/>
		</g>
		<g>
			<path class="st2" d="M56.2,296.7c-0.4,0.2-1.1,0.4-2,0.4c-2.1,0-3.7-1.5-3.7-4.2c0-2.6,1.6-4.3,3.9-4.3c0.9,0,1.5,0.2,1.8,0.4
				l-0.2,0.9c-0.4-0.2-0.9-0.3-1.5-0.3c-1.8,0-2.9,1.2-2.9,3.4c0,2,1.1,3.3,2.9,3.3c0.6,0,1.2-0.1,1.6-0.3L56.2,296.7z"/>
		</g>
		<g>
			<path class="st2" d="M58.6,297.4l3.1-8.9h0.8l-3.1,8.9H58.6z"/>
		</g>
		<g>
			<path class="st2" d="M66.7,296.9l-2.4-8.2h1l1.2,4.1c0.3,1.1,0.6,2.1,0.8,3.1h0c0.2-1,0.5-2,0.9-3.1l1.3-4.1h1l-2.7,8.2H66.7z"/>
		</g>
		<g>
			<path class="st2" d="M72,289.4c0,0.4-0.2,0.7-0.6,0.7c-0.3,0-0.6-0.3-0.6-0.7c0-0.4,0.3-0.7,0.6-0.7C71.7,288.7,72,289,72,289.4z
				 M70.9,296.9V291h1v5.9H70.9z"/>
		</g>
		<g>
			<path class="st2" d="M74.6,289.6v1.4H76v0.8h-1.4v3.2c0,0.7,0.2,1.1,0.7,1.1c0.3,0,0.4,0,0.6-0.1l0,0.8c-0.2,0.1-0.5,0.2-0.9,0.2
				c-0.5,0-0.8-0.2-1.1-0.5c-0.3-0.3-0.4-0.8-0.4-1.5v-3.2h-0.8V291h0.8v-1.1L74.6,289.6z"/>
		</g>
		<g>
			<path class="st2" d="M80.7,295.5c0,0.5,0,1,0.1,1.4h-0.9l-0.1-0.7h0c-0.3,0.5-0.9,0.9-1.6,0.9c-1.1,0-1.6-0.8-1.6-1.7
				c0-1.4,1.2-2.2,3.2-2.2v-0.1c0-0.5-0.1-1.4-1.2-1.4c-0.5,0-1,0.2-1.4,0.4l-0.2-0.7c0.4-0.3,1.1-0.5,1.8-0.5c1.6,0,2,1.2,2,2.4
				V295.5z M79.8,293.9c-1.1,0-2.3,0.2-2.3,1.3c0,0.7,0.4,1,0.9,1c0.7,0,1.1-0.5,1.3-1c0-0.1,0.1-0.2,0.1-0.3V293.9z"/>
		</g>
		<g>
			<path class="st2" d="M82.2,292.6c0-0.6,0-1.1,0-1.6H83l0,1h0c0.3-0.6,0.8-1.1,1.7-1.1c0.7,0,1.3,0.5,1.5,1.2h0
				c0.2-0.3,0.4-0.6,0.6-0.8c0.3-0.3,0.7-0.4,1.2-0.4c0.7,0,1.8,0.5,1.8,2.6v3.5h-1v-3.3c0-1.1-0.4-1.8-1.2-1.8c-0.6,0-1,0.5-1.2,1
				c0,0.1-0.1,0.3-0.1,0.5v3.7h-1v-3.5c0-0.9-0.4-1.6-1.1-1.6c-0.6,0-1.1,0.5-1.2,1.1c-0.1,0.2-0.1,0.3-0.1,0.5v3.6h-1V292.6z"/>
		</g>
		<g>
			<path class="st2" d="M92.4,289.4c0,0.4-0.2,0.7-0.6,0.7c-0.3,0-0.6-0.3-0.6-0.7c0-0.4,0.3-0.7,0.6-0.7
				C92.2,288.7,92.4,289,92.4,289.4z M91.3,296.9V291h1v5.9H91.3z"/>
		</g>
		<g>
			<path class="st2" d="M93.8,292.6c0-0.6,0-1.1,0-1.6h0.9l0.1,1h0c0.3-0.6,0.9-1.1,1.8-1.1c0.7,0,1.9,0.5,1.9,2.5v3.5h-1v-3.4
				c0-1-0.3-1.7-1.2-1.7c-0.6,0-1.1,0.5-1.3,1.1c0,0.1-0.1,0.3-0.1,0.5v3.6h-1V292.6z"/>
		</g>
		<g>
			<path class="st2" d="M100.4,294.2c0,1.5,0.9,2.1,1.8,2.1c0.7,0,1.1-0.1,1.5-0.3l0.2,0.8c-0.3,0.2-0.9,0.4-1.8,0.4
				c-1.7,0-2.6-1.2-2.6-3c0-1.8,1-3.2,2.5-3.2c1.8,0,2.2,1.7,2.2,2.8c0,0.2,0,0.4,0,0.5H100.4z M103.3,293.4c0-0.7-0.3-1.7-1.4-1.7
				c-1,0-1.4,1-1.5,1.7H103.3z"/>
		</g>
		<g>
			<path class="st2" d="M112.8,296.7c-0.4,0.2-1.1,0.4-2,0.4c-2.1,0-3.7-1.5-3.7-4.2c0-2.6,1.6-4.3,3.9-4.3c0.9,0,1.5,0.2,1.8,0.4
				l-0.2,0.9c-0.4-0.2-0.9-0.3-1.5-0.3c-1.8,0-2.9,1.2-2.9,3.4c0,2,1.1,3.3,2.9,3.3c0.6,0,1.2-0.1,1.6-0.3L112.8,296.7z"/>
		</g>
		<g>
			<path class="st2" d="M176.6,292.9c0,2.7-0.9,4.2-2.5,4.2c-1.4,0-2.4-1.5-2.4-4.1c0-2.7,1-4.1,2.5-4.1
				C175.8,288.9,176.6,290.4,176.6,292.9z M172.7,293c0,2.1,0.6,3.2,1.5,3.2c1,0,1.5-1.3,1.5-3.3c0-2-0.5-3.2-1.5-3.2
				C173.3,289.7,172.7,290.8,172.7,293z"/>
		</g>
		<g>
			<path class="st2" d="M181.2,288.9c1,0,1.7,0.9,1.7,2.4c0,1.7-0.8,2.5-1.7,2.5c-0.9,0-1.7-0.8-1.7-2.4
				C179.5,289.8,180.3,288.9,181.2,288.9L181.2,288.9z M181.2,289.5c-0.6,0-0.9,0.8-0.9,1.8c0,1,0.3,1.8,0.9,1.8
				c0.6,0,0.9-0.8,0.9-1.8C182.1,290.3,181.9,289.5,181.2,289.5L181.2,289.5z M181.1,297.1l4.2-8.2h0.6l-4.2,8.2H181.1z M186,292.2
				c1,0,1.7,0.9,1.7,2.4c0,1.7-0.8,2.5-1.7,2.5c-0.9,0-1.7-0.8-1.7-2.4C184.2,293,185,292.2,186,292.2L186,292.2z M185.9,292.8
				c-0.6,0-0.9,0.8-0.9,1.8c0,1,0.3,1.8,0.9,1.8c0.6,0,0.9-0.8,0.9-1.8C186.8,293.6,186.6,292.8,185.9,292.8L185.9,292.8z"/>
		</g>
		<g>
			<path class="st2" d="M19.1,313.5c-0.4,0.2-1.1,0.4-2,0.4c-2.1,0-3.7-1.5-3.7-4.2c0-2.6,1.6-4.3,3.9-4.3c0.9,0,1.5,0.2,1.8,0.4
				l-0.2,0.9c-0.4-0.2-0.9-0.3-1.5-0.3c-1.8,0-2.9,1.2-2.9,3.4c0,2,1.1,3.3,2.9,3.3c0.6,0,1.2-0.1,1.6-0.3L19.1,313.5z"/>
		</g>
		<g>
			<path class="st2" d="M23.8,312.3c0,0.5,0,1,0.1,1.4H23l-0.1-0.7h0c-0.3,0.5-0.9,0.9-1.6,0.9c-1.1,0-1.6-0.8-1.6-1.7
				c0-1.4,1.2-2.2,3.2-2.2v-0.1c0-0.5-0.1-1.4-1.2-1.4c-0.5,0-1,0.2-1.4,0.4l-0.2-0.7c0.4-0.3,1.1-0.5,1.8-0.5c1.6,0,2,1.2,2,2.4
				V312.3z M22.9,310.7c-1.1,0-2.3,0.2-2.3,1.3c0,0.7,0.4,1,0.9,1c0.7,0,1.1-0.5,1.3-1c0-0.1,0.1-0.2,0.1-0.3V310.7z"/>
		</g>
		<g>
			<path class="st2" d="M25.3,305h1v8.7h-1V305z"/>
		</g>
		<g>
			<path class="st2" d="M31.6,313.5c-0.3,0.1-0.8,0.4-1.5,0.4c-1.6,0-2.7-1.2-2.7-3c0-1.8,1.1-3.1,2.9-3.1c0.6,0,1.1,0.2,1.4,0.3
				l-0.2,0.8c-0.2-0.1-0.6-0.3-1.1-0.3c-1.2,0-1.9,1-1.9,2.2c0,1.4,0.8,2.2,1.9,2.2c0.6,0,0.9-0.2,1.2-0.3L31.6,313.5z"/>
		</g>
		<g>
			<path class="st2" d="M33.7,306.1c0,0.4-0.2,0.7-0.6,0.7c-0.3,0-0.6-0.3-0.6-0.7c0-0.4,0.3-0.7,0.6-0.7
				C33.5,305.5,33.7,305.8,33.7,306.1z M32.6,313.7v-5.9h1v5.9H32.6z"/>
		</g>
		<g>
			<path class="st2" d="M39.6,312.1c0,0.6,0,1.1,0,1.6h-0.9l-0.1-1h0c-0.3,0.5-0.8,1.1-1.8,1.1c-0.8,0-1.9-0.5-1.9-2.6v-3.5h1v3.3
				c0,1.1,0.3,1.9,1.2,1.9c0.7,0,1.1-0.5,1.3-1c0.1-0.2,0.1-0.4,0.1-0.6v-3.6h1V312.1z"/>
		</g>
		<g>
			<path class="st2" d="M41.1,309.4c0-0.6,0-1.1,0-1.6h0.9l0,1h0c0.3-0.6,0.8-1.1,1.7-1.1c0.7,0,1.3,0.5,1.5,1.2h0
				c0.2-0.3,0.4-0.6,0.6-0.8c0.3-0.3,0.7-0.4,1.2-0.4c0.7,0,1.8,0.5,1.8,2.6v3.5h-1v-3.3c0-1.1-0.4-1.8-1.2-1.8c-0.6,0-1,0.5-1.2,1
				c0,0.1-0.1,0.3-0.1,0.5v3.7h-1v-3.5c0-0.9-0.4-1.6-1.1-1.6c-0.6,0-1.1,0.5-1.2,1.1c-0.1,0.2-0.1,0.3-0.1,0.5v3.6h-1V309.4z"/>
		</g>
		<g>
			<path class="st2" d="M51.7,314.2l3.1-8.9h0.8l-3.1,8.9H51.7z"/>
		</g>
		<g>
			<path class="st2" d="M63.7,313.5c-0.4,0.2-1.1,0.4-2,0.4c-2.1,0-3.7-1.5-3.7-4.2c0-2.6,1.6-4.3,3.9-4.3c0.9,0,1.5,0.2,1.8,0.4
				l-0.2,0.9c-0.4-0.2-0.9-0.3-1.5-0.3c-1.8,0-2.9,1.2-2.9,3.4c0,2,1.1,3.3,2.9,3.3c0.6,0,1.2-0.1,1.6-0.3L63.7,313.5z"/>
		</g>
		<g>
			<path class="st2" d="M68.5,312.3c0,0.5,0,1,0.1,1.4h-0.9l-0.1-0.7h0c-0.3,0.5-0.9,0.9-1.6,0.9c-1.1,0-1.6-0.8-1.6-1.7
				c0-1.4,1.2-2.2,3.2-2.2v-0.1c0-0.5-0.1-1.4-1.2-1.4c-0.5,0-1,0.2-1.4,0.4l-0.2-0.7c0.4-0.3,1.1-0.5,1.8-0.5c1.6,0,2,1.2,2,2.4
				V312.3z M67.5,310.7c-1.1,0-2.3,0.2-2.3,1.3c0,0.7,0.4,1,0.9,1c0.7,0,1.1-0.5,1.3-1c0-0.1,0.1-0.2,0.1-0.3V310.7z"/>
		</g>
		<g>
			<path class="st2" d="M69.9,305h1v8.7h-1V305z"/>
		</g>
		<g>
			<path class="st2" d="M76.3,313.5c-0.3,0.1-0.8,0.4-1.5,0.4c-1.6,0-2.7-1.2-2.7-3c0-1.8,1.1-3.1,2.9-3.1c0.6,0,1.1,0.2,1.4,0.3
				l-0.2,0.8c-0.2-0.1-0.6-0.3-1.1-0.3c-1.2,0-1.9,1-1.9,2.2c0,1.4,0.8,2.2,1.9,2.2c0.6,0,0.9-0.2,1.2-0.3L76.3,313.5z"/>
		</g>
		<g>
			<path class="st2" d="M78.4,306.1c0,0.4-0.2,0.7-0.6,0.7c-0.3,0-0.6-0.3-0.6-0.7c0-0.4,0.3-0.7,0.6-0.7
				C78.1,305.5,78.4,305.8,78.4,306.1z M77.3,313.7v-5.9h1v5.9H77.3z"/>
		</g>
		<g>
			<path class="st2" d="M84.3,312.1c0,0.6,0,1.1,0,1.6h-0.9l-0.1-1h0c-0.3,0.5-0.8,1.1-1.8,1.1c-0.8,0-1.9-0.5-1.9-2.6v-3.5h1v3.3
				c0,1.1,0.3,1.9,1.2,1.9c0.7,0,1.1-0.5,1.3-1c0.1-0.2,0.1-0.4,0.1-0.6v-3.6h1V312.1z"/>
		</g>
		<g>
			<path class="st2" d="M85.8,309.4c0-0.6,0-1.1,0-1.6h0.9l0,1h0c0.3-0.6,0.8-1.1,1.7-1.1c0.7,0,1.3,0.5,1.5,1.2h0
				c0.2-0.3,0.4-0.6,0.6-0.8c0.3-0.3,0.7-0.4,1.2-0.4c0.7,0,1.8,0.5,1.8,2.6v3.5h-1v-3.3c0-1.1-0.4-1.8-1.2-1.8c-0.6,0-1,0.5-1.2,1
				c0,0.1-0.1,0.3-0.1,0.5v3.7h-1v-3.5c0-0.9-0.4-1.6-1.1-1.6c-0.6,0-1.1,0.5-1.2,1.1c-0.1,0.2-0.1,0.3-0.1,0.5v3.6h-1V309.4z"/>
		</g>
		<g>
			<path class="st2" d="M174.9,313.7v-2.2h-3.4v-0.7l3.2-5.1h1.1v4.9h1v0.8h-1v2.2H174.9z M174.9,310.7v-2.7c0-0.4,0-0.8,0-1.2h0
				c-0.2,0.5-0.4,0.8-0.6,1.2l-1.8,2.7v0H174.9z"/>
		</g>
		<g>
			<path class="st2" d="M181.2,305.6c1,0,1.7,0.9,1.7,2.4c0,1.7-0.8,2.5-1.7,2.5c-0.9,0-1.7-0.8-1.7-2.4
				C179.5,306.5,180.3,305.6,181.2,305.6L181.2,305.6z M181.2,306.3c-0.6,0-0.9,0.8-0.9,1.8c0,1,0.3,1.8,0.9,1.8
				c0.6,0,0.9-0.8,0.9-1.8C182.1,307.1,181.9,306.3,181.2,306.3L181.2,306.3z M181.1,313.9l4.2-8.2h0.6l-4.2,8.2H181.1z M186,308.9
				c1,0,1.7,0.9,1.7,2.4c0,1.7-0.8,2.5-1.7,2.5c-0.9,0-1.7-0.8-1.7-2.4C184.2,309.8,185,308.9,186,308.9L186,308.9z M185.9,309.6
				c-0.6,0-0.9,0.8-0.9,1.8c0,1,0.3,1.8,0.9,1.8c0.6,0,0.9-0.8,0.9-1.8C186.8,310.4,186.6,309.6,185.9,309.6L185.9,309.6z"/>
		</g>
		<g>
			<path class="st2" d="M14.8,322.3v8.2h-1v-8.2H14.8z"/>
		</g>
		<g>
			<path class="st2" d="M16.5,326.4c0-0.7,0-1.3,0-1.8h0.9l0,1.2h0c0.2-0.8,0.8-1.3,1.5-1.3c0.1,0,0.2,0,0.3,0v1c-0.1,0-0.2,0-0.3,0
				c-0.7,0-1.2,0.6-1.3,1.4c0,0.1,0,0.3,0,0.5v3.2h-1V326.4z"/>
		</g>
		<g>
			<path class="st2" d="M24.7,327.5c0,2.2-1.4,3.1-2.7,3.1c-1.5,0-2.6-1.2-2.6-3c0-2,1.2-3.1,2.7-3.1
				C23.7,324.5,24.7,325.7,24.7,327.5z M20.5,327.6c0,1.3,0.7,2.3,1.6,2.3c0.9,0,1.6-1,1.6-2.3c0-1-0.5-2.3-1.6-2.3
				C21,325.3,20.5,326.4,20.5,327.6z"/>
		</g>
		<g>
			<path class="st2" d="M25.8,326.2c0-0.6,0-1.1,0-1.6h0.9l0.1,1h0c0.3-0.6,0.9-1.1,1.8-1.1c0.7,0,1.9,0.5,1.9,2.5v3.5h-1v-3.4
				c0-1-0.3-1.7-1.2-1.7c-0.6,0-1.1,0.5-1.3,1.1c0,0.1-0.1,0.3-0.1,0.5v3.6h-1V326.2z"/>
		</g>
		<g>
			<path class="st2" d="M33.3,331l3.1-8.9h0.8L34,331H33.3z"/>
		</g>
		<g>
			<path class="st2" d="M40.1,322.3h4v0.9h-3.1v2.7h2.8v0.9h-2.8v3.7h-1V322.3z"/>
		</g>
		<g>
			<path class="st2" d="M45.5,327.7c0,1.5,0.9,2.1,1.8,2.1c0.7,0,1.1-0.1,1.5-0.3l0.2,0.8c-0.3,0.2-0.9,0.4-1.8,0.4
				c-1.7,0-2.6-1.2-2.6-3c0-1.8,1-3.2,2.5-3.2c1.8,0,2.2,1.7,2.2,2.8c0,0.2,0,0.4,0,0.5H45.5z M48.4,327c0-0.7-0.3-1.7-1.4-1.7
				c-1,0-1.4,1-1.5,1.7H48.4z"/>
		</g>
		<g>
			<path class="st2" d="M50.5,326.4c0-0.7,0-1.3,0-1.8h0.9l0,1.2h0c0.2-0.8,0.8-1.3,1.5-1.3c0.1,0,0.2,0,0.3,0v1c-0.1,0-0.2,0-0.3,0
				c-0.7,0-1.2,0.6-1.3,1.4c0,0.1,0,0.3,0,0.5v3.2h-1V326.4z"/>
		</g>
		<g>
			<path class="st2" d="M174,323.6L174,323.6l-1.3,0.7l-0.2-0.8l1.6-0.9h0.8v7.9H174V323.6z"/>
		</g>
		<g>
			<path class="st2" d="M181.2,322.4c1,0,1.7,0.9,1.7,2.4c0,1.7-0.8,2.5-1.7,2.5c-0.9,0-1.7-0.8-1.7-2.4
				C179.5,323.3,180.3,322.4,181.2,322.4L181.2,322.4z M181.2,323.1c-0.6,0-0.9,0.8-0.9,1.8c0,1,0.3,1.8,0.9,1.8
				c0.6,0,0.9-0.8,0.9-1.8C182.1,323.9,181.9,323.1,181.2,323.1L181.2,323.1z M181.1,330.6l4.2-8.2h0.6l-4.2,8.2H181.1z M186,325.7
				c1,0,1.7,0.9,1.7,2.4c0,1.7-0.8,2.5-1.7,2.5c-0.9,0-1.7-0.8-1.7-2.4C184.2,326.6,185,325.7,186,325.7L186,325.7z M185.9,326.4
				c-0.6,0-0.9,0.8-0.9,1.8c0,1,0.3,1.8,0.9,1.8c0.6,0,0.9-0.8,0.9-1.8C186.8,327.2,186.6,326.4,185.9,326.4L185.9,326.4z"/>
		</g>
	</g>
</g>
</svg>
