<?xml version="1.0" encoding="utf-8"?>
<!-- Generator: Adobe Illustrator 19.2.1, SVG Export Plug-In . SVG Version: 6.00 Build 0)  -->
<svg version="1.1" id="Layer_1" xmlns="http://www.w3.org/2000/svg" xmlns:xlink="http://www.w3.org/1999/xlink" x="0px" y="0px"
	 viewBox="0 0 85.1 106.2" style="enable-background:new 0 0 85.1 106.2;" xml:space="preserve">
<style type="text/css">
	.st0{fill:#AF1F24;}
	.st1{fill:#FFFFFF;}
	.st2{fill:none;stroke:#FEDC00;stroke-width:1.8925;stroke-miterlimit:10;}
</style>
<g>
	<circle class="st0" cx="42.5" cy="42.5" r="42.5"/>
	<polygon class="st0" points="66.2,55.6 66.2,106.2 43.9,97.1 19.2,106.2 19.2,59.2 	"/>
	<g>
		<path class="st1" d="M19.2,51.3l11.8-9c2.9-2.3,4.1-3.8,4.1-5.7c0-2-1.4-3.2-3.5-3.2c-2.1,0-3.8,1.2-6.3,4.1l-5.9-4.9
			c3.4-4.4,6.7-6.8,12.8-6.8c6.9,0,11.6,4.1,11.6,10V36c0,5-2.6,7.7-7.3,11l-5.4,3.8h13v7.1h-25V51.3z"/>
		<path class="st1" d="M48.1,26.4h2.5v1.2c0.6-0.7,1.3-1.4,2.6-1.4c1.9,0,3,1.2,3,3.3v5.7h-2.5v-4.9c0-1.2-0.6-1.8-1.5-1.8
			c-0.9,0-1.6,0.6-1.6,1.8v4.9h-2.5V26.4z"/>
		<path class="st1" d="M58.3,30.8L58.3,30.8c0-3,1.9-4.6,4-4.6c1.3,0,2.1,0.6,2.7,1.3v-4.3h2.5v11.9H65v-1.3
			c-0.6,0.8-1.4,1.4-2.7,1.4C60.3,35.4,58.3,33.8,58.3,30.8z M65.1,30.8L65.1,30.8c0-1.5-1-2.5-2.1-2.5c-1.2,0-2.1,0.9-2.1,2.4v0
			c0,1.5,1,2.4,2.1,2.4C64.1,33.2,65.1,32.3,65.1,30.8z"/>
	</g>
	<circle class="st2" cx="42.5" cy="42.5" r="35.2"/>
</g>
</svg>
