<?xml version="1.0" encoding="utf-8"?>
<!-- Generator: Adobe Illustrator 19.2.1, SVG Export Plug-In . SVG Version: 6.00 Build 0)  -->
<svg version="1.1" id="Layer_1" xmlns="http://www.w3.org/2000/svg" xmlns:xlink="http://www.w3.org/1999/xlink" x="0px" y="0px"
	 viewBox="0 0 236.4 65.9" style="enable-background:new 0 0 236.4 65.9;" xml:space="preserve">
<style type="text/css">
	.st0{fill:#231F20;}
	.st1{fill:#FEDC00;}
	.st2{fill:#010101;}
	.st3{fill:#FFFFFF;}
</style>
<g>
	<g>
		<path class="st0" d="M221.4,57.1C198,42.5,159.3,33.7,118.1,33.7C77,33.7,38.4,42.4,15,57l-1.6,1L0,24.2l1.3-0.6
			C33,8.4,74.5,0,118.1,0c43.7,0,85.2,8.4,117,23.6l1.3,0.6L223,58.1L221.4,57.1z"/>
		<path class="st1" d="M2,25C32.3,10.5,73.1,1.6,118.1,1.6c45.1,0,86,8.9,116.3,23.5l-12.1,30.7c-22.9-14.3-61-23.7-104.2-23.7
			c-43.1,0-81.1,9.3-104,23.6L2,25z"/>
		<g>
			<g>
				<g>
					<path class="st2" d="M13.8,28.9c1.7-0.7,2.5-1,4.2-1.6c2.7,2.7,4,4.1,6.7,6.9c0.2-3.8,0.4-5.7,0.7-9.6c1.7-0.6,2.5-0.9,4.2-1.4
						c-0.9,8-1.2,12-1.6,19.9C22.5,37.3,19.7,34.5,13.8,28.9z"/>
					<path class="st2" d="M13.8,27.1c1.7-0.7,2.5-1,4.2-1.6c2.7,2.7,4,4.1,6.7,6.9c0.2-3.8,0.4-5.7,0.7-9.6c1.7-0.6,2.5-0.9,4.2-1.4
						c-0.9,8-1.2,12-1.7,19.9C22.5,35.6,19.6,32.7,13.8,27.1z"/>
					<path class="st3" d="M15.2,27.4c1-0.4,1.5-0.6,2.5-1c3.1,3.1,4.6,4.7,7.6,7.9c0.3-4.4,0.4-6.5,0.8-10.9c1-0.3,1.5-0.5,2.5-0.9
						c-0.7,6.8-1,10.2-1.4,17C22.6,34.6,20.2,32.2,15.2,27.4z"/>
				</g>
				<g>
					<path class="st2" d="M46.6,35.2c-1.7-6.2-2.6-9.2-4.3-15.4c1.6-0.4,2.3-0.6,3.9-1.1c1.6,6.2,2.4,9.3,4.1,15.5
						C48.8,34.6,48,34.8,46.6,35.2z"/>
					<path class="st2" d="M46.7,33c-1.7-6.2-2.6-9.3-4.3-15.4c1.6-0.4,2.4-0.6,3.9-1.1c1.6,6.2,2.4,9.3,4,15.5
						C48.9,32.4,48.1,32.6,46.7,33z"/>
					<path class="st3" d="M47.2,32.1c-1.5-5.6-2.3-8.4-3.8-14c0.9-0.3,1.4-0.4,2.3-0.6c1.5,5.6,2.2,8.4,3.7,14
						C48.5,31.8,48.1,31.9,47.2,32.1z"/>
				</g>
				<g>
					<path class="st2" d="M66.6,30.4c-1-4.9-1.4-7.3-2.4-12.2c-1.4,0.3-2.1,0.4-3.5,0.7c-0.3-1.4-0.4-2.1-0.7-3.5
						c4.4-0.9,6.7-1.4,11.1-2.1c0.2,1.4,0.4,2.1,0.6,3.5c-1.4,0.2-2.1,0.4-3.5,0.6c0.9,4.9,1.3,7.4,2.2,12.3
						C68.8,30,68,30.1,66.6,30.4z"/>
					<path class="st2" d="M66.8,28.3c-1-4.9-1.4-7.3-2.4-12.2c-1.4,0.3-2.1,0.4-3.6,0.7c-0.3-1.4-0.4-2.1-0.7-3.5
						c4.5-0.9,6.7-1.4,11.2-2.1c0.2,1.4,0.4,2.1,0.6,3.5c-1.4,0.2-2.1,0.4-3.6,0.6c0.9,4.9,1.3,7.4,2.2,12.3
						C69.1,27.9,68.3,28,66.8,28.3z"/>
					<path class="st3" d="M67.4,27.4c-0.9-4.9-1.4-7.3-2.4-12.2c-1.4,0.3-2.1,0.4-3.6,0.7c-0.2-0.8-0.2-1.2-0.4-2
						c3.8-0.8,5.7-1.1,9.6-1.8c0.1,0.8,0.2,1.2,0.3,2c-1.4,0.2-2.1,0.4-3.6,0.6c0.9,4.9,1.3,7.4,2.2,12.3
						C68.8,27.2,68.3,27.2,67.4,27.4z"/>
				</g>
				<g>
					<path class="st2" d="M89.3,26.9c-0.5-4.9-0.8-7.4-1.4-12.4c-1.4,0.2-2.1,0.2-3.6,0.4c-0.2-1.4-0.3-2.1-0.4-3.5
						c4.5-0.5,6.7-0.8,11.2-1.2c0.1,1.4,0.2,2.1,0.3,3.5c-1.4,0.1-2.1,0.2-3.6,0.3c0.5,5,0.7,7.4,1.2,12.4
						C91.6,26.7,90.8,26.8,89.3,26.9z"/>
					<path class="st2" d="M89.7,24.8c-0.5-5-0.8-7.4-1.3-12.4c-1.4,0.2-2.2,0.2-3.6,0.4c-0.2-1.4-0.3-2.1-0.4-3.5
						c4.5-0.5,6.8-0.8,11.3-1.1c0.1,1.4,0.2,2.1,0.3,3.5c-1.4,0.1-2.2,0.2-3.6,0.3c0.5,5,0.7,7.4,1.2,12.4
						C92,24.6,91.2,24.7,89.7,24.8z"/>
					<path class="st3" d="M90.4,24c-0.5-5-0.8-7.4-1.3-12.4c-1.4,0.1-2.2,0.2-3.6,0.4c-0.1-0.8-0.1-1.2-0.2-2c3.9-0.5,5.8-0.6,9.7-1
						c0.1,0.8,0.1,1.2,0.2,2c-1.4,0.1-2.2,0.2-3.6,0.3c0.5,5,0.7,7.4,1.2,12.4C91.8,23.9,91.3,23.9,90.4,24z"/>
				</g>
				<g>
					<path class="st2" d="M115.6,25.5c-4.8,0.1-8.7-3.4-8.9-8.1c-0.2-4.6,3.7-8.5,8.7-8.5c5-0.1,9,3.8,8.9,8.3
						C124.2,21.9,120.4,25.4,115.6,25.5L115.6,25.5z M115.5,12.5c-2.8,0-4.9,2.1-4.9,4.8c0.1,2.6,2.3,4.6,5,4.6
						c2.7,0,4.8-2.1,4.9-4.7C120.5,14.5,118.3,12.4,115.5,12.5L115.5,12.5z"/>
					<path class="st2" d="M116.1,23.6c-4.8,0-8.7-3.4-8.9-8.1c-0.2-4.6,3.7-8.5,8.8-8.5c5,0,9,3.8,8.9,8.4
						C124.8,20,120.9,23.5,116.1,23.6L116.1,23.6z M116,10.6c-2.9,0-5,2.1-4.9,4.8c0.1,2.6,2.3,4.7,5,4.6c2.7,0,4.9-2.1,4.9-4.7
						C121,12.6,118.8,10.5,116,10.6L116,10.6z"/>
					<path class="st3" d="M116.1,22.9c-4.4,0-8-3.1-8.1-7.4c-0.2-4.2,3.4-7.7,8-7.7c4.6,0,8.2,3.4,8.1,7.6
						C124,19.6,120.5,22.8,116.1,22.9L116.1,22.9z M115.9,9.8c-3.3,0-5.8,2.5-5.7,5.6c0.1,3,2.7,5.4,5.8,5.3c3.1,0,5.6-2.4,5.7-5.5
						C121.8,12.2,119.3,9.8,115.9,9.8L115.9,9.8z"/>
				</g>
				<g>
					<path class="st2" d="M163.2,28.8c1.1-6.3,1.6-9.5,2.7-15.8c1.6,0.3,2.4,0.4,4,0.7c-1.1,6.3-1.7,9.4-2.9,15.7
						C165.4,29.2,164.7,29,163.2,28.8z"/>
					<path class="st2" d="M162.8,26.9c1-6.3,1.6-9.5,2.6-15.8c1.6,0.3,2.4,0.4,4,0.7c-1.1,6.3-1.7,9.4-2.8,15.7
						C165,27.3,164.3,27.2,162.8,26.9z"/>
					<path class="st3" d="M163.6,26.3c1-5.7,1.4-8.6,2.4-14.3c1,0.2,1.4,0.2,2.4,0.4c-1,5.7-1.5,8.6-2.5,14.3
						C165,26.5,164.5,26.5,163.6,26.3z"/>
				</g>
				<g>
					<path class="st2" d="M186.5,34.1c-4.7-1.2-7.5-5.6-6.5-10.1c1-4.5,5.8-7.2,10.7-5.9c4.9,1.3,7.8,6,6.5,10.4
						C195.8,32.9,191.1,35.3,186.5,34.1L186.5,34.1z M189.8,21.5c-2.8-0.7-5.4,0.7-6,3.4c-0.6,2.5,1,5.1,3.6,5.8
						c2.6,0.7,5.3-0.8,6-3.3C194.1,24.8,192.5,22.2,189.8,21.5L189.8,21.5z"/>
					<path class="st2" d="M186.3,32.2c-4.7-1.2-7.6-5.6-6.6-10.1c1-4.5,5.8-7.2,10.8-5.9c4.9,1.3,7.8,6,6.5,10.4
						C195.7,31,191,33.4,186.3,32.2L186.3,32.2z M189.6,19.6c-2.8-0.7-5.4,0.7-6,3.4c-0.6,2.5,1,5.1,3.6,5.8c2.6,0.7,5.3-0.8,6-3.3
						C193.9,22.9,192.3,20.3,189.6,19.6L189.6,19.6z"/>
					<path class="st3" d="M186.5,31.5c-4.3-1.1-6.9-5.1-6-9.2c0.9-4.1,5.3-6.5,9.8-5.4c4.5,1.2,7.1,5.5,6,9.5
						C195,30.4,190.8,32.6,186.5,31.5L186.5,31.5z M189.7,18.9c-3.2-0.8-6.3,0.9-7,3.9c-0.7,2.9,1.2,5.9,4.2,6.7
						c3,0.8,6.1-0.9,6.9-3.8C194.8,22.7,193,19.7,189.7,18.9L189.7,18.9z"/>
				</g>
				<g>
					<path class="st2" d="M210.9,41.8c-1.5-0.6-2.9-1.5-3.8-2.6c-0.7-0.8-1-1.5-1.2-2.6c-0.1-0.3-0.1-0.5-0.2-0.8
						c1.4-0.5,2-0.8,3.4-1.4c0.1,0.5,0.2,0.7,0.3,1.1c0.2,0.7,0.3,1,0.8,1.6c0.5,0.4,1.1,0.8,1.9,1.1c0.8,0.3,1.5,0.4,2.2,0.4
						c0.8,0,1-0.3,1.1-0.6c0.1-0.2,0.3-0.8-1.2-1.7c-1.6-1-2.4-1.5-4.1-2.4c0,0,0,0,0,0c-1.7-1.4-2.3-3.2-1.6-5.2
						c0.5-1.5,1.7-2.5,3.5-2.9c1.5-0.3,3-0.2,4.6,0.4c1.7,0.6,3.1,1.6,3.9,2.8c0.6,0.9,1,1.5,1.2,2.5c0.1,0.3,0.1,0.5,0.2,0.8
						c-1.5,0.4-2.3,0.7-3.8,1.1c-0.1-0.5-0.1-0.7-0.2-1.2c-0.1-0.7-0.3-1-0.8-1.5c-0.4-0.5-1-0.8-1.7-1.1c-0.4-0.1-0.7-0.2-1.1-0.3
						c-0.3,0-0.7-0.1-1,0c-0.7,0.1-0.9,0.4-1,0.7c-0.1,0.2-0.3,0.8,1.2,1.8c1.7,1,2.5,1.5,4.1,2.5c0,0,0,0,0,0
						c1.7,1.5,2.2,3.2,1.5,5.2c-0.6,1.5-1.9,2.5-3.7,2.8C213.9,42.6,212.4,42.4,210.9,41.8L210.9,41.8z"/>
					<path class="st2" d="M210.9,39.7c-1.5-0.6-2.9-1.5-3.8-2.6c-0.7-0.8-1-1.5-1.3-2.6c-0.1-0.3-0.1-0.5-0.2-0.8
						c1.4-0.5,2-0.8,3.4-1.4c0.1,0.5,0.2,0.7,0.3,1.1c0.2,0.7,0.3,1,0.8,1.6c0.5,0.4,1.1,0.8,1.9,1.1c0.8,0.3,1.6,0.4,2.2,0.4
						c0.8,0,1-0.3,1.1-0.7c0.1-0.2,0.3-0.8-1.2-1.7c-1.6-1-2.5-1.5-4.1-2.4c0,0,0,0,0,0c-1.8-1.4-2.4-3.2-1.7-5.2
						c0.5-1.5,1.7-2.5,3.5-2.9c1.5-0.3,3-0.2,4.6,0.4c1.7,0.6,3.1,1.6,4,2.8c0.7,0.9,1,1.5,1.2,2.5c0.1,0.3,0.1,0.5,0.2,0.8
						c-1.5,0.4-2.3,0.7-3.8,1.1c-0.1-0.5-0.1-0.7-0.2-1.2c-0.1-0.7-0.3-1-0.9-1.5c-0.4-0.5-1-0.8-1.7-1.1c-0.4-0.1-0.7-0.2-1.1-0.3
						c-0.3,0-0.7-0.1-1,0c-0.7,0.1-0.9,0.4-1,0.7c-0.1,0.2-0.3,0.8,1.2,1.8c1.7,1,2.5,1.5,4.2,2.5c0,0,0,0,0,0
						c1.7,1.5,2.2,3.2,1.5,5.1c-0.6,1.5-1.9,2.5-3.7,2.8C213.9,40.4,212.4,40.2,210.9,39.7L210.9,39.7z"/>
					<path class="st3" d="M211.1,39c-1.4-0.5-2.6-1.3-3.4-2.3c-0.6-0.7-0.9-1.3-1.1-2.3c0-0.1,0-0.1,0-0.2c0.8-0.3,1.2-0.5,2-0.8
						c0,0.1,0,0.2,0.1,0.3c0.2,0.7,0.3,1.3,1.1,1.9c0.6,0.5,1.3,0.9,2.2,1.3c0.9,0.3,1.8,0.5,2.5,0.4c0.9-0.1,1.5-0.4,1.8-1.1
						c0.3-0.9-0.2-1.7-1.5-2.6c-1.6-1-2.4-1.5-4.1-2.4c-1.5-1.2-2-2.7-1.4-4.4c0.4-1.2,1.4-2.1,2.9-2.4c1.3-0.3,2.7-0.2,4.1,0.3
						c1.5,0.6,2.8,1.4,3.6,2.5c0.6,0.8,0.9,1.3,1.1,2.2c0,0.1,0,0.1,0,0.2c-0.9,0.3-1.3,0.4-2.2,0.7c0-0.1,0-0.2,0-0.3
						c-0.2-0.9-0.4-1.3-1.1-1.9c-0.5-0.5-1.2-1-2.1-1.3c-0.4-0.2-0.9-0.3-1.2-0.3c-0.4-0.1-0.8-0.1-1.2,0c-0.9,0.1-1.4,0.5-1.7,1.1
						c-0.3,0.9,0.2,1.8,1.6,2.6c1.7,1,2.5,1.5,4.1,2.5c1.5,1.2,1.9,2.7,1.3,4.3c-0.5,1.3-1.6,2.1-3.2,2.3
						C213.9,39.7,212.5,39.5,211.1,39L211.1,39z"/>
				</g>
				<g>
					<path class="st2" d="M146,26.3c-0.9-2.2-1.4-3.3-2.4-5.5c-0.3,0-0.7,0-1.1-0.1c-0.2,0-0.5,0-0.8-0.1c-0.7-0.1-1-0.1-1.7-0.1
						c-0.2,2.1-0.2,3.2-0.4,5.3c-1.4-0.1-2.1-0.2-3.5-0.3c0.1-2.1,0.2-3.2,0.3-5.3c-0.4,0-0.7,0-1.1-0.1c0.1-1.4,0.1-2.1,0.2-3.5
						c0.4,0,0.7,0,1.1,0.1c0.2-2.8,0.3-4.2,0.4-6.9c3.2,0.2,4.9,0.3,8.1,0.6c1.6,0.2,3,0.8,4.1,1.8c1.2,1.2,1.7,2.5,1.5,4
						c-0.1,1.2-0.7,2.2-1.6,3c-0.5,0.5-1.1,0.8-1.8,1.1c1.1,2.5,1.6,3.8,2.6,6.3C148.3,26.6,147.5,26.5,146,26.3z M144.5,17.4
						c0.7,0.1,1.2-0.1,1.7-0.3c0.5-0.3,0.8-0.7,0.8-1.2c0.1-0.5-0.1-0.9-0.6-1.3c-0.4-0.4-1-0.6-1.6-0.6c-1.7-0.2-2.6-0.2-4.3-0.4
						c-0.1,1.4-0.2,2.1-0.3,3.5C141.9,17.1,142.8,17.2,144.5,17.4z"/>
					<path class="st2" d="M146.5,24.6c-0.9-2.2-1.4-3.3-2.4-5.6c-0.3,0-0.7,0-1.1-0.1c-0.3,0-0.5-0.1-0.8-0.1
						c-0.7-0.1-1-0.1-1.7-0.1c-0.2,2.1-0.3,3.2-0.4,5.3c-1.4-0.1-2.1-0.2-3.6-0.3c0.1-2.1,0.2-3.2,0.3-5.3c-0.4,0-0.7,0-1.1-0.1
						c0.1-1.4,0.1-2.1,0.2-3.5c0.4,0,0.7,0,1.1,0.1c0.2-2.8,0.3-4.2,0.5-6.9c3.3,0.2,4.9,0.3,8.2,0.7c1.6,0.2,3,0.8,4.1,1.8
						c1.2,1.2,1.7,2.5,1.5,4c-0.1,1.2-0.7,2.2-1.6,3c-0.5,0.5-1.1,0.8-1.9,1.1c1.1,2.5,1.6,3.8,2.6,6.3
						C148.9,24.9,148.1,24.8,146.5,24.6z M145,15.7c0.7,0.1,1.2-0.1,1.7-0.3c0.5-0.3,0.8-0.7,0.8-1.2c0.1-0.5-0.1-0.9-0.6-1.3
						c-0.4-0.4-1-0.6-1.6-0.7c-1.7-0.2-2.6-0.2-4.3-0.4c-0.1,1.4-0.2,2.1-0.3,3.5C142.4,15.4,143.3,15.5,145,15.7z"/>
					<path class="st3" d="M149.1,17.1c0.8-0.7,1.3-1.5,1.4-2.6c0.1-1.3-0.3-2.4-1.3-3.4c-0.9-0.9-2.2-1.5-3.6-1.6
						c-2.9-0.3-4.4-0.4-7.3-0.6c-0.2,2.8-0.3,4.2-0.5,6.9c-0.4,0-0.7,0-1.1-0.1c0,0.8-0.1,1.2-0.1,2c0.4,0,0.7,0,1.1,0.1
						c-0.1,2.1-0.2,3.2-0.4,5.3c0.8,0.1,1.2,0.1,2,0.1c0.2-2.1,0.2-3.2,0.4-5.3c1,0.1,1.5,0.1,2.5,0.2c1.1,0.1,1.8,0.2,2.4,0.2
						c1,2.2,1.5,3.3,2.4,5.6c0.9,0.1,1.3,0.1,2.2,0.2c-1-2.4-1.5-3.6-2.5-5.9C147.6,18,148.4,17.6,149.1,17.1z M139.9,16
						c0.1-2,0.2-3,0.4-4.9c2.1,0.2,3.1,0.2,5.1,0.4c0.8,0.1,1.6,0.4,2.1,0.8c0.6,0.5,0.9,1.2,0.8,1.9c-0.1,0.7-0.5,1.3-1.2,1.7
						c-0.6,0.4-1.4,0.5-2.2,0.4C142.9,16.2,141.9,16.1,139.9,16z"/>
				</g>
			</g>
		</g>
	</g>
	<g>
		<g>
			<path class="st2" d="M229.9,59.4l2,0.8c0.9,0.3,1.2,0.9,1,1.7c-0.3,0.8-0.9,0.8-1.1,0.8l0,0c0.2,0.1,0.5,0.5,0.3,1.1
				c-0.2,0.5-0.3,1-0.2,1.2l-0.8-0.3c0-0.2,0-0.4,0.1-0.7c0.3-0.8,0.3-1.2-0.4-1.4l-1.1-0.4l-0.7,1.7l-0.7-0.3L229.9,59.4z
				 M229.9,61.6l1.2,0.5c0.5,0.2,0.8,0,1-0.4c0.2-0.5-0.1-0.8-0.5-0.9l-1.2-0.4L229.9,61.6z"/>
		</g>
		<g>
			<path class="st2" d="M229.4,65.7c-1.9-0.7-2.9-2.9-2.2-4.8c0.7-1.9,2.9-2.9,4.8-2.2c1.9,0.7,2.9,2.9,2.2,4.8
				C233.4,65.5,231.3,66.4,229.4,65.7L229.4,65.7z M231.8,59.2c-1.6-0.6-3.5,0.2-4.1,1.8c-0.6,1.6,0.2,3.5,1.8,4.1
				c1.6,0.6,3.5-0.2,4.1-1.8C234.3,61.7,233.4,59.9,231.8,59.2L231.8,59.2z"/>
		</g>
	</g>
</g>
</svg>
