<?xml version="1.0" encoding="utf-8"?>
<!-- Generator: Adobe Illustrator 19.2.1, SVG Export Plug-In . SVG Version: 6.00 Build 0)  -->
<svg version="1.1" id="Layer_1" xmlns="http://www.w3.org/2000/svg" xmlns:xlink="http://www.w3.org/1999/xlink" x="0px" y="0px"
	 viewBox="0 0 240.3 136" style="enable-background:new 0 0 240.3 136;" xml:space="preserve">
<style type="text/css">
	.st0{fill:#A68D5B;}
	.st1{fill:#FEDC00;}
	.st2{fill:#231F20;}
	.st3{fill:#AF1F24;}
</style>
<g>
	<path class="st0" d="M0.3,58.2c0,0,66.7-39.8,238.1-54.8l-13.1,35.3l15,35.3c0,0-179.9,19.3-240,62V56.9"/>
	<path class="st1" d="M0,53.4C0,53.4,65.6,15,234.3,0l-12.9,35.3l14.8,35.3c0,0-177,18-236.1,60.6V53.4"/>
	<g>
		<g>
			<g>
				<path class="st2" d="M81.2,55.8c0.8-5.4,1.2-8.1,1.9-13.5c0.9-0.3,1.3-0.4,2.2-0.6c-1,6.6-1.5,9.9-2.5,16.5
					c-1.4,0.4-2.1,0.6-3.5,1c-0.9-6.1-1.3-9.1-2.1-15.2c0.9-0.3,1.4-0.4,2.4-0.7C80.2,48.4,80.5,50.8,81.2,55.8z"/>
				<path class="st2" d="M87.2,41.2c0.9-0.3,1.4-0.4,2.3-0.7c-0.1,6.3-0.1,9.5-0.2,15.9c-0.9,0.3-1.4,0.4-2.3,0.7
					C87.1,50.7,87.1,47.5,87.2,41.2z"/>
				<path class="st2" d="M91.4,40c2.9-0.8,4.4-1.2,7.3-2c0,0.9,0,1.4,0,2.3c-1,0.3-1.5,0.4-2.5,0.7c-0.1,5.4-0.1,8.2-0.2,13.6
					c-0.9,0.3-1.4,0.4-2.3,0.6c0.1-5.4,0.1-8.2,0.2-13.6c-1,0.3-1.5,0.4-2.5,0.7C91.4,41.3,91.4,40.9,91.4,40z"/>
				<path class="st2" d="M99.8,37.7c2.9-0.8,4.4-1.1,7.3-1.8c0,0.9,0,1.4,0,2.3c-1,0.2-1.5,0.4-2.5,0.6c-0.1,5.4-0.1,8.2-0.2,13.6
					c-0.9,0.2-1.4,0.4-2.3,0.6c0.1-5.4,0.1-8.2,0.2-13.6c-1,0.3-1.5,0.4-2.5,0.6C99.8,39.1,99.8,38.6,99.8,37.7z"/>
				<path class="st2" d="M108.7,39.3c0-2.5,1.3-4.3,3.6-4.9c2.3-0.5,3.6,0.6,3.5,3.2c0,3.3-0.1,5-0.1,8.3c0,2.5-1.3,4.3-3.6,4.8
					c-2.3,0.5-3.6-0.6-3.5-3.1C108.7,44.2,108.7,42.6,108.7,39.3z M111,47.1c0,1.1,0.5,1.5,1.2,1.3c0.7-0.2,1.2-0.7,1.2-1.9
					c0-3.4,0.1-5.1,0.1-8.6c0-1.1-0.5-1.5-1.2-1.3c-0.7,0.2-1.2,0.7-1.2,1.9C111,42,111,43.7,111,47.1z"/>
				<path class="st2" d="M123,48c-0.1-0.4-0.2-0.6-0.2-1.9c0-1,0-1.5,0-2.5c0-1.5-0.4-1.9-1.5-1.7c-0.3,0.1-0.5,0.1-0.8,0.2
					c0,2.6,0,3.9-0.1,6.5c-0.9,0.2-1.4,0.3-2.3,0.5c0.1-6.3,0.1-9.5,0.2-15.9c1.4-0.3,2.1-0.5,3.5-0.8c2.4-0.5,3.5,0.4,3.4,2.9
					c0,0.5,0,0.7,0,1.2c0,1.6-1.6,3.6-1.6,3.6c0,0.1,1.5,1.4,1.5,3c0,1,0,1.5,0,2.5c0,0.8,0,1.3,0.2,1.9
					C124.4,47.7,123.9,47.8,123,48z M120.6,35c0,2,0,2.9-0.1,4.9c0.4-0.1,0.6-0.1,0.9-0.2c0.9-0.2,1.4-0.7,1.4-2c0-0.6,0-0.9,0-1.6
					c0-1.1-0.3-1.6-1.2-1.4C121.2,34.8,121,34.9,120.6,35z"/>
				<path class="st2" d="M127.7,31.2c0.9-0.2,1.4-0.3,2.3-0.5c-0.1,6.3-0.1,9.5-0.2,15.9c-0.9,0.2-1.4,0.3-2.3,0.5
					C127.6,40.7,127.6,37.5,127.7,31.2z"/>
				<path class="st2" d="M132.3,34c0-2.5,1.3-4.2,3.6-4.7c2.3-0.4,3.5,0.8,3.5,3.3c0,3.3-0.1,5-0.1,8.3c0,2.5-1.3,4.2-3.6,4.7
					c-2.3,0.4-3.5-0.7-3.5-3.3C132.3,39,132.3,37.3,132.3,34z M134.6,42c0,1.1,0.5,1.5,1.2,1.3c0.7-0.1,1.2-0.7,1.2-1.8
					c0-3.4,0.1-5.1,0.1-8.6c0-1.1-0.5-1.5-1.2-1.3c-0.7,0.1-1.2,0.7-1.2,1.8C134.6,36.8,134.6,38.5,134.6,42z"/>
				<path class="st2" d="M145,27.6c2.3-0.4,3.4,0.8,3.4,3.4c0,0.2,0,0.3,0,0.5c-0.9,0.2-1.3,0.2-2.2,0.4c0-0.3,0-0.4,0-0.7
					c0-1.1-0.4-1.5-1.2-1.4c-0.7,0.1-1.2,0.6-1.2,1.8c0,3.3,4.5,3.1,4.5,7.6c0,2.5-1.2,4.2-3.5,4.6c-2.3,0.4-3.5-0.8-3.5-3.4
					c0-0.4,0-0.6,0-1c0.9-0.2,1.3-0.2,2.2-0.4c0,0.5,0,0.7,0,1.1c0,1.1,0.5,1.5,1.2,1.3c0.7-0.1,1.2-0.6,1.2-1.8
					c0-3.3-4.5-3.1-4.5-7.6C141.5,29.7,142.7,28,145,27.6z"/>
				<path class="st2" d="M154.4,25.2c2.5-0.4,4.3,1.3,4.3,4.1s-1.9,5-4.4,5.4c-2.5,0.4-4.3-1.3-4.3-4
					C150,27.9,151.9,25.6,154.4,25.2z M154.3,33.7c2-0.3,3.4-2.1,3.5-4.3c0-2.2-1.4-3.6-3.4-3.3c-2,0.3-3.4,2.2-3.5,4.4
					C150.9,32.7,152.3,34.1,154.3,33.7z M154.9,32.7c-0.1-0.2-0.1-0.2-0.1-0.8c0-0.2,0-0.4,0-0.6c0-0.6-0.2-0.8-0.6-0.7
					c-0.1,0-0.2,0-0.3,0.1c0,0.9,0,1.3,0,2.2c-0.4,0.1-0.6,0.1-0.9,0.2c0-2.3,0-3.4,0.1-5.7c0.6-0.1,0.9-0.1,1.4-0.2
					c1-0.2,1.4,0.3,1.4,1.3c0,0,0,0.1,0,0.1c0,0.7-0.7,1.4-0.7,1.4c0,0,0.6,0.6,0.6,1.3c0,0.2,0,0.4,0,0.6c0,0.3,0,0.5,0.1,0.8
					C155.5,32.6,155.3,32.6,154.9,32.7z M153.9,28.1c0,0.6,0,1,0,1.6c0.2,0,0.2,0,0.4-0.1c0.3-0.1,0.6-0.3,0.6-0.8
					c0-0.1,0-0.1,0-0.2c0-0.5-0.1-0.6-0.5-0.6C154.2,28.1,154.1,28.1,153.9,28.1z"/>
			</g>
			<g>
				<path class="st3" d="M54.1,65.7c0-0.7-0.3-1.3-0.9-1.7c-0.8-0.6-2-0.6-3.5-0.1c-1.3,0.5-2.8,1.3-4.4,2.5
					c-0.8,0.6-1.6,1.3-2.2,2.1c-1,1.2-1.4,2.3-1.5,3.1c0,1.2,0.7,2,2.1,2.4c0.5,0.2,1.6,0.3,3.1,0.5c1.6,0.2,2.7,0.4,3.4,0.6
					c1.1,0.3,1.8,0.8,2.3,1.5c0.4,0.7,0.6,1.3,0.6,2c0,1-0.3,2.1-1,3.4c-1.1,2.2-2.7,4.4-4.8,6.4c-2.4,2.4-5.3,4.2-8.7,5.5
					c-3.3,1.2-5.8,1.3-7.7,0.3c-1.5-0.8-2.2-2.2-2.2-4.3c0-1.3,0.5-3,1.4-5c0.9-2,2.1-3.6,3.4-4.8c0.3-0.2,0.5-0.3,0.6-0.4
					c0.1,0,0,0.2-0.4,0.7c-0.8,1-1.5,2-1.9,3c-1.1,2.2-1.6,4.2-1.6,6.3c0,1.3,0.3,2.4,1,3.1c1.2,1.3,3.5,1.4,6.5,0.6
					c0.3-0.1,0.9-0.3,1.6-0.5c0.7-0.3,1.6-0.7,2.8-1.5c1.2-0.7,2.4-1.6,3.5-2.6c2.4-2.2,4-4.5,4.7-6.9c0.2-0.7,0.4-1.4,0.4-2
					c0-1.3-0.6-2.4-1.7-3c-0.6-0.3-1.9-0.5-3.7-0.7c-1.9-0.2-3.1-0.4-3.8-0.6c-1.4-0.5-2.1-1.5-2.1-2.9c0-1.2,0.7-2.7,2-4.3
					c1.9-2.3,4.5-4.1,7.8-5.3c1.6-0.6,2.9-0.8,3.9-0.6c1,0.2,1.6,0.7,1.8,1.6c0,0.2,0.1,0.4,0,0.6c0,0.8-0.4,1.6-1,2.4
					C53.7,68,53,68.5,52.2,69c-0.3,0.2-0.5,0.2-0.6,0.1c0-0.2,0.2-0.5,0.7-0.7c0.9-0.4,1.4-1.1,1.7-2C54.1,66.2,54.1,65.9,54.1,65.7
					z"/>
				<path class="st3" d="M57.7,84c0.4-0.1,0.7-0.4,1.1-0.9c0.7-0.9,1.6-2.8,2.7-5.4c0.1-0.3,0.3-0.5,0.4-0.4c0,0,0.1,0.1,0.1,0.2
					c0,0.1-0.1,0.3-0.2,0.7c-0.2,0.4-0.3,0.8-0.4,1.1c-0.1,0.3-0.4,0.8-0.7,1.6c-0.4,0.7-0.7,1.3-1,1.8c-0.8,1.2-1.5,1.9-2.2,2.1
					c-0.7,0.2-1.2,0.2-1.5-0.2c-0.3-0.3-0.4-0.8-0.4-1.3c0-0.5,0.1-1.2,0.4-1.9c0.7-2.2,1.1-3.3,1.8-5.5c0-0.1,0.1-0.3,0.1-0.5
					c0-0.2-0.1-0.4-0.3-0.7c0.6-0.2,0.9-0.3,1.5-0.5c0.4-0.1,0.7-0.1,0.8,0c0.1,0.1,0,0.4-0.2,0.8c-0.9,2.5-1.4,3.8-2.3,6.3
					c-0.3,0.8-0.5,1.5-0.5,2C56.8,84,57.1,84.2,57.7,84z M60.6,72.2c-0.3,0.3-0.6,0.5-0.9,0.6c-0.3,0.1-0.6,0.1-0.8-0.1
					c-0.2-0.2-0.3-0.4-0.2-0.8c0-0.3,0.2-0.7,0.5-1c0.3-0.3,0.6-0.5,0.9-0.6c0.3-0.1,0.6-0.1,0.8,0.1c0.2,0.2,0.3,0.4,0.2,0.8
					C61,71.5,60.8,71.8,60.6,72.2z"/>
				<path class="st3" d="M60.5,93.1c-1.8,0.6-2.6,0.1-2.6-1.4c0-1.3,0.8-2.7,2.5-4.2c1.4-1.3,3.2-2.7,5.3-4.1c1-0.7,1.9-1.2,2.2-1.5
					c0.7-1,0.8-3.4,0.8-5.2c0-0.4,0-0.8,0-0.8c-0.1,0-1.3,2.7-2.2,4.2c-1.1,1.8-2.3,2.8-3.2,2.7c-0.9,0-1.4-0.8-1.4-2.1
					c0-1.7,0.8-3.9,2.5-6.4c0.9-1.4,2-2.4,3.1-3.1c0.3-0.2,0.6-0.4,1-0.5c0.8-0.3,1.7-0.3,2.5,0.1c0.3,0.1,0.4,0.3,0.4,0.5
					c0,0.2-0.1,0.4-0.2,0.6c-0.1,0.2-0.2,0.3-0.4,0.2c-0.1-0.1-0.2-0.2-0.2-0.3c-0.2-0.7-0.6-0.9-1.2-0.7c-1,0.3-2.1,1.4-3.4,3.3
					c-0.7,1.1-1.3,2.1-1.8,3.3c-0.6,1.4-0.9,2.4-1,3.1c0,0.6,0.2,1,0.5,1.1c0.1,0,0.3,0,0.4,0c0.4-0.1,1-0.6,1.6-1.5
					c0.7-0.8,1.3-1.8,1.8-3c0.6-1.1,0.9-2,1.1-2.6c0.2-0.6,0.3-1,0.6-1.2c0.2-0.2,0.5-0.4,0.7-0.5c0.3-0.1,0.5-0.3,0.5-0.3
					c0.1,0,0.2,1.9,0.2,3.1c0,1.2-0.6,4.3-0.6,4.3c0,0,1.5-1.7,1.9-2.3c0.4-0.6,0.7-1.2,0.9-1.7c0.2-0.5,0.4-1,0.6-1.4
					c0.2-0.5,0.3-0.8,0.3-0.9c0.1-0.1,0.2-0.2,0.3-0.3c0.1-0.1,0.2,0,0.2,0.1c0,0.1,0,0.2-0.1,0.4c-0.8,2-1.5,3.6-2.1,4.6
					c-0.6,1-1.8,1.9-2.3,2.6c-0.6,0.9-1.1,3-2,4.6c-0.9,1.6-1.9,3.1-3.2,4.5C63.1,91.7,61.8,92.6,60.5,93.1z M58.5,92
					c0,0.8,0.4,1,1.4,0.7c0.5-0.2,1.2-0.6,1.8-1.1c0.7-0.6,1.3-1.1,1.7-1.6c0.8-0.9,1.6-2.2,2.6-3.7c0.7-1.2,1.2-2.4,1.6-3.5
					c-0.4,0.3-0.6,0.4-1,0.7c-2.9,2-5,3.6-6.2,4.9c-0.9,0.9-1.5,1.9-1.8,2.9C58.6,91.5,58.5,91.8,58.5,92z"/>
				<path class="st3" d="M83.2,66.9c0.5,0.9-3.5,8.1-3.5,9.4c0,0.5,0.2,0.7,0.5,0.6c1-0.3,2.4-2.4,3.9-6.3c0.1-0.3,0.2-0.5,0.3-0.4
					c0.1,0,0.2,0.1,0.2,0.2c0,0.1,0,0.2-0.1,0.4c-1,2.3-1.9,4.1-2.6,5.1c-0.7,1-1.4,1.6-2.1,1.8c-0.7,0.2-1.2,0-1.5-0.4
					c-0.2-0.2-0.3-0.5-0.3-1c0-0.4,0.1-1,0.3-1.7c0.2-0.7,0.7-1.9,1.6-3.6c0.2-0.4,0.3-0.7,0.3-0.9c0-0.2-0.2-0.3-0.5-0.2
					c-0.3,0.1-0.9,0.7-1.8,1.9c-1.3,1.7-2.6,4.2-4,7.1c-0.1,0.2-0.2,0.4-0.4,0.5c-0.1,0.1-0.4,0.2-0.8,0.4c-0.4,0.1-0.8,0.4-0.8,0.4
					c0,0,0.9-2.2,1.8-4.4c1.6-4,2.7-6.3,3.1-6.9c0.2-0.3,0.5-0.5,0.9-0.6c0.1,0,0.3-0.1,0.6-0.1c0.3,0,0.7-0.2,0.7-0.2
					c0,0-3.5,6.6-3.5,6.6c0,0,1.7-2.6,2.4-3.5c0.7-0.9,1.6-1.8,2.6-2.7c1-0.9,1.8-1.4,2.2-1.5C83,66.9,83.2,66.9,83.2,66.9z"/>
				<path class="st3" d="M92.3,68.4c-0.6,1.4-1,2.5-1.1,3.1c-0.1,0.7-0.2,1.2-0.2,1.6c0,0.4,0.1,0.5,0.4,0.5
					c0.4-0.1,0.8-0.6,1.3-1.4c0.8-1.2,1.6-2.8,2.3-4.6c0.1-0.2,0.2-0.3,0.3-0.4c0.1-0.1,0.2-0.1,0.2,0.1c0,0.1,0,0.2-0.1,0.4
					c-1.6,4.1-3.2,6.4-4.4,6.7c-0.5,0.2-1,0-1.3-0.5c-0.2-0.2-0.2-0.6-0.2-1.1c0-0.5,0.3-1.9,0.3-1.9c0,0-2.8,4.6-3.9,4.9
					C85.5,76,85.2,76,85,75.9c-0.5-0.3-0.8-0.9-0.8-1.9c0-1.9,0.8-4.2,2.5-6.6c0.9-1.4,2-2.4,3.3-3.1c0.4-0.2,0.7-0.3,1-0.4
					c0.9-0.2,1.6-0.1,2.2,0.4c0.2,0.2,0.2,0.4,0.2,0.6c-0.1,0.2-0.4,0.4-0.5,0.4c-0.2-0.1-0.6-0.9-1.3-0.7c-0.8,0.2-1.8,1.2-3,2.9
					c-0.7,1-1.3,2.1-1.9,3.3c-0.7,1.5-1.1,2.6-1.1,3.4c0,0.8,0.2,1.1,0.7,1c1.1-0.3,2.6-2.6,4.5-6.7c0.4-0.8,0.7-1.4,0.9-1.8
					c0.2-0.3,0.6-0.6,0.9-0.7c0.1,0,0.3,0,0.6-0.1c0.3,0,0.7-0.2,0.7-0.2C93.7,65.6,92.9,67,92.3,68.4z"/>
				<path class="st3" d="M95.3,70.9c0-1.6,0.8-4.6,2.3-8.9c-0.6,0.2-0.9,0.2-1.5,0.4c-0.1,0-0.2,0-0.2-0.1c0-0.1,0-0.2,0-0.3
					c0-0.1,0.1-0.2,0.2-0.2c0.7-0.2,1-0.3,1.7-0.4c0.7-1.7,1.3-3.2,1.9-4.4c0.6-1.2,1.1-2.1,1.6-2.5c0.5-0.5,0.8-0.8,1.1-0.8
					c0.2-0.1,0.4-0.1,0.5-0.1c0.4,0.1,0.6,0.5,0.6,1.2c0,0.7-0.2,1.6-0.7,2.6c-0.4,1.1-0.9,2.1-1.3,3c0.5-0.1,0.8-0.2,1.3-0.3
					c0.1,0,0.2,0,0.2,0.1c0,0.1,0,0.2,0,0.3c0,0.1-0.1,0.2-0.2,0.2c-0.7,0.2-1,0.2-1.6,0.4c-1,2.1-2.3,4.1-3.8,5.9
					c-0.3,1.3-0.4,1.9-0.7,3.2c-0.1,0.3-0.1,0.5-0.1,0.8c0,0.2,0.1,0.5,0.2,0.7c0.1,0.2,0.3,0.3,0.6,0.2c0.3-0.1,0.7-0.3,1.1-0.6
					c0.9-0.9,2-2.7,3-5.3c0.1-0.2,0.2-0.3,0.3-0.4c0.1-0.1,0.2-0.1,0.2,0c0,0.1,0,0.2-0.1,0.5c-0.6,1.5-1.1,2.6-1.5,3.3
					c-1,2-2.1,3.1-3.3,3.4c-0.6,0.2-1.1,0.1-1.4-0.3C95.5,72.1,95.3,71.5,95.3,70.9z M100.7,61.2c-0.5,0.1-0.8,0.2-1.3,0.3
					c-0.2,0.6-1.6,4.4-1.6,4.4C97.8,65.9,99.8,62.9,100.7,61.2z M101.1,60.4c1.3-2.7,1.9-4.4,1.9-5.4c0-0.4-0.1-0.6-0.2-0.5
					c-0.2,0.1-0.5,0.5-1,1.2c-0.4,0.7-1.2,2.4-2.2,5.1C100.2,60.7,100.5,60.6,101.1,60.4z"/>
				<path class="st3" d="M101.7,69.8c0-0.9,1.1-3.4,1.1-3.4c0,0-0.4-0.1-0.2-0.4c0.2-0.5,0.3-0.7,0.5-1.2c0.6-1.5,1.2-2.7,1.6-3.7
					c0.2-0.5,0.6-0.8,1.1-0.9c0.7-0.2,1-0.3,1.7-0.4c-0.7,0.7-1.4,1.8-2.1,3.5c-0.7,1.6-1.2,2.9-1.6,3.9c-0.4,0.9-0.6,1.6-0.6,2.1
					c0,0.4,0.1,0.7,0.2,0.9c0.1,0.1,0.3,0.2,0.6,0.1c0.4-0.1,0.9-0.6,1.5-1.6c1-1.5,2.4-4.5,4.3-8.8c0.2-0.5,0.6-0.8,1.1-0.9
					c0.6-0.1,0.9-0.2,1.5-0.4c-0.4,0.4-0.7,0.9-1,1.3c-0.2,0.4-0.6,1.1-1,2.1c-1.1,2.6-1.8,4.4-1.9,5.2c-0.1,0.3-0.1,0.6-0.1,0.8
					c0,0.6,0.2,0.9,0.6,0.9c1-0.2,2.4-2.2,3.8-5.9c0.1-0.3,0.2-0.4,0.3-0.4c0.1,0,0.2,0.1,0.2,0.2c0,0.1-0.1,0.3-0.3,0.7
					c-0.2,0.4-0.3,0.8-0.5,1.2c-0.2,0.4-0.4,0.9-0.7,1.6c-0.3,0.7-0.6,1.2-0.9,1.6c-0.7,1-1.5,1.7-2.2,1.8c-0.7,0.2-1.2,0-1.4-0.6
					c-0.1-0.3-0.2-0.6-0.2-1.1c0-0.5,0.3-1.8,0.3-1.8c0,0-2.7,4.5-3.8,4.8c-1,0.3-1.5-0.2-1.8-0.9C101.8,70.1,101.7,70,101.7,69.8z"
					/>
				<path class="st3" d="M117.7,55.8c0,0.9-1.6,2.9-1.6,2.9c0,0,0.9-0.2,1.5-0.3s2-0.8,2.4-0.7c0,0,0.1,0.2,0.1,0.5
					c0,0.3-0.1,0.7-0.3,1.2c-0.2,0.6-0.4,1-0.6,1.4c-0.2,0.4-0.4,0.8-0.5,1.2c-0.2,0.4-0.3,0.8-0.5,1.3c-0.2,0.5-0.4,1-0.5,1.4
					c-0.5,1.6-0.4,2.4,0.2,2.2c0.8-0.2,1.9-2.2,3.5-5.8c0.1-0.3,0.2-0.4,0.3-0.4c0.1,0,0.1,0.1,0.1,0.2c0,0.1-0.1,0.4-0.4,1
					c-0.2,0.6-0.5,1.2-0.8,1.8c-0.3,0.6-0.7,1.4-1.3,2.2c-0.7,1.1-1.4,1.7-2.1,1.8c-0.7,0.2-1.2-0.2-1.5-1.1
					c-0.1-0.2-0.1-0.4-0.1-0.8c0-0.4,0.1-0.9,0.3-1.5c0.2-0.6,0.6-1.4,1-2.4c0.5-1,0.7-1.5,0.8-1.7c0.1-0.2,0.1-0.3,0.1-0.5
					c0-0.6-0.7-0.8-2.2-0.5c-0.1,0.4-0.2,0.6-0.3,1c-1.2,3.5-2.4,6-3.5,7.4c-0.2,0.2-0.3,0.2-0.3-0.1c0-0.1,0-0.1,0.1-0.2
					c0.9-1.7,2-3.7,2.8-5.9c0.8-2.2,1.3-4.2,1.7-6.1c0.1-0.6,0.4-1,0.8-1.1s0.7,0.1,0.9,0.6C117.7,55.3,117.7,55.5,117.7,55.8z"/>
				<path class="st3" d="M123.5,61.8c-0.3,0.3-0.4,1.5-0.4,2.3c0,0.6,0.1,1,0.3,1.2c0.2,0.3,0.6,0.4,1,0.3c1.7-0.4,3.3-2.4,4.7-6.1
					c0.1-0.3,0.3-0.5,0.5-0.5c0.1,0,0.1,0,0.1,0.1c0,0.1-0.2,0.6-0.6,1.7c-0.4,1-0.9,1.9-1.3,2.6c-1,1.6-2.2,2.5-3.6,2.8
					c-0.7,0.2-1.4,0-1.9-0.4c-0.5-0.4-0.8-1-0.8-1.9c0-0.9,0.2-1.9,0.6-3c0.4-1.1,1-2.1,1.7-3.2c0.7-1,1.5-1.8,2.4-2.4
					c0.4-0.3,0.8-0.5,1.2-0.6c0.4-0.1,0.8,0,1.1,0.1c0.3,0.2,0.5,0.5,0.5,0.8c0,1.2-0.7,2.5-2.1,3.8c-0.4,0.4-1,0.8-1.7,1.3
					C124.4,61.5,123.6,61.7,123.5,61.8z M128.2,56.1c0-0.4-0.1-0.6-0.4-0.5c-0.5,0.1-1.3,1-2.4,2.6c-0.6,1-1.7,3.2-1.7,3.2
					c0,0,0.8-0.3,1.4-0.7c0.6-0.4,1.1-0.8,1.6-1.3C127.7,58.2,128.2,57.1,128.2,56.1z"/>
				<path class="st3" d="M164.7,58.8c-0.8,1.1-1.8,1.7-2.9,1.9c-1.1,0.2-2.1-0.2-3.1-1.2c-1-1-1.8-2.4-2.5-4.4
					c-0.6-2-1.3-5.4-1.3-5.4c-0.1,0-1.1,2.4-1.4,3.1c-0.3,0.7-0.8,1.6-1.5,2.8c-0.7,1.1-1.4,2.2-2.1,3.1c-2.2,2.9-4.7,4.6-7.5,5.1
					c-2.5,0.5-4.1,0-4.7-1.3c-0.1-0.3-0.2-0.7-0.2-1.1c0-0.4,0.2-1,0.7-1.6c0.7-0.9,1.7-1.5,2.9-1.8c0.8-0.2,1.7-0.2,2.6,0
					c0.2,0.1,0.3,0.1,0.3,0.3c-0.1,0.1-0.3,0.1-0.7,0c-0.4-0.1-0.9-0.1-1.6,0c-0.6,0.1-1.1,0.5-1.6,1c-0.4,0.6-0.7,1.1-0.7,1.7
					c0,0.2,0,0.5,0.1,0.7c0.3,1,1.2,1.3,2.6,1.1c1.5-0.3,2.9-1,4.1-2.2c0.7-0.7,1.3-1.3,1.8-2c0.5-0.7,1.1-1.5,1.8-2.6
					c1-1.6,1.8-3.2,2.5-4.6c0.7-1.4,1.4-2.9,2.3-4.6c0.8-1.6,1.4-2.8,1.8-3.6c1.2-2.3,3.3-5.5,3.3-5.5c0-0.1-2.1,0.2-3.1,0.3
					c-2.4,0.4-4.8,1-7.1,1.9c-2.4,0.9-4.2,2.1-5.6,3.6c-1.8,1.8-2.6,3.6-2.7,5.4c0,0.8,0.3,1.5,0.8,2.1c0.6,0.5,1.3,0.7,2.3,0.6
					c1.2-0.2,2.1-0.8,2.9-1.8c0.8-1,1.2-1.8,1.2-2.3c0-0.3,0.1-0.4,0.2-0.4c0.1,0,0.2,0.1,0.2,0.4c-0.1,0.9-0.5,1.8-1.1,2.6
					c-1.1,1.3-2.3,2.1-3.8,2.4c-1.1,0.2-2.1,0-2.9-0.7c-0.8-0.6-1.2-1.6-1.2-3c0-2,0.9-3.9,2.8-5.8c1.8-1.9,4.2-3.3,7.1-4.3
					c2.1-0.7,4-1.1,5.8-1.4c1.8-0.3,4.1-0.1,4.9-0.4c0.4-0.2,0.8-1,1-1c0.1,0,0.2,0.1,0.2,0.3c0,0.2-0.2,0.7-0.1,0.7
					c0.2,0.2,2.3,0.1,2.8,0.2c2.8,0.5,4.2,1.6,4.1,3.5c0,1.2-0.7,2.4-2.1,3.8c-1.7,1.6-4,2.9-6.9,3.8c-0.8,0.3-2.4,0.5-2.6,0.7
					c-0.6,0.9,1.6,6.2,3,8.4c0.5,0.7,0.9,1.3,1.4,1.6c0.4,0.3,0.9,0.4,1.3,0.4c0.7-0.1,1.4-0.6,2.2-1.5c0.8-0.9,1.6-2.5,2.7-4.7
					c0.1-0.3,0.3-0.5,0.5-0.5c0.1,0,0.2,0.1,0,0.4C166.5,55.8,165.6,57.7,164.7,58.8z M166.2,40.6c0-0.2,0-0.3,0-0.5
					c-0.2-1-1-1.8-2.5-2c-0.4-0.1-2.2-0.5-2.7-0.2c-0.3,0.2-1.2,2.2-2.5,4.7c-1.3,2.5-3,5.8-3,5.8c0,0,1-0.3,1.8-0.5
					c0.8-0.2,1.4-0.3,1.7-0.4c2.1-0.6,3.9-1.8,5.5-3.4C165.6,42.8,166.2,41.6,166.2,40.6z"/>
				<path class="st3" d="M169.6,53.8c-0.3,0.2-0.4,1.5-0.4,2.3c0,0.6,0.1,1,0.3,1.3c0.2,0.3,0.6,0.4,1,0.4c1.7-0.2,3.2-2.1,4.7-5.7
					c0.1-0.3,0.3-0.5,0.5-0.5c0.1,0,0.1,0.1,0.1,0.1c0,0.1-0.2,0.6-0.6,1.6c-0.4,1-0.9,1.8-1.3,2.5c-1,1.5-2.1,2.3-3.5,2.5
					c-0.7,0.1-1.4-0.1-1.9-0.5c-0.5-0.4-0.8-1.1-0.8-2c0-0.9,0.2-1.9,0.6-2.9c0.4-1.1,1-2.1,1.7-3c0.7-1,1.5-1.7,2.4-2.2
					c0.4-0.2,0.8-0.4,1.2-0.4c0.4,0,0.8,0,1.1,0.2c0.3,0.2,0.5,0.5,0.5,0.9c0,1.2-0.7,2.4-2,3.7c-0.4,0.4-1,0.8-1.7,1.1
					C170.5,53.6,169.7,53.7,169.6,53.8z M174.3,48.5c0-0.4-0.1-0.6-0.4-0.5c-0.5,0.1-1.3,0.8-2.4,2.4c-0.6,0.9-1.7,3-1.7,3
					c0,0,0.8-0.2,1.4-0.5c0.6-0.3,1.1-0.7,1.6-1.2C173.8,50.5,174.3,49.5,174.3,48.5z"/>
				<path class="st3" d="M181.4,50.1c0-0.4,1-1.6,1-2.2c0-0.6-0.2-0.8-0.7-0.8c-0.9,0.1-1.9,1.1-3,2.9c-0.4,0.6-0.7,1.3-1.1,2.2
					c-0.3,0.9-0.5,1.7-0.5,2.4c0,0.7,0.1,1.3,0.4,1.7c0.3,0.4,0.7,0.6,1.2,0.5c0.6-0.1,1.1-0.3,1.6-0.6c0.5-0.3,1-0.8,1.4-1.5
					c0.4-0.7,0.8-1.2,1-1.7c0.2-0.4,0.5-1.1,0.9-2c0.1-0.3,0.2-0.4,0.3-0.4c0.1,0,0.1,0.1,0.1,0.2c0,0.1-0.1,0.4-0.4,1
					c-0.3,0.6-0.5,1.2-0.8,1.7c-0.3,0.5-0.6,1.1-1.1,1.8c-0.8,1.2-2,1.9-3.4,2c-1,0.1-1.8-0.1-2.2-0.6c-0.5-0.5-0.7-1.1-0.7-1.8
					c0-0.9,0.2-1.8,0.6-2.9c0.4-1.1,0.9-2,1.4-2.8c1.1-1.7,2.4-2.6,3.8-2.8c0.7-0.1,1.2,0,1.5,0.4c0.3,0.3,0.5,0.7,0.4,1.2
					c0,0.7-0.3,1.3-0.8,1.8c-0.3,0.3-0.5,0.4-0.7,0.5C181.7,50.3,181.4,50.2,181.4,50.1z"/>
				<path class="st3" d="M185.7,55.9c0.4,0,0.7-0.3,1.1-0.7c0.7-0.8,1.6-2.4,2.7-4.7c0.1-0.3,0.3-0.4,0.4-0.3c0,0,0.1,0.1,0.1,0.2
					c0,0.1-0.1,0.3-0.2,0.7c-0.2,0.4-0.3,0.7-0.4,1c-0.1,0.3-0.4,0.8-0.7,1.4c-0.3,0.7-0.7,1.2-0.9,1.5c-0.8,1-1.5,1.5-2.2,1.6
					c-0.7,0.1-1.2-0.1-1.5-0.5c-0.3-0.4-0.4-0.9-0.4-1.4c0-0.5,0.1-1.1,0.4-1.8c0.7-2,1.1-3,1.8-5c0-0.1,0.1-0.3,0.1-0.5
					c0-0.2-0.1-0.4-0.3-0.7c0.6-0.1,0.9-0.1,1.5-0.2c0.4,0,0.7,0,0.7,0.2c0.1,0.2,0,0.4-0.2,0.8c-0.9,2.3-1.4,3.5-2.3,5.8
					c-0.3,0.8-0.5,1.4-0.5,1.9C184.8,55.7,185.1,55.9,185.7,55.9z M188.5,44.7c-0.3,0.3-0.6,0.4-0.9,0.4c-0.3,0-0.6-0.1-0.7-0.3
					c-0.2-0.2-0.3-0.5-0.2-0.8c0-0.3,0.2-0.6,0.5-0.9c0.3-0.3,0.6-0.4,0.9-0.4c0.3,0,0.6,0.1,0.8,0.3c0.2,0.2,0.3,0.5,0.2,0.8
					C188.9,44.1,188.8,44.4,188.5,44.7z"/>
				<path class="st3" d="M198.9,47.3c0,0.9-0.2,1.9-0.7,2.9c-0.4,1.1-1,2.1-1.8,3.2c-0.8,1-1.7,1.8-2.8,2.2
					c-0.4,0.2-0.9,0.3-1.4,0.3c-0.5,0-1.1-0.1-1.7-0.4c-1.1,2.9-1.6,4.4-2.7,7.3c-0.3,0.7-0.6,1.1-0.8,1.3c-0.2,0.2-0.5,0.3-0.7,0.4
					c-0.2,0-0.4,0-0.4,0c0,0-0.2,0-0.5,0c-0.3,0-0.7,0-0.7,0c0,0,1.5-2.5,3.2-6.2c1.7-3.7,2.9-7.4,2.9-7.4c0,0-0.4,0.5-0.6,0.6
					c-0.1,0-0.1-0.1,0-0.3c0.1-0.2,0.3-0.7,0.6-1.4c0.3-0.9,0.5-1.7,0.5-2.4c0-0.7-0.4-1.2-0.4-1.2c0-0.1,1.8-0.4,2-0.5
					c0.2,0,0.3,0.1,0.3,0.2c0,0.2,0.1,0.3,0.1,0.5c0,1.2-0.3,2.6-0.8,4.1c0.2-0.4,0.3-0.6,0.6-1c0.7-1.2,1.2-2,1.5-2.4
					c0.3-0.4,0.6-0.7,1-1.1c0.5-0.6,1.1-0.9,1.6-1c0.1,0,0.3,0,0.4,0C198.5,45.3,199,46,198.9,47.3z M197.6,47.1
					c0-0.3-0.1-0.6-0.2-0.9c-0.1-0.3-0.3-0.4-0.6-0.4c-0.6,0.1-1.4,0.8-2.3,2.1c-0.9,1.4-4,5.7-3.8,7.1c0,0.1,0.6,0.3,1,0.3
					c0.4,0,1-0.4,1.8-1.2c1.3-1.2,2.3-2.7,3.2-4.4C197.3,48.7,197.6,47.8,197.6,47.1z"/>
				<path class="st3" d="M202.2,50.6c-0.3,0.2-0.4,1.5-0.4,2.3c0,0.6,0.1,1,0.3,1.3c0.2,0.3,0.6,0.5,1,0.4c1.7-0.1,3.2-1.9,4.6-5.4
					c0.1-0.3,0.3-0.5,0.5-0.4c0.1,0,0.1,0.1,0.1,0.1c0,0.1-0.2,0.6-0.6,1.6c-0.4,1-0.9,1.8-1.3,2.4c-1,1.4-2.1,2.2-3.5,2.3
					c-0.7,0-1.4-0.2-1.9-0.6c-0.5-0.5-0.8-1.2-0.8-2.1c0-0.9,0.2-1.9,0.6-2.9c0.4-1,1-2,1.7-2.9c0.7-0.9,1.5-1.6,2.4-2
					c0.4-0.2,0.8-0.3,1.2-0.4c0.4,0,0.8,0.1,1.1,0.3c0.3,0.2,0.5,0.6,0.5,0.9c0,1.2-0.7,2.4-2,3.5c-0.4,0.4-1,0.7-1.7,1
					C203.2,50.4,202.3,50.5,202.2,50.6z M206.9,45.5c0-0.4-0.1-0.6-0.4-0.6c-0.5,0-1.3,0.8-2.4,2.2c-0.6,0.9-1.7,2.9-1.7,2.9
					c0,0,0.8-0.2,1.4-0.4c0.6-0.3,1.1-0.6,1.6-1.1C206.4,47.5,206.9,46.5,206.9,45.5z"/>
			</g>
		</g>
	</g>
</g>
</svg>
