<?xml version="1.0" encoding="utf-8"?>
<!-- Generator: Adobe Illustrator 19.2.1, SVG Export Plug-In . SVG Version: 6.00 Build 0)  -->
<svg version="1.1" id="Layer_1" xmlns="http://www.w3.org/2000/svg" xmlns:xlink="http://www.w3.org/1999/xlink" x="0px" y="0px"
	 viewBox="0 0 354.8 230.1" style="enable-background:new 0 0 354.8 230.1;" xml:space="preserve">
<style type="text/css">
	.st0{fill:#221F1F;}
	.st1{fill:#FDDB00;}
	.st2{fill:#FFFFFF;}
	.st3{fill:#EA2127;}
</style>
<g>
	<g>
		<g>
			<path class="st0" d="M332.3,85.8c-35.2-22-93.2-35.2-155.1-35.2c-61.7,0-119.6,13.1-154.8,35L20,87.1L0,36.3l2-1
				C49.6,12.5,111.8,0,177.3,0c65.6,0,127.9,12.6,175.6,35.5l2,1l-20,50.8L332.3,85.8z"/>
			<path class="st1" d="M3.1,37.5C48.5,15.7,109.8,2.4,177.3,2.4c67.6,0,129.1,13.4,174.5,35.2l-18.2,46.1
				c-34.3-21.5-91.6-35.5-156.4-35.5c-64.6,0-121.7,14-156.1,35.4L3.1,37.5z"/>
			<g>
				<g>
					<g>
						<path d="M20.8,43.4c2.5-1,3.7-1.5,6.2-2.4c4.1,4.1,6.1,6.2,10,10.4c0.3-5.7,0.5-8.6,1-14.3c2.5-0.9,3.8-1.3,6.3-2.1
							c-1.3,12-1.8,18-2.4,29.9C33.7,56,29.5,51.8,20.8,43.4z"/>
						<path d="M20.8,40.8c2.5-1,3.8-1.5,6.3-2.4c4.1,4.1,6.1,6.2,10,10.4c0.4-5.7,0.6-8.6,1.1-14.4c2.5-0.9,3.8-1.3,6.3-2.1
							c-1.4,12-1.9,18-2.6,29.9C33.7,53.4,29.5,49.1,20.8,40.8z"/>
						<path class="st2" d="M22.9,41.1c1.5-0.6,2.3-0.9,3.8-1.4c4.6,4.7,6.9,7,11.4,11.8c0.4-6.5,0.6-9.8,1.2-16.4
							c1.5-0.5,2.3-0.8,3.8-1.3c-1.1,10.3-1.5,15.4-2.2,25.6C33.9,52,30.3,48.3,22.9,41.1z"/>
					</g>
					<g>
						<path d="M69.9,52.8c-2.6-9.3-3.9-13.9-6.4-23.1c2.3-0.7,3.5-1,5.9-1.6c2.5,9.3,3.7,13.9,6.1,23.2
							C73.2,51.9,72.1,52.2,69.9,52.8z"/>
						<path d="M70,49.6c-2.6-9.3-3.8-13.9-6.4-23.1c2.4-0.7,3.5-1,5.9-1.6c2.4,9.3,3.6,13.9,6.1,23.2C73.4,48.7,72.3,49,70,49.6z"/>
						<path class="st2" d="M70.9,48.2c-2.3-8.4-3.4-12.6-5.7-21c1.4-0.4,2.1-0.6,3.5-0.9c2.2,8.4,3.3,12.6,5.6,21.1
							C72.9,47.7,72.2,47.8,70.9,48.2z"/>
					</g>
					<g>
						<path d="M99.9,45.7c-1.4-7.3-2.2-11-3.6-18.3c-2.1,0.4-3.2,0.6-5.3,1.1c-0.4-2.1-0.7-3.1-1.1-5.2c6.7-1.4,10-2,16.7-3.2
							c0.4,2.1,0.5,3.2,0.9,5.2c-2.1,0.4-3.2,0.5-5.3,0.9c1.4,7.4,2,11,3.4,18.4C103.3,45,102.1,45.2,99.9,45.7z"/>
						<path d="M100.3,42.5c-1.4-7.3-2.1-11-3.6-18.4c-2.1,0.4-3.2,0.6-5.3,1.1c-0.4-2.1-0.7-3.1-1.1-5.2c6.7-1.4,10.1-2,16.8-3.2
							c0.4,2.1,0.5,3.1,0.9,5.2c-2.1,0.4-3.2,0.5-5.4,0.9c1.3,7.4,2,11,3.3,18.4C103.7,41.8,102.5,42,100.3,42.5z"/>
						<path class="st2" d="M101.2,41.2c-1.4-7.3-2.1-11-3.5-18.4c-2.1,0.4-3.2,0.6-5.4,1.1c-0.2-1.2-0.4-1.8-0.6-3
							c5.7-1.2,8.6-1.7,14.4-2.7c0.2,1.2,0.3,1.8,0.5,3c-2.1,0.4-3.2,0.6-5.4,0.9c1.3,7.4,2,11,3.4,18.4
							C103.2,40.8,102.5,40.9,101.2,41.2z"/>
					</g>
					<g>
						<path d="M134,40.4c-0.8-7.4-1.2-11.2-2-18.6c-2.1,0.2-3.2,0.4-5.3,0.6c-0.3-2.1-0.4-3.2-0.6-5.3c6.7-0.8,10.1-1.2,16.8-1.7
							c0.2,2.1,0.3,3.2,0.4,5.3c-2.1,0.2-3.2,0.3-5.4,0.5c0.7,7.4,1.1,11.2,1.8,18.6C137.4,40.1,136.3,40.2,134,40.4z"/>
						<path d="M134.7,37.3c-0.8-7.4-1.2-11.2-2-18.6c-2.2,0.2-3.2,0.4-5.4,0.6c-0.3-2.1-0.4-3.2-0.6-5.3c6.8-0.8,10.2-1.2,17-1.7
							c0.2,2.1,0.3,3.2,0.4,5.3c-2.2,0.2-3.2,0.3-5.4,0.5c0.7,7.4,1,11.2,1.7,18.6C138.1,36.9,137,37,134.7,37.3z"/>
						<path class="st2" d="M135.7,36c-0.8-7.4-1.2-11.2-1.9-18.6c-2.2,0.2-3.2,0.3-5.4,0.6c-0.1-1.2-0.2-1.8-0.4-3.1
							c5.8-0.7,8.7-1,14.5-1.5c0.1,1.2,0.1,1.9,0.3,3.1c-2.2,0.2-3.3,0.3-5.4,0.5c0.7,7.4,1.1,11.2,1.8,18.6
							C137.8,35.8,137.1,35.9,135.7,36z"/>
					</g>
					<g>
						<path d="M173.6,38.2c-7.2,0.1-13.1-5.1-13.4-12.1c-0.3-6.9,5.6-12.7,13.1-12.8c7.5-0.1,13.5,5.7,13.4,12.5
							C186.5,32.8,180.7,38.2,173.6,38.2L173.6,38.2z M173.3,18.7c-4.3,0-7.4,3.2-7.3,7.2c0.1,3.9,3.5,7,7.4,6.9
							c4,0,7.3-3.2,7.3-7.1C180.8,21.7,177.6,18.6,173.3,18.7L173.3,18.7z"/>
						<path d="M174.2,35.4c-7.2,0.1-13.1-5.1-13.4-12.1c-0.3-6.9,5.6-12.7,13.2-12.8c7.6-0.1,13.6,5.7,13.4,12.5
							C187.3,30,181.5,35.3,174.2,35.4L174.2,35.4z M174,15.9c-4.3,0-7.5,3.2-7.3,7.2c0.1,3.9,3.5,7,7.5,6.9c4,0,7.3-3.2,7.3-7.1
							C181.6,18.9,178.3,15.8,174,15.9L174,15.9z"/>
						<path class="st2" d="M174.2,34.3c-6.6,0.1-12-4.7-12.2-11.1c-0.2-6.2,5.1-11.6,12-11.6c6.9-0.1,12.4,5.2,12.2,11.4
							C186.1,29.4,180.8,34.2,174.2,34.3L174.2,34.3z M174,14.8c-5,0-8.7,3.7-8.5,8.4c0.1,4.5,4,8.1,8.7,8c4.6,0,8.5-3.7,8.5-8.2
							C182.8,18.3,179,14.7,174,14.8L174,14.8z"/>
					</g>
					<g>
						<path d="M244.9,43.2c1.6-9.5,2.4-14.2,4-23.7c2.4,0.4,3.6,0.6,6,1c-1.7,9.4-2.6,14.2-4.3,23.6
							C248.3,43.8,247.2,43.6,244.9,43.2z"/>
						<path d="M244.3,40.4c1.6-9.5,2.4-14.2,3.9-23.7c2.4,0.4,3.6,0.6,6,1c-1.7,9.4-2.6,14.2-4.3,23.6
							C247.7,41,246.6,40.8,244.3,40.4z"/>
						<path class="st2" d="M245.6,39.5c1.4-8.6,2.2-12.9,3.6-21.5c1.4,0.2,2.1,0.4,3.6,0.6c-1.5,8.6-2.3,12.9-3.8,21.5
							C247.7,39.8,247,39.7,245.6,39.5z"/>
					</g>
					<g>
						<path d="M279.9,51.2c-7-1.8-11.3-8.4-9.8-15.2c1.5-6.7,8.8-10.8,16.1-8.9c7.3,1.9,11.6,9.1,9.7,15.6
							C293.9,49.4,286.9,53,279.9,51.2L279.9,51.2z M284.8,32.2c-4.2-1.1-8,1.1-9,5c-0.9,3.8,1.5,7.7,5.4,8.7c3.9,1,7.9-1.1,9-4.9
							C291.3,37.2,289,33.3,284.8,32.2L284.8,32.2z"/>
						<path d="M279.6,48.3c-7.1-1.8-11.4-8.4-9.9-15.2c1.5-6.7,8.8-10.8,16.1-8.9c7.4,1.9,11.8,9,9.8,15.6
							C293.7,46.6,286.7,50.2,279.6,48.3L279.6,48.3z M284.5,29.4c-4.2-1.1-8.1,1.1-9,5c-0.9,3.8,1.5,7.7,5.5,8.7c3.9,1,8-1.2,9-4.9
							C291.1,34.3,288.7,30.5,284.5,29.4L284.5,29.4z"/>
						<path class="st2" d="M279.9,47.3c-6.5-1.7-10.4-7.7-9-13.9c1.4-6.1,8-9.8,14.7-8.1c6.7,1.7,10.7,8.2,8.9,14.2
							C292.8,45.6,286.4,48.9,279.9,47.3L279.9,47.3z M284.8,28.4c-4.9-1.3-9.4,1.3-10.5,5.8c-1,4.4,1.8,8.8,6.3,10
							c4.5,1.2,9.2-1.3,10.4-5.7C292.4,34.1,289.7,29.6,284.8,28.4L284.8,28.4z"/>
					</g>
					<g>
						<path d="M316.6,62.8c-2.3-0.8-4.3-2.2-5.6-3.8c-1-1.3-1.5-2.3-1.9-3.9c-0.1-0.5-0.1-0.7-0.2-1.1c2-0.8,3-1.2,5.1-2
							c0.2,0.7,0.3,1,0.4,1.7c0.3,1,0.4,1.6,1.2,2.3c0.7,0.7,1.7,1.2,2.9,1.7c1.2,0.4,2.3,0.6,3.2,0.6c1.2-0.1,1.5-0.5,1.7-1
							c0.1-0.3,0.4-1.2-1.8-2.6c-2.4-1.5-3.7-2.2-6.1-3.6c0,0,0,0-0.1-0.1c-2.6-2.1-3.5-4.8-2.5-7.8c0.8-2.2,2.5-3.7,5.2-4.3
							c2.2-0.5,4.5-0.3,6.9,0.6c2.5,0.9,4.6,2.4,5.9,4.1c1,1.3,1.5,2.2,1.8,3.8c0.1,0.5,0.2,0.7,0.3,1.2c-2.3,0.7-3.4,1-5.7,1.7
							c-0.1-0.7-0.2-1.1-0.3-1.8c-0.2-1.1-0.4-1.4-1.3-2.3c-0.7-0.7-1.5-1.2-2.6-1.6c-0.6-0.2-1.1-0.3-1.6-0.4
							c-0.5-0.1-1-0.1-1.5-0.1c-1,0.1-1.3,0.6-1.5,1c-0.1,0.4-0.4,1.2,1.8,2.6c2.5,1.5,3.7,2.2,6.2,3.7c0,0,0,0,0.1,0.1
							c2.6,2.2,3.3,4.9,2.2,7.7c-0.9,2.3-2.9,3.7-5.6,4.2C321.1,63.9,318.8,63.6,316.6,62.8L316.6,62.8z"/>
						<path d="M316.5,59.6c-2.3-0.8-4.4-2.2-5.7-3.8c-1-1.3-1.6-2.3-1.9-3.9c-0.1-0.5-0.2-0.7-0.3-1.1c2-0.8,3.1-1.2,5.1-2
							c0.2,0.7,0.3,1,0.5,1.7c0.3,1,0.4,1.6,1.3,2.3c0.7,0.7,1.7,1.2,2.9,1.7c1.2,0.4,2.3,0.6,3.3,0.6c1.2-0.1,1.5-0.5,1.7-1
							c0.1-0.3,0.4-1.2-1.8-2.5c-2.5-1.5-3.7-2.2-6.2-3.6c0,0,0,0-0.1-0.1c-2.6-2.1-3.5-4.8-2.5-7.8c0.7-2.2,2.5-3.7,5.2-4.3
							c2.2-0.5,4.6-0.3,6.9,0.6c2.5,0.9,4.6,2.4,5.9,4.1c1,1.3,1.5,2.2,1.8,3.8c0.1,0.5,0.2,0.7,0.3,1.2c-2.3,0.7-3.4,1-5.7,1.7
							c-0.1-0.7-0.2-1.1-0.3-1.8c-0.2-1.1-0.5-1.5-1.3-2.3c-0.7-0.7-1.5-1.2-2.6-1.6c-0.6-0.2-1.1-0.3-1.6-0.4
							c-0.5-0.1-1-0.1-1.5-0.1c-1,0.1-1.4,0.6-1.5,1c-0.1,0.4-0.4,1.2,1.8,2.6c2.5,1.5,3.8,2.2,6.2,3.7c0,0,0,0,0.1,0.1
							c2.6,2.2,3.4,4.9,2.2,7.7c-0.9,2.3-2.9,3.7-5.6,4.2C321.1,60.7,318.8,60.4,316.5,59.6L316.5,59.6z"/>
						<path class="st2" d="M316.9,58.5c-2.1-0.8-4-2-5.2-3.5c-0.9-1.1-1.4-2-1.7-3.4c0-0.1,0-0.2-0.1-0.3c1.2-0.5,1.8-0.7,3-1.2
							c0,0.2,0.1,0.2,0.1,0.4c0.3,1.1,0.5,1.9,1.6,2.9c0.8,0.8,2,1.4,3.3,1.9c1.4,0.5,2.7,0.7,3.8,0.7c1.4-0.1,2.3-0.6,2.7-1.7
							c0.5-1.3-0.2-2.6-2.3-3.9c-2.4-1.5-3.7-2.2-6.1-3.6c-2.3-1.8-3-4-2.1-6.5c0.6-1.9,2.1-3.1,4.4-3.6c2-0.4,4.1-0.2,6.2,0.5
							c2.3,0.8,4.2,2.2,5.3,3.7c0.9,1.2,1.3,2,1.6,3.3c0,0.1,0,0.2,0.1,0.3c-1.3,0.4-2,0.6-3.4,1c0-0.2,0-0.3-0.1-0.4
							c-0.3-1.3-0.6-1.9-1.6-2.9c-0.8-0.8-1.8-1.5-3.1-1.9c-0.6-0.2-1.3-0.4-1.9-0.5c-0.6-0.1-1.2-0.1-1.7-0.1
							c-1.3,0.1-2.1,0.7-2.5,1.7c-0.5,1.4,0.3,2.7,2.4,4c2.5,1.5,3.7,2.2,6.2,3.7c2.2,1.9,2.8,4.1,1.9,6.5c-0.8,1.9-2.4,3.1-4.8,3.5
							C321.1,59.5,319,59.3,316.9,58.5L316.9,58.5z"/>
					</g>
					<g>
						<path d="M219.1,39.5c-1.4-3.3-2.1-5-3.6-8.3c-0.5,0-1-0.1-1.7-0.1c-0.4,0-0.8-0.1-1.3-0.1c-1-0.1-1.5-0.1-2.6-0.2
							c-0.2,3.2-0.4,4.7-0.6,7.9c-2.1-0.2-3.2-0.2-5.3-0.4c0.2-3.2,0.3-4.7,0.5-7.9c-0.7,0-1-0.1-1.6-0.1c0.1-2.1,0.2-3.1,0.3-5.2
							c0.7,0,1,0.1,1.6,0.1c0.3-4.2,0.4-6.2,0.7-10.4c4.9,0.3,7.3,0.5,12.2,1c2.4,0.2,4.5,1.1,6.1,2.7c1.8,1.7,2.5,3.8,2.2,6
							c-0.2,1.8-1.1,3.4-2.5,4.6c-0.8,0.7-1.7,1.3-2.8,1.6c1.6,3.8,2.4,5.7,3.9,9.5C222.6,39.9,221.5,39.8,219.1,39.5z M216.9,26.1
							c1,0.1,1.8-0.1,2.5-0.5c0.8-0.5,1.2-1,1.3-1.7c0.1-0.8-0.2-1.4-0.9-2c-0.6-0.6-1.4-0.9-2.4-1c-2.6-0.2-3.9-0.4-6.5-0.6
							c-0.2,2.1-0.2,3.1-0.4,5.2C213,25.7,214.3,25.8,216.9,26.1z"/>
						<path d="M219.9,36.9c-1.4-3.3-2.1-5-3.6-8.3c-0.5,0-1-0.1-1.7-0.1c-0.4,0-0.8-0.1-1.3-0.1c-1-0.1-1.5-0.1-2.6-0.2
							c-0.3,3.2-0.4,4.7-0.6,7.9c-2.1-0.2-3.2-0.2-5.3-0.4c0.2-3.2,0.3-4.7,0.5-7.9c-0.7,0-1-0.1-1.6-0.1c0.1-2.1,0.2-3.1,0.3-5.2
							c0.7,0,1,0.1,1.7,0.1c0.3-4.2,0.4-6.2,0.7-10.4c4.9,0.3,7.3,0.5,12.2,1c2.4,0.2,4.6,1.2,6.2,2.7c1.8,1.7,2.5,3.8,2.2,6
							c-0.2,1.8-1.1,3.4-2.5,4.6c-0.8,0.7-1.7,1.2-2.8,1.6c1.6,3.8,2.4,5.7,3.9,9.5C223.4,37.3,222.3,37.2,219.9,36.9z M217.7,23.5
							c1,0.1,1.8-0.1,2.6-0.5c0.8-0.4,1.2-1,1.3-1.7c0.1-0.7-0.2-1.4-0.9-2c-0.6-0.6-1.5-0.9-2.5-1c-2.6-0.2-3.9-0.4-6.5-0.6
							c-0.2,2.1-0.2,3.1-0.4,5.2C213.8,23.2,215.1,23.3,217.7,23.5z"/>
						<path class="st2" d="M223.8,25.6c1.2-1,1.9-2.3,2.1-3.9c0.2-1.9-0.4-3.6-1.9-5.1c-1.4-1.4-3.3-2.2-5.4-2.4
							c-4.4-0.4-6.6-0.6-11-0.9c-0.3,4.2-0.4,6.2-0.7,10.4c-0.7,0-1-0.1-1.7-0.1c-0.1,1.2-0.1,1.8-0.2,3c0.7,0,1,0.1,1.6,0.1
							c-0.2,3.2-0.3,4.7-0.5,7.9c1.2,0.1,1.8,0.1,3.1,0.2c0.2-3.2,0.4-4.7,0.6-7.9c1.5,0.1,2.3,0.2,3.8,0.3c1.7,0.2,2.7,0.2,3.6,0.3
							c1.5,3.3,2.2,5,3.6,8.4c1.3,0.1,2,0.2,3.3,0.4c-1.5-3.6-2.2-5.3-3.7-8.9C221.6,27.1,222.8,26.5,223.8,25.6z M210,24
							c0.2-3,0.3-4.4,0.6-7.4c3.1,0.2,4.6,0.4,7.7,0.7c1.3,0.1,2.3,0.5,3.2,1.3c1,0.8,1.4,1.8,1.3,2.9c-0.1,1.1-0.7,2-1.8,2.6
							c-0.9,0.6-2,0.8-3.3,0.7C214.5,24.3,213,24.2,210,24z"/>
					</g>
				</g>
			</g>
		</g>
		<g>
			<g>
				<path d="M345.1,89.2l3,1.1c1.4,0.5,1.8,1.4,1.4,2.5c-0.5,1.2-1.4,1.2-1.6,1.2l0,0c0.4,0.2,0.8,0.7,0.4,1.7
					c-0.3,0.7-0.4,1.4-0.3,1.8l-1.2-0.4c-0.1-0.3,0.1-0.7,0.2-1c0.4-1.2,0.4-1.7-0.6-2.1l-1.6-0.6l-1,2.6l-1.1-0.4L345.1,89.2z
					 M345.1,92.5l1.8,0.7c0.7,0.3,1.2,0.1,1.5-0.6c0.3-0.8-0.2-1.1-0.7-1.4l-1.8-0.7L345.1,92.5z"/>
			</g>
			<g>
				<path d="M344.3,98.6c-2.9-1.1-4.3-4.3-3.2-7.2c1.1-2.9,4.3-4.3,7.2-3.2c2.9,1.1,4.3,4.3,3.2,7.2
					C350.4,98.3,347.1,99.7,344.3,98.6L344.3,98.6z M348,88.9c-2.4-0.9-5.2,0.3-6.1,2.8c-0.9,2.5,0.3,5.2,2.8,6.1
					c2.5,0.9,5.2-0.3,6.1-2.8C351.6,92.6,350.4,89.9,348,88.9L348,88.9z"/>
			</g>
		</g>
	</g>
	<g>
		<path class="st2" d="M94.3,87.2l82.9-47.4l82.2,46.5v95.6l-81.7,48.2l-83.4-48.2V87.2z"/>
		<polygon class="st1" points="177.5,70.1 232.9,102.2 232.9,165.1 177.5,197.9 121.6,167.8 121.6,101.9 		"/>
		<path d="M99,166.9v12.4l78.8,45.5l77.1-45.5V89l-77.6-43.8L99,89.9v67.6c0,0,0,0,0,0L99,166.9z M202.2,187.9l-24.7,14.6l-14.7-7.9
			l-44.9-24.8v-51.8V100l59.7-34l51.3,29.7l7.8,5.1v34.9v31.6l-8.5,5L202.2,187.9z"/>
		<g>
			<path d="M156,194.2c8.6-3.4,10.7-8.4,11.8-9c1.2-0.6,2.6-1.1,4.5-1.8c1.9-0.8,1-3,2-6.9c1-3.9,1.2-1,3.5-3.8
				c2.3-2.8,1.2-4.8,1.2-6.9c0-2.1,0.1-6.5,0.4-8.8c0.3-2.3,0.1-9.5-0.7-13.7c-0.8-4.2-7.5-16.3-9.4-18.5c-1.9-2.2-6.4-6-11.4-9.4
				c-5-3.4-17.7-6.5-22.9-6.6c-5.3-0.1-13.2,2-14.8,2.7c-1.5,0.8-2.3,1.6-10.9,2.1c-8.6,0.5-6.4-3.5-7-4c-0.7-0.5-2-0.3-4.6,0.8
				c-2.6,1.1-2.5,1.7-4.5,4.8c-2,3.1-1.3,5.4-2,6.9c-0.8,1.4-1.6,1.8-2.4,4.1c-0.8,2.3-0.5,4.9-0.9,7c-0.4,2.1-1.1,7.9-1.5,11
				c-0.3,3.1-0.9,8.6,0.7,20.4c1.7,11.7,10,24.3,10,24.3c5,5.6,14.8,10,30.5,10.9C138.8,201.1,147.5,197.6,156,194.2z"/>
			<g>
				<path class="st2" d="M160.4,184.8c0.4-0.4-11.3,10.5-27.7,11c-2.2,0.7-21.5-4.5-22.7-4.8c-1.3-0.3-11.6-5.2-15.1-14.3
					c-7.7-19.5-2.5-38.9-4.1-42.1c2.1,1.3,6,1.4,6.5-0.1c0.3-0.9-5-2.8-5.3-6.6c0.7-1.1,4.4,1.5,5.1-0.7c0.2-1-2.1-3.5-2.1-3.5
					s6.2,5,8,3.5c1,0.2-6.2-9.9-5.9-10.8c0-1.5,1.9-2.8,2.8-2.5c0.9,0.3,4.3,5.7,10.9,5c6.6-0.7,12.1-3.6,16.3-4.8
					c4.6-1.4,25,0.1,35,9.5c10,9.5,12.9,20.9,14,22.7c0.9,4.1-0.5,8.9-1.4,9.5c-0.8,0.6-3.6-11.6-10.9-11.3c-0.9,0.8,0.9,2.2,1.3,3
					c0.4,0.9,8.7,6.8,7.4,10.1c-0.9,1.5-6.8-6-7.2-6.3c-0.4-0.4-10.1-11.1-12.2-7.9c-1.7,1.4,10.4,8.4,10,9.7
					c-0.9,1.5-1,0.1-1.4,0.5c-0.4,0.4-1.4,1.6-1.4,1.6s-5.8-3.9-6.3-2.7c-0.5,1.2,1.3,2.3,1,2.8c-0.3,0.5-1.4,1.2-2.1,1.2
					c-0.7,0-1.1-0.4-1.6,0.1c-0.5,0.4-0.6,0.2-1.5,0.2c-1.8,0.1-9.8-9.1-11.8-6.8c-1.5,1.7,10.9,10.9,13,12.2
					c2.1,1.3,1.8,3.2,2.6,3.8c0.9,0.7,2.9,1.5,2,1.8c-0.9,0.3-8.3-2.3-7,0c1.3,2.3,5.6,2.1,7,3c1.3,0.8,1.8,1.5,3.2,2.1
					c1.4,0.6,1.8,0.2,3.2-0.1c1.5-0.4,0.7-1.3,1.5-0.4c0.8,0.9,0.4,4.8-2,4.5c-2.4-0.3-16.3-7.7-15.7-2.8c0.9,4.1,18.7,4.4,22,4.5
					c-0.6,1.8-1.8,3.1-3.5,3c-2.7,0.4-6.2,1.6-13.2,0c0,0-4.8-2.4-5.4-0.6c-0.6,1.7,2.5,2.8,5.2,3.1
					C152.6,184.1,160.4,184.8,160.4,184.8z"/>
				<path class="st2" d="M173.1,166.9c0,0-2.5-6.1-6.7-7.1c-4.2-1-8.3,0.6-6.9,4.9c1.4,4.3,5.4,4.6,6.3,4.6c0.9-0.1,2.1,0.4,1.1,1.1
					c-1,0.7-0.3,2.3,0.7,2.4c1,0.1,2.5-0.7,3.1-2.3c-0.1-1.4-1.8-1.3-1.3-1.9c0,0,1-1.6,2.3,0.5
					C172.8,170.7,174.1,167.8,173.1,166.9z"/>
			</g>
			<g>
				<path d="M168.6,143.3c-0.9-1-4.7-7.2-6.3-9.3c-0.4-0.9-1.3-1.4-1.9-2c-0.7-0.6-8-4.3-8.4-4.6c-0.4-0.4-1.4-2.4-0.3-2.4
					c1.1,0,9.3,4.3,10.3,5.2c1,0.8,8,11,8.3,11.6C170.6,142.3,170.1,144.2,168.6,143.3z"/>
				<path d="M149.9,146.4c0,0-3.2-5.4-3.6-5.7c-0.4-0.4-1.2-0.9-1.7-1.2c-0.5-0.3-4.5-1.4-5.4-1.2c-0.8,0.2-1.5,1.3-0.7,2.2
					c0.8,0.9,4.7,0.6,5.8,2.4c1.5,1.8,2.4,4.5,3.4,4.9C148,148.8,150.3,148,149.9,146.4z"/>
				<path d="M135.3,125.6c0,0-5.4,0.9-6,0.8c-0.6-0.1-3.2-1.3-4.1-1.3c-0.9,0.1-12.3,0.3-12.6-0.2c-0.2-0.4,0-1.8,0.7-1.6
					c0.7,0.2,7.6-1.7,9.4-1.7c1.8,0,3.2,0.1,4.6,0.7c1.4,0.6,4.8,1.6,5.8,1.7C134,124,137,123.8,135.3,125.6z"/>
				<path d="M120.4,153c0,0-7.3-3.9-7.6-4.6c-0.4-0.7,0-1.8-1-2.4c-1-0.6-1.5-1.8-1.8-2.2c-0.4-0.4-2.1-3.5-2.6-4.6
					c-0.5-1-1.2-4.9-2-4.1c-0.9,0.8-0.7,7.1-0.2,8.5c0.5,1.4,3.1,5.6,4.8,7.1c1.7,1.5,9.4,7.6,11.4,6.3
					C123.2,155.6,121.9,153.5,120.4,153z"/>
				<path d="M143.6,177.7c0,0-6.6,0.7-15.5-4.6c0,0-3.5-3.4-4.1-4.2c-0.6-0.8-0.9-1.4-1.4-2.1c-0.5-0.7-2.3-2.1-2.3-2.9
					c0-0.7,4.4,0,5.5,0.7c1.1,0.7,2.5,3.2,4.3,4.5c1.8,1.3,11.4,6.4,12.6,6.9C144.2,176.5,145.5,177.3,143.6,177.7z"/>
				<path d="M117.4,176.6c0,0-3.9,1-6.4-0.7c-5.6-2.9-11.6-13.3-11.8-14.9c-0.2-1.5,1.2-4.6,1.3-6.2c0.1-0.6,0.7-5.4,1.5-5.5
					c2.1-0.3,0.6,7.4,0.8,9.7c0.2,2.3,9,12.9,9.9,14.1C114.3,175.4,118.7,175.1,117.4,176.6z"/>
				<path d="M97.7,163.1c0.3-0.8-1.7-5.7-1.9-7.1c-0.1-1.4-0.1-3.6-0.1-4.6c0.1-0.9-0.3-4.6-0.1-6.2c0.1-1.5,1.1-6.2,0.7-7
					c-0.4-0.7-1.2,0.2-2.7,8.1c-1.6,7.9-1,8.7-0.6,10.2c0.4,1.5,1.9,13,2.7,15c0.8,2,0.7,3.3,1.8,4.3c1,1,3.4,3.8,4.2,4.1
					c0.9,0.3,1.7-0.6,1.2-1.7c-0.5-1-4.6-2.6-5.3-5.6c-0.7-2.9-2.2-11.4-2.3-12.3C95.2,159.6,96.9,165.2,97.7,163.1z"/>
				<path d="M148.7,186.8c-0.5-0.1-2.5,0.5-3.5,1.2c-1,0.7-1.8,1.1-1.8,1.1s0.3-1.3,0.6-2.1c0.3-0.9,0.9-1.9-0.2-1.5
					c-1.1,0.4-5.4,4.7-8.4,4.9c-2,0.1-14.4-4.4-16.1-2.6c-1.7,1.8,0.2,1.2,1.1,1.5c0.9,0.3,15,4.3,16.4,4.3c1.5,0,3.4,0.8,6.5-1.6
					C146,189.8,149.6,187,148.7,186.8z"/>
			</g>
		</g>
		<g>
			<g>
				<g>
					<path d="M153.7,130.1c-2.7,14.2,1.3,28.1,3.2,33.7c3.1,6.4,5.6,9.9,11.1,14.4c3.9,3.2,8.9,3.3,13.5,4.6
						c4.9,1.4,9.6,3.3,14.4,5.1c6.3,2.4,15.6,4.4,21.8,0.4c-7.9-2.2-10.2-7.2-12-9.4c-1.8-2.2,0.4-8.4,0.4-8.4
						c7.5-22.3-4.8-34.6-5.8-37.7c13.8,3.2,21.7,1.9,25.6-1c9.6-5.1,18.1-13.8,23.3-23.4c2.2-4.1,4.4-8.1,2.8-12.8
						c-1.2-3.6-4.6-5.9-7.8-7.3c-5.4-2.4-12.3-4.6-18.3-3.9c-15.9-0.9-30.2,8.8-29.7,7.8c0.6-1,2.4-10-4-13c1.1-3.4,4.7-5.6,4.7-5.6
						c3.1,1.8,6.9-1.1,5.5-4.1c-2.2-3.4-6.4-1.8-7.1,1.2c-3,1.2-6.4,3-8.4,4.6c-0.4-0.8,0.4-4.2,0.4-4.2s-1.7,2.9-1.8,2.2
						c0-0.7-0.2-1.5,0.2-3.3c-1.6,0.7-4.8,4.8-4.8,4.8c0.5-1.2-2.7-6.9-4.9-8.1c2.1-2.9-2.6-7.3-5.9-4.2c-3.5,3.3,0.4,7.3,2.5,7
						c3.4,1.5,3.6,8.9,2.7,8.9c-0.9,0-5.7,2.6-6.7,11.2c0,0,0,0.5-0.2,0.2c-1.2-1.4-5.5-9.8-19.8-17.8c-5.9-3.5-9.4-3.7-16.2-4.2
						c-4.1-0.3-9.9,1.8-12.9,4.3c-4,3.4-3.7,8-3.4,12.7c0.8,11,5.4,22.8,12.9,32.1c2.6,4.5,7.4,8.8,23.4,12.8L153.7,130.1z"/>
				</g>
				<path class="st2" d="M200.8,95c29.2-17.3,45.2-2,46.2,0c1.1,1,4.3,5.6-0.4,11.9c-4.7,6.3-18.8,32-47.2,23
					c-0.4-0.8,0.8-1.3,1.4-1.3c0,0,4.6-0.8,3.2-4.6c-4-2.5-2.1-4.7-0.2-4c1.5,0,13.1,4.8,14.3,4.7c1.1-0.1,0.7-0.8,0.8-1.3
					c0.1-0.5-3.5-1.5-3.8-2.1c-0.2-0.6,1.2-1.2,1.2-1.2l4.4-1.8c0,0-0.9-1.8-1.7-2.4c-0.8-0.6-6.6,4.2-7.9,4
					c-1.2-0.3-7.7-1.9-8.5-2.6c-0.8-0.7,2-4-0.7-5.9c2.8-0.3,12.8-1.1,13.3-0.9c0.5,0.1,5.2,0.8,5.2,0.8s5.4-1.2,6.1-1.1
					c0.7,0.2,4.5,0.4,4.5,0.4s0.9-2.2-0.1-3c-0.9-0.8-7.5,0.4-8,0.3c-0.5-0.1,0.5-5.8,0.5-5.8s-2.7,0-3.1,0.8
					c-0.4,0.8-0.1,4.8-3.1,4.8c-3,0.1-16.6,1.1-17.4,1.2c-0.7,0,0.4-4.5,0.6-5c0.1-0.5,16.6-5.9,20.1-5.3c3.6,0.6,17,4.8,17.9,5.6
					c0.9,0.7,1.6-2.1,1.4-2.8c-0.2-0.8-3.3-1.8-3.3-1.8s2.9-0.8,3.1-1.5c0.2-0.7,0.3-2-0.8-2.4c-1-0.4-5.9,2.6-7,2.7
					c-1.1,0.1-6.8-0.9-6.8-0.9l5-2.8c0,0-0.5-2-1.5-2.2c-1.1-0.2-9.2,4.8-27.7,7.9C198.7,97.8,200.8,95,200.8,95z"/>
				<path class="st1" d="M198.9,120.2c-0.2,0.5-0.9,2.4,0.2,3.2c1.1,0.8,2.2,1.8,1.5,2.4c-0.7,0.6-2.4,1-2.5,1.5
					c-0.1,0.5-0.9-5.3-3.1-6.2c-0.8-0.4,2.9-4.9,1.5-7.6c-0.3-1,0.4-1.9,1.6-0.6C199.3,114.2,200.8,116,198.9,120.2z"/>
				<path class="st1" d="M168.7,149.4c3.7,1,7.6,1,11.2,0.5c2.8-0.4,5.6-1.1,8.1-2.4c6.4-3.2,9.3-9.6,9.2-16.7
					c0-0.5-7.1,11.9-25.5,7.1c0,0-11.1-3-14.9-8.1c-0.3-0.4-0.7,1.7-0.7,1.8c-0.3,1.9,0,4,0.5,5.8c1,3.6,3.2,6.8,6.1,9.1
					C164.5,147.9,166.6,148.9,168.7,149.4z"/>
				<path class="st1" d="M202.4,178.8c0,0-1,2-5.6,3.9c-0.9,0.1,3.7,4.9,10.4,3.8C209.1,186.1,202,184,202.4,178.8z"/>
				<path class="st1" d="M201.1,144.8c-8.5,22.8-37.1,18.6-38.3,18c-1.4-0.7-1.7,1.1,1.4,2.5c24.6,8.7,38.7-11.4,38.4-18.9
					C202.7,144.9,201.9,143.7,201.1,144.8z"/>
				<path class="st1" d="M205.3,155.8c-4.4,20.7-26.6,23.2-28.1,22.4C191.5,183.8,207,170.1,205.3,155.8z"/>
				<path class="st1" d="M171.3,123.1c3.1,1.4,6.5,2.5,9.9,2.6c4.1,0.1,9-1,11.3-4.7c0.2-2,0.7-4.5,0.7-4.5c-1.5,0-6.6,9.3-21.6,1.3
					c0,0-5.1-2.7-5.6-3.4c-0.5-0.6-1.8,1.4-2,1.7c-0.6,1-1,1.9-0.1,2.8c1.4,1.4,3.9,2.5,5.8,3.4
					C170.3,122.6,170.8,122.9,171.3,123.1z"/>
				<path class="st2" d="M194.1,92.8c-0.1,0.4,2.2-8.1-2.6-9c-4.2-0.8-4.6,7.9-4,9.4c1.1,0,1.9-0.3,1.9-0.3s0.2-3.9,2.2-4.3
					c2-0.4,1.6,3.3,1.5,4.1C192.9,93.5,194.1,92.8,194.1,92.8z"/>
				<path class="st2" d="M177.9,93.2c0,0,3.7-9.8-1.9-10.4c-4.3-1.2-5.7,7.7-5.4,8.2l1.4,0.4c0,0,1.1-4.9,3.6-3.6
					c1.9,0.6,0.7,4.4,0.4,4.9L177.9,93.2z"/>
				<path class="st2" d="M194.9,73c0,0-3.8,2.8-5.8,4.8c0,0-1.3,1.4-2.1,2.4c-0.3,0.4-1.6-0.5-1.1-1.4c0.6-0.9,5.2-4.7,7.9-5.9
					C196.7,71.6,194.9,73,194.9,73z"/>
				<path class="st2" d="M175.3,68.9c0,0,2.1,3.9,2.9,6.6c0,0,0.4,1.5,0.6,3.8c0,0.5,1.7,0.3,1.6-0.8c-0.1-1-2.3-6.9-4.2-9.2
					C174.3,66.9,175.3,68.9,175.3,68.9z"/>
				<path class="st1" d="M174.6,66.1c-0.2,0.9-1.1,1.6-2,1.4c-0.9-0.2-1.5-1.1-1.3-2.1c0.2-0.9,1.1-1.6,2-1.4
					C174.2,64.2,174.8,65.1,174.6,66.1z"/>
				<path class="st1" d="M200.9,71.1c-0.2,1-1.1,1.6-2.1,1.4c-0.9-0.2-1.5-1.1-1.3-2.1c0.2-1,1.1-1.6,2-1.4
					C200.5,69.2,201.1,70.1,200.9,71.1z"/>
				<path class="st2" d="M165.5,92.6c-22.1-29.7-38.3-19.8-40.3-18.4c-1.6,0.3-7.2,2.8-5.4,10.7c1.3,5.3,2.2,10.7,4.2,15.8
					c2.5,6.4,6.1,12.3,11.1,17c2.9,2.8,6.3,4.3,9.9,6.1c2.1,1,4.9,2.1,7.1,2.7c0.1,0,1.6,0.1,1.7,0.1c0.9-2.6-5.8-3.7-4.6-8
					c0.3-1.1,1.5-1,1.6-2.2c0.1-1.2-3.8-3.1-4.7-3.3c-1.5-0.8-6.2-0.9-7.3-1.6c-1.1-0.7-0.4-1-0.2-1.5c0.1-0.5,4.9,1.3,5.4,0.9
					c0.5-0.4-0.1-0.9-0.1-0.9l-3.8-3.8c0,0,1.4-1.1,2.5-1.1c1.1-0.1,8.3,7.8,9.7,8.2c1.4,0.4,0-3.2,0.5-4.2c1-2,0.4-1.6,2.5-3.7
					c-2.8-1.7-3.9-1.9-4.5-2.1c-0.6-0.2-5.8-1.9-5.8-1.9s-5.1-3.7-5.9-3.9c-0.8-0.2-4.9-1.8-4.9-1.8s0.2-2.4,1.5-2.6
					c1.3-0.2,7.6,4,8.2,4.2c0.6,0.2,2.2-5.4,2.2-5.4s2.9,1.3,2.9,2.2c0,0.9-2.2,4.3,0.9,5.8c3.1,1.5,6.1,3.4,6.8,2.9
					c1.7-1.3,4.3-1.6,4.4-2.1c0.1-0.5-7.1-7.8-10.9-9.5c-5-2.1-17.9-5.4-20.6-4.9c-1.3,0.2-0.6-2.6,0-3.2c0.6-0.6,4.3,0,4.3,0
					s-2.7-2.2-2.5-2.9c0.2-0.7,0.7-1.9,2-1.7c1.3,0.1,4.9,5.2,6,5.8c1.1,0.7,7.5,2.5,7.5,2.5l-3.9-4.9c0,0,1.5-1.5,2.7-1.2
					c1.2,0.3-0.7,4.5,17.2,16.4C166.3,96.2,165.5,92.6,165.5,92.6z"/>
				<path class="st1" d="M156.9,113.5c0.2,0.6,0.3,1.9-1.2,2.8c-1.5,0.9-3,2.5-2.2,3.2c0.8,0.7,3.2,1.9,3.3,2.4c0.1,0.6,2-6.5,5-7.4
					c1.1-0.4-3.4-5.6-1.3-8.6c0.5-1.1-0.4-2.2-2-0.7C156.9,106.7,154.9,108.7,156.9,113.5z"/>
			</g>
			<g>
				<path d="M166.2,99.5c-3,6.9,6.8,16.1,12,17.6c9.8,2.4,20.7-7.5,19.7-16.7c-2.1-7.5-11-5.1-11.6-4.5c-0.5,0.6-0.9,0.4-1.4,0
					c-0.5-0.4-2.3-1.1-3.2-1.1c-1-0.1-0.8,1.3-1.2,2.1c-0.3,0.8-1.3,1.4-1.4,0.9C178.4,95.7,169.3,92.7,166.2,99.5z"/>
				<path class="st2" d="M166.2,99.5c-3,6.9,6.8,16.1,12,17.6c9.8,2.4,20.7-7.5,19.7-16.7c-2.1-7.5-11-5.1-11.6-4.5
					c-0.5,0.6-0.9,0.4-1.4,0c-0.5-0.4-2.3-1.1-3.2-1.1c-1-0.1-0.8,1.3-1.2,2.1c-0.3,0.8-1.3,1.4-1.4,0.9
					C178.4,95.7,169.3,92.7,166.2,99.5z"/>
				<path d="M191.8,98.6c-2.8-2.1-2,1.1-2.6,1.6c-5,3.7-16,1.1-16.1,0.5c-0.2-5.5-3.8-0.3-3.7,0c-1.7,3,2,2.4,2.6,2.6
					c8.8,18.6,17.8,3.6,18.5,0.2c0.8-2,1.7-2.1,2.6-2.3C194.5,100,193.7,99.3,191.8,98.6z M181.2,110.1c-3.1,0-6.5-5.5-7.1-7.3
					c-0.1-0.3,8.2,3.6,14.1-0.1C189.3,102.6,184.9,110.5,181.2,110.1z"/>
			</g>
		</g>
		<g>
			<g>
				<path class="st3" d="M243,99.6c-4.6,1.5-9.9,5.2-12.4,7.3c-3.5,3-2.3,4.5-6,10.1c-3.8,5.6-4.9,19.9-4.4,22.5
					c0.6,2.6-2.2,8.6-5.3,12.2c-3.1,3.6-6.7,9.6-7.5,12.1c-0.8,2.5-0.8,1.7-4.7,3.2c-3.9,1.5-13.3,11.7-17.8,17.7
					c-4.4,6-7.5,5.8-16.4,6.2c-8.9,0.3-14.4,2.7-16.4,4.5c-0.8,0.7-0.9,2-0.3,3.6c1,2.6,3.8,5.7,8.7,7.9c7.9,3.5,25.3,0.6,31.5-3
					c6.2-3.5,22.2-6.6,24.4-7.3c2.2-0.7,6-5.5,7.2-5.7c1.2-0.2,3.2-0.4,5.4-2.7c2.2-2.3,3.8-4.8,14.7-11.5
					c10.9-6.7,13.1-28.5,13.6-33c0.6-4.4,1.6-12,9.3-21.3c3.2-3.8,1.7-7.5-1.5-10.7l-1.6-1.5c-0.5-0.4-1-0.8-1.5-1.2
					c-0.8-1-1.3-2.1-2.5-3.3c-0.3-0.3-0.7-0.7-1.1-1c0,0,0,0,0,0c0.4-0.2,1-0.5,1-0.5c0.1-0.1,0.2-0.2,0.3-0.3
					c0.1-0.1,0.7-1,0.9-2.6c0.3-2.2,0.3-4.4,0.1-6.5c-0.2-2.1-0.7-4.2-1.1-6.3l-0.7-3.2c-0.1-0.6,0.7-4.8,1-5.6
					c0.1-0.1,0.2-0.2,0.2-0.3c0.1-0.2,0-0.4-0.1-0.6c-0.1-0.2-0.3-0.3-0.5-0.4l-0.5-0.2l-0.3-0.1c-1.6-0.5-3.5-1.1-5.1-0.9
					c-0.4,0.1-0.7,0.4-0.7,0.7c-0.4,3.7,1.3,8.7,2.9,13.6l0.9,2.8c0.9,2.9-0.1,6-1.1,8c-0.1,0.2-0.2,0.4-0.3,0.5l-2.9-0.9
					c0,0-0.4-3.2-3.7-3.4C249,98.6,245.3,98.5,243,99.6z"/>
				<path d="M167.9,209.6c-3.2-0.2-5.9-0.7-7.9-1.6c-4.6-2-8.2-5.3-9.5-8.7c-0.5-1.2-0.6-2.4-0.4-3.3c0.2-0.7,0.5-1.3,1-1.8
					c2.3-2.1,8.2-4.6,17.4-4.9l0.9,0c8-0.3,10.4-0.4,14.3-5.6c4.6-6.1,14.2-16.5,18.4-18.1c1.1-0.4,1.9-0.7,2.5-0.9
					c1-0.3,1-0.3,1.4-1.4c0.8-2.5,4.5-8.7,7.8-12.6c2.2-2.6,4.3-6.4,4.9-9.2c0.2-1,0.2-1.5,0.1-1.8c-0.5-2.1,0-8.9,1.3-14.8
					c0.9-3.9,2-6.8,3.3-8.8c1.6-2.4,2.3-4,2.8-5.3c0.7-1.7,1.3-3.2,3.5-5.1c1.5-1.3,4.1-3.5,7.4-5.1c0,0-0.3-0.1-0.4-0.1
					c-0.5-0.1-5.1-2.4-3.6-3.1c0.5-0.2,1.4,0.1,2,0.1c0.9,0.1,1.9,0.1,2.8,0.2c0.1,0,0.1,0,0.2,0c1.2,0.1,3.6-0.2,5.9-0.5l0.8-0.1
					c2.2-0.3,4.1-0.6,5.1-0.6h0.1c2.5,0.1,3.6,2.8,4,4.2l0.9,0.3c0.4-0.8,0.7-1.7,0.8-2.4c0.3-1.4,0.3-2.8-0.1-4
					c-0.7-2-0.9-2.6-0.9-2.8c-1.7-5-3.4-10.2-3-14.1c0-0.1,0-0.2,0-0.2c0.2-0.9,1-1.6,2-1.7c0.4,0,0.8-0.1,1.3,0
					c1.5,0.1,3.1,0.6,4.4,0.9l0.3,0.1c0.3,0.1,0.4,0.1,0.6,0.2c0.6,0.2,1.1,0.6,1.4,1.1c0.3,0.5,0.3,1,0.2,1.5c0,0.1,0,0.1,0,0.1
					c-0.1,0.2-0.2,0.4-0.3,0.6c0,0.1-0.1,0.4-0.3,1c-0.3,1.4-0.6,3.3-0.6,3.7c0.1,0.6,0.6,3.2,0.6,3.2c0.4,2.2,0.9,4.3,1.1,6.4
					c0.3,2.5,0.3,4.7-0.1,6.8c0,0.2-0.1,0.4-0.1,0.6c-0.3,1.4-0.9,2.3-1,2.5c-0.1,0.1-0.1,0.2-0.2,0.3c0.7,0.7,1.2,1.4,1.6,2
					c0.2,0.4,0.5,0.7,0.7,1l1.2,0.9c0.9,0.3,1.8,0.4,2.7,0.5c0.6,0.1,1.3,0.1,2,0.2c0.6,0,1.1,0,1.6,0l0.1,0c0.2,0,0.5,0,0.8,0
					c0.7,0,1,0.3,1.2,0.7l0.1,0.2l-0.1,0.2c-0.7,1.1-3,1.6-3.3,1.6c-0.1,0-0.6,0.2-1.4,0.3c1.7,2.3,2.3,4.7,1.8,6.9
					c-0.3,1.3-0.9,2.5-1.9,3.7c-4.3,5.2-7,10.4-8.3,15.9c-0.4,1.8-0.6,3.4-0.8,4.6l-0.1,0.8c-0.5,3.8-1.1,7.4-1.8,10.7
					c-2.6,11.5-6.7,19.1-12.4,22.6c-9.6,5.9-11.8,8.5-13.7,10.5l-0.7,0.8c-2.4,2.6-4.7,2.9-6.1,3.1l-0.1,0c-0.4,0.2-1.6,1.4-2.1,1.9
					c-1.7,1.6-3.4,3.3-4.9,3.7c-0.5,0.2-1.7,0.4-3.3,0.8l-0.2,0c-5.6,1.3-16,3.7-20.6,6.3C188.2,207.6,177,210.1,167.9,209.6z
					 M248.1,99.9c-0.6,0-1.3,0-2.1,0.1c-2.9,0.5-6,1.7-9.5,3.9c-1.7,1.1-3.2,2.4-4.7,3.7l-0.3,0.2c-1.7,1.4-2.1,2.4-2.7,4
					c-0.6,1.4-1.3,3.2-3.1,5.8c-1.1,1.6-2.1,4.3-2.8,7.6c-1.3,5.8-1.6,12.4-1.3,13.8c0.2,0.8,0.1,1.9-0.1,3c-0.7,3.2-3,7.4-5.5,10.3
					c-3,3.5-6.5,9.3-7.2,11.6c-0.7,2.3-1.3,2.6-3.2,3.3c-0.5,0.2-1.3,0.4-2.3,0.8c-3.4,1.3-12.8,11.4-17.1,17.2
					c-4.7,6.3-8.4,6.5-16.6,6.7l-1,0c-9,0.3-13.9,2.7-15.5,4.1c-0.1,0.1-0.1,0.2-0.2,0.3c-0.1,0.4,0,1.1,0.3,1.8
					c0.8,2.1,3.3,5.1,8,7.1c1.7,0.7,4,1.2,6.8,1.4c8.5,0.5,19.1-1.9,23.3-4.3c5-2.8,15.7-5.3,21.4-6.6c1.5-0.3,2.8-0.7,3.3-0.8
					c0.9-0.3,2.6-1.9,3.8-3.1c1.8-1.7,2.7-2.5,3.6-2.7l0.2,0c1.1-0.2,2.6-0.4,4.3-2.2l0.7-0.7c2-2.2,4.4-4.9,14.3-11
					c5-3.1,8.7-10.1,11.1-20.7c0.7-3.2,1.3-6.7,1.8-10.5l0.1-0.8c0.2-1.3,0.4-2.9,0.8-4.8c1.4-6.1,4.3-11.7,8.9-17.2
					c0.7-0.8,1.1-1.7,1.3-2.6c0.4-2-0.4-4-2.7-6.3c-1.2-1.3-2.5-2.5-3.8-3.7c-0.6-0.5-0.9-1.2-1.4-1.8c-0.5-0.5-3.8-3.2-3.6-3.8
					c0.7-1.8,3.5,0.7,3.1,1.1c-0.1,0,0.1-0.1,0.2-0.1c0.9-0.7,1.2-3.1,1.4-3.8c0-0.1,0.1-0.3,0.1-0.5c0.3-1.9,0.3-2.4,0.1-4.7
					c-0.2-2-0.6-4.5-1-6.6l-0.5-2l-0.7-2.5c-0.1-0.7,0-1.9,0.3-3.3c0.1-0.6,0.3-1.1,0.4-1.4l-0.2,0c-1.1-0.3-2.5-0.8-3.7-0.8
					c-0.1,0-0.2,0-0.3,0c-0.2,3.4-0.6,5.1,0.9,9.6c0.9,2.8,1.5,4.6,1.5,4.6c0.5,1.6,1,4.6,0.6,6.5c-0.3,1.4-0.4,2.6-1.2,3.7
					c-0.5,0.6-0.5,1.2-1.3,1.1c-0.6,0-1.1-0.2-1.7-0.4c-0.1,0-0.2-0.1-0.3-0.1c-0.5-0.2-1-0.4-1.4-0.8c-0.3-0.4-0.4-0.8-0.6-1.1
					c-0.1-0.1-0.1-0.3-0.2-0.5c-0.2-0.4-0.6-0.7-1.2-1C249.3,100.1,248.7,99.9,248.1,99.9z"/>
				<path class="st0" d="M240.6,107.8c-1.4-0.4-3,1.1-3.7,3c-0.8,1.9-2.1,3.1-3.2,3.6c-1.1,0.4-4.1,5.8-5,8.7
					c-0.9,2.9-1.2,8.3-1.3,10.7c0,2.4-1.5,6.3-3.4,8.1c-1.9,1.8-0.1,2.1,0.8,1.8c0.9-0.4,4.1-1.6,5.6-3.5c1.6-1.9,1.3-3.9,1.2-5.9
					c-0.1-2.1-1.3-3.7-0.2-6.2c1-2.5,1.7-5.9,1.6-7.4c-0.1-1.5,3.1-0.9,5.5-3.2C240.9,115.3,245.4,109.2,240.6,107.8z"/>
				<path class="st0" d="M222.9,150.4c-0.7,0.2-1,0.2-3.1,1.6c-2.1,1.3-5.5,4.4-6.6,6.9c-1.2,2.5-3.9,5.8-1.8,5.5
					c2.1-0.2,11.2-2.1,9.4-2.8c-1.8-0.7-5.4,0-4.4-1.9c1-1.9,4.3-4.9,6-6C224.1,152.5,225.1,149.8,222.9,150.4z"/>
				<path class="st0" d="M211.3,170.5c-1.3-0.1-2.4-0.2-5.9,2.1c-3.6,2.3-3.9,2.9-5.4,4.8c-1.5,1.9-3.4,4.3-6.4,5.3
					c-3,1-3.1,2-5.9,4.6c-2.8,2.6-1.7,2.7-6,4.4c-4.2,1.7-5.4,1.8-8.5,2.2c-2.5,0.3-4.8,1.4-7.3,1.4c-2.7,0-5.3-0.4-8-0.1
					c-0.9,0.1-2.7,0.3-2.9,1.3c-0.4,1.5,3.1,3.3,4.4,3.2c1.1-0.1,2-1,3.1-1.3c2.2-0.7,5.9-1.6,8.7-1.8c2.8-0.2,7-1.4,9.9-2.4
					c3-1,9.2-2.1,10.9-4.8c1.7-2.7,4.2-5.8,6.6-6.8c2.4-1,3.9-1.7,4.7-3.3c0.8-1.5,3.3-4.5,5.9-5.1
					C211.7,173.5,215.9,170.7,211.3,170.5z"/>
				<path class="st0" d="M203.6,180.6c-2.2,0.8-3.4,3.2-1.2,3.1c2.2-0.2,4.4-1.9,4.5-3.5C207,178.6,203.6,180.6,203.6,180.6z"/>
				<path class="st0" d="M237,129.2c-1.5,0.9-3.1,3.7-3.6,5.8c-0.5,2.1,1.2,5,2.6,2.4c1.5-2.6,3.7-5,4.3-6.2
					C241,130,241.2,126.8,237,129.2z"/>
				<path class="st0" d="M183.5,196.9c0,0-16,3.7-18.9,2c-2.2-1.3-5.3-3-7.9-3.1c-1.4-0.1-1.9,1-1.2,2.1c0.6,1.1,2.1,1.8,3.2,2.3
					c2.5,1.1,5.8,1.9,8.5,2.1c2.3,0.1,4.8,0.1,7-0.3c0.9-0.2,1.7-0.7,2.7-0.3c-0.1,0.1-0.2,0.2-0.3,0.2c-2.4,0.9,3,2.5,7.3,0.4
					c4.3-2.2,12.1-8.5,9.6-9.5C191.1,191.9,188.6,194.3,183.5,196.9z"/>
				<path class="st0" d="M257.9,108.9c0,0,0.1,0,0.1,0c1.2,0.1,2.6,2.3,3.1,3.3c1.5,2.5,2.9,5.4,1.4,8.1c-1.3,2.3-3.3,4.1-4.3,6.5
					c-1.1,2.7-5.2,16-5.7,22.1c-0.6,6.1-5.2,21.3-17.2,28c-7.7,4.7-10.1,9.8-11.1,10.3c-1,0.5-4.4,0.6-4.4,0.6s-3.5,4.8-5.5,5.8
					c-2,1-7.4,1.7-8.9,1.9c-1.5,0.1-14.1,4.7-18.2,6.4c-3.5,1.4-7.5,1.9-11.2,2.4c-2.3,0.3-4.7,0.4-7,0.6c-0.8,0.1-1.8,0.3-2.5-0.2
					c-0.7-0.5-0.6-0.7,0.3-0.9c2.2-0.4,4.5-0.4,6.8-0.6c3.9-0.4,8.5-0.7,12.1-2.4c5.1-2.5,13-6.6,16.2-7.3c3.2-0.6,8.3-0.7,10.9-2.9
					c2.6-2.2,4.7-4.4,5.5-5.2c0.9-0.7,5.5-0.5,7.3-3.6c1.9-3.1,7.2-8.1,10.4-10.3c3.3-2.2,13.1-13.1,12.8-16.1
					c-0.3-2.9-3.4,1.4-5.9,3.2c-2.5,1.8,3.1-4.9,4.7-7.2c1.6-2.3,2.9-3.6,2.7-7.5c-0.2-3.9,0-7.7,1.3-10.1c1.2-2.4,5.2-8.1,6.5-10.5
					c2-4,4.2-8.1,0-11.5C257.3,111.4,255.5,108.8,257.9,108.9z"/>
				<path class="st0" d="M246.8,139.3c0,0-4.3,3.1-2.9,6.3c1.4,3.2-0.2,8.2-2,10.7c-1.8,2.4-4.5,3.5-6.8,5.4
					c-2.3,1.9-1.4-0.8,1.2-3.6c2.7-2.8,4.8-6,5-9.5C241.6,145.1,245.7,136,246.8,139.3z"/>
				<path class="st0" d="M229.4,171c0,0-3.3,7.5-8.1,10c-4.8,2.4-7.5,2.8-7.5,2.8s2.4-2.7,5.1-4.1c2.8-1.4,6.9-6.2,7.3-7.7
					C226.8,170.4,229.5,170,229.4,171z"/>
				<path class="st0" d="M178.8,199.3c-0.7,0.1-1.4,1.1-2.9,1.3c-1.1,0.2-2.5,0.2-4.2-0.3c-4.1-1-8.6-0.3-6.8,0.6
					c1.8,0.9,9.4,2.4,12.9,0.7C181.3,199.9,181.1,198.8,178.8,199.3z"/>
				<path class="st0" d="M260.8,111.4c-1-1-2.9-4.1-3.7-4.3c-0.4-0.2-1-0.7-1.7-0.8c-0.3-0.2-1.4-0.7-2.3-0.8
					c-1.1-0.2-1.8,1-3.2,2.2c-0.5,0.5-0.2-0.7-0.3-0.3c-0.2-0.8-0.4-0.3-0.1-1.1c0.2-0.7,0-0.9,0.5-1.4c0.2-0.2,0.6-1.2,0.9-1.2
					c0,0-0.3,0.1-0.8,0.2c0.5-1-1.7-2.4-2.4-2.5c-0.8-0.1-4-1.7-4.9-1.4c-0.8,0.3-5.4,1.4-4.8,2.5c1.2,0.5,4.4,1.3,5.6,1.3
					c0.7,0,2-0.1,2.5,0.4c0.8,0.8-0.2,2-0.1,3c0.2,2,1.3,4.1,2.4,5.8c0.7,1,1.9,3.4,3.2,3.6c0-1.7,0.2-3.4,0.8-5
					c0.4-1,0.9-2.2,1.9-2.5c1.3-0.3,1.6,0.2,2.5,1.1c1.7,1.6,1.7,3.7,4.2,2.9C259.5,112.6,261.7,112.4,260.8,111.4z"/>
				<path class="st2" d="M262.7,109.6c-1.3-1.1-1.8-2.4-3.3-3.7c-1.5-1.3-3.4-2.4-3.4-2.4l-3.3-0.9c-0.3-1.6-0.9-3.3-2.6-3.9
					c-1-0.4-1.9,0.1-2.9,0.2c-1,0.1-1.9,0.3-2.9,0.4c-0.6,0-1.2,0.1-1.8,0.2c-1.2,0.1-3.3,0.5-4.4-0.1c0,0,0.1,0,0.1,0.1
					c-0.2,0-0.5-0.1-0.6-0.1c0.4,0.2,1,0.4,1.7,0.6c1.8,0.7,5.5,1.1,7.6,1.5c2.5,0.5,3.3,2.5,3.3,2.5s-2,1.9-1.3,4
					c0.6,2.1,1.7,3.8,1.7,3.8s-0.2-1.5,0.7-3.1c1-1.9,2-3,3.2-2.7c1.2,0.3,1.2,0.6,2.2,1.3c1,0.7,1.7,3.5,4.3,4.4
					c2.8,0.9,8.7-0.8,8.7-0.8S264,110.7,262.7,109.6z"/>
			</g>
			<path class="st0" d="M264.3,111.6c0,0-3.1,0.2-4.1-0.3c-1-0.5,0.4,1.3,0.4,1.3s3.7,0.1,4.1-0.1
				C265,112.4,264.3,111.6,264.3,111.6z"/>
		</g>
	</g>
</g>
</svg>
